<?xml version="1.0" standalone="no"?>
<!DOCTYPE svg PUBLIC "-//W3C//DTD SVG 1.1//EN" "http://www.w3.org/Graphics/SVG/1.1/DTD/svg11.dtd" >
<svg xmlns="http://www.w3.org/2000/svg" xmlns:xlink="http://www.w3.org/1999/xlink" version="1.1">
<metadata>
Created by FontForge 20170731 at Wed Apr 29 08:17:11 2020
 By Aleksey,,,
Copyright (c) 2020 by Brent Anderson.
</metadata>
<defs>
<font id="PulpDisplay-Outline" horiz-adv-x="837" >
  <font-face 
    font-family="Pulp Display Outline"
    font-weight="400"
    font-stretch="normal"
    units-per-em="1000"
    panose-1="0 0 8 0 0 0 0 0 0 0"
    ascent="800"
    descent="-200"
    x-height="499"
    cap-height="719"
    bbox="-75 -256 1106 923"
    underline-thickness="50"
    underline-position="-200"
    unicode-range="U+0020-20AC"
  />
<missing-glyph horiz-adv-x="638" 
d="M40 -17v737h558v-737h-558zM60 3h518v697h-518v-697zM158 212l94 138l-94 138v-276zM138 146v406l138 -202zM217 593l100 -147l100 147h-200zM179 613h276l-138 -203zM220 111h194l-97 142zM182 91l135 198l135 -198h-270zM382 350l98 -144v288zM358 350l142 208v-416z
" />
    <glyph glyph-name=".notdef" horiz-adv-x="638" 
d="M40 -17v737h558v-737h-558zM60 3h518v697h-518v-697zM158 212l94 138l-94 138v-276zM138 146v406l138 -202zM217 593l100 -147l100 147h-200zM179 613h276l-138 -203zM220 111h194l-97 142zM182 91l135 198l135 -198h-270zM382 350l98 -144v288zM358 350l142 208v-416z
" />
    <glyph glyph-name=".null" horiz-adv-x="0" 
 />
    <glyph glyph-name="nonmarkingreturn" horiz-adv-x="333" 
 />
    <glyph glyph-name="space" unicode=" " horiz-adv-x="250" 
 />
    <glyph glyph-name="exclam" unicode="!" horiz-adv-x="277" 
d="M77 228l-14 490h154l-13 -490h-127zM97 248h87l13 450h-114zM139 -20q-41 0 -70 29t-29 70q0 40 29 69t70 29q40 0 69 -29t29 -69q0 -41 -29 -70t-69 -29zM139 0q32 0 55 23.5t23 55.5t-23 55t-55 23t-55.5 -23t-23.5 -55q0 -33 23 -56t56 -23z" />
    <glyph glyph-name="numbersign" unicode="#" horiz-adv-x="720" 
d="M40 178l24 124l112 -2l13 88h-118l23 126h113l28 180h133l-27 -181h91l29 180h129l-26 -179l116 -1l-18 -126h-115l-13 -87h116l-21 -122h-114l-31 -192h-127l26 192h-91l-31 -195l-131 2l29 194zM64 198l119 1l-29 -194l89 -2l31 195h131l-26 -192h87l31 192h116l13 82
h-114l17 127h115l12 86l-116 1l26 179h-87l-29 -180h-133l27 181h-91l-28 -180h-115l-15 -86h116l-17 -128l-114 2zM308 299l96 1l13 89h-96zM284 279l19 130h138l-19 -129z" />
    <glyph glyph-name="dollar" unicode="$" horiz-adv-x="582" 
d="M230 -88v67q-72 19 -121.5 75.5t-68.5 142.5l131 34q12 -54 40.5 -82.5t77.5 -35.5q43 -7 73 12t31 53q1 35 -29 59t-123 62q-177 72 -177 219q0 68 45 118.5t122 67.5h-1v66h129v-70q62 -17 108 -59t65 -100l-124 -50q-16 46 -58.5 67.5t-92.5 7.5q-56 -14 -42 -72
q4 -18 27 -37t52 -31q132 -48 190 -104.5t58 -136.5q0 -81 -49 -136.5t-134 -71.5v-65h-129zM250 -68h89v62q85 10 134 62t49 129q0 74 -54 125.5t-180 97.5q-27 10 -57 33t-36 49q-8 35 7 61t49 35q52 13 98.5 -6t69.5 -63l87 35q-22 50 -66 84.5t-101 47.5v66h-89v-64
l-15 -2q-70 -16 -110.5 -60.5t-40.5 -105.5q0 -68 40 -117t125 -84q92 -38 128.5 -66t35.5 -73q-1 -44 -38 -68.5t-90 -16.5q-100 16 -128 114l-93 -24q45 -160 186 -188v-63z" />
    <glyph glyph-name="percent" unicode="%" horiz-adv-x="878" 
d="M263 -36l-103 68l457 685l100 -68zM257 -8l432 651l-66 46l-435 -651zM226 348q-78 0 -132 53.5t-54 130.5q0 76 54 128t132 52q77 0 130.5 -52.5t53.5 -127.5q0 -76 -54 -130t-130 -54zM226 368q68 0 116 48t48 116q0 67 -47.5 113.5t-116.5 46.5q-70 0 -118 -46.5
t-48 -113.5q0 -68 48 -116t118 -48zM224 466q27 0 44.5 18t17.5 45q0 25 -18 42.5t-44 17.5q-27 0 -45.5 -17.5t-18.5 -42.5q0 -28 18 -45.5t46 -17.5zM224 446q-36 0 -60 23.5t-24 59.5q0 34 24.5 57t59.5 23q34 0 58 -23t24 -57q0 -36 -23.5 -59.5t-58.5 -23.5zM654 -32
q-78 0 -132 53.5t-54 130.5q0 76 54 128t132 52q77 0 130.5 -52.5t53.5 -127.5q0 -76 -54 -130t-130 -54zM654 -12q68 0 116 48t48 116q0 67 -47.5 113.5t-116.5 46.5q-70 0 -118 -46.5t-48 -113.5q0 -68 48 -116t118 -48zM652 86q27 0 44.5 18t17.5 45q0 25 -18 42.5
t-44 17.5q-27 0 -45.5 -17.5t-18.5 -42.5q0 -28 18 -45.5t46 -17.5zM652 66q-36 0 -60 23.5t-24 59.5q0 34 24.5 57t59.5 23q34 0 58 -23t24 -57q0 -36 -23.5 -59.5t-58.5 -23.5z" />
    <glyph glyph-name="ampersand" unicode="&#x26;" horiz-adv-x="701" 
d="M633 258l-68 66l-85 -95l-240 255q-24 36 -21.5 70t31.5 56.5t68 15.5q28 -5 45.5 -26.5t20.5 -54.5l97 1q4 77 -52.5 128t-140.5 45q-67 -5 -118 -49.5t-58 -108.5t48 -136q-1 -1 -14.5 -14t-17.5 -17t-16 -17.5t-16.5 -21.5t-13.5 -23.5t-12.5 -28.5t-6.5 -31t-3 -37
q0 -107 64 -171t141 -72q43 -4 82 6t58.5 23t44 33t29.5 24l79 -76l74 68l-88 93zM661 258l-89 -95l88 -93l-102 -96l-81 78q-3 -2 -8 -7q-27 -23 -46 -37t-64.5 -27.5t-95.5 -8.5q-82 8 -152.5 78.5t-70.5 184.5q0 47 17 88t33 60t43 44q-50 76 -38 144t67 115.5t124 52.5
q99 7 162.5 -56.5t50.5 -156.5l-135 -1q2 34 -11 55t-39 26q-47 8 -68 -31t10 -77l224 -239l83 93zM410 154q-25 -40 -70 -55.5t-91 1.5q-48 17 -71 66t-11 103t56 82zM384 152l-163 172q-47 -42 -35.5 -113.5t69.5 -92.5q36 -13 71 -3.5t58 37.5z" />
    <glyph glyph-name="quotesingle" unicode="'" horiz-adv-x="251" 
d="M94 363l-52 205q-10 38 15.5 70.5t65.5 32.5q42 0 68.5 -31.5t17.5 -70.5q-5 -20 -52 -206h-63zM110 383h31q3 9 7 27q37 144 41 163q7 30 -13.5 54t-52.5 24q-30 0 -49 -25t-12 -54z" />
    <glyph glyph-name="parenleft" unicode="(" horiz-adv-x="381" 
d="M341 714q-50 -70 -76.5 -113t-50 -115t-23.5 -148q0 -226 150 -414l-113 -80q-78 80 -133 215.5t-55 272.5q0 131 50.5 242.5t137.5 221.5zM313 710l-81 58q-80 -105 -126 -209.5t-46 -226.5q0 -128 49 -254.5t121 -207.5l83 58q-142 187 -142 410q0 109 36 192t106 180z
" />
    <glyph glyph-name="parenright" unicode=")" horiz-adv-x="381" 
d="M153 -156l-113 80q150 188 150 414q0 76 -23.5 148t-50 115t-76.5 113l113 82q87 -110 137.5 -221.5t50.5 -242.5q0 -137 -55 -272.5t-133 -215.5zM151 -130q72 81 121 207.5t49 254.5q0 122 -46 226.5t-126 209.5l-81 -58q70 -97 106 -180t36 -192q0 -223 -142 -410z
" />
    <glyph glyph-name="asterisk" unicode="*" horiz-adv-x="515" 
d="M184 308l-98 73l70 97l-116 41l41 115l115 -41v123h125l2 -122l112 40l40 -118l-114 -39l72 -96l-100 -73l-76 98zM180 336l77 102l80 -102l68 49l-76 102l120 41l-26 80l-120 -42l-2 130h-85v-131l-123 43l-27 -77l122 -43l-74 -103z" />
    <glyph glyph-name="plus" unicode="+" horiz-adv-x="569" 
d="M352 25h-136v177l-176 -1v134l176 1v176h136v-177h177v-134h-177v-176zM332 45v176h177v94h-177v177h-96v-176l-176 -1v-94l176 1v-177h96z" />
    <glyph glyph-name="comma" unicode="," horiz-adv-x="283" 
d="M112 -146l-72 49l57 90q-51 28 -51 86q0 40 29 69t70 29q40 0 69 -29t29 -69q0 -35 -21 -61zM106 -118l100 148q17 22 17 49q0 32 -23 55t-55 23t-55.5 -23t-23.5 -55q0 -27 16.5 -48.5t43.5 -27.5l-58 -94z" />
    <glyph glyph-name="hyphen" unicode="-" horiz-adv-x="440" 
d="M400 377v-138h-360v138h360zM380 357h-320v-98h320v98z" />
    <glyph glyph-name="period" unicode="." horiz-adv-x="277" 
d="M139 -20q-41 0 -70 29t-29 70q0 40 29 69t70 29q40 0 69 -29t29 -69q0 -41 -29 -70t-69 -29zM139 0q32 0 55 23.5t23 55.5t-23 55t-55 23t-55.5 -23t-23.5 -55q0 -33 23 -56t56 -23z" />
    <glyph glyph-name="slash" unicode="/" horiz-adv-x="533" 
d="M40 -17l305 739h148l-303 -738zM70 3l106 1l287 698h-104z" />
    <glyph glyph-name="zero" unicode="0" horiz-adv-x="678" 
d="M339 -34q-124 0 -211.5 108.5t-87.5 263.5t87.5 263.5t211.5 108.5t211.5 -108.5t87.5 -263.5t-87.5 -263.5t-211.5 -108.5zM339 -14q116 0 197.5 103t81.5 249t-81.5 249t-197.5 103t-197.5 -103t-81.5 -249t81.5 -249t197.5 -103zM338 124q66 0 103 56.5t37 159.5
q0 98 -38 157t-102 59q-65 0 -103 -58.5t-38 -157.5q0 -101 38 -158.5t103 -57.5zM338 104q-74 0 -117.5 63.5t-43.5 172.5q0 107 44 171.5t117 64.5t116.5 -64.5t43.5 -171.5q0 -111 -42 -173.5t-118 -62.5z" />
    <glyph glyph-name="one" unicode="1" horiz-adv-x="472" 
d="M232 520l-137 -75l-55 140l217 116h135v-717h-160v536zM252 554v-550h120v677h-109l-197 -106l39 -102z" />
    <glyph glyph-name="two" unicode="2" horiz-adv-x="585" 
d="M226 106l108 103q81 78 103 104q82 99 72 198q-9 91 -77 139t-151 48q-64 0 -120.5 -39t-93.5 -109l104 -46q12 37 44 60.5t70 23.5q32 0 62.5 -21.5t41.5 -59.5t-23 -90q-23 -34 -57 -72.5t-56 -60t-89.5 -84.5t-93.5 -88v-108h455v102h-299zM276 126h269v-142h-495v136
l87 83q60 56 90 85t64.5 67.5t58.5 73.5q28 43 20.5 74t-32 48t-53.5 17q-37 0 -66.5 -27t-33.5 -65l-145 64q37 83 101.5 130.5t139.5 47.5q55 0 106.5 -20.5t93 -69t48.5 -115.5q5 -47 -7.5 -91t-41.5 -84t-52 -64.5t-62 -61.5q-4 -4 -6.5 -6t-5.5 -5l-6 -6z" />
    <glyph glyph-name="three" unicode="3" horiz-adv-x="598" 
d="M184 219q33 -104 118 -104q42 0 70 21.5t28 55.5q0 55 -37.5 74.5t-144.5 18.5v135q86 -1 123 19t37 68q0 28 -23 45t-60 17q-61 0 -94 -79l-139 58q29 74 92.5 118.5t140.5 44.5q48 0 96 -16t90.5 -60t49.5 -108q7 -63 -18.5 -104t-61.5 -61q41 -20 74 -61t33 -105
q0 -101 -69 -164t-180 -63q-57 0 -101.5 15t-76 45t-50.5 58.5t-41 71.5zM172 193l-104 -44q42 -78 94 -119t147 -41q103 0 166 57t63 150q0 33 -11 60.5t-26.5 44.5t-32 29t-28 16.5t-14.5 4.5v20q3 0 12.5 4.5t23.5 16.5t26 28.5t19.5 44t3.5 60.5q-7 59 -45 98.5
t-81.5 53.5t-89.5 14q-66 0 -122 -36t-85 -97l103 -42q38 73 104 73q46 0 74.5 -22.5t28.5 -59.5q0 -54 -38.5 -79.5t-121.5 -27.5v-95q96 -1 139 -24.5t43 -88.5q0 -42 -33.5 -69.5t-84.5 -27.5q-90 0 -130 98z" />
    <glyph glyph-name="four" unicode="4" horiz-adv-x="636" 
d="M492 4v134h84v103h-86v440h-138l-292 -438v-104h317v-135h115zM512 -16h-155v135h-317v130l302 452h168v-440h86v-143h-84v-134zM171 242l207 300v-300h-207zM209 262h149v216z" />
    <glyph glyph-name="five" unicode="5" horiz-adv-x="589" 
d="M64 159q23 -79 92.5 -125.5t157.5 -42.5q34 2 68 14t68.5 35.5t56.5 68t22 102.5t-20.5 102.5t-52.5 68.5t-65 35.5t-63 11.5q-41 0 -67.5 -7.5t-43 -17.5t-22.5 -12l16 198h277v91h-377l-24 -349l107 -38q17 20 46.5 32.5t58.5 12.5q47 0 83.5 -35.5t36.5 -81.5
q0 -57 -31.5 -93.5t-81.5 -36.5q-51 0 -84.5 24t-57.5 78zM40 172l135 47q23 -59 52.5 -83t78.5 -24q41 0 67 30.5t26 79.5q0 38 -30.5 67.5t-69.5 29.5q-29 0 -57 -14t-41 -35l-134 48l26 383h415v-131h-279l-11 -144q40 23 110 23q32 0 68 -13t71.5 -39t58.5 -74.5
t23 -111.5q0 -51 -16.5 -92.5t-41.5 -68t-57.5 -44.5t-61.5 -26t-56 -9q-101 -5 -179 51.5t-97 149.5z" />
    <glyph glyph-name="six" unicode="6" horiz-adv-x="591" 
d="M290 442q109 15 185 -50.5t76 -175.5q0 -102 -74.5 -174.5t-180.5 -72.5t-181 72t-75 175q0 52 13 97q16 47 53 106q19 30 97.5 142t107.5 154l120 -79l-136 -193q-2 -1 -5 -1zM294 422q-24 -4 -37 1l146 207l-86 57l-89 -126l-106 -152q-37 -61 -49 -102
q-13 -38 -13 -91q0 -95 69 -161t167 -66q97 0 166 66.5t69 160.5q0 101 -68.5 160.5t-168.5 45.5zM303 111q46 0 76.5 29t30.5 73t-30.5 72.5t-76.5 28.5q-47 0 -77.5 -28.5t-30.5 -72.5t30.5 -73t77.5 -29zM303 91q-55 0 -91.5 34.5t-36.5 87.5q0 52 36.5 86.5t91.5 34.5
t91 -34.5t36 -86.5q0 -53 -36 -87.5t-91 -34.5z" />
    <glyph glyph-name="seven" unicode="7" horiz-adv-x="570" 
d="M358 547h-318v154h490v-148l-239 -569h-177zM388 567l-244 -563h133l233 553v124h-450v-114h328z" />
    <glyph glyph-name="eight" unicode="8" horiz-adv-x="595" 
d="M454 361q47 -31 74 -75.5t27 -92.5q0 -101 -70 -161.5t-187 -60.5q-120 0 -189 59.5t-69 162.5q0 48 27 92.5t74 75.5q-81 58 -81 152q0 80 69 136t169 56q99 0 168 -56t69 -136q0 -94 -81 -152zM430 370q85 51 85 143q0 72 -63 122t-154 50t-154.5 -50t-63.5 -122
q0 -92 85 -143v-18q-50 -29 -77.5 -71t-27.5 -88q0 -95 63 -148.5t175 -53.5q109 0 173 54.5t64 147.5q0 46 -27.5 88t-77.5 71v18zM297 574q-36 0 -61.5 -22.5t-25.5 -53.5q0 -32 25.5 -54.5t61.5 -22.5t61 22.5t25 54.5q0 31 -25.5 53.5t-60.5 22.5zM297 594q44 0 75 -28
t31 -68t-31 -68.5t-75 -28.5t-75.5 28.5t-31.5 68.5t31.5 68t75.5 28zM297 111q49 0 77.5 23.5t28.5 63.5q0 38 -29 62t-77 24t-77.5 -24t-29.5 -62t29.5 -62.5t77.5 -24.5zM297 91q-56 0 -91.5 30t-35.5 77t35.5 76.5t91.5 29.5t91 -29.5t35 -76.5q0 -48 -34.5 -77.5
t-91.5 -29.5z" />
    <glyph glyph-name="nine" unicode="9" horiz-adv-x="591" 
d="M280 -35l-120 79l136 193q1 1 5 1q-109 -15 -185 50.5t-76 175.5q0 102 74.5 174.5t180.5 72.5t181 -72t75 -175q0 -52 -13 -97q-16 -47 -53 -106q-19 -30 -97.5 -142t-107.5 -154zM274 -7l89 126l106 152q37 61 49 102q13 38 13 91q0 95 -69 161t-167 66
q-97 0 -166 -66.5t-69 -160.5q0 -101 68.5 -160.5t168.5 -45.5q24 4 37 -1l-146 -207zM288 366q47 0 77.5 28.5t30.5 72.5t-30.5 73t-77.5 29q-46 0 -76.5 -29t-30.5 -73t30.5 -72.5t76.5 -28.5zM288 346q-55 0 -91 34.5t-36 86.5q0 53 36 87.5t91 34.5t91.5 -34.5
t36.5 -87.5q0 -52 -36.5 -86.5t-91.5 -34.5z" />
    <glyph glyph-name="colon" unicode=":" horiz-adv-x="277" 
d="M139 315q-41 0 -70 29.5t-29 69.5t29 69t70 29q40 0 69 -29t29 -69q0 -41 -29 -70t-69 -29zM139 335q32 0 55 23.5t23 55.5t-23 55t-55 23t-55.5 -23t-23.5 -55q0 -33 23 -56t56 -23zM139 -20q-41 0 -70 29t-29 70q0 40 29 69t70 29q40 0 69 -29t29 -69q0 -41 -29 -70
t-69 -29zM139 0q32 0 55 23.5t23 55.5t-23 55t-55 23t-55.5 -23t-23.5 -55q0 -33 23 -56t56 -23z" />
    <glyph glyph-name="semicolon" unicode=";" horiz-adv-x="283" 
d="M112 -146l-72 49l57 90q-51 28 -51 86q0 40 29 69t70 29q40 0 69 -29t29 -69q0 -35 -21 -61zM106 -118l100 148q17 22 17 49q0 32 -23 55t-55 23t-55.5 -23t-23.5 -55q0 -27 16.5 -48.5t43.5 -27.5l-58 -94zM145 315q-41 0 -70 29.5t-29 69.5t29 69t70 29q40 0 69 -29
t29 -69q0 -41 -29 -70t-69 -29zM145 335q32 0 55 23.5t23 55.5t-23 55t-55 23t-55.5 -23t-23.5 -55q0 -33 23 -56t56 -23z" />
    <glyph glyph-name="equal" unicode="=" horiz-adv-x="572" 
d="M40 147v139h492v-139h-492zM60 167h452v99h-452v-99zM40 347v139h492v-139h-492zM60 367h452v99h-452v-99z" />
    <glyph glyph-name="question" unicode="?" horiz-adv-x="538" 
d="M197 232q0 57 8 92t21 53t43 47q10 9 30.5 27.5t27.5 26.5t14.5 24t7.5 36q0 28 -21.5 45.5t-53.5 17.5q-35 0 -61.5 -23t-37.5 -65l-135 58q30 79 89.5 125t133.5 46q100 0 167.5 -55t67.5 -137q0 -47 -16 -85.5t-33 -57.5t-45 -42q-32 -27 -44 -56t-11 -77h-152z
M217 252h112q2 43 16 72t47 57q28 24 42.5 40t29 50.5t14.5 78.5q0 74 -61.5 123t-153.5 49q-64 0 -116 -37.5t-81 -103.5l97 -41q15 38 44.5 59.5t66.5 21.5q41 0 68 -23.5t27 -59.5q0 -24 -9.5 -44.5t-19.5 -31.5t-30 -28q-3 -3 -8.5 -7.5t-10 -8.5t-8.5 -8
q-40 -38 -52.5 -65.5t-13.5 -92.5zM276 -20q-40 0 -69.5 29t-29.5 70q0 40 29 69t70 29q40 0 69 -29t29 -69q0 -41 -29 -70t-69 -29zM276 0q32 0 55 23.5t23 55.5t-23 55t-55 23t-55.5 -23t-23.5 -55q0 -33 23 -56t56 -23z" />
    <glyph glyph-name="at" unicode="@" horiz-adv-x="893" 
d="M621 474l-77 1l2 -72q-23 39 -48 61.5t-62 26.5q-66 8 -124.5 -33t-73.5 -133q-15 -89 34.5 -151t118.5 -71q60 -8 106.5 16t65.5 74q5 -40 32 -63t70 -25q65 -4 106.5 31.5t54 90t7 115t-27.5 109.5q-47 106 -143 168t-212 62q-53 0 -106 -13t-105 -43t-91 -73
t-63.5 -108.5t-24.5 -144.5q0 -77 23.5 -141t60.5 -105t84 -70t92 -42.5t87 -15.5q95 -4 192 30l-25 66q-59 -31 -171 -26q-105 4 -186 93t-83 202q-1 121 65.5 205.5t179.5 107.5q120 23 215 -25.5t144 -158.5q30 -69 24 -123.5t-25.5 -88t-39.5 -38.5q-31 -7 -53.5 16
t-22.5 62v227zM641 494v-247q0 -29 15 -46t37 -12q16 4 31.5 32.5t19.5 77.5t-24 112q-47 104 -136 149t-201 23q-106 -21 -168.5 -100.5t-60.5 -192.5q1 -105 76.5 -188t172.5 -87q19 -3 42 -0.5t34 2t27.5 4t22.5 5t18 5.5t14.5 6t12 6.5t10.5 5.5l41 -106q-2 0 -24 -7.5
t-46.5 -15t-66 -12.5t-83.5 -3q-43 2 -89.5 16t-96.5 45.5t-89 74.5t-64.5 110.5t-25.5 147.5q0 82 26 151t68 114t96.5 77t110 46t109.5 14q122 0 223 -65.5t150 -176.5q23 -51 28 -116t-9.5 -125t-60.5 -98.5t-118 -34.5q-74 5 -105 59q-60 -75 -169 -61q-75 11 -131 80
t-40 166q11 68 50 112.5t83 59.5t87 10q51 -6 86 -41v25zM540 282q-6 -41 -37.5 -75.5t-87.5 -27.5q-33 4 -55.5 21t-31 39.5t-11 40t-1.5 31.5q1 11 7 27t18.5 36t37.5 32t58 8q50 -7 79 -44.5t24 -87.5zM520 284q5 42 -19 73.5t-66 36.5q-27 3 -47.5 -6.5t-31 -26
t-15 -29.5t-5.5 -23q-1 -12 1 -27t8.5 -33.5t25 -32.5t46.5 -17q46 -6 71.5 21.5t31.5 63.5z" />
    <glyph glyph-name="A" unicode="A" horiz-adv-x="747" 
d="M448 699l-146 1l-264 -696h129l59 165h296l58 -165h129zM462 719l275 -735h-171l-58 165h-268l-59 -165h-171l278 736zM371 594l121 -325h-242zM371 536l-93 -247h186z" />
    <glyph glyph-name="B" unicode="B" horiz-adv-x="607" 
d="M41 723h276q110 0 178 -53.5t68 -140.5q0 -68 -26.5 -103t-68.5 -57q24 -11 39.5 -20.5t36.5 -30.5t32 -55.5t11 -80.5q0 -62 -40.5 -108t-95 -67t-111.5 -21h-300zM61 703l-1 -697h280q87 0 157 46.5t70 129.5q0 53 -18 89.5t-38 50t-48.5 27.5t-36.5 20q5 3 23.5 12.5
t27.5 15t24 19t22.5 27t13.5 36t6 50.5q0 79 -62.5 126.5t-163.5 47.5h-256zM214 433q15 0 42.5 1t48.5 1.5t35 0.5q56 0 56 75q0 33 -18.5 52t-50.5 19h-114zM194 413l-1 189h134q40 0 64.5 -25t24.5 -66q0 -44 -20 -69.5t-56 -25.5q-23 0 -89 -2q-10 0 -29.5 -0.5
t-27.5 -0.5zM216 127q92 2 138 2q28 0 45.5 23t17.5 60q0 77 -77 77l-124 -1v-161zM196 107v201l144 1q46 0 71.5 -25.5t25.5 -71.5t-23 -74.5t-60 -28.5q-54 0 -158 -2z" />
    <glyph glyph-name="C" unicode="C" horiz-adv-x="818" 
d="M40 347q0 160 112 273.5t270 113.5q116 0 213.5 -68t140.5 -180l-150 -55q-31 71 -83.5 110t-119.5 39q-95 0 -157.5 -66t-62.5 -167q0 -92 63 -155t157 -63q77 0 132.5 40t71.5 108l151 -58q-28 -103 -133 -176t-223 -73q-159 0 -270.5 110t-111.5 267zM60 347
q0 -149 105.5 -253t256.5 -104q106 0 202 63t129 154l-113 44q-23 -66 -81.5 -104t-135.5 -38q-102 0 -171 68.5t-69 169.5q0 109 68 181t172 72q68 0 123.5 -37.5t89.5 -106.5l114 42q-44 98 -133 157t-195 59q-149 0 -255.5 -107.5t-106.5 -259.5z" />
    <glyph glyph-name="D" unicode="D" horiz-adv-x="715" 
d="M40 -15l8 733h283q157 0 250.5 -99.5t93.5 -265.5q0 -164 -98.5 -266t-258.5 -102h-278zM60 5h258q151 0 244 96t93 252q0 158 -87.5 251.5t-236.5 93.5h-263zM201 137q90 2 133 2q82 0 132.5 60.5t50.5 160.5q0 57 -21 100t-53 65t-60.5 32t-50.5 10l-131 -1v-429z
M181 117v469l151 1q24 0 55.5 -11.5t67 -35.5t59 -71t23.5 -109q0 -120 -62.5 -180.5t-140.5 -60.5q-26 0 -61.5 -0.5t-50.5 -0.5q-13 -1 -41 -1z" />
    <glyph glyph-name="E" unicode="E" horiz-adv-x="555" 
d="M40 -14v734h473v-151h-308v-137h276v-149h-277v-149h311v-148h-475zM60 6h435v108h-311v189h277v109h-276v177h308v111h-433v-694z" />
    <glyph glyph-name="F" unicode="F" horiz-adv-x="553" 
d="M40 -16v744h473v-156h-311v-158h275v-149h-277v-280zM60 4l120 1v280h277v109h-275v198h311v116h-433v-704z" />
    <glyph glyph-name="G" unicode="G" horiz-adv-x="805" 
d="M431 401h334v-130q0 -57 -21 -110t-61.5 -96.5t-107 -70t-149.5 -26.5q-168 0 -277 107t-109 272q0 160 108 276.5t256 116.5q123 0 214 -54t130 -151l-158 -55q-58 104 -175 104q-32 0 -66 -12t-67 -35.5t-54 -67t-21 -99.5q0 -117 56 -184.5t152 -67.5q79 0 131.5 37.5
t57.5 96.5h-173v149zM451 381v-109h173q4 -75 -55 -124.5t-154 -49.5q-104 0 -166 74t-62 198q0 60 23.5 107.5t60 73.5t73.5 39.5t71 13.5q120 0 184 -100l122 43q-40 82 -123.5 127.5t-193.5 45.5q-140 0 -242 -110.5t-102 -262.5q0 -157 103 -258t263 -101
q142 0 230.5 78.5t88.5 204.5v110h-294z" />
    <glyph glyph-name="H" unicode="H" horiz-adv-x="686" 
d="M489 287h-291v-302h-158v735h158v-285h291v290h157v-741h-158zM509 307l-1 -303h118v701h-117v-290h-331v285h-118v-695h118v302h331z" />
    <glyph glyph-name="I" unicode="I" horiz-adv-x="288" 
d="M208 719v-736h-168v736h168zM188 699h-128v-696h128v696z" />
    <glyph glyph-name="J" unicode="J" horiz-adv-x="571" 
d="M528 725l3 -485q0 -117 -68 -194.5t-170 -77.5q-217 0 -273 215l168 29q33 -88 90 -88q40 0 64.5 30t24.5 80v490zM508 705l-121 -1v-470q0 -58 -30 -94t-79 -36q-67 0 -102 86l-130 -23q56 -179 247 -179q94 0 156 71.5t62 180.5z" />
    <glyph glyph-name="K" unicode="K" horiz-adv-x="719" 
d="M655 5l-312 370l279 328h-152l-279 -337v333h-131v-695h132v363l296 -361zM699 -15l-221 1l-266 325v-327h-172v735h171v-297l249 301h206l-297 -348z" />
    <glyph glyph-name="L" unicode="L" horiz-adv-x="535" 
d="M515 138v-153h-475v738h169v-585h306zM495 118h-306v585h-129v-698h435v113z" />
    <glyph glyph-name="M" unicode="M" horiz-adv-x="814" 
d="M196 408v-422h-156v740h152l215 -379l215 381h152v-742h-158v418l-147 -265h-122zM176 484l183 -325h98l179 323v-476h118v702h-120l-227 -401l-227 399h-120v-700h116v478z" />
    <glyph glyph-name="N" unicode="N" horiz-adv-x="712" 
d="M193 507l341 -503h118v695h-123v-497l-341 497h-128v-694h133v502zM213 441v-456h-173v734h158l311 -453v453h163v-735h-148z" />
    <glyph glyph-name="O" unicode="O" 
d="M419 -36q-157 0 -268 114t-111 275t111 275t268 114q156 0 267 -114t111 -275t-111 -275t-267 -114zM419 -16q148 0 253 108t105 261t-105 261t-253 108q-149 0 -254 -108t-105 -261t105 -261t254 -108zM423 123q89 0 153.5 67.5t64.5 161.5t-64.5 162t-153.5 68
t-153.5 -68t-64.5 -162t64.5 -161.5t153.5 -67.5zM423 103q-97 0 -167.5 73.5t-70.5 175.5q0 103 70 176.5t168 73.5t168 -73.5t70 -176.5q0 -102 -70.5 -175.5t-167.5 -73.5z" />
    <glyph glyph-name="P" unicode="P" horiz-adv-x="581" 
d="M40 -14v741h266q30 0 62.5 -7.5t67.5 -25t62.5 -44t45 -68.5t17.5 -93t-17.5 -93.5t-44.5 -69t-60.5 -44.5t-64 -25.5t-57.5 -7.5h-118v-264zM60 6l119 -1v264h138q33 0 69 12t72 36t59.5 69t23.5 103q0 47 -16 85.5t-40.5 62.5t-57 40.5t-62.5 23t-59 6.5h-246v-701z
M200 399q14 0 38.5 1t43 1.5t30.5 0.5q91 0 91 92q0 84 -89 84h-112zM180 379l2 219h132q52 0 80.5 -27.5t28.5 -76.5q0 -53 -29 -82.5t-82 -29.5q-18 0 -78 -2q-10 0 -28 -0.5t-26 -0.5z" />
    <glyph glyph-name="Q" unicode="Q" 
d="M40 353q0 161 111 275t268 114q156 0 267 -114t111 -275q0 -158 -107 -271l58 -88l-123 -86l-59 86q-69 -30 -147 -30q-157 0 -268 114t-111 275zM60 353q0 -153 105 -261t254 -108q80 0 154 36l58 -84l89 64l-56 84q113 110 113 269q0 153 -105 261t-253 108
q-149 0 -254 -108t-105 -261zM205 352q0 -94 64.5 -161.5t153.5 -67.5q28 0 52 7l-72 106l127 86l69 -104q42 61 42 134q0 94 -64.5 162t-153.5 68t-153.5 -68t-64.5 -162zM185 352q0 103 70 176.5t168 73.5t168 -73.5t70 -176.5q0 -96 -64 -168l-73 110l-93 -64l76 -111
q-44 -16 -84 -16q-97 0 -167.5 73.5t-70.5 175.5z" />
    <glyph glyph-name="R" unicode="R" horiz-adv-x="640" 
d="M40 -14v738h261q121 0 193.5 -64t72.5 -170q0 -79 -45 -140t-108 -70l206 -295h-185l-188 270h-49v-271zM60 6l118 -2v271h79l188 -270h137l-207 296q66 -13 119 46t53 143q0 98 -67 156t-179 58h-241v-698zM331 402q38 0 59.5 23.5t21.5 64.5q0 37 -29.5 63.5
t-69.5 26.5h-114v-178h132zM331 382h-152v218h134q48 0 83.5 -32.5t35.5 -77.5q0 -50 -27.5 -79t-73.5 -29z" />
    <glyph glyph-name="S" unicode="S" horiz-adv-x="621" 
d="M62 178q17 -88 91.5 -140t174.5 -47q106 5 170.5 62.5t62.5 145.5q-1 47 -17.5 81.5t-53.5 62t-78.5 47t-111.5 45.5q-90 33 -97 77q-13 73 60 97q54 19 100 0.5t67 -66.5l102 43q-19 45 -52.5 76.5t-71.5 44t-81 16t-80 -7.5q-68 -15 -111.5 -64.5t-46.5 -113.5
q-4 -61 37.5 -115t109.5 -77q114 -37 163 -71.5t43 -88.5q-5 -47 -46 -71.5t-99 -15.5q-43 7 -76 39.5t-49 82.5zM40 190l146 56q10 -52 41.5 -86.5t73.5 -41.5q48 -8 82.5 11.5t38.5 57.5q5 42 -37 72.5t-155 67.5q-74 24 -119.5 83.5t-41.5 128.5q4 71 52 125t122 71
q40 12 88.5 7t91.5 -21t80 -54t55 -92l-140 -58q-14 50 -55.5 70.5t-93.5 3.5q-56 -19 -46 -75q4 -33 83 -63q71 -26 114.5 -46.5t83 -50t58 -68t19.5 -89.5q2 -95 -68 -158.5t-183 -69.5t-195 56t-95 163z" />
    <glyph glyph-name="T" unicode="T" horiz-adv-x="601" 
d="M215 574h-195v155h561v-155h-198v-590h-168v590zM235 594v-590h128v590h198v115h-521v-115h195z" />
    <glyph glyph-name="U" unicode="U" horiz-adv-x="667" 
d="M627 248q0 -37 -7.5 -72t-27 -73.5t-50.5 -66.5t-83 -46.5t-118 -18.5q-68 0 -122.5 18t-87 46t-54 64t-29.5 68.5t-8 63.5v489h169v-480q0 -55 34 -84.5t98 -29.5q121 0 121 109v484h165v-471zM607 248v451h-125v-464q0 -62 -36.5 -95.5t-104.5 -33.5q-72 0 -112 35
t-40 99v460h-129v-469q0 -38 13 -76.5t42.5 -77t87.5 -62.5t138 -24q62 0 110.5 16.5t77 42.5t47 61t25 68.5t6.5 68.5z" />
    <glyph glyph-name="V" unicode="V" horiz-adv-x="759" 
d="M20 723h179l183 -522l181 521h176l-276 -737h-169zM48 703l260 -698h141l262 697h-134l-195 -561l-197 562h-137z" />
    <glyph glyph-name="W" unicode="W" horiz-adv-x="1013" 
d="M435 630h143l122 -379l112 467h181l-207 -733h-147l-134 409l-122 -408h-155l-208 732h181l113 -465zM449 610l-137 -431l-127 519h-139l198 -692h125l136 456l148 -457h117l197 693h-139l-126 -521l-138 433h-115z" />
    <glyph glyph-name="X" unicode="X" horiz-adv-x="757" 
d="M223 -18l-203 1l255 380l-235 362h195l143 -229l138 226h194l-232 -359l259 -381h-212l-152 243zM211 2l162 261l164 -261h162l-245 361l220 339h-146l-150 -244l-155 247h-147l223 -342l-241 -360z" />
    <glyph glyph-name="Y" unicode="Y" horiz-adv-x="730" 
d="M293 321l-273 399h207l147 -259l138 259h198l-251 -399v-337h-171zM313 327l-5 -323h131v323l235 373h-150l-150 -281l-159 281h-157z" />
    <glyph glyph-name="Z" unicode="Z" horiz-adv-x="630" 
d="M40 -16v149l352 437h-343v151h538v-144l-354 -440h357l-1 -152zM60 4l509 1l1 112h-379l376 468v116h-498v-111h365l-374 -465v-121z" />
    <glyph glyph-name="bracketleft" unicode="[" horiz-adv-x="349" 
d="M309 -142h-269v942h268v-127h-120v-687h121v-128zM289 -122v88h-121v727h120v87h-228v-902h229z" />
    <glyph glyph-name="backslash" unicode="\" horiz-adv-x="533" 
d="M40 722h148l305 -739l-150 1zM70 702l287 -698l106 -1l-289 699h-104z" />
    <glyph glyph-name="bracketright" unicode="]" horiz-adv-x="349" 
d="M40 -142v128h121v687h-120v127h268v-942h-269zM60 -122h229v902h-228v-87h120v-727h-121v-88z" />
    <glyph glyph-name="underscore" unicode="_" horiz-adv-x="613" 
d="M40 -125v129h533v-129h-533zM60 -105h493v89h-493v-89z" />
    <glyph glyph-name="a" unicode="a" horiz-adv-x="551" 
d="M227 -30q-80 0 -128.5 37t-57.5 104q-15 157 182 183q11 2 29 4t30 4t25 4t21 4t11 5q7 5 8.5 18t-10 28t-38.5 22q-47 12 -78 -8.5t-37 -68.5l-136 29q4 46 33.5 85.5t77.5 66.5q43 25 103 28.5t110 -15.5q65 -24 100.5 -70t35.5 -107l3 -338h-150l-3 41
q-53 -56 -131 -56zM227 -10q48 0 87 25t60 70l5 -80h112l-3 318q0 113 -124 159q-46 17 -100.5 13.5t-94.5 -26.5q-80 -44 -98 -118l97 -21q12 46 49 66t86 7q36 -10 50.5 -33t11 -43t-13.5 -28q-13 -10 -94 -21q-22 -2 -32 -4q-88 -11 -129.5 -51.5t-34.5 -109.5
q8 -59 51 -91t115 -32zM282 95q37 7 58 32.5t19 60.5q-26 -4 -56.5 -5.5t-47.5 -2.5t-33.5 -4.5t-23 -12t-6.5 -24.5q0 -29 24 -41t66 -3zM286 75q-51 -11 -82.5 6.5t-31.5 57.5q0 17 6.5 28.5t14 17.5t25 9.5t29 4.5t35.5 2q68 5 84 8l12 -9q6 -46 -19.5 -80.5t-72.5 -44.5
z" />
    <glyph glyph-name="b" unicode="b" horiz-adv-x="613" 
d="M193 466q56 54 157 48q87 -6 148.5 -69t71.5 -160q9 -82 -13 -146.5t-62 -99.5t-83.5 -52t-82.5 -15q-88 5 -141 58l-4 -44l-144 -1l2 750l151 -1v-268zM173 404v310l-111 1l-2 -710l106 1l7 81q16 -41 59 -67t97 -28q29 -2 61 7t64 31t55.5 54.5t35.5 84.5t5 114
q-10 90 -65.5 148t-136.5 63q-128 8 -175 -90zM192 243q0 -45 26 -87t81 -44q52 -1 87 36t35 93q0 60 -33.5 97.5t-83.5 35.5q-51 -3 -81.5 -38.5t-30.5 -92.5zM172 243q0 65 36 106.5t94 44.5q60 3 99.5 -41t39.5 -112q0 -65 -41 -108t-101 -41q-45 1 -75.5 30t-41 60.5
t-10.5 60.5z" />
    <glyph glyph-name="c" unicode="c" horiz-adv-x="590" 
d="M291 389q81 9 130 -73l108 29q-28 75 -89 116t-145 40q-97 -1 -171 -77t-74 -176q0 -112 67 -185.5t172 -77.5q84 -4 150 37.5t95 115.5l-111 33q-17 -36 -53 -57.5t-76 -18.5q-58 4 -93.5 46t-36.5 106q-1 53 35.5 94t91.5 48zM293 369q-47 -5 -78.5 -40.5t-30.5 -81.5
q1 -56 31.5 -92t80.5 -40q39 -3 72 20t42 60l150 -43q-28 -89 -102 -140t-169 -47q-114 4 -186.5 83.5t-72.5 199.5q0 108 80 190t185 83q96 1 164.5 -49t95.5 -141l-144 -39q-42 85 -118 77z" />
    <glyph glyph-name="d" unicode="d" horiz-adv-x="608" 
d="M566 735l2 -750l-144 1l-4 37q-50 -54 -140 -54q-43 0 -86.5 20t-80 56t-57 95t-15.5 128q7 102 66.5 167.5t152.5 76.5q89 11 156 -42l-1 264zM546 715l-111 -1l1 -294q-30 40 -75.5 59.5t-98.5 12.5q-85 -10 -139.5 -70.5t-61.5 -155.5q-5 -65 13.5 -119.5t51.5 -88
t73 -51.5t81 -18q112 0 155 91l7 -74l106 -1zM418 243q0 59 -30.5 94.5t-82.5 36.5q-48 1 -81 -37.5t-33 -94.5t34.5 -93.5t83.5 -35.5q51 2 80 37t29 93zM438 243q0 -66 -34.5 -107t-94.5 -43q-57 -2 -97.5 41.5t-40.5 107.5q0 65 39 109t95 43q61 -1 97 -42t36 -109z" />
    <glyph glyph-name="e" unicode="e" horiz-adv-x="610" 
d="M60 244q0 -108 72 -178t183 -70q82 0 138.5 36.5t80.5 86.5l-104 32q-41 -70 -126 -64q-56 4 -94 42t-33 86l373 4q6 128 -57.5 201.5t-179.5 73.5q-114 0 -183.5 -68.5t-69.5 -181.5zM40 244q0 121 75.5 195.5t197.5 74.5q129 0 198.5 -85t56.5 -230l-371 -4
q5 -34 36 -60t73 -28q79 -6 114 68l141 -44q-19 -57 -84 -106t-162 -49q-119 0 -197 76t-78 192zM176 294q-1 44 33.5 77.5t82.5 36.5q60 4 102 -30.5t36 -82.5zM198 314l212 1q-5 33 -38.5 54.5t-77.5 18.5q-34 -2 -61 -23t-35 -51z" />
    <glyph glyph-name="f" unicode="f" horiz-adv-x="386" 
d="M373 590q-32 6 -53.5 4.5t-31.5 -10t-15 -21.5t-4.5 -29t0.5 -33h110l1 -135h-112v-380l-157 -1v381h-80l-1 135h47q20 0 26 6t6 27q0 77 28 115q37 66 112.5 91t156.5 -1zM357 613l25 112q-70 17 -133 -6.5t-96 -79.5q-24 -38 -24 -105q0 -29 -11.5 -41t-40.5 -12h-27
l1 -95h80v-381l117 1v380h112l-1 95h-110v22t-0.5 24t1 24.5t5 23t10.5 19t19 14t30 7.5t43 -2z" />
    <glyph glyph-name="g" unicode="g" horiz-adv-x="608" 
d="M438 484l-5 -48q-51 49 -115 59.5t-118 -12.5t-93.5 -77.5t-45.5 -126.5q-7 -77 24 -140t91 -97q64 -37 130 -31.5t109 51.5l17 -7q0 -83 -35.5 -129t-99.5 -46q-70 0 -111 72l-113 -24q35 -75 99.5 -115t140.5 -35q109 8 172 76.5t63 178.5q0 26 -1.5 189.5t-0.5 260.5z
M420 504l146 -1q-1 -118 1 -325q1 -57 1 -145q0 -118 -68 -192t-185 -83q-88 -7 -162 43t-108 141l151 32q38 -74 101 -74q51 0 80 34t34 97q-48 -39 -114 -41t-131 34q-65 37 -98.5 105.5t-26.5 151.5q6 73 44.5 130t92.5 84t119 23.5t120 -43.5zM297 114q-51 0 -87.5 41.5
t-36.5 99.5q0 55 31.5 92.5t83.5 44.5q59 8 101.5 -32t42.5 -105q0 -64 -37 -102.5t-98 -38.5zM297 134q53 0 84 32.5t31 88.5t-35.5 90t-86.5 27q-44 -6 -70.5 -37.5t-26.5 -79.5q0 -50 30.5 -85.5t73.5 -35.5z" />
    <glyph glyph-name="h" unicode="h" horiz-adv-x="572" 
d="M41 -15l-1 750l166 -1v-267q56 45 127 45q95 0 147 -57t52 -162v-308h-164v290q0 98 -80 98q-38 0 -61.5 -26.5t-23.5 -71.5v-290h-162zM61 5h122v270q0 53 29 85.5t76 32.5t73.5 -31t26.5 -87v-270h124v288q0 96 -46 147.5t-133 51.5q-50 0 -88 -26t-59 -69v317l-126 1z
" />
    <glyph glyph-name="i" unicode="i" horiz-adv-x="265" 
d="M133 564q-39 0 -66 26.5t-27 64.5t27 64.5t66 26.5q38 0 65 -26.5t27 -64.5t-27 -64.5t-65 -26.5zM133 584q30 0 51 20.5t21 50.5t-21 50.5t-51 20.5q-31 0 -52 -20.5t-21 -50.5t21 -50.5t52 -20.5zM214 503v-520h-159v520h159zM194 483h-119v-480h119v480z" />
    <glyph glyph-name="j" unicode="j" horiz-adv-x="261" 
d="M129 564q-39 0 -66 26.5t-27 64.5t27 64.5t66 26.5q38 0 65 -26.5t27 -64.5t-27 -64.5t-65 -26.5zM129 584q30 0 51 20.5t21 50.5t-21 50.5t-51 20.5q-31 0 -52 -20.5t-21 -50.5t21 -50.5t52 -20.5zM71 -13q0 -79 -44 -90q-20 -5 -52 6l-26 -89q52 -21 115 -21
q36 0 62 14.5t39 38.5t18.5 46.5t5.5 44.5v57v489h-118v-496zM51 -13v516h158v-509v-57q0 -24 -6.5 -49t-21.5 -52.5t-45 -45t-72 -17.5q-82 0 -139 30l37 128q40 -20 61 -14q28 7 28 70z" />
    <glyph glyph-name="k" unicode="k" horiz-adv-x="595" 
d="M371 -15l-173 207v-207h-158v752h159v-413l163 178h187l-206 -241l232 -276h-204zM381 5h152l-216 256l188 221h-135l-191 -210v445h-119v-712h118v241z" />
    <glyph glyph-name="l" unicode="l" horiz-adv-x="279" 
d="M219 733v-750h-159v750h159zM199 713h-119v-710h119v710z" />
    <glyph glyph-name="m" unicode="m" horiz-adv-x="886" 
d="M40 498h148v-52q56 59 124 67q58 7 105 -13.5t72 -64.5q46 66 147 78q54 7 96.5 -9.5t66 -47.5t35.5 -65.5t12 -69.5v-335h-155v295q0 93 -72 93q-45 0 -70.5 -31.5t-25.5 -87.5v-270h-155v267q0 69 -17 95t-63 26q-93 0 -93 -141v-247h-155v513zM60 478v-473h115v227
q0 161 113 161q59 0 79.5 -35.5t20.5 -105.5v-247h115v250q0 65 31 102t85 37q92 0 92 -113v-275h115v315q0 33 -10.5 64t-31.5 58.5t-59 41.5t-87 8q-105 -14 -141 -84l-18 1q-19 46 -63 68t-102 15q-78 -9 -146 -107v92h-108z" />
    <glyph glyph-name="n" unicode="n" horiz-adv-x="569" 
d="M40 498h148v-51q47 56 116 65q69 8 123 -17t79 -77q23 -47 23 -163v-270h-155v276q0 64 -19.5 88t-71.5 24q-37 0 -62.5 -37.5t-25.5 -93.5v-257h-155v513zM60 478v-473h115v237q0 64 31 107.5t77 43.5q60 0 85.5 -30.5t25.5 -101.5v-256h115v250q0 110 -21 155
q-22 46 -70.5 68t-111.5 14q-33 -4 -62.5 -24.5t-42.5 -36.5t-33 -45v92h-108z" />
    <glyph glyph-name="o" unicode="o" horiz-adv-x="625" 
d="M40 245q0 113 79 192t194 79q114 0 193 -79t79 -192q0 -115 -79.5 -196t-192.5 -81t-193 81t-80 196zM60 245q0 -107 74 -182t179 -75q104 0 178 75.5t74 181.5q0 105 -73 178t-179 73t-179.5 -73t-73.5 -178zM192 244q0 -57 35 -95t87 -38q53 0 87 37.5t34 95.5
q0 55 -35.5 93t-85.5 38q-51 0 -86.5 -38t-35.5 -93zM172 244q0 63 41.5 107t100.5 44t100 -44t41 -107q0 -66 -40.5 -109.5t-100.5 -43.5q-61 0 -101.5 43.5t-40.5 109.5z" />
    <glyph glyph-name="p" unicode="p" horiz-adv-x="608" 
d="M42 -208l-2 709l144 -1l4 -37q50 54 140 54q43 0 86.5 -20t80 -56t57 -95t15.5 -128q-7 -101 -66.5 -167t-152.5 -77q-89 -11 -156 42l1 -223zM62 -188l111 1l-1 253q30 -40 75.5 -59.5t98.5 -12.5q86 11 140 71.5t61 154.5q5 65 -13.5 119.5t-51.5 88t-73 51.5t-81 18
q-112 0 -155 -91l-7 74l-106 1zM190 243q0 -59 30.5 -94.5t82.5 -36.5q48 -1 81 37.5t33 94.5t-34.5 93.5t-83.5 35.5q-51 -2 -80 -37t-29 -93zM170 243q0 66 34.5 107t94.5 43q57 2 97.5 -41.5t40.5 -107.5q0 -65 -39 -109t-95 -43q-61 1 -97 42t-36 109z" />
    <glyph glyph-name="q" unicode="q" horiz-adv-x="608" 
d="M566 -208l-151 1l1 223q-67 -53 -156 -42q-93 11 -152.5 77t-66.5 167q-5 69 15.5 128t57 95t80 56t86.5 20q90 0 140 -54l4 37l144 1zM546 -188l2 669l-106 -1l-7 -74q-43 91 -155 91q-41 0 -81 -18t-73 -51.5t-51.5 -88t-13.5 -119.5q7 -94 61 -154.5t140 -71.5
q53 -7 98.5 12.5t75.5 59.5l-1 -253zM305 112q52 1 82.5 36.5t30.5 94.5q0 58 -29 93t-80 37q-49 2 -83.5 -35.5t-34.5 -93.5t33 -94.5t81 -37.5zM305 92q-56 -1 -95 43t-39 109q0 64 40.5 107.5t97.5 41.5q60 -2 94.5 -43t34.5 -107q0 -68 -36 -109t-97 -42z" />
    <glyph glyph-name="r" unicode="r" horiz-adv-x="392" 
d="M170 6v140q0 99 7.5 136.5t34.5 68.5q24 27 65.5 35t80.5 -7l30 100q-23 11 -57 12.5t-59 -6.5q-35 -13 -56 -37.5t-46 -85.5v114h-110v-469zM190 -14l-150 1v509h150v-44q25 33 76 51q32 12 76.5 7.5t69.5 -22.5l-42 -138q-36 22 -77.5 17.5t-64.5 -30.5
q-24 -27 -31 -61.5t-7 -129.5v-160z" />
    <glyph glyph-name="s" unicode="s" horiz-adv-x="541" 
d="M360 328q-4 24 -30 42t-56 18q-26 0 -44.5 -9t-18.5 -21q0 -17 20.5 -25.5t80.5 -22.5q8 -1 12.5 -2.5t12.5 -3t15 -3.5q149 -37 149 -167q0 -69 -64.5 -117t-158.5 -48q-86 0 -149.5 41t-88.5 114l137 60q7 -27 29.5 -49t49.5 -28q32 -7 61.5 2.5t31.5 28.5
q2 21 -24.5 33t-77 21t-62.5 13q-53 17 -88 57t-35 83q0 67 53.5 118t134.5 61q68 8 144 -30t100 -111zM372 355l96 39q-27 59 -92 88t-124 22q-73 -9 -121.5 -54.5t-48.5 -104.5q0 -37 31.5 -71.5t77.5 -48.5q7 -2 48 -11q29 -5 46 -9.5t40.5 -13t34.5 -22.5t9 -33
q-3 -28 -39 -43t-78 -6q-27 6 -50.5 25t-35.5 45l-100 -43q26 -59 82 -92t130 -33q86 0 144.5 42.5t58.5 102.5q0 115 -133 147q-107 26 -124 33q-33 15 -33 44q0 22 24 36t59 14q30 0 57.5 -15t40.5 -38z" />
    <glyph glyph-name="t" unicode="t" horiz-adv-x="440" 
d="M400 4q-5 -2 -24 -9.5t-28.5 -10t-28 -6.5t-38.5 -3t-44 6q-58 12 -94.5 57.5t-36.5 106.5v219h-86v135h64q17 0 22.5 4.5t5.5 18.5v125h147v-148h117v-135h-118v-136q0 -51 2.5 -66.5t11.5 -25.5q12 -15 39 -14t45 19zM376 16l-31 94q-23 -11 -48.5 -7.5t-40.5 19.5
q-12 14 -15 32.5t-3 73.5v156h118v95h-117v148h-107v-105q0 -43 -48 -43h-44v-95h86v-239q0 -54 31.5 -94t83.5 -50q23 -5 42.5 -5.5t37 3.5t27 7t28.5 10z" />
    <glyph glyph-name="u" unicode="u" horiz-adv-x="572" 
d="M378 26q-23 -24 -63.5 -39.5t-84.5 -15.5q-49 0 -86 18t-56 43t-30.5 57.5t-14.5 54t-3 39.5v317h161v-304q0 -37 22 -60t57 -23q38 0 65 22.5t27 54.5v311h160v-516h-150zM392 101l8 -96h112v476h-120v-291q0 -40 -32.5 -68.5t-79.5 -28.5q-43 0 -71 29t-28 74v284h-121
v-297q0 -17 2.5 -36.5t13 -49t27.5 -51.5t50 -38.5t77 -16.5q122 0 162 110z" />
    <glyph glyph-name="v" unicode="v" horiz-adv-x="603" 
d="M229 -15l-219 514l172 1l120 -317l122 317l169 -1l-219 -514h-145zM243 5h117l203 474l-125 1l-136 -353l-134 353l-128 -1z" />
    <glyph glyph-name="w" unicode="w" horiz-adv-x="871" 
d="M705 478l-94 -349l-112 354h-118l-110 -348l-104 345h-119l154 -475h127l108 357l110 -358h128l148 474h-118zM689 498h162l-162 -514h-156l-96 310l-94 -309h-155l-168 515h161l90 -297l96 300h146l96 -302z" />
    <glyph glyph-name="x" unicode="x" horiz-adv-x="581" 
d="M202 -15h-182l178 258l-178 256h181l89 -133l85 133l181 -1l-178 -252l183 -261h-181l-93 142zM190 5l97 160l103 -160h133l-169 241l164 232l-133 1l-95 -149l-99 149h-133l164 -236l-164 -238h132z" />
    <glyph glyph-name="y" unicode="y" horiz-adv-x="614" 
d="M110 -236l119 253l-209 483l166 -1l126 -289l116 289h166l-317 -735h-167zM142 -216h121l301 695h-122l-130 -321l-140 321l-122 1l201 -463z" />
    <glyph glyph-name="z" unicode="z" horiz-adv-x="517" 
d="M40 -16v122l237 259h-227v135h425v-125l-243 -256h245v-135h-437zM60 4h397v95h-271l269 284v97h-385v-95h253l-263 -287v-94z" />
    <glyph glyph-name="braceleft" unicode="{" horiz-adv-x="429" 
d="M369 -76q-67 1 -91 26.5t-24 91.5q0 19 -1 68t-1 87q0 44 -27.5 80t-60.5 36v20q31 0 60.5 37.5t29.5 77.5l-1 145v1q0 70 20.5 97.5t92.5 28.5v80q-54 -1 -93.5 -13t-60 -28t-32.5 -41t-14.5 -43.5t-2.5 -43.5q0 -33 -1 -93.5t-1 -79.5q0 -39 -27.5 -63t-73.5 -27v-91
q44 -3 71.5 -25t27.5 -53q0 -6 2 -68.5t2 -121.5q0 -160 206 -165v80zM389 -56v-120q-119 -2 -182.5 45.5t-63.5 139.5q0 45 -3 147q0 10 -0.5 24t-0.5 19q0 26 -28.5 43t-70.5 15v131q46 -2 73.5 17t27.5 53q0 44 1 71q0 17 0.5 51t0.5 51q0 26 3.5 47.5t17.5 50t39 47.5
t72 32t111 12v-120q-74 1 -93.5 -17.5t-19.5 -88.5q0 -66 1 -84v-62q0 -37 -21.5 -72.5t-51.5 -52.5q30 -15 50.5 -50.5t20.5 -75.5q0 -21 0.5 -52t0.5 -43q1 -21 1 -60q0 -62 21.5 -80.5t93.5 -17.5z" />
    <glyph glyph-name="bar" unicode="|" horiz-adv-x="204" 
d="M40 710h124v-872h-124v872zM60 690v-832h84v832h-84z" />
    <glyph glyph-name="braceright" unicode="}" horiz-adv-x="429" 
d="M40 -176v120q72 -1 93.5 17.5t21.5 80.5q0 19 1 68t1 87q0 40 20.5 75.5t50.5 50.5q-30 17 -51.5 52.5t-21.5 72.5l1 147v-1q0 70 -19.5 88.5t-93.5 17.5v120q64 1 111 -12t72 -32t39 -47.5t17.5 -50t3.5 -47.5q0 -33 1 -93.5t1 -79.5q0 -34 27.5 -53t73.5 -17v-131
q-42 2 -70.5 -15t-28.5 -43q0 -6 -2 -68.5t-2 -121.5q0 -92 -63.5 -139.5t-182.5 -45.5zM60 -156q206 5 206 165q0 45 3 147q1 19 1 43q0 31 27.5 53t71.5 25v91q-46 3 -73.5 27t-27.5 63q0 44 -1 71q0 16 -0.5 50.5t-0.5 51.5q0 25 -2.5 43.5t-14.5 43.5t-32.5 41t-60 28
t-93.5 13v-80q72 -1 92.5 -28.5t20.5 -97.5q0 -66 -1 -85v-61q0 -40 29.5 -77.5t60.5 -37.5v-20q-33 0 -60.5 -36t-27.5 -80q0 -21 -0.5 -52.5t-0.5 -42.5q-1 -21 -1 -60q0 -66 -24 -91.5t-91 -26.5v-80z" />
    <glyph glyph-name="exclamdown" unicode="&#xa1;" horiz-adv-x="277" 
d="M63 -222l14 490h127l13 -490h-154zM83 -202h114l-13 450h-87zM139 516q40 0 69 -29t29 -70q0 -40 -29 -69t-69 -29q-41 0 -70 29t-29 69q0 41 29 70t70 29zM139 496q-33 0 -56 -23t-23 -56q0 -32 23.5 -55t55.5 -23t55 23t23 55t-23 55.5t-55 23.5z" />
    <glyph glyph-name="cent" unicode="&#xa2;" horiz-adv-x="601" 
d="M60 346q0 -93 57 -165t142 -88v-83h89v84q139 23 187 142l-91 23q-18 -36 -57.5 -56.5t-90.5 -19.5q-59 1 -100 48t-41 114q0 62 37.5 103.5t99.5 48.5q47 5 86.5 -15t59.5 -59l92 20q-23 60 -70 97.5t-112 47.5v82h-89v-83q-84 -17 -141.5 -86.5t-57.5 -154.5zM40 346
q0 88 56.5 161t142.5 96v87h129v-86q70 -15 118.5 -60.5t69.5 -114.5l-129 -29q-16 40 -52 61t-81 16q-54 -5 -86.5 -41t-32.5 -91q0 -59 35 -100t86 -42t87.5 20.5t48.5 59.5l129 -33q-21 -67 -71 -111.5t-122 -60.5v-88h-129v87q-86 22 -142.5 98t-56.5 171z" />
    <glyph glyph-name="sterling" unicode="&#xa3;" horiz-adv-x="601" 
d="M441 156q-19 -54 -91 -54q-7 0 -51.5 -0.5t-127.5 -0.5q39 16 62 59.5t21 94.5h108v82h-126q-40 58 -48 111t17 88q38 51 96.5 39.5t87.5 -75.5l95 41q-38 78 -98 111.5t-116.5 25.5t-103.5 -36.5t-67 -65.5q-62 -114 35 -238h-72v-82h94q5 -112 -96 -160v-90l270 -2
q70 0 110.5 15.5t59 40.5t35.5 74zM426 180l135 -32q-12 -36 -21.5 -57.5t-27 -44.5t-40 -35t-58 -19.5t-84.5 -7.5l-290 2v123q92 38 96 127h-94v122h53q-73 118 -14 228q18 32 55.5 59.5t88 40.5t102 7.5t102 -47t82.5 -115.5l-133 -57q-20 64 -72 80t-85 -30
q-20 -28 -13.5 -72.5t38.5 -94.5h136v-122h-108q-3 -66 -43 -114q69 0 86 1h33q34 0 52.5 11t23.5 47z" />
    <glyph glyph-name="yen" unicode="&#xa5;" horiz-adv-x="723" 
d="M40 686h192l137 -236l126 235h188l-165 -280h90v-125h-165v-36h166v-126h-166v-133h-154v133h-165v126h165v38h-163v123h89zM76 666l175 -281h-105v-83h163v-78h-165v-86h165v-133h114v133h166v86h-166v76h165v85h-105l165 280h-141l-138 -257l-149 258h-144z" />
    <glyph glyph-name="section" unicode="&#xa7;" horiz-adv-x="582" 
d="M64 -52q22 -83 90 -130.5t158 -41.5q98 6 155.5 59t54.5 134q-3 73 -64 125l1 16q35 24 49.5 54t13.5 76q-2 68 -57.5 120t-173.5 96q-90 33 -97 77q-9 51 49 77q51 23 98 4t69 -70l93 43q-33 80 -107.5 115t-167.5 14q-67 -15 -106 -59t-42 -109q-5 -78 68 -138v-16
q-64 -44 -68 -117q-3 -58 36.5 -107t110.5 -75q10 -4 40 -14t40 -13.5t32 -13t31 -17t21 -18.5t16 -24.5t4 -29.5q0 -48 -37.5 -72t-95.5 -13q-86 15 -115 109zM40 -40l137 57q21 -102 105 -117q48 -9 78.5 9t30.5 56q0 13 -4 23.5t-13.5 19.5t-18.5 15.5t-27 14t-30.5 12
l-37.5 13.5t-39 14q-77 28 -121 82.5t-40 119.5q4 75 66 124q-71 64 -66 147q4 71 47.5 120.5t116.5 65.5q105 23 189 -20.5t115 -138.5l-129 -60q-15 54 -57.5 75.5t-90.5 -0.5q-43 -19 -37 -55q4 -33 83 -63q124 -45 183.5 -101.5t61.5 -132.5q3 -90 -61 -139
q58 -55 61 -132q3 -89 -60 -147.5t-168 -65.5q-102 -6 -178.5 50.5t-95.5 153.5zM191 261q-8 32 7.5 60t46.5 37l6 -1q79 -28 119.5 -57t40.5 -76q0 -53 -55 -67q-29 15 -65 28q-86 32 -100 76zM211 267q9 -35 86 -64q25 -8 61 -24q33 10 33 45q0 39 -35 63t-108 50
q-23 -7 -33.5 -27t-3.5 -43z" />
    <glyph glyph-name="copyright" unicode="&#xa9;" horiz-adv-x="853" 
d="M427 -35q-160 0 -273.5 113.5t-113.5 273.5t113.5 273t273.5 113q159 0 272.5 -113.5t113.5 -272.5q0 -160 -113 -273.5t-273 -113.5zM427 -15q151 0 258.5 107.5t107.5 259.5t-107.5 259t-258.5 107q-152 0 -259.5 -107.5t-107.5 -258.5q0 -152 107.5 -259.5
t259.5 -107.5zM420 139q-88 4 -144 65t-56 153q0 82 62 145t143 64q74 1 126.5 -38t74.5 -110l-115 -31q-33 65 -88 59q-34 -4 -57.5 -30t-22.5 -60q1 -42 23.5 -69t59.5 -29q30 -2 55 16t29 46l120 -35q-21 -70 -78.5 -109.5t-131.5 -36.5zM420 159q63 -3 112 27t72 85
l-81 24q-12 -27 -40 -43t-59 -14q-45 3 -72.5 35.5t-28.5 82.5q-1 41 27.5 73.5t70.5 36.5q62 6 100 -55l79 21q-22 55 -67 85t-108 29q-73 -1 -129 -58t-56 -131q0 -84 50.5 -139.5t129.5 -58.5zM427 70q116 0 198.5 83t82.5 199t-82.5 198.5t-198.5 82.5t-199 -82.5
t-83 -198.5q0 -117 82.5 -199.5t199.5 -82.5zM427 50q-125 0 -213.5 89t-88.5 213t88.5 212.5t213.5 88.5q124 0 212.5 -88.5t88.5 -212.5q0 -125 -88.5 -213.5t-212.5 -88.5z" />
    <glyph glyph-name="ordfeminine" unicode="&#xaa;" horiz-adv-x="418" 
d="M174 279q-58 0 -92.5 26.5t-40.5 75.5q-12 110 124 130q74 11 81 15q10 7 2.5 20t-25.5 17q-30 8 -50 -5t-23 -44l-106 21q14 67 73 104q29 20 76 24t84 -9q99 -35 99 -124l2 -240h-115v24q-40 -35 -89 -35zM174 299q57 0 107 71l2 -60h75l-2 220q0 75 -85 106
q-33 11 -75.5 7.5t-68.5 -20.5q-42 -29 -58 -72l66 -13q9 29 35 41.5t59 3.5q26 -7 35 -23.5t5.5 -30.5t-11.5 -19q-12 -8 -72 -16q-12 -2 -19 -3q-59 -9 -85 -35.5t-21 -72.5q11 -84 113 -84zM212 386q50 10 51 45q-18 -3 -37.5 -3.5t-29.5 -1t-19 -2t-12 -6.5t-3 -15
q0 -11 14.5 -16t35.5 -1zM216 366q-31 -6 -52.5 4.5t-21.5 32.5q0 20 10.5 30t22 11.5t35.5 2.5q37 2 60 6l12 -9q9 -62 -66 -78z" />
    <glyph glyph-name="guillemotleft" unicode="&#xab;" horiz-adv-x="622" 
d="M267 22l-227 245l227 247l90 -83l-151 -164l151 -163zM269 50l60 56l-151 161l151 162l-60 57l-201 -219zM492 22l-227 245l227 247l90 -83l-151 -164l151 -163zM494 50l60 56l-151 161l151 162l-60 57l-201 -219z" />
    <glyph glyph-name="registered" unicode="&#xae;" horiz-adv-x="480" 
d="M240 325q-82 0 -141 58.5t-59 141.5t59 141.5t141 58.5t141 -59t59 -141q0 -83 -59 -141.5t-141 -58.5zM240 345q74 0 127 53t53 127t-53 127t-127 53t-127 -53t-53 -127q0 -75 52.5 -127.5t127.5 -52.5zM240 395q52 0 90.5 38.5t38.5 91.5t-38.5 91t-90.5 38
q-53 0 -91.5 -38.5t-38.5 -90.5q0 -53 38.5 -91.5t91.5 -38.5zM240 375q-61 0 -105.5 44.5t-44.5 105.5t44.5 105t105.5 44q60 0 104.5 -44.5t44.5 -104.5q0 -61 -44 -105.5t-105 -44.5zM157 422v216h88q36 0 58 -19.5t22 -51.5q0 -21 -10.5 -38t-27.5 -24l59 -83h-78
l-52 74h9v-74h-68zM177 442h28v74h21l52 -74h30l-57 80q27 0 40.5 13t13.5 32q0 23 -16 37t-44 14h-68v-176zM243 550q14 0 14 17q0 13 -18 13h-14v-30h18zM243 530h-38v70h34q16 0 27 -9.5t11 -23.5q0 -37 -34 -37z" />
    <glyph glyph-name="degree" unicode="&#xb0;" horiz-adv-x="390" 
d="M195 402q-64 0 -109.5 45.5t-45.5 107.5q0 64 45.5 109t109.5 45t109.5 -45t45.5 -109q0 -62 -45.5 -107.5t-109.5 -45.5zM195 422q55 0 95 39.5t40 93.5q0 55 -39.5 94.5t-95.5 39.5t-95.5 -39.5t-39.5 -94.5q0 -54 40 -93.5t95 -39.5zM198 503q22 0 37 15.5t15 38.5
q0 21 -15.5 36.5t-36.5 15.5t-37.5 -16t-16.5 -36q0 -23 16 -38.5t38 -15.5zM198 483q-30 0 -52 22t-22 52q0 28 22.5 50t51.5 22q28 0 50 -21.5t22 -50.5q0 -31 -21 -52.5t-51 -21.5z" />
    <glyph glyph-name="uni00B2" unicode="&#xb2;" horiz-adv-x="367" 
d="M148 414l56 51q100 91 91 163q-4 38 -36.5 62t-78.5 24q-38 0 -68.5 -22t-46.5 -60l55 -23q8 20 25 33t37 13q36 0 49.5 -29.5t-10.5 -58.5q-39 -47 -155 -157v-53h241v57h-159zM200 434h127v-97h-281v81q120 114 159 161q16 19 8.5 37.5t-31.5 18.5q-19 0 -33 -16.5
t-13 -38.5l-96 40q15 52 53 83t87 31q54 0 92 -29t43 -75q8 -83 -97 -179z" />
    <glyph glyph-name="uni00B3" unicode="&#xb3;" horiz-adv-x="383" 
d="M192 330q-59 0 -99 29.5t-53 84.5l102 41q3 -48 41 -58q29 -7 45 12q5 7 5 16q0 26 -21.5 35t-74.5 4v89q46 -2 68.5 7t17.5 26q-4 18 -22 22.5t-35.5 -7t-19.5 -34.5l-99 40q13 41 53 69t85 28q62 0 100 -27.5t44 -76.5q2 -20 -8.5 -45.5t-25.5 -40.5q19 -14 33.5 -40
t14.5 -47q0 -56 -42.5 -91.5t-108.5 -35.5zM192 350q58 0 94.5 30t36.5 77q0 28 -24.5 59t-25.5 37q2 0 11 8t18 27t7 40q-4 41 -37 63.5t-87 22.5q-33 0 -64.5 -18.5t-46.5 -47.5l60 -24q18 36 58.5 35.5t50.5 -37.5q7 -27 -16 -42.5t-70 -16.5v-47q96 4 96 -61
q0 -25 -26.5 -38t-57.5 -3t-42 43l-63 -25q31 -82 128 -82z" />
    <glyph glyph-name="periodcentered" unicode="&#xb7;" horiz-adv-x="277" 
d="M139 217q-41 0 -70 29.5t-29 69.5t29 69t70 29q40 0 69 -29t29 -69q0 -41 -29 -70t-69 -29zM139 237q32 0 55 23.5t23 55.5t-23 55t-55 23t-55.5 -23t-23.5 -55q0 -33 23 -56t56 -23z" />
    <glyph glyph-name="uni00B9" unicode="&#xb9;" horiz-adv-x="289" 
d="M144 600l-64 -29l-40 91l129 67h80v-391h-105v262zM164 632v-274h65v351h-56l-107 -57l24 -55z" />
    <glyph glyph-name="ordmasculine" unicode="&#xba;" horiz-adv-x="480" 
d="M40 472q0 82 58.5 138.5t142.5 56.5q83 0 141 -56.5t58 -138.5t-58 -140.5t-141 -58.5q-84 0 -142.5 58t-58.5 141zM60 472q0 -74 52.5 -126.5t128.5 -52.5q75 0 127 52t52 127q0 73 -52 124t-127 51q-76 0 -128.5 -51t-52.5 -124zM172 471q0 -34 19.5 -54.5t51.5 -20.5
q31 0 50 20.5t19 54.5q0 31 -19.5 51.5t-49.5 20.5q-31 0 -51 -20.5t-20 -51.5zM152 471q0 40 26 66t65 26q38 0 63.5 -26.5t25.5 -65.5q0 -42 -25 -68.5t-64 -26.5q-40 0 -65.5 26.5t-25.5 68.5z" />
    <glyph glyph-name="guillemotright" unicode="&#xbb;" horiz-adv-x="622" 
d="M130 22l-90 82l151 163l-151 164l90 83l227 -247zM128 50l201 217l-201 219l-60 -57l151 -162l-151 -161zM355 22l-90 82l151 163l-151 164l90 83l227 -247zM353 50l201 217l-201 219l-60 -57l151 -162l-151 -161z" />
    <glyph glyph-name="questiondown" unicode="&#xbf;" horiz-adv-x="538" 
d="M341 265q0 -57 -8 -92t-21 -53t-43 -47q-10 -9 -30.5 -27.5t-27.5 -26.5t-14.5 -24t-7.5 -36q0 -28 21.5 -45.5t53.5 -17.5q35 0 61.5 23t37.5 65l135 -58q-30 -79 -89.5 -125t-133.5 -46q-100 0 -167.5 55t-67.5 137q0 47 16 85.5t33 57.5t45 42q32 27 44 56t11 77h152z
M321 245h-112q-2 -43 -16 -72t-47 -57q-28 -24 -42.5 -40t-29 -50.5t-14.5 -78.5q0 -74 61.5 -123t153.5 -49q64 0 116 37.5t81 103.5l-97 41q-15 -38 -44.5 -59.5t-66.5 -21.5q-41 0 -68 23.5t-27 59.5q0 24 9.5 44.5t19.5 31.5t30 28l27 24q40 38 52.5 65.5t13.5 92.5z
M262 517q40 0 69.5 -29.5t29.5 -69.5t-29 -69t-70 -29q-40 0 -69 29t-29 69q0 41 29 70t69 29zM262 497q-32 0 -55 -23.5t-23 -55.5t23 -55t55 -23t55.5 23t23.5 55q0 33 -23 56t-56 23z" />
    <glyph glyph-name="Agrave" unicode="&#xc0;" horiz-adv-x="747" 
d="M10 -16l278 736l174 -1l275 -735h-171l-58 165h-268l-59 -165h-171zM38 4h129l59 165h296l58 -165h129l-261 695l-146 1zM278 289h186l-93 247zM250 269l121 325l121 -325h-242zM323 754l-105 158h183l50 -158h-128zM333 774h90l-36 118h-131z" />
    <glyph glyph-name="Aacute" unicode="&#xc1;" horiz-adv-x="747" 
d="M10 -16l278 736l174 -1l275 -735h-171l-58 165h-268l-59 -165h-171zM38 4h129l59 165h296l58 -165h129l-261 695l-146 1zM278 289h186l-93 247zM250 269l121 325l121 -325h-242zM301 754l50 158h183l-105 -158h-128zM329 774h90l77 118h-131z" />
    <glyph glyph-name="Acircumflex" unicode="&#xc2;" horiz-adv-x="747" 
d="M10 -16l278 736l174 -1l275 -735h-171l-58 165h-268l-59 -165h-171zM38 4h129l59 165h296l58 -165h129l-261 695l-146 1zM278 289h186l-93 247zM250 269l121 325l121 -325h-242zM330 751l-157 1l139 153h123l135 -154h-156l-40 57h-5zM320 771l39 57h25l40 -57h102
l-101 114h-105l-103 -113z" />
    <glyph glyph-name="Atilde" unicode="&#xc3;" horiz-adv-x="747" 
d="M448 699l-146 1l-264 -696h129l59 165h296l58 -165h129zM462 719l275 -735h-171l-58 165h-268l-59 -165h-171l278 736zM371 594l121 -325h-242zM371 536l-93 -247h186zM185 768q-3 65 32.5 107.5t93.5 42.5q38 0 77.5 -22t42.5 -22q22 0 18 30h114q3 -65 -33.5 -107.5
t-94.5 -42.5q-34 0 -74.5 22t-49.5 22q-17 0 -13 -30h-113zM205 788h73q5 30 33 30q16 0 48 -18q46 -26 76 -26q46 0 75.5 30.5t32.5 79.5h-74q-5 -30 -38 -30q-11 0 -36 15q-49 29 -84 29q-44 0 -73.5 -30.5t-32.5 -79.5z" />
    <glyph glyph-name="Adieresis" unicode="&#xc4;" horiz-adv-x="747" 
d="M448 699l-146 1l-264 -696h129l59 165h296l58 -165h129zM462 719l275 -735h-171l-58 165h-268l-59 -165h-171l278 736zM371 594l121 -325h-242zM371 536l-93 -247h186zM275 758q-35 0 -59 24t-24 59q0 34 24 58t59 24q34 0 58 -24t24 -58q0 -35 -24 -59t-58 -24zM275 778
q26 0 44 18.5t18 44.5t-18 44t-44 18t-44.5 -18t-18.5 -44q0 -27 18 -45t45 -18zM468 758q-34 0 -58.5 24t-24.5 59q0 34 24 58t59 24q34 0 58 -24t24 -58q0 -35 -24 -59t-58 -24zM468 778q26 0 44 18.5t18 44.5t-18 44t-44 18t-44.5 -18t-18.5 -44q0 -27 18 -45t45 -18z
" />
    <glyph glyph-name="Aring" unicode="&#xc5;" horiz-adv-x="747" 
d="M10 -16l254 672q-35 40 -35 93q0 59 42.5 101t100.5 42t100.5 -42t42.5 -101q0 -49 -31 -89l253 -676h-171l-58 165h-268l-59 -165h-171zM38 4h129l59 165h296l58 -165h129l-247 660q33 38 33 85q0 51 -36 87t-87 36t-87 -36t-36 -87q0 -53 38 -89zM278 289h186l-93 247z
M250 269l121 325l121 -325h-242zM373 721q13 0 22 9.5t9 22.5t-9 22t-22 9t-22.5 -9t-9.5 -22t9.5 -22.5t22.5 -9.5zM373 701q-21 0 -36.5 15.5t-15.5 36.5t15.5 36t36.5 15q20 0 35.5 -15.5t15.5 -35.5q0 -21 -15 -36.5t-36 -15.5z" />
    <glyph glyph-name="AE" unicode="&#xc6;" horiz-adv-x="1053" 
d="M40 -16l426 736h82h463v-151h-308v-137h276v-149h-277v-149h311v-148h-475v163h-222l-99 -165h-177zM74 4h131l99 165h254v-163h435v108h-311v189h277v109h-276v177h308v111h-443h-70zM389 289h149v241zM353 269l205 331v-331h-205z" />
    <glyph glyph-name="Ccedilla" unicode="&#xc7;" horiz-adv-x="818" 
d="M40 347q0 160 112 273.5t270 113.5q116 0 213.5 -68t140.5 -180l-150 -55q-31 71 -83.5 110t-119.5 39q-95 0 -157.5 -66t-62.5 -167q0 -92 63 -155t157 -63q77 0 132.5 40t71.5 108l151 -58q-26 -95 -120 -166.5t-205 -81.5l-7 -14q43 2 74 -28t31 -76
q0 -50 -32.5 -79.5t-87.5 -29.5q-18 0 -34 5t-26 12t-19.5 18t-14 17.5t-10 16.5t-5.5 11l85 37q1 -15 9 -24t19 -9q10 0 17 7t7 17t-7 17t-17 7q-9 0 -15.5 -5.5t-4.5 -12.5l-82 37l34 79q-141 20 -234 126t-93 247zM60 347q0 -141 96 -243.5t240 -112.5l-37 -86l46 -21
q14 12 30 12q18 0 31 -13t13 -31q0 -19 -13 -31.5t-31 -12.5q-25 0 -40 26l-45 -20q30 -50 81 -50q47 0 73.5 23.5t26.5 65.5q0 48 -38 72t-82 2l28 64q102 4 192 66.5t122 149.5l-113 44q-23 -66 -81.5 -104t-135.5 -38q-102 0 -171 68.5t-69 169.5q0 109 68 181t172 72
q68 0 123.5 -37.5t89.5 -106.5l114 42q-44 98 -133 157t-195 59q-149 0 -255.5 -107.5t-106.5 -259.5z" />
    <glyph glyph-name="Egrave" unicode="&#xc8;" horiz-adv-x="555" 
d="M40 -14v734h473v-151h-308v-137h276v-149h-277v-149h311v-148h-475zM60 6h435v108h-311v189h277v109h-276v177h308v111h-433v-694zM213 754l-105 158h183l50 -158h-128zM223 774h90l-36 118h-131z" />
    <glyph glyph-name="Eacute" unicode="&#xc9;" horiz-adv-x="555" 
d="M40 -14v734h473v-151h-308v-137h276v-149h-277v-149h311v-148h-475zM60 6h435v108h-311v189h277v109h-276v177h308v111h-433v-694zM204 754l50 158h183l-105 -158h-128zM232 774h90l77 118h-131z" />
    <glyph glyph-name="Ecircumflex" unicode="&#xca;" horiz-adv-x="555" 
d="M40 -14v734h473v-151h-308v-137h276v-149h-277v-149h311v-148h-475zM60 6h435v108h-311v189h277v109h-276v177h308v111h-433v-694zM231 751l-157 1l139 153h123l135 -154h-156l-40 57h-5zM221 771l39 57h25l40 -57h102l-101 114h-105l-103 -113z" />
    <glyph glyph-name="Edieresis" unicode="&#xcb;" horiz-adv-x="555" 
d="M40 -14v734h473v-151h-308v-137h276v-149h-277v-149h311v-148h-475zM60 6h435v108h-311v189h277v109h-276v177h308v111h-433v-694zM179 758q-35 0 -59 24t-24 59q0 34 24 58t59 24q34 0 58 -24t24 -58q0 -35 -24 -59t-58 -24zM179 778q26 0 44 18.5t18 44.5t-18 44
t-44 18t-44.5 -18t-18.5 -44q0 -27 18 -45t45 -18zM372 758q-34 0 -58.5 24t-24.5 59q0 34 24 58t59 24q34 0 58 -24t24 -58q0 -35 -24 -59t-58 -24zM372 778q26 0 44 18.5t18 44.5t-18 44t-44 18t-44.5 -18t-18.5 -44q0 -27 18 -45t45 -18z" />
    <glyph glyph-name="Igrave" unicode="&#xcc;" horiz-adv-x="353" 
d="M104 -17v736h168v-736h-168zM124 3h128v696h-128v-696zM145 754l-105 158h183l50 -158h-128zM155 774h90l-36 118h-131z" />
    <glyph glyph-name="Iacute" unicode="&#xcd;" horiz-adv-x="355" 
d="M40 -17v736h168v-736h-168zM60 3h128v696h-128v-696zM42 754l50 158h183l-105 -158h-128zM70 774h90l77 118h-131z" />
    <glyph glyph-name="Icircumflex" unicode="&#xce;" horiz-adv-x="517" 
d="M153 -17v736h168v-736h-168zM173 3h128v696h-128v-696zM197 751l-157 1l139 153h123l135 -154h-156l-40 57h-5zM187 771l39 57h25l40 -57h102l-101 114h-105l-103 -113z" />
    <glyph glyph-name="Idieresis" unicode="&#xcf;" horiz-adv-x="478" 
d="M133 -17v736h168v-736h-168zM153 3h128v696h-128v-696zM123 758q-35 0 -59 24t-24 59q0 34 24 58t59 24q34 0 58 -24t24 -58q0 -35 -24 -59t-58 -24zM123 778q26 0 44 18.5t18 44.5t-18 44t-44 18t-44.5 -18t-18.5 -44q0 -27 18 -45t45 -18zM316 758q-34 0 -58.5 24
t-24.5 59q0 34 24 58t59 24q34 0 58 -24t24 -58q0 -35 -24 -59t-58 -24zM316 778q26 0 44 18.5t18 44.5t-18 44t-44 18t-44.5 -18t-18.5 -44q0 -27 18 -45t45 -18z" />
    <glyph glyph-name="Ntilde" unicode="&#xd1;" horiz-adv-x="712" 
d="M524 -16l-311 457v-456h-173v734h158l311 -453v453h163v-735h-148zM534 4h118v695h-123v-497l-341 497h-128v-694h133v502zM173 768q-3 65 32.5 107.5t93.5 42.5q38 0 77.5 -22t42.5 -22q22 0 18 30h114q3 -65 -33.5 -107.5t-94.5 -42.5q-34 0 -74.5 22t-49.5 22
q-17 0 -13 -30h-113zM193 788h73q5 30 33 30q16 0 48 -18q46 -26 76 -26q46 0 75.5 30.5t32.5 79.5h-74q-5 -30 -38 -30q-11 0 -36 15q-49 29 -84 29q-44 0 -73.5 -30.5t-32.5 -79.5z" />
    <glyph glyph-name="Ograve" unicode="&#xd2;" 
d="M419 -36q-157 0 -268 114t-111 275t111 275t268 114q156 0 267 -114t111 -275t-111 -275t-267 -114zM419 -16q148 0 253 108t105 261t-105 261t-253 108q-149 0 -254 -108t-105 -261t105 -261t254 -108zM423 123q89 0 153.5 67.5t64.5 161.5t-64.5 162t-153.5 68
t-153.5 -68t-64.5 -162t64.5 -161.5t153.5 -67.5zM423 103q-97 0 -167.5 73.5t-70.5 175.5q0 103 70 176.5t168 73.5t168 -73.5t70 -176.5q0 -102 -70.5 -175.5t-167.5 -73.5zM362 754l-105 158h183l50 -158h-128zM372 774h90l-36 118h-131z" />
    <glyph glyph-name="Oacute" unicode="&#xd3;" 
d="M419 -36q-157 0 -268 114t-111 275t111 275t268 114q156 0 267 -114t111 -275t-111 -275t-267 -114zM419 -16q148 0 253 108t105 261t-105 261t-253 108q-149 0 -254 -108t-105 -261t105 -261t254 -108zM423 123q89 0 153.5 67.5t64.5 161.5t-64.5 162t-153.5 68
t-153.5 -68t-64.5 -162t64.5 -161.5t153.5 -67.5zM423 103q-97 0 -167.5 73.5t-70.5 175.5q0 103 70 176.5t168 73.5t168 -73.5t70 -176.5q0 -102 -70.5 -175.5t-167.5 -73.5zM352 754l50 158h183l-105 -158h-128zM380 774h90l77 118h-131z" />
    <glyph glyph-name="Ocircumflex" unicode="&#xd4;" 
d="M419 -36q-157 0 -268 114t-111 275t111 275t268 114q156 0 267 -114t111 -275t-111 -275t-267 -114zM419 -16q148 0 253 108t105 261t-105 261t-253 108q-149 0 -254 -108t-105 -261t105 -261t254 -108zM423 123q89 0 153.5 67.5t64.5 161.5t-64.5 162t-153.5 68
t-153.5 -68t-64.5 -162t64.5 -161.5t153.5 -67.5zM423 103q-97 0 -167.5 73.5t-70.5 175.5q0 103 70 176.5t168 73.5t168 -73.5t70 -176.5q0 -102 -70.5 -175.5t-167.5 -73.5zM372 751l-157 1l139 153h123l135 -154h-156l-40 57h-5zM362 771l39 57h25l40 -57h102l-101 114
h-105l-103 -113z" />
    <glyph glyph-name="Otilde" unicode="&#xd5;" 
d="M419 -36q-157 0 -268 114t-111 275t111 275t268 114q156 0 267 -114t111 -275t-111 -275t-267 -114zM419 -16q148 0 253 108t105 261t-105 261t-253 108q-149 0 -254 -108t-105 -261t105 -261t254 -108zM423 123q89 0 153.5 67.5t64.5 161.5t-64.5 162t-153.5 68
t-153.5 -68t-64.5 -162t64.5 -161.5t153.5 -67.5zM423 103q-97 0 -167.5 73.5t-70.5 175.5q0 103 70 176.5t168 73.5t168 -73.5t70 -176.5q0 -102 -70.5 -175.5t-167.5 -73.5zM241 768q-3 65 32.5 107.5t93.5 42.5q38 0 77.5 -22t42.5 -22q22 0 18 30h114
q3 -65 -33.5 -107.5t-94.5 -42.5q-34 0 -74.5 22t-49.5 22q-17 0 -13 -30h-113zM261 788h73q5 30 33 30q16 0 48 -18q46 -26 76 -26q46 0 75.5 30.5t32.5 79.5h-74q-5 -30 -38 -30q-11 0 -36 15q-49 29 -84 29q-44 0 -73.5 -30.5t-32.5 -79.5z" />
    <glyph glyph-name="Odieresis" unicode="&#xd6;" 
d="M419 -36q-157 0 -268 114t-111 275t111 275t268 114q156 0 267 -114t111 -275t-111 -275t-267 -114zM419 -16q148 0 253 108t105 261t-105 261t-253 108q-149 0 -254 -108t-105 -261t105 -261t254 -108zM423 123q89 0 153.5 67.5t64.5 161.5t-64.5 162t-153.5 68
t-153.5 -68t-64.5 -162t64.5 -161.5t153.5 -67.5zM423 103q-97 0 -167.5 73.5t-70.5 175.5q0 103 70 176.5t168 73.5t168 -73.5t70 -176.5q0 -102 -70.5 -175.5t-167.5 -73.5zM320 758q-34 0 -58.5 24t-24.5 59q0 34 24 58t59 24q34 0 58 -24t24 -58q0 -35 -24 -59t-58 -24z
M320 778q26 0 44 18.5t18 44.5t-18 44t-44 18t-44.5 -18t-18.5 -44q0 -27 18 -45t45 -18zM513 758q-35 0 -59 24t-24 59q0 34 24 58t59 24q34 0 58 -24t24 -58q0 -35 -24 -59t-58 -24zM513 778q26 0 44 18.5t18 44.5t-18 44t-44 18t-44.5 -18t-18.5 -44q0 -27 18 -45t45 -18
z" />
    <glyph glyph-name="multiply" unicode="&#xd7;" horiz-adv-x="603" 
d="M400 268l163 -158l-96 -96l-166 159l-164 -159l-96 96l163 157l-164 158l94 95l169 -160l165 160l93 -96zM372 268l161 156l-65 68l-165 -160l-169 160l-66 -67l164 -158l-163 -157l68 -68l164 159l166 -159l68 68z" />
    <glyph glyph-name="Oslash" unicode="&#xd8;" 
d="M244 -74l-122 79l39 62q-121 118 -121 286q0 161 111 275t268 114q75 0 144 -29l42 67l121 -81l-42 -68q113 -116 113 -278q0 -161 -111 -275t-267 -114q-69 0 -135 26zM238 -46l38 61q70 -31 143 -31q148 0 253 108t105 261q0 78 -31 150t-88 124l40 66l-87 59l-40 -65
q-70 35 -152 35q-149 0 -254 -108t-105 -261q0 -82 33 -155.5t94 -126.5l-37 -60zM251 212l226 363q-30 7 -54 7q-89 0 -153.5 -68t-64.5 -162q0 -75 46 -140zM253 178q-68 74 -68 174q0 103 70 176.5t168 73.5q47 0 84 -17zM423 123q89 0 153.5 67.5t64.5 161.5
q0 77 -45 139l-225 -361q24 -7 52 -7zM423 103q-43 0 -82 16l253 406q67 -73 67 -173q0 -102 -70.5 -175.5t-167.5 -73.5z" />
    <glyph glyph-name="Ugrave" unicode="&#xd9;" horiz-adv-x="667" 
d="M341 -29q-68 0 -122.5 18t-87 46t-54 64t-29.5 68.5t-8 63.5v489h169v-480q0 -55 34 -84.5t98 -29.5q121 0 121 109v484h165v-471q0 -37 -7.5 -72t-27 -73.5t-50.5 -66.5t-83 -46.5t-118 -18.5zM341 -9q62 0 110.5 16.5t77 42.5t47 61t25 68.5t6.5 68.5v451h-125v-464
q0 -62 -36.5 -95.5t-104.5 -33.5q-72 0 -112 35t-40 99v460h-129v-469q0 -38 13 -76.5t42.5 -77t87.5 -62.5t138 -24zM280 754l-105 158h183l50 -158h-128zM290 774h90l-36 118h-131z" />
    <glyph glyph-name="Uacute" unicode="&#xda;" horiz-adv-x="667" 
d="M341 -29q-68 0 -122.5 18t-87 46t-54 64t-29.5 68.5t-8 63.5v489h169v-480q0 -55 34 -84.5t98 -29.5q121 0 121 109v484h165v-471q0 -37 -7.5 -72t-27 -73.5t-50.5 -66.5t-83 -46.5t-118 -18.5zM341 -9q62 0 110.5 16.5t77 42.5t47 61t25 68.5t6.5 68.5v451h-125v-464
q0 -62 -36.5 -95.5t-104.5 -33.5q-72 0 -112 35t-40 99v460h-129v-469q0 -38 13 -76.5t42.5 -77t87.5 -62.5t138 -24zM270 754l50 158h183l-105 -158h-128zM298 774h90l77 118h-131z" />
    <glyph glyph-name="Ucircumflex" unicode="&#xdb;" horiz-adv-x="667" 
d="M341 -29q-68 0 -122.5 18t-87 46t-54 64t-29.5 68.5t-8 63.5v489h169v-480q0 -55 34 -84.5t98 -29.5q121 0 121 109v484h165v-471q0 -37 -7.5 -72t-27 -73.5t-50.5 -66.5t-83 -46.5t-118 -18.5zM341 -9q62 0 110.5 16.5t77 42.5t47 61t25 68.5t6.5 68.5v451h-125v-464
q0 -62 -36.5 -95.5t-104.5 -33.5q-72 0 -112 35t-40 99v460h-129v-469q0 -38 13 -76.5t42.5 -77t87.5 -62.5t138 -24zM292 751l-157 1l139 153h123l135 -154h-156l-40 57h-5zM282 771l39 57h25l40 -57h102l-101 114h-105l-103 -113z" />
    <glyph glyph-name="Udieresis" unicode="&#xdc;" horiz-adv-x="667" 
d="M341 -29q-68 0 -122.5 18t-87 46t-54 64t-29.5 68.5t-8 63.5v489h169v-480q0 -55 34 -84.5t98 -29.5q121 0 121 109v484h165v-471q0 -37 -7.5 -72t-27 -73.5t-50.5 -66.5t-83 -46.5t-118 -18.5zM341 -9q62 0 110.5 16.5t77 42.5t47 61t25 68.5t6.5 68.5v451h-125v-464
q0 -62 -36.5 -95.5t-104.5 -33.5q-72 0 -112 35t-40 99v460h-129v-469q0 -38 13 -76.5t42.5 -77t87.5 -62.5t138 -24zM241 758q-35 0 -59 24t-24 59q0 34 24 58t59 24q34 0 58 -24t24 -58q0 -35 -24 -59t-58 -24zM241 778q26 0 44 18.5t18 44.5t-18 44t-44 18t-44.5 -18
t-18.5 -44q0 -27 18 -45t45 -18zM434 758q-34 0 -58.5 24t-24.5 59q0 34 24 58t59 24q34 0 58 -24t24 -58q0 -35 -24 -59t-58 -24zM434 778q26 0 44 18.5t18 44.5t-18 44t-44 18t-44.5 -18t-18.5 -44q0 -27 18 -45t45 -18z" />
    <glyph glyph-name="Yacute" unicode="&#xdd;" horiz-adv-x="730" 
d="M288 -16l5 337l-273 399h207l147 -259l138 259h198l-251 -399v-337h-171zM308 4h131v323l235 373h-150l-150 -281l-159 281h-157l255 -373zM303 754l50 158h183l-105 -158h-128zM331 774h90l77 118h-131z" />
    <glyph glyph-name="germandbls" unicode="&#xdf;" horiz-adv-x="590" 
d="M242 -20v140q74 -10 115 13.5t41 73.5q0 56 -34 80t-113 22v137q117 -3 117 82q0 30 -22.5 51.5t-53.5 21.5q-40 0 -69.5 -29.5t-29.5 -68.5v-519h-153v516q0 107 70.5 173.5t183.5 66.5q101 0 158 -56t63 -119q6 -55 -15 -103.5t-62 -74.5q42 -18 77 -66.5t35 -113.5
q0 -51 -15 -91.5t-40 -65t-57 -42.5t-66 -23.5t-68 -8t-62 3.5zM262 -2q36 -3 70.5 0t71.5 16.5t64 36t44.5 63t17.5 93.5q0 71 -41.5 118.5t-78.5 47.5l-4 19q45 20 70 67.5t19 103.5q-6 59 -57 108t-144 49q-105 0 -169.5 -61t-64.5 -159v-496h113v499q0 48 35.5 83
t83.5 35q40 0 68 -27.5t28 -65.5q0 -97 -117 -102v-97q76 -2 111.5 -31.5t35.5 -90.5q0 -56 -42 -85t-114 -24v-100z" />
    <glyph glyph-name="agrave" unicode="&#xe0;" horiz-adv-x="551" 
d="M227 -30q-80 0 -128.5 37t-57.5 104q-15 157 182 183q11 2 29 4t30 4t25 4t21 4t11 5q7 5 8.5 18t-10 28t-38.5 22q-47 12 -78 -8.5t-37 -68.5l-136 29q4 46 33.5 85.5t77.5 66.5q43 25 103 28.5t110 -15.5q65 -24 100.5 -70t35.5 -107l3 -338h-150l-3 41
q-53 -56 -131 -56zM227 -10q48 0 87 25t60 70l5 -80h112l-3 318q0 113 -124 159q-46 17 -100.5 13.5t-94.5 -26.5q-80 -44 -98 -118l97 -21q12 46 49 66t86 7q36 -10 50.5 -33t11 -43t-13.5 -28q-13 -10 -94 -21q-22 -2 -32 -4q-88 -11 -129.5 -51.5t-34.5 -109.5
q8 -59 51 -91t115 -32zM282 95q37 7 58 32.5t19 60.5q-26 -4 -56.5 -5.5t-47.5 -2.5t-33.5 -4.5t-23 -12t-6.5 -24.5q0 -29 24 -41t66 -3zM286 75q-51 -11 -82.5 6.5t-31.5 57.5q0 17 6.5 28.5t14 17.5t25 9.5t29 4.5t35.5 2q68 5 84 8l12 -9q6 -46 -19.5 -80.5t-72.5 -44.5
zM216 577l-105 158h183l50 -158h-128zM226 597h90l-36 118h-131z" />
    <glyph glyph-name="aacute" unicode="&#xe1;" horiz-adv-x="551" 
d="M227 -30q-80 0 -128.5 37t-57.5 104q-15 157 182 183q11 2 29 4t30 4t25 4t21 4t11 5q7 5 8.5 18t-10 28t-38.5 22q-47 12 -78 -8.5t-37 -68.5l-136 29q4 46 33.5 85.5t77.5 66.5q43 25 103 28.5t110 -15.5q65 -24 100.5 -70t35.5 -107l3 -338h-150l-3 41
q-53 -56 -131 -56zM227 -10q48 0 87 25t60 70l5 -80h112l-3 318q0 113 -124 159q-46 17 -100.5 13.5t-94.5 -26.5q-80 -44 -98 -118l97 -21q12 46 49 66t86 7q36 -10 50.5 -33t11 -43t-13.5 -28q-13 -10 -94 -21q-22 -2 -32 -4q-88 -11 -129.5 -51.5t-34.5 -109.5
q8 -59 51 -91t115 -32zM282 95q37 7 58 32.5t19 60.5q-26 -4 -56.5 -5.5t-47.5 -2.5t-33.5 -4.5t-23 -12t-6.5 -24.5q0 -29 24 -41t66 -3zM286 75q-51 -11 -82.5 6.5t-31.5 57.5q0 17 6.5 28.5t14 17.5t25 9.5t29 4.5t35.5 2q68 5 84 8l12 -9q6 -46 -19.5 -80.5t-72.5 -44.5
zM206 577l50 158h183l-105 -158h-128zM234 597h90l77 118h-131z" />
    <glyph glyph-name="acircumflex" unicode="&#xe2;" horiz-adv-x="551" 
d="M227 -30q-80 0 -128.5 37t-57.5 104q-15 157 182 183q11 2 29 4t30 4t25 4t21 4t11 5q7 5 8.5 18t-10 28t-38.5 22q-47 12 -78 -8.5t-37 -68.5l-136 29q4 46 33.5 85.5t77.5 66.5q43 25 103 28.5t110 -15.5q65 -24 100.5 -70t35.5 -107l3 -338h-150l-3 41
q-53 -56 -131 -56zM227 -10q48 0 87 25t60 70l5 -80h112l-3 318q0 113 -124 159q-46 17 -100.5 13.5t-94.5 -26.5q-80 -44 -98 -118l97 -21q12 46 49 66t86 7q36 -10 50.5 -33t11 -43t-13.5 -28q-13 -10 -94 -21q-22 -2 -32 -4q-88 -11 -129.5 -51.5t-34.5 -109.5
q8 -59 51 -91t115 -32zM282 95q37 7 58 32.5t19 60.5q-26 -4 -56.5 -5.5t-47.5 -2.5t-33.5 -4.5t-23 -12t-6.5 -24.5q0 -29 24 -41t66 -3zM286 75q-51 -11 -82.5 6.5t-31.5 57.5q0 17 6.5 28.5t14 17.5t25 9.5t29 4.5t35.5 2q68 5 84 8l12 -9q6 -46 -19.5 -80.5t-72.5 -44.5
zM242 577l-157 1l139 153h123l135 -154h-156l-40 57h-5zM232 597l39 57h25l40 -57h102l-101 114h-105l-103 -113z" />
    <glyph glyph-name="atilde" unicode="&#xe3;" horiz-adv-x="551" 
d="M227 -30q-80 0 -128.5 37t-57.5 104q-15 157 182 183q11 2 29 4t30 4t25 4t21 4t11 5q7 5 8.5 18t-10 28t-38.5 22q-47 12 -78 -8.5t-37 -68.5l-136 29q4 46 33.5 85.5t77.5 66.5q43 25 103 28.5t110 -15.5q65 -24 100.5 -70t35.5 -107l3 -338h-150l-3 41
q-53 -56 -131 -56zM227 -10q48 0 87 25t60 70l5 -80h112l-3 318q0 113 -124 159q-46 17 -100.5 13.5t-94.5 -26.5q-80 -44 -98 -118l97 -21q12 46 49 66t86 7q36 -10 50.5 -33t11 -43t-13.5 -28q-13 -10 -94 -21q-22 -2 -32 -4q-88 -11 -129.5 -51.5t-34.5 -109.5
q8 -59 51 -91t115 -32zM282 95q37 7 58 32.5t19 60.5q-26 -4 -56.5 -5.5t-47.5 -2.5t-33.5 -4.5t-23 -12t-6.5 -24.5q0 -29 24 -41t66 -3zM286 75q-51 -11 -82.5 6.5t-31.5 57.5q0 17 6.5 28.5t14 17.5t25 9.5t29 4.5t35.5 2q68 5 84 8l12 -9q6 -46 -19.5 -80.5t-72.5 -44.5
zM86 592q-3 65 32.5 107.5t93.5 42.5q38 0 77.5 -22t42.5 -22q22 0 18 30h114q3 -65 -33.5 -107.5t-94.5 -42.5q-34 0 -74.5 22t-49.5 22q-18 0 -13 -30h-113zM106 612h73q5 30 33 30q16 0 48 -18q46 -26 76 -26q46 0 75.5 30.5t32.5 79.5h-74q-5 -30 -38 -30q-11 0 -36 15
q-49 29 -84 29q-44 0 -73.5 -30.5t-32.5 -79.5z" />
    <glyph glyph-name="adieresis" unicode="&#xe4;" horiz-adv-x="551" 
d="M227 -30q-80 0 -128.5 37t-57.5 104q-15 157 182 183q11 2 29 4t30 4t25 4t21 4t11 5q7 5 8.5 18t-10 28t-38.5 22q-47 12 -78 -8.5t-37 -68.5l-136 29q4 46 33.5 85.5t77.5 66.5q43 25 103 28.5t110 -15.5q65 -24 100.5 -70t35.5 -107l3 -338h-150l-3 41
q-53 -56 -131 -56zM227 -10q48 0 87 25t60 70l5 -80h112l-3 318q0 113 -124 159q-46 17 -100.5 13.5t-94.5 -26.5q-80 -44 -98 -118l97 -21q12 46 49 66t86 7q36 -10 50.5 -33t11 -43t-13.5 -28q-13 -10 -94 -21q-22 -2 -32 -4q-88 -11 -129.5 -51.5t-34.5 -109.5
q8 -59 51 -91t115 -32zM282 95q37 7 58 32.5t19 60.5q-26 -4 -56.5 -5.5t-47.5 -2.5t-33.5 -4.5t-23 -12t-6.5 -24.5q0 -29 24 -41t66 -3zM286 75q-51 -11 -82.5 6.5t-31.5 57.5q0 17 6.5 28.5t14 17.5t25 9.5t29 4.5t35.5 2q68 5 84 8l12 -9q6 -46 -19.5 -80.5t-72.5 -44.5
zM187 577q-35 0 -59 24.5t-24 58.5t24 58t59 24q34 0 58 -24t24 -58q0 -35 -24 -59t-58 -24zM187 597q26 0 44 18.5t18 44.5t-18 44t-44 18t-44.5 -18t-18.5 -44q0 -27 18 -45t45 -18zM380 577q-34 0 -58.5 24.5t-24.5 58.5t24 58t59 24q34 0 58 -24t24 -58q0 -35 -24 -59
t-58 -24zM380 597q26 0 44 18.5t18 44.5t-18 44t-44 18t-44.5 -18t-18.5 -44q0 -27 18 -45t45 -18z" />
    <glyph glyph-name="aring" unicode="&#xe5;" horiz-adv-x="551" 
d="M227 -30q-80 0 -128.5 37t-57.5 104q-15 157 182 183q11 2 29 4t30 4t25 4t21 4t11 5q7 5 8.5 18t-10 28t-38.5 22q-47 12 -78 -8.5t-37 -68.5l-136 29q4 46 33.5 85.5t77.5 66.5q43 25 103 28.5t110 -15.5q65 -24 100.5 -70t35.5 -107l3 -338h-150l-3 41
q-53 -56 -131 -56zM227 -10q48 0 87 25t60 70l5 -80h112l-3 318q0 113 -124 159q-46 17 -100.5 13.5t-94.5 -26.5q-80 -44 -98 -118l97 -21q12 46 49 66t86 7q36 -10 50.5 -33t11 -43t-13.5 -28q-13 -10 -94 -21q-22 -2 -32 -4q-88 -11 -129.5 -51.5t-34.5 -109.5
q8 -59 51 -91t115 -32zM282 95q37 7 58 32.5t19 60.5q-26 -4 -56.5 -5.5t-47.5 -2.5t-33.5 -4.5t-23 -12t-6.5 -24.5q0 -29 24 -41t66 -3zM286 75q-51 -11 -82.5 6.5t-31.5 57.5q0 17 6.5 28.5t14 17.5t25 9.5t29 4.5t35.5 2q68 5 84 8l12 -9q6 -46 -19.5 -80.5t-72.5 -44.5
zM278 553q-49 0 -84 35t-35 83q0 49 35 83.5t84 34.5t84 -34.5t35 -83.5q0 -48 -35 -83t-84 -35zM278 573q40 0 69.5 29t29.5 69t-29 69t-70 29t-70 -29t-29 -69t29.5 -69t69.5 -29zM280 646q10 0 17.5 7.5t7.5 18.5q0 10 -7.5 17.5t-17.5 7.5t-18 -7.5t-8 -17.5t8 -18
t18 -8zM280 626q-19 0 -32.5 13.5t-13.5 32.5q0 18 14 31.5t32 13.5t31.5 -13.5t13.5 -31.5q0 -19 -13 -32.5t-32 -13.5z" />
    <glyph glyph-name="ae" unicode="&#xe6;" horiz-adv-x="928" 
d="M227 -30q-80 0 -128.5 37t-57.5 104q-7 78 39 124.5t143 58.5q105 13 116 21q7 5 8.5 18t-10 28t-38.5 22q-47 12 -78 -8.5t-37 -68.5l-136 29q4 46 33.5 85.5t77.5 66.5q43 25 103 28.5t110 -15.5q47 -17 77 -46q74 60 182 60q129 0 198.5 -85t56.5 -230l-371 -4
q5 -34 36 -60t73 -28q79 -6 114 68l141 -44q-19 -57 -84 -106t-162 -49q-119 0 -197 76q-39 -38 -84 -57.5t-68.5 -22t-56.5 -2.5zM227 -10q33 0 55.5 2.5t65.5 22.5t81 58h14q72 -77 190 -77q82 0 138.5 36.5t80.5 86.5l-104 32q-41 -70 -126 -64q-56 4 -94 42t-33 86
l373 4q6 128 -57.5 201.5t-179.5 73.5q-113 0 -183 -67q-30 34 -84 55q-46 17 -100.5 13.5t-94.5 -26.5q-80 -44 -98 -118l97 -21q12 46 49 66t86 7q36 -10 50.5 -33t11 -43t-13.5 -28q-14 -11 -126 -25q-88 -10 -129.5 -51t-34.5 -110q8 -59 51 -91t115 -32zM282 95
q37 7 58 32.5t19 60.5q-26 -4 -56.5 -5.5t-47.5 -2.5t-33.5 -4.5t-23 -12t-6.5 -24.5q0 -29 24 -41t66 -3zM286 75q-51 -11 -82.5 6.5t-31.5 57.5q0 17 6.5 28.5t14 17.5t25 9.5t29 4.5t35.5 2q68 5 84 8l12 -9q6 -46 -19.5 -80.5t-72.5 -44.5zM516 314l212 1
q-5 33 -38.5 54.5t-77.5 18.5q-34 -2 -61 -23t-35 -51zM494 294q-1 44 33.5 77.5t82.5 36.5q60 4 102 -30.5t36 -82.5z" />
    <glyph glyph-name="ccedilla" unicode="&#xe7;" horiz-adv-x="590" 
d="M309 -256q-18 0 -34 5t-26 12t-19.5 18t-14 17.5t-10 16.5t-5.5 11l85 37q1 -15 9 -24t19 -9q10 0 17 7t7 17t-7 17t-17 7q-9 0 -15.5 -5.5t-4.5 -12.5l-82 37l32 75q-96 20 -154.5 96t-58.5 182q0 108 80 190t185 83q96 1 164.5 -49t95.5 -141l-144 -39q-42 85 -118 77
q-47 -5 -78.5 -40.5t-30.5 -81.5q1 -56 31.5 -92t80.5 -40q39 -3 72 20t42 60l150 -43q-24 -79 -86 -129t-145 -58l-4 -8q42 2 73 -28t31 -76q0 -50 -32.5 -79.5t-87.5 -29.5zM309 -236q47 0 73.5 23.5t26.5 65.5q0 48 -38.5 72.5t-81.5 1.5l26 58q76 3 134.5 44t84.5 109
l-111 33q-17 -36 -53 -57.5t-76 -18.5q-58 4 -93.5 46t-36.5 106q-1 53 35.5 94t91.5 48q81 9 130 -73l108 29q-28 75 -89 116t-145 40q-97 -1 -171 -77t-74 -176q0 -106 61 -178.5t160 -83.5l-34 -81l46 -21q14 12 30 12q18 0 31 -13t13 -31q0 -19 -13 -31.5t-31 -12.5
q-25 0 -40 26l-45 -20q30 -50 81 -50z" />
    <glyph glyph-name="egrave" unicode="&#xe8;" horiz-adv-x="610" 
d="M60 244q0 -108 72 -178t183 -70q82 0 138.5 36.5t80.5 86.5l-104 32q-41 -70 -126 -64q-56 4 -94 42t-33 86l373 4q6 128 -57.5 201.5t-179.5 73.5q-114 0 -183.5 -68.5t-69.5 -181.5zM40 244q0 121 75.5 195.5t197.5 74.5q129 0 198.5 -85t56.5 -230l-371 -4
q5 -34 36 -60t73 -28q79 -6 114 68l141 -44q-19 -57 -84 -106t-162 -49q-119 0 -197 76t-78 192zM176 294q-1 44 33.5 77.5t82.5 36.5q60 4 102 -30.5t36 -82.5zM198 314l212 1q-5 33 -38.5 54.5t-77.5 18.5q-34 -2 -61 -23t-35 -51zM383 577h-128l-105 158h183zM355 597
l-36 118h-131l77 -118h90z" />
    <glyph glyph-name="eacute" unicode="&#xe9;" horiz-adv-x="610" 
d="M60 244q0 -108 72 -178t183 -70q82 0 138.5 36.5t80.5 86.5l-104 32q-41 -70 -126 -64q-56 4 -94 42t-33 86l373 4q6 128 -57.5 201.5t-179.5 73.5q-114 0 -183.5 -68.5t-69.5 -181.5zM40 244q0 121 75.5 195.5t197.5 74.5q129 0 198.5 -85t56.5 -230l-371 -4
q5 -34 36 -60t73 -28q79 -6 114 68l141 -44q-19 -57 -84 -106t-162 -49q-119 0 -197 76t-78 192zM176 294q-1 44 33.5 77.5t82.5 36.5q60 4 102 -30.5t36 -82.5zM198 314l212 1q-5 33 -38.5 54.5t-77.5 18.5q-34 -2 -61 -23t-35 -51zM245 577l50 158h183l-105 -158h-128z
M273 597h90l77 118h-131z" />
    <glyph glyph-name="ecircumflex" unicode="&#xea;" horiz-adv-x="610" 
d="M60 244q0 -108 72 -178t183 -70q82 0 138.5 36.5t80.5 86.5l-104 32q-41 -70 -126 -64q-56 4 -94 42t-33 86l373 4q6 128 -57.5 201.5t-179.5 73.5q-114 0 -183.5 -68.5t-69.5 -181.5zM40 244q0 121 75.5 195.5t197.5 74.5q129 0 198.5 -85t56.5 -230l-371 -4
q5 -34 36 -60t73 -28q79 -6 114 68l141 -44q-19 -57 -84 -106t-162 -49q-119 0 -197 76t-78 192zM176 294q-1 44 33.5 77.5t82.5 36.5q60 4 102 -30.5t36 -82.5zM198 314l212 1q-5 33 -38.5 54.5t-77.5 18.5q-34 -2 -61 -23t-35 -51zM264 577l-157 1l139 153h123l135 -154
h-156l-40 57h-5zM254 597l39 57h25l40 -57h102l-101 114h-105l-103 -113z" />
    <glyph glyph-name="edieresis" unicode="&#xeb;" horiz-adv-x="610" 
d="M60 244q0 -108 72 -178t183 -70q82 0 138.5 36.5t80.5 86.5l-104 32q-41 -70 -126 -64q-56 4 -94 42t-33 86l373 4q6 128 -57.5 201.5t-179.5 73.5q-114 0 -183.5 -68.5t-69.5 -181.5zM40 244q0 121 75.5 195.5t197.5 74.5q129 0 198.5 -85t56.5 -230l-371 -4
q5 -34 36 -60t73 -28q79 -6 114 68l141 -44q-19 -57 -84 -106t-162 -49q-119 0 -197 76t-78 192zM176 294q-1 44 33.5 77.5t82.5 36.5q60 4 102 -30.5t36 -82.5zM198 314l212 1q-5 33 -38.5 54.5t-77.5 18.5q-34 -2 -61 -23t-35 -51zM215 577q-35 0 -59 24.5t-24 58.5t24 58
t59 24q34 0 58 -24t24 -58q0 -35 -24 -59t-58 -24zM215 597q26 0 44 18.5t18 44.5t-18 44t-44 18t-44.5 -18t-18.5 -44q0 -27 18 -45t45 -18zM408 577q-34 0 -58.5 24.5t-24.5 58.5t24 58t59 24q34 0 58 -24t24 -58q0 -35 -24 -59t-58 -24zM408 597q26 0 44 18.5t18 44.5
t-18 44t-44 18t-44.5 -18t-18.5 -44q0 -27 18 -45t45 -18z" />
    <glyph glyph-name="igrave" unicode="&#xec;" horiz-adv-x="313" 
d="M273 503v-520h-159v520h159zM253 483h-119v-480h119v480zM273 577h-128l-105 158h183zM245 597l-36 118h-131l77 -118h90z" />
    <glyph glyph-name="iacute" unicode="&#xed;" horiz-adv-x="316" 
d="M199 503v-520h-159v520h159zM179 483h-119v-480h119v480zM43 577l50 158h183l-105 -158h-128zM71 597h90l77 118h-131z" />
    <glyph glyph-name="icircumflex" unicode="&#xee;" horiz-adv-x="477" 
d="M317 503v-520h-159v520h159zM297 483h-119v-480h119v480zM197 577l-157 1l139 153h123l135 -154h-156l-40 57h-5zM187 597l39 57h25l40 -57h102l-101 114h-105l-103 -113z" />
    <glyph glyph-name="idieresis" unicode="&#xef;" horiz-adv-x="438" 
d="M299 503v-520h-159v520h159zM279 483h-119v-480h119v480zM123 577q-35 0 -59 24.5t-24 58.5t24 58t59 24q34 0 58 -24t24 -58q0 -35 -24 -59t-58 -24zM123 597q26 0 44 18.5t18 44.5t-18 44t-44 18t-44.5 -18t-18.5 -44q0 -27 18 -45t45 -18zM316 577q-34 0 -58.5 24.5
t-24.5 58.5t24 58t59 24q34 0 58 -24t24 -58q0 -35 -24 -59t-58 -24zM316 597q26 0 44 18.5t18 44.5t-18 44t-44 18t-44.5 -18t-18.5 -44q0 -27 18 -45t45 -18z" />
    <glyph glyph-name="ntilde" unicode="&#xf1;" horiz-adv-x="569" 
d="M40 498h148v-51q47 56 116 65q69 8 123 -17t79 -77q23 -47 23 -163v-270h-155v276q0 64 -19.5 88t-71.5 24q-37 0 -62.5 -37.5t-25.5 -93.5v-257h-155v513zM60 478v-473h115v237q0 64 31 107.5t77 43.5q60 0 85.5 -30.5t25.5 -101.5v-256h115v250q0 110 -21 155
q-22 46 -70.5 68t-111.5 14q-33 -4 -62.5 -24.5t-42.5 -36.5t-33 -45v92h-108zM87 593q-3 65 32.5 107.5t93.5 42.5q38 0 77.5 -22t42.5 -22q22 0 18 30h114q1 -66 -35 -108t-93 -42q-34 0 -74.5 22t-49.5 22q-17 0 -13 -30h-113zM107 613h73q5 30 33 30q16 0 48 -18
q46 -26 76 -26q44 0 73.5 30.5t33.5 79.5h-73q-5 -30 -38 -30q-11 0 -36 15q-49 29 -84 29q-44 0 -73.5 -30.5t-32.5 -79.5z" />
    <glyph glyph-name="ograve" unicode="&#xf2;" horiz-adv-x="625" 
d="M40 245q0 113 79 192t194 79q114 0 193 -79t79 -192q0 -115 -79.5 -196t-192.5 -81t-193 81t-80 196zM60 245q0 -107 74 -182t179 -75q104 0 178 75.5t74 181.5q0 105 -73 178t-179 73t-179.5 -73t-73.5 -178zM192 244q0 -57 35 -95t87 -38q53 0 87 37.5t34 95.5
q0 55 -35.5 93t-85.5 38q-51 0 -86.5 -38t-35.5 -93zM172 244q0 63 41.5 107t100.5 44t100 -44t41 -107q0 -66 -40.5 -109.5t-100.5 -43.5q-61 0 -101.5 43.5t-40.5 109.5zM380 577h-128l-105 158h183zM352 597l-36 118h-131l77 -118h90z" />
    <glyph glyph-name="oacute" unicode="&#xf3;" horiz-adv-x="625" 
d="M40 245q0 113 79 192t194 79q114 0 193 -79t79 -192q0 -115 -79.5 -196t-192.5 -81t-193 81t-80 196zM60 245q0 -107 74 -182t179 -75q104 0 178 75.5t74 181.5q0 105 -73 178t-179 73t-179.5 -73t-73.5 -178zM192 244q0 -57 35 -95t87 -38q53 0 87 37.5t34 95.5
q0 55 -35.5 93t-85.5 38q-51 0 -86.5 -38t-35.5 -93zM172 244q0 63 41.5 107t100.5 44t100 -44t41 -107q0 -66 -40.5 -109.5t-100.5 -43.5q-61 0 -101.5 43.5t-40.5 109.5zM242 577l50 158h183l-105 -158h-128zM270 597h90l77 118h-131z" />
    <glyph glyph-name="ocircumflex" unicode="&#xf4;" horiz-adv-x="625" 
d="M40 245q0 113 79 192t194 79q114 0 193 -79t79 -192q0 -115 -79.5 -196t-192.5 -81t-193 81t-80 196zM60 245q0 -107 74 -182t179 -75q104 0 178 75.5t74 181.5q0 105 -73 178t-179 73t-179.5 -73t-73.5 -178zM192 244q0 -57 35 -95t87 -38q53 0 87 37.5t34 95.5
q0 55 -35.5 93t-85.5 38q-51 0 -86.5 -38t-35.5 -93zM172 244q0 63 41.5 107t100.5 44t100 -44t41 -107q0 -66 -40.5 -109.5t-100.5 -43.5q-61 0 -101.5 43.5t-40.5 109.5zM268 577l-157 1l139 153h123l135 -154h-156l-40 57h-5zM258 597l39 57h25l40 -57h102l-101 114h-105
l-103 -113z" />
    <glyph glyph-name="otilde" unicode="&#xf5;" horiz-adv-x="625" 
d="M40 245q0 113 79 192t194 79q114 0 193 -79t79 -192q0 -115 -79.5 -196t-192.5 -81t-193 81t-80 196zM60 245q0 -107 74 -182t179 -75q104 0 178 75.5t74 181.5q0 105 -73 178t-179 73t-179.5 -73t-73.5 -178zM192 244q0 -57 35 -95t87 -38q53 0 87 37.5t34 95.5
q0 55 -35.5 93t-85.5 38q-51 0 -86.5 -38t-35.5 -93zM172 244q0 63 41.5 107t100.5 44t100 -44t41 -107q0 -66 -40.5 -109.5t-100.5 -43.5q-61 0 -101.5 43.5t-40.5 109.5zM127 593q-3 65 32.5 107.5t93.5 42.5q38 0 77.5 -22t42.5 -22q22 0 18 30h114q3 -65 -33.5 -107.5
t-94.5 -42.5q-34 0 -74.5 22t-49.5 22q-17 0 -13 -30h-113zM147 613h73q5 30 33 30q16 0 48 -18q46 -26 76 -26q46 0 75.5 30.5t32.5 79.5h-74q-5 -30 -38 -30q-11 0 -36 15q-49 29 -84 29q-44 0 -73.5 -30.5t-32.5 -79.5z" />
    <glyph glyph-name="odieresis" unicode="&#xf6;" horiz-adv-x="625" 
d="M40 245q0 113 79 192t194 79q114 0 193 -79t79 -192q0 -115 -79.5 -196t-192.5 -81t-193 81t-80 196zM60 245q0 -107 74 -182t179 -75q104 0 178 75.5t74 181.5q0 105 -73 178t-179 73t-179.5 -73t-73.5 -178zM192 244q0 -57 35 -95t87 -38q53 0 87 37.5t34 95.5
q0 55 -35.5 93t-85.5 38q-51 0 -86.5 -38t-35.5 -93zM172 244q0 63 41.5 107t100.5 44t100 -44t41 -107q0 -66 -40.5 -109.5t-100.5 -43.5q-61 0 -101.5 43.5t-40.5 109.5zM214 577q-34 0 -58.5 24.5t-24.5 58.5t24 58t59 24q34 0 58 -24t24 -58q0 -35 -24 -59t-58 -24z
M214 597q26 0 44 18.5t18 44.5t-18 44t-44 18t-44.5 -18t-18.5 -44q0 -27 18 -45t45 -18zM407 577q-35 0 -59 24.5t-24 58.5t24 58t59 24q34 0 58 -24t24 -58q0 -35 -24 -59t-58 -24zM407 597q26 0 44 18.5t18 44.5t-18 44t-44 18t-44.5 -18t-18.5 -44q0 -27 18 -45t45 -18z
" />
    <glyph glyph-name="oslash" unicode="&#xf8;" horiz-adv-x="625" 
d="M40 245q0 113 79 192t194 79q43 0 83 -12l28 45l115 -67l-29 -49q75 -78 75 -188q0 -115 -79.5 -196t-192.5 -81q-42 0 -87 14l-29 -46l-113 63l32 54q-76 79 -76 192zM60 245q0 -113 82 -189l-30 -49l79 -45l27 44q45 -18 95 -18q104 0 178 75.5t74 181.5q0 112 -81 185
l27 44l-81 47l-26 -41q-42 16 -91 16q-106 0 -179.5 -73t-73.5 -178zM192 244q0 -30 9 -55l115 186h-2q-51 0 -86.5 -38t-35.5 -93zM172 244q0 63 41.5 107t100.5 44q12 0 35 -5l-149 -241q-28 40 -28 95zM307 111h7q53 0 87 37.5t34 95.5q0 27 -10 54zM273 95l153 242
q29 -38 29 -93q0 -66 -40.5 -109.5t-100.5 -43.5q-9 0 -24 2t-17 2z" />
    <glyph glyph-name="ugrave" unicode="&#xf9;" horiz-adv-x="572" 
d="M378 26q-23 -24 -63.5 -39.5t-84.5 -15.5q-49 0 -86 18t-56 43t-30.5 57.5t-14.5 54t-3 39.5v317h161v-304q0 -37 22 -60t57 -23q38 0 65 22.5t27 54.5v311h160v-516h-150zM392 101l8 -96h112v476h-120v-291q0 -40 -32.5 -68.5t-79.5 -28.5q-43 0 -71 29t-28 74v284h-121
v-297q0 -17 2.5 -36.5t13 -49t27.5 -51.5t50 -38.5t77 -16.5q122 0 162 110zM352 577h-128l-105 158h183zM324 597l-36 118h-131l77 -118h90z" />
    <glyph glyph-name="uacute" unicode="&#xfa;" horiz-adv-x="572" 
d="M378 26q-23 -24 -63.5 -39.5t-84.5 -15.5q-49 0 -86 18t-56 43t-30.5 57.5t-14.5 54t-3 39.5v317h161v-304q0 -37 22 -60t57 -23q38 0 65 22.5t27 54.5v311h160v-516h-150zM392 101l8 -96h112v476h-120v-291q0 -40 -32.5 -68.5t-79.5 -28.5q-43 0 -71 29t-28 74v284h-121
v-297q0 -17 2.5 -36.5t13 -49t27.5 -51.5t50 -38.5t77 -16.5q122 0 162 110zM214 577l50 158h183l-105 -158h-128zM242 597h90l77 118h-131z" />
    <glyph glyph-name="ucircumflex" unicode="&#xfb;" horiz-adv-x="572" 
d="M230 -29q-49 0 -86 18t-56 43t-30.5 57.5t-14.5 54t-3 39.5v317h161v-304q0 -37 22 -60t57 -23q38 0 65 22.5t27 54.5v311h160v-516h-150l-4 41q-23 -24 -63.5 -39.5t-84.5 -15.5zM230 -9q122 0 162 110l8 -96h112v476h-120v-291q0 -40 -32.5 -68.5t-79.5 -28.5
q-43 0 -71 29t-28 74v284h-121v-297q0 -17 2.5 -36.5t13 -49t27.5 -51.5t50 -38.5t77 -16.5zM243 577l-157 1l139 153h123l135 -154h-156l-40 57h-5zM233 597l39 57h25l40 -57h102l-101 114h-105l-103 -113z" />
    <glyph glyph-name="udieresis" unicode="&#xfc;" horiz-adv-x="572" 
d="M378 26q-23 -24 -63.5 -39.5t-84.5 -15.5q-49 0 -86 18t-56 43t-30.5 57.5t-14.5 54t-3 39.5v317h161v-304q0 -37 22 -60t57 -23q38 0 65 22.5t27 54.5v311h160v-516h-150zM392 101l8 -96h112v476h-120v-291q0 -40 -32.5 -68.5t-79.5 -28.5q-43 0 -71 29t-28 74v284h-121
v-297q0 -17 2.5 -36.5t13 -49t27.5 -51.5t50 -38.5t77 -16.5q122 0 162 110zM187 577q-35 0 -59 24.5t-24 58.5t24 58t59 24q34 0 58 -24t24 -58q0 -35 -24 -59t-58 -24zM187 597q26 0 44 18.5t18 44.5t-18 44t-44 18t-44.5 -18t-18.5 -44q0 -27 18 -45t45 -18zM380 577
q-34 0 -58.5 24.5t-24.5 58.5t24 58t59 24q34 0 58 -24t24 -58q0 -35 -24 -59t-58 -24zM380 597q26 0 44 18.5t18 44.5t-18 44t-44 18t-44.5 -18t-18.5 -44q0 -27 18 -45t45 -18z" />
    <glyph glyph-name="yacute" unicode="&#xfd;" horiz-adv-x="614" 
d="M110 -236l119 253l-209 483l166 -1l126 -289l116 289h166l-317 -735h-167zM142 -216h121l301 695h-122l-130 -321l-140 321l-122 1l201 -463zM240 577l50 158h183l-105 -158h-128zM268 597h90l77 118h-131z" />
    <glyph glyph-name="ydieresis" unicode="&#xff;" horiz-adv-x="614" 
d="M110 -236l119 253l-209 483l166 -1l126 -289l116 289h166l-317 -735h-167zM142 -216h121l301 695h-122l-130 -321l-140 321l-122 1l201 -463zM211 577q-35 0 -59 24.5t-24 58.5t24 58t59 24q34 0 58 -24t24 -58q0 -35 -24 -59t-58 -24zM211 597q26 0 44 18.5t18 44.5
t-18 44t-44 18t-44.5 -18t-18.5 -44q0 -27 18 -45t45 -18zM404 577q-34 0 -58.5 24.5t-24.5 58.5t24 58t59 24q34 0 58 -24t24 -58q0 -35 -24 -59t-58 -24zM404 597q26 0 44 18.5t18 44.5t-18 44t-44 18t-44.5 -18t-18.5 -44q0 -27 18 -45t45 -18z" />
    <glyph glyph-name="dotlessi" unicode="&#x131;" horiz-adv-x="239" 
d="M199 503v-520h-159v520h159zM179 483h-119v-480h119v480z" />
    <glyph glyph-name="OE" unicode="&#x152;" horiz-adv-x="1146" 
d="M40 353q0 161 111 275t268 114q116 0 212 -67v45h473v-151h-308v-137h276v-149h-277v-149h311v-148h-475v45q-96 -67 -212 -67q-157 0 -268 114t-111 275zM60 353q0 -153 105 -261t254 -108q130 0 232 88v-66h435v108h-311v189h277v109h-276v177h308v111h-433v-66
q-102 88 -232 88q-149 0 -254 -108t-105 -261zM205 352q0 -94 64.5 -161.5t153.5 -67.5t153.5 67.5t64.5 161.5t-64.5 162t-153.5 68t-153.5 -68t-64.5 -162zM185 352q0 103 70 176.5t168 73.5t168 -73.5t70 -176.5q0 -102 -70.5 -175.5t-167.5 -73.5t-167.5 73.5
t-70.5 175.5z" />
    <glyph glyph-name="oe" unicode="&#x153;" horiz-adv-x="1005" 
d="M313 -32q-113 0 -193 81t-80 196q0 113 79 192t194 79t194 -79q77 77 201 77q129 0 198.5 -85t56.5 -230l-371 -4q5 -34 36 -60t73 -28q79 -6 114 68l141 -44q-19 -57 -84 -106t-162 -49q-120 0 -200 78q-80 -86 -197 -86zM313 -12q115 0 189 87l15 1q74 -80 193 -80
q82 0 138.5 36.5t80.5 86.5l-104 32q-41 -70 -126 -64q-56 4 -94 42t-33 86l373 4q6 128 -57.5 201.5t-179.5 73.5q-124 0 -194 -79h-14q-75 81 -187 81q-106 0 -179.5 -73t-73.5 -178q0 -107 74 -182t179 -75zM314 111q53 0 87 37.5t34 95.5q0 55 -35.5 93t-85.5 38
q-51 0 -86.5 -38t-35.5 -93q0 -57 35 -95t87 -38zM314 91q-61 0 -101.5 43.5t-40.5 109.5q0 63 41.5 107t100.5 44t100 -44t41 -107q0 -66 -40.5 -109.5t-100.5 -43.5zM593 314l212 1q-5 33 -38.5 54.5t-77.5 18.5q-34 -2 -61 -23t-35 -51zM571 294q-1 44 33.5 77.5
t82.5 36.5q60 4 102 -30.5t36 -82.5z" />
    <glyph glyph-name="Scaron" unicode="&#x160;" horiz-adv-x="621" 
d="M330 -29q-113 -6 -195 56t-95 163l146 56q10 -52 41.5 -86.5t73.5 -41.5q48 -8 82.5 11.5t38.5 57.5q5 42 -37 72.5t-155 67.5q-74 24 -119.5 83.5t-41.5 128.5q4 71 52 125t122 71q40 12 88.5 7t91.5 -21t80 -54t55 -92l-140 -58q-14 50 -55.5 70.5t-93.5 3.5
q-56 -19 -46 -75q4 -33 83 -63q71 -26 114.5 -46.5t83 -50t58 -68t19.5 -89.5q2 -95 -68 -158.5t-183 -69.5zM328 -9q106 5 170.5 62.5t62.5 145.5q-1 47 -17.5 81.5t-53.5 62t-78.5 47t-111.5 45.5q-90 33 -97 77q-13 73 60 97q54 19 100 0.5t67 -66.5l102 43
q-19 45 -52.5 76.5t-71.5 44t-81 16t-80 -7.5q-68 -15 -111.5 -64.5t-46.5 -113.5q-4 -61 37.5 -115t109.5 -77q114 -37 163 -71.5t43 -88.5q-5 -47 -46 -71.5t-99 -15.5q-43 7 -76 39.5t-49 82.5l-110 -42q17 -88 91.5 -140t174.5 -47zM247 751l-139 153l157 1l39 -57h5
l40 57h156l-135 -154h-123zM255 771h105l101 114h-102l-40 -57h-25l-39 57l-103 -1z" />
    <glyph glyph-name="scaron" unicode="&#x161;" horiz-adv-x="541" 
d="M278 -31q-86 0 -149.5 41t-88.5 114l137 60q7 -27 29.5 -49t49.5 -28q32 -7 61.5 2.5t31.5 28.5q2 21 -24.5 33t-77 21t-62.5 13q-53 17 -88 57t-35 83q0 67 53.5 118t134.5 61q68 8 144 -30t100 -111l-134 -55q-4 24 -30 42t-56 18q-26 0 -44.5 -9t-18.5 -21
q0 -17 20.5 -25.5t80.5 -22.5q8 -1 12.5 -2.5t12.5 -3t15 -3.5q149 -37 149 -167q0 -69 -64.5 -117t-158.5 -48zM278 -11q86 0 144.5 42.5t58.5 102.5q0 115 -133 147q-107 26 -124 33q-33 15 -33 44q0 22 24 36t59 14q30 0 57.5 -15t40.5 -38l96 39q-27 59 -92 88t-124 22
q-73 -9 -121.5 -54.5t-48.5 -104.5q0 -37 31.5 -71.5t77.5 -48.5q7 -2 48 -11q29 -5 46 -9.5t40.5 -13t34.5 -22.5t9 -33q-3 -28 -39 -43t-78 -6q-27 6 -50.5 25t-35.5 45l-100 -43q26 -59 82 -92t130 -33zM212 577l-139 153l157 1l39 -57h5l40 57h156l-135 -154h-123z
M220 597h105l101 114h-102l-40 -57h-25l-39 57l-103 -1z" />
    <glyph glyph-name="Ydieresis" unicode="&#x178;" horiz-adv-x="730" 
d="M288 -16l5 337l-273 399h207l147 -259l138 259h198l-251 -399v-337h-171zM308 4h131v323l235 373h-150l-150 -281l-159 281h-157l255 -373zM273 758q-35 0 -59 24t-24 59q0 34 24 58t59 24q34 0 58 -24t24 -58q0 -35 -24 -59t-58 -24zM273 778q26 0 44 18.5t18 44.5
t-18 44t-44 18t-44.5 -18t-18.5 -44q0 -27 18 -45t45 -18zM466 758q-34 0 -58.5 24t-24.5 59q0 34 24 58t59 24q34 0 58 -24t24 -58q0 -35 -24 -59t-58 -24zM466 778q26 0 44 18.5t18 44.5t-18 44t-44 18t-44.5 -18t-18.5 -44q0 -27 18 -45t45 -18z" />
    <glyph glyph-name="zcaron" unicode="&#x17e;" horiz-adv-x="517" 
d="M40 -16v122l237 259h-227v135h425v-125l-243 -256h245v-135h-437zM60 4h397v95h-271l269 284v97h-385v-95h253l-263 -287v-94zM220 731l39 -57h5l40 57h156l-135 -154h-123l-139 153zM210 711l-103 -1l103 -113h105l101 114h-102l-40 -57h-25z" />
    <glyph glyph-name="endash" unicode="&#x2013;" horiz-adv-x="603" 
d="M40 239v138h523v-138h-523zM60 259h483v98h-483v-98z" />
    <glyph glyph-name="emdash" unicode="&#x2014;" horiz-adv-x="861" 
d="M40 239v134h781v-134h-781zM60 259h741v94h-741v-94z" />
    <glyph glyph-name="quoteleft" unicode="&#x2018;" horiz-adv-x="277" 
d="M138 435q-40 0 -69 29t-29 69q0 35 21 61l103 152l72 -49l-50 -78q51 -28 51 -86q0 -40 -29 -69t-70 -29zM138 455q32 0 55.5 23t23.5 55q0 27 -16.5 48.5t-43.5 27.5l51 82l-38 27l-93 -136q-17 -22 -17 -49q0 -32 23 -55t55 -23z" />
    <glyph glyph-name="quoteright" unicode="&#x2019;" horiz-adv-x="277" 
d="M113 431l-72 49l50 78q-51 28 -51 86q0 40 29 69t70 29q40 0 69 -29t29 -69q0 -36 -21 -61zM107 459l93 136q17 22 17 49q0 32 -23 55t-55 23t-55.5 -23t-23.5 -55q0 -27 16.5 -48.5t43.5 -27.5l-51 -82z" />
    <glyph glyph-name="quotesinglbase" unicode="&#x201a;" horiz-adv-x="277" 
d="M113 -135l-72 49l50 78q-51 28 -51 86q0 40 29 69t70 29q40 0 69 -29t29 -69q0 -36 -21 -61zM107 -107l93 136q17 22 17 49q0 32 -23 55t-55 23t-55.5 -23t-23.5 -55q0 -27 16.5 -48.5t43.5 -27.5l-51 -82z" />
    <glyph glyph-name="quotedblleft" unicode="&#x201c;" horiz-adv-x="497" 
d="M358 435q-40 0 -69 29t-29 69q0 35 21 61l103 152l72 -49l-50 -78q51 -28 51 -86q0 -40 -29 -69t-70 -29zM358 455q32 0 55.5 23t23.5 55q0 27 -16.5 48.5t-43.5 27.5l51 82l-38 27l-93 -136q-17 -22 -17 -49q0 -32 23 -55t55 -23zM138 435q-40 0 -69 29t-29 69
q0 35 21 61l103 152l72 -49l-50 -78q51 -28 51 -86q0 -40 -29 -69t-70 -29zM138 455q32 0 55.5 23t23.5 55q0 27 -16.5 48.5t-43.5 27.5l51 82l-38 27l-93 -136q-17 -22 -17 -49q0 -32 23 -55t55 -23z" />
    <glyph glyph-name="quotedblright" unicode="&#x201d;" horiz-adv-x="498" 
d="M334 431l-72 49l50 78q-51 28 -51 86q0 40 29 69t70 29q40 0 69 -29t29 -69q0 -36 -21 -61zM328 459l93 136q17 22 17 49q0 32 -23 55t-55 23t-55.5 -23t-23.5 -55q0 -27 16.5 -48.5t43.5 -27.5l-51 -82zM113 431l-72 49l50 78q-51 28 -51 86q0 40 29 69t70 29
q40 0 69 -29t29 -69q0 -36 -21 -61zM107 459l93 136q17 22 17 49q0 32 -23 55t-55 23t-55.5 -23t-23.5 -55q0 -27 16.5 -48.5t43.5 -27.5l-51 -82z" />
    <glyph glyph-name="quotedblbase" unicode="&#x201e;" horiz-adv-x="498" 
d="M334 -135l-72 49l50 78q-51 28 -51 86q0 40 29 69t70 29q40 0 69 -29t29 -69q0 -36 -21 -61zM328 -107l93 136q17 22 17 49q0 32 -23 55t-55 23t-55.5 -23t-23.5 -55q0 -27 16.5 -48.5t43.5 -27.5l-51 -82zM113 -135l-72 49l50 78q-51 28 -51 86q0 40 29 69t70 29
q40 0 69 -29t29 -69q0 -36 -21 -61zM107 -107l93 136q17 22 17 49q0 32 -23 55t-55 23t-55.5 -23t-23.5 -55q0 -27 16.5 -48.5t43.5 -27.5l-51 -82z" />
    <glyph glyph-name="dagger" unicode="&#x2020;" horiz-adv-x="459" 
d="M295 149h-131v301h-124v127h123v144h131v-144h125v-127h-124v-301zM275 169v301h124v87h-125v144h-91v-144h-123v-87h124v-301h91z" />
    <glyph glyph-name="bullet" unicode="&#x2022;" horiz-adv-x="364" 
d="M182 181q-58 0 -100 41.5t-42 100.5q0 58 41.5 99.5t100.5 41.5t100.5 -41.5t41.5 -99.5q0 -59 -42 -100.5t-100 -41.5zM182 201q51 0 86.5 35.5t35.5 86.5q0 50 -36 85.5t-86 35.5t-86 -35.5t-36 -85.5q0 -51 35.5 -86.5t86.5 -35.5z" />
    <glyph glyph-name="ellipsis" unicode="&#x2026;" horiz-adv-x="767" 
d="M139 -20q-41 0 -70 29t-29 70q0 40 29 69t70 29q40 0 69 -29t29 -69q0 -41 -29 -70t-69 -29zM139 0q32 0 55 23.5t23 55.5t-23 55t-55 23t-55.5 -23t-23.5 -55q0 -33 23 -56t56 -23zM382 -20q-40 0 -69.5 29t-29.5 70q0 40 29 69t70 29q40 0 69 -29t29 -69q0 -41 -29 -70
t-69 -29zM382 0q32 0 55 23.5t23 55.5t-23 55t-55 23t-55.5 -23t-23.5 -55q0 -33 23 -56t56 -23zM629 -20q-41 0 -70 29t-29 70q0 40 29 69t70 29q40 0 69 -29t29 -69q0 -41 -29 -70t-69 -29zM629 0q32 0 55 23.5t23 55.5t-23 55t-55 23t-55.5 -23t-23.5 -55q0 -33 23 -56
t56 -23z" />
    <glyph glyph-name="guilsinglleft" unicode="&#x2039;" horiz-adv-x="397" 
d="M267 22l-227 245l227 247l90 -83l-151 -164l151 -163zM269 50l60 56l-151 161l151 162l-60 57l-201 -219z" />
    <glyph glyph-name="guilsinglright" unicode="&#x203a;" horiz-adv-x="397" 
d="M130 22l-90 82l151 163l-151 164l90 83l227 -247zM128 50l201 217l-201 219l-60 -57l151 -162l-151 -161z" />
    <glyph glyph-name="Euro" unicode="&#x20ac;" horiz-adv-x="691" 
d="M40 197v120h59v21v22h-59v120h87q42 102 132.5 164t198.5 62q98 0 181 -51l-74 -116q-47 27 -101 27q-101 0 -168 -86h189l-24 -120h-211q-1 -7 -1 -21q0 -15 1 -22h205l-24 -120h-133q65 -84 166 -84q69 0 125 43l62 -129q-89 -58 -193 -58q-109 0 -199.5 62t-132.5 166
h-86zM60 217h80q37 -103 124.5 -165.5t193.5 -62.5q90 0 167 46l-44 91q-54 -33 -117 -33q-62 0 -116.5 33t-87.5 91h155l16 80h-199q-3 36 -3 42q0 5 3 41h213l16 80h-202q33 59 88 92.5t117 33.5q50 0 94 -21l53 83q-71 38 -153 38q-106 0 -193 -62t-124 -164h-81v-80h61
q-2 -15 -2 -42q0 -29 3 -41h-62v-80z" />
    </font>
</defs>
</svg>
