<?xml version="1.0" standalone="no"?>
<!DOCTYPE svg PUBLIC "-//W3C//DTD SVG 1.1//EN" "http://www.w3.org/Graphics/SVG/1.1/DTD/svg11.dtd" >
<svg xmlns="http://www.w3.org/2000/svg" xmlns:xlink="http://www.w3.org/1999/xlink" version="1.1">
<metadata>
Created by FontForge 20170731 at Wed Apr 29 08:17:16 2020
 By Aleksey,,,
Copyright (c) 2020 by Brent Anderson.
</metadata>
<defs>
<font id="PulpDisplay-OutlineItalic" horiz-adv-x="837" >
  <font-face 
    font-family="Pulp Display Outline Italic"
    font-weight="400"
    font-style="italic"
    font-stretch="normal"
    units-per-em="1000"
    panose-1="0 0 8 0 0 0 0 0 0 0"
    ascent="800"
    descent="-200"
    x-height="499"
    cap-height="719"
    bbox="-154 -256 1187 923"
    underline-thickness="50"
    underline-position="-200"
    unicode-range="U+0020-20AC"
  />
<missing-glyph horiz-adv-x="638" 
d="M-7 -17l130 737h558l-130 -737h-558zM16 3h518l123 697h-518zM151 212l119 138l-70 138zM120 146l71 406l103 -202zM277 593l75 -147l125 147h-200zM243 613h276l-174 -203zM195 111h194l-71 142zM154 91l170 198l100 -198h-270zM400 350l72 -144l51 288zM376 350
l178 208l-73 -416z" />
    <glyph glyph-name=".notdef" horiz-adv-x="638" 
d="M-7 -17l130 737h558l-130 -737h-558zM16 3h518l123 697h-518zM151 212l119 138l-70 138zM120 146l71 406l103 -202zM277 593l75 -147l125 147h-200zM243 613h276l-174 -203zM195 111h194l-71 142zM154 91l170 198l100 -198h-270zM400 350l72 -144l51 288zM376 350
l178 208l-73 -416z" />
    <glyph glyph-name=".null" horiz-adv-x="0" 
 />
    <glyph glyph-name="nonmarkingreturn" horiz-adv-x="333" 
 />
    <glyph glyph-name="space" unicode=" " horiz-adv-x="250" 
 />
    <glyph glyph-name="exclam" unicode="!" horiz-adv-x="277" 
d="M73 228l73 490h154l-100 -490h-127zM97 248h87l92 450h-114zM91 -20q-41 0 -64.5 29.5t-16.5 69.5t41 69t75 29q40 0 64 -29t17 -69q-8 -41 -42 -70t-74 -29zM95 0q32 0 59 23.5t33 55.5q5 32 -13.5 55t-50.5 23t-60 -23t-33 -55q-6 -33 13 -56t52 -23z" />
    <glyph glyph-name="numbersign" unicode="#" horiz-adv-x="720" 
d="M27 178l46 124l112 -2l28 88h-118l46 126h113l59 180h133l-59 -181h91l61 180h129l-57 -179l115 -1l-40 -126h-115l-28 -87h116l-43 -122h-114l-65 -192h-127l60 192h-91l-65 -195l-131 2l63 194zM55 198l119 1l-63 -194l88 -2l66 195h131l-60 -192h87l65 192h116l27 82
h-114l40 127h115l27 86l-116 1l58 179h-87l-61 -180h-133l59 181h-91l-60 -180h-115l-30 -86h116l-40 -128l-113 2zM317 299l96 1l29 89h-96zM289 279l42 130h138l-42 -129z" />
    <glyph glyph-name="dollar" unicode="$" horiz-adv-x="582" 
d="M170 -88l12 67q-68 19 -107.5 75.5t-43.5 142.5l137 34q4 -104 97 -118q42 -7 75 12t40 53q7 35 -18.5 59t-111.5 62q-164 72 -139 219q12 68 66 118.5t134 67.5h-1l12 66h129l-13 -70q59 -17 97.5 -59.5t47.5 -99.5l-133 -50q-7 46 -46 67.5t-91 7.5q-58 -14 -55 -72
q1 -18 20.5 -37t46.5 -31q124 -48 172 -104.5t34 -136.5q-15 -81 -73.5 -136.5t-146.5 -71.5l-12 -65h-129zM194 -68h89l11 62q86 10 144.5 62t72.5 129q13 74 -32 125.5t-163 97.5q-26 10 -52 33t-27 49q-2 36 17.5 61.5t55.5 34.5q55 13 97.5 -6t58.5 -63l93 35
q-13 50 -50.5 84.5t-92.5 47.5l11 66h-89l-11 -64l-15 -2q-73 -16 -121.5 -60.5t-59.5 -105.5q-12 -68 19.5 -117t110.5 -84q85 -38 116.5 -66t22.5 -73q-8 -44 -50 -68.5t-93 -16.5q-96 16 -108 114l-97 -24q17 -160 153 -188z" />
    <glyph glyph-name="percent" unicode="%" horiz-adv-x="878" 
d="M213 -36l-91 68l577 685l88 -68zM212 -8l546 651l-58 46l-549 -651zM243 348q-78 0 -122.5 53.5t-30.5 130.5q14 76 76.5 128t140.5 52q77 0 121.5 -52.5t31.5 -127.5q-13 -76 -76.5 -130t-140.5 -54zM247 368q68 0 124.5 48t68.5 116q11 67 -28 113.5t-108 46.5
q-70 0 -126 -46.5t-68 -113.5q-12 -68 27.5 -116t109.5 -48zM262 466q27 0 47.5 18t25.5 45q5 25 -10 42.5t-41 17.5q-27 0 -49 -17.5t-26 -42.5q-4 -28 10.5 -45.5t42.5 -17.5zM259 446q-36 0 -56 23.5t-14 59.5q6 34 34.5 57t63.5 23q34 0 54 -23t14 -57
q-6 -36 -33.5 -59.5t-62.5 -23.5zM604 -32q-78 0 -122.5 53.5t-30.5 130.5q14 76 76.5 128t140.5 52q77 0 121.5 -52.5t31.5 -127.5q-13 -76 -76.5 -130t-140.5 -54zM608 -12q68 0 124.5 48t68.5 116q11 67 -28 113.5t-108 46.5q-70 0 -126 -46.5t-68 -113.5
q-12 -68 27.5 -116t109.5 -48zM623 86q27 0 47.5 18t25.5 45q5 25 -10 42.5t-41 17.5q-27 0 -49 -17.5t-26 -42.5q-4 -28 10.5 -45.5t42.5 -17.5zM620 66q-36 0 -56 23.5t-14 59.5q6 34 34.5 57t63.5 23q34 0 54 -23t14 -57q-6 -36 -33.5 -59.5t-62.5 -23.5z" />
    <glyph glyph-name="ampersand" unicode="&#x26;" horiz-adv-x="701" 
d="M634 258l-56 66l-102 -95l-195 255q-16 25 -12 52.5t19 49t41.5 33.5t54.5 7q58 -11 52 -81l97 1q17 77 -30 128t-132 45q-68 -5 -127 -49.5t-77.5 -108.5t24.5 -136q-2 -1 -15.5 -12.5t-17.5 -15t-17 -15t-18.5 -18t-16.5 -19t-16.5 -23.5t-13 -25t-12 -29.5t-7.5 -32.5
q-10 -55 1.5 -101.5t37 -75.5t57.5 -45.5t67 -20.5q42 -4 82.5 6t62.5 23t50 33t34 24l65 -76l86 68l-71 93zM662 258l-105 -95l71 -93l-119 -96l-67 78q-60 -44 -92 -59q-64 -28 -136 -21q-36 4 -71 22.5t-63 50t-40.5 81.5t-2.5 109q6 36 20 66.5t35 55.5t35 38t37 32
q-37 76 -13 144t87.5 115.5t133.5 52.5q100 7 153 -56.5t23 -156.5l-136 -1q17 71 -35 81q-45 8 -73.5 -31t-3.5 -77l182 -239l99 93zM393 154q-32 -40 -79.5 -55.5t-90.5 1.5q-45 17 -59.5 66t7 103t70.5 82zM367 152l-133 172q-54 -42 -55 -113.5t53 -92.5
q34 -13 70.5 -3.5t64.5 37.5z" />
    <glyph glyph-name="quotesingle" unicode="'" horiz-adv-x="251" 
d="M114 363l-16 205q-3 38 28 70.5t71 32.5q42 0 63 -31.5t5 -70.5l-88 -206h-63zM133 383h31q8 13 12 27l70 163q12 30 -4 54t-48 24q-30 0 -53.5 -25t-21.5 -54z" />
    <glyph glyph-name="parenleft" unicode="(" horiz-adv-x="381" 
d="M423 714q-62 -69 -96.5 -112.5t-70.5 -115t-49 -148.5q-41 -227 77 -414l-128 -80q-64 80 -95 215.5t-7 272.5q23 132 93.5 243t176.5 221zM394 710l-71 58q-99 -105 -163 -209t-86 -227q-22 -129 4.5 -255t84.5 -207l93 58q-109 188 -69 410q19 109 69.5 191.5
t137.5 180.5z" />
    <glyph glyph-name="parenright" unicode=")" horiz-adv-x="381" 
d="M81 -156l-98 80q182 188 223 414q7 40 8 76t-4.5 70t-12.5 61t-21.5 60t-24.5 53.5t-29 55.5l127 82q67 -110 98 -221.5t8 -242.5q-24 -137 -102.5 -272.5t-171.5 -215.5zM84 -130q87 81 158 207.5t93 254.5q22 122 -5.5 226.5t-89.5 209.5l-91 -58q53 -97 74.5 -180
t2.5 -192q-41 -224 -215 -410z" />
    <glyph glyph-name="asterisk" unicode="*" horiz-adv-x="515" 
d="M194 308l-85 73l87 97l-109 41l62 115l107 -41l22 123h125l-19 -122l119 40l19 -118l-121 -39l55 -96l-113 -73l-58 98zM195 336l95 102l62 -102l77 49l-58 102l127 41l-12 80l-127 -42l21 130h-85l-23 -131l-116 43l-40 -77l114 -43l-92 -103z" />
    <glyph glyph-name="plus" unicode="+" horiz-adv-x="569" 
d="M312 25h-136l32 177l-177 -1l24 134l176 1l31 176h136l-31 -177h177l-24 -134h-177zM296 45l31 176h177l16 94h-177l32 177h-96l-31 -176l-177 -1l-16 -94l176 1l-31 -177h96z" />
    <glyph glyph-name="comma" unicode="," horiz-adv-x="283" 
d="M42 -146l-63 49l73 90q-46 28 -36 86q7 40 41 69t75 29q40 0 64 -29t17 -69q-6 -35 -32 -61zM41 -118l126 148q21 21 26 49q5 32 -13.5 55t-50.5 23t-60 -23t-33 -55q-5 -27 8 -48.5t38 -27.5l-74 -94z" />
    <glyph glyph-name="hyphen" unicode="-" horiz-adv-x="440" 
d="M422 377l-24 -138h-360l24 138h360zM399 357h-320l-17 -98h320z" />
    <glyph glyph-name="period" unicode="." horiz-adv-x="277" 
d="M91 -20q-41 0 -64.5 29.5t-16.5 69.5t41 69t75 29q40 0 64 -29t17 -69q-8 -41 -42 -70t-74 -29zM95 0q32 0 59 23.5t33 55.5q5 32 -13.5 55t-50.5 23t-60 -23t-33 -55q-6 -33 13 -56t52 -23z" />
    <glyph glyph-name="slash" unicode="/" horiz-adv-x="533" 
d="M-7 -17l435 739h148l-433 -738zM26 3l107 1l410 698h-104z" />
    <glyph glyph-name="zero" unicode="0" horiz-adv-x="678" 
d="M289 -34q-125 0 -193 109t-40 263q27 155 133.5 263.5t230.5 108.5t192.5 -108.5t41.5 -263.5q-28 -155 -134.5 -263.5t-230.5 -108.5zM292 -14q116 0 216 103t126 249q25 146 -38 249t-179 103t-216 -103t-125 -249q-26 -146 37 -249t179 -103zM316 124q66 0 113 57
t65 159q17 98 -10.5 157t-91.5 59q-65 0 -113.5 -58.5t-65.5 -157.5q-18 -101 9.5 -158.5t93.5 -57.5zM312 104q-74 0 -106 63.5t-13 172.5q19 107 74 171.5t128 64.5t105.5 -64.5t13.5 -171.5q-20 -111 -73 -173.5t-129 -62.5z" />
    <glyph glyph-name="one" unicode="1" horiz-adv-x="472" 
d="M280 520l-151 -75l-30 140l238 116h135l-127 -717h-160zM306 554l-97 -550h120l119 677h-109l-216 -106l21 -102z" />
    <glyph glyph-name="two" unicode="2" horiz-adv-x="585" 
d="M201 106l126 103q5 4 31.5 26t34.5 28.5t31.5 27.5t33 32t28 31.5t27 36t19.5 36.5t16 41.5t7 42.5q7 91 -52.5 139t-142.5 48q-64 0 -127.5 -39t-112.5 -109l96 -46q18 37 54.5 60.5t74.5 23.5q32 0 58.5 -21.5t30.5 -59.5t-39 -90q-28 -34 -69.5 -72.5t-66.5 -60
t-104 -84.5t-109 -88l-19 -108h455l18 102h-299zM254 126h269l-25 -142h-495l24 136l102 83q71 56 105.5 85t76 67.5t71.5 73.5q36 43 33.5 74t-24 48t-50.5 17q-37 0 -71.5 -27t-44.5 -65l-134 64q52 83 125 130.5t148 47.5q40 0 78 -12.5t70 -36t49.5 -64.5t13.5 -92
q-2 -21 -7.5 -42.5t-11.5 -38t-20 -37.5t-21.5 -33.5t-27.5 -33t-27.5 -29t-31.5 -29.5t-29.5 -25.5t-32 -26t-28.5 -23.5z" />
    <glyph glyph-name="three" unicode="3" horiz-adv-x="598" 
d="M179 219q14 -104 99 -104q42 0 74 21.5t38 55.5q10 55 -24.5 74.5t-141.5 18.5l24 135q86 -1 126.5 19t48.5 68q5 28 -15 45t-57 17q-60 0 -108 -79l-128 58q41 74 112.5 118.5t148.5 44.5q35 0 69.5 -10t67 -30t51.5 -57.5t16 -86.5q-4 -63 -37 -103.5t-72 -61.5
q37 -20 63 -61t14 -105q-17 -101 -97.5 -164t-191.5 -63q-46 0 -82.5 11t-60 27.5t-42.5 44t-29 50.5t-21 57zM162 193l-112 -44q14 -38 28 -62.5t38 -49t60.5 -36.5t86.5 -12q103 0 176 57t89 150q6 33 0 60.5t-18.5 44.5t-27 29t-25 16.5t-13.5 4.5l3 20q3 0 13 4.5
t26.5 16.5t31.5 28.5t27 44t14 60.5q3 36 -8 65.5t-30 47.5t-45 30.5t-51.5 17.5t-51.5 5q-66 0 -128 -36t-103 -97l96 -42q50 73 117 73q46 0 70.5 -22.5t17.5 -59.5q-10 -55 -52.5 -80t-126.5 -27l-16 -95q96 -1 134.5 -24.5t27.5 -88.5q-7 -42 -45.5 -69.5t-89.5 -27.5
q-90 0 -113 98z" />
    <glyph glyph-name="four" unicode="4" horiz-adv-x="636" 
d="M449 4l23 134h84l18 103h-86l78 440h-138l-369 -438l-19 -104h317l-23 -135h115zM465 -16h-155l24 135h-317l23 130l382 452h168l-78 -440h86l-25 -143h-84zM170 242l259 300l-52 -300h-207zM211 262h149l38 216z" />
    <glyph glyph-name="five" unicode="5" horiz-adv-x="589" 
d="M48 159q8 -79 69.5 -125.5t150.5 -42.5q26 1 54.5 8.5t61.5 24t60 40t48.5 62t29.5 85.5q10 58 -2.5 102.5t-40.5 68.5t-58.5 35.5t-60.5 11.5q-41 0 -69 -7.5t-46.5 -17.5t-24.5 -12l51 198h277l16 91h-377l-86 -349l101 -38q47 45 113 45q47 0 77 -35.5t22 -81.5
q-10 -57 -48 -93.5t-88 -36.5q-51 0 -80.5 24t-43.5 78zM26 172l144 47q13 -59 38 -83t74 -24q41 0 72.5 30.5t39.5 79.5q7 38 -18.5 67.5t-64.5 29.5q-29 0 -59.5 -14t-46.5 -35l-126 48l94 383h415l-24 -131h-279l-36 -144q44 23 114 23q25 0 51.5 -7.5t54.5 -25t46.5 -45
t27.5 -67.5t-1 -93q-9 -51 -32.5 -92.5t-53.5 -68t-65.5 -44.5t-66 -26t-57.5 -9q-102 -5 -170 51.5t-71 149.5z" />
    <glyph glyph-name="six" unicode="6" horiz-adv-x="591" 
d="M324 442q112 15 176 -51t45 -175q-18 -102 -105.5 -174.5t-193.5 -72.5t-168 72t-44 175q10 55 30 97q22 44 72 106q24 31 124 144t133 152l106 -79l-170 -193q-2 -1 -5 -1zM324 422q-24 -4 -36 1l182 207l-76 57l-111 -126l-133 -152q-48 -62 -67 -102q-19 -36 -29 -91
q-17 -95 40.5 -161t155.5 -66q97 0 177.5 66.5t97.5 160.5q18 101 -40 160.5t-161 45.5zM278 111q47 0 82.5 29t42.5 73q8 43 -17 72t-72 29t-82.5 -28.5t-43.5 -72.5t17.5 -73t72.5 -29zM275 91q-55 0 -85.5 34.5t-21.5 87.5q10 52 52.5 86.5t97.5 34.5t85 -34.5t20 -86.5
q-9 -53 -51 -87.5t-97 -34.5z" />
    <glyph glyph-name="seven" unicode="7" horiz-adv-x="570" 
d="M410 547h-318l28 154h490l-27 -148l-339 -569h-177zM444 567l-343 -563h133l330 553l22 124h-450l-20 -114h328z" />
    <glyph glyph-name="eight" unicode="8" horiz-adv-x="595" 
d="M474 361q41 -31 60 -75.5t11 -92.5q-18 -101 -98.5 -161.5t-197.5 -60.5q-119 0 -178 59.5t-41 162.5q8 48 43 92.5t88 75.5q-71 57 -55 152q14 80 93 136t179 56q99 0 158 -56t45 -136q-15 -94 -107 -152zM451 370q95 51 110 143q13 72 -41 122t-145 50t-163.5 -50
t-85.5 -122q-15 -92 60 -143l-3 -18q-55 -28 -90 -70t-43 -89q-17 -95 36.5 -148.5t165.5 -53.5q109 0 183 54.5t90 147.5q8 46 -12.5 88t-64.5 71zM354 574q-36 0 -65.5 -22.5t-34.5 -53.5q-6 -32 15.5 -54.5t57.5 -22.5t65 22.5t35 54.5q5 31 -16.5 53.5t-56.5 22.5z
M358 594q44 0 70 -28t19 -68t-43 -68.5t-80 -28.5t-70.5 28.5t-19.5 68.5t43.5 68t80.5 28zM272 111q49 0 81.5 23.5t40.5 63.5q7 38 -18 62t-73 24t-81.5 -24t-40.5 -62t18 -62.5t73 -24.5zM269 91q-56 0 -86 30t-22 77t49 76.5t97 29.5t85.5 -29.5t21.5 -76.5
q-8 -48 -48 -77.5t-97 -29.5z" />
    <glyph glyph-name="nine" unicode="9" horiz-adv-x="591" 
d="M230 -35l-106 79l170 193q1 1 5 1q-112 -15 -176.5 50.5t-44.5 175.5q18 102 105 174.5t193 72.5t168.5 -72t44.5 -175q-10 -55 -30 -97q-26 -49 -72 -106q-24 -30 -122.5 -141.5t-134.5 -154.5zM229 -7l111 126l133 152q48 62 67 102q20 40 29 91q17 95 -40.5 161
t-155.5 66q-97 0 -177.5 -66.5t-97.5 -160.5q-18 -101 40 -160.5t160 -45.5q25 4 37 -1l-182 -207zM308 366q47 0 82.5 28.5t43.5 72.5t-17.5 73t-72.5 29q-46 0 -81.5 -29t-43.5 -73t17.5 -72.5t71.5 -28.5zM305 346q-55 0 -85 34.5t-21 86.5q10 53 52 87.5t97 34.5
t85.5 -34.5t20.5 -87.5q-9 -52 -51.5 -86.5t-97.5 -34.5z" />
    <glyph glyph-name="colon" unicode=":" horiz-adv-x="277" 
d="M150 315q-41 0 -64.5 29.5t-16.5 69.5t41 69t75 29q40 0 64 -29t17 -69q-8 -41 -42 -70t-74 -29zM154 335q32 0 59 23.5t33 55.5q5 32 -13.5 55t-50.5 23t-60 -23t-33 -55q-6 -33 13 -56t52 -23zM91 -20q-41 0 -64.5 29.5t-16.5 69.5t41 69t75 29q40 0 64 -29t17 -69
q-8 -41 -42 -70t-74 -29zM95 0q32 0 59 23.5t33 55.5q5 32 -13.5 55t-50.5 23t-60 -23t-33 -55q-6 -33 13 -56t52 -23z" />
    <glyph glyph-name="semicolon" unicode=";" horiz-adv-x="283" 
d="M42 -146l-63 49l73 90q-46 28 -36 86q7 40 41 69t75 29q40 0 64 -29t17 -69q-6 -35 -32 -61zM41 -118l126 148q21 21 26 49q5 32 -13.5 55t-50.5 23t-60 -23t-33 -55q-5 -27 8 -48.5t38 -27.5l-74 -94zM156 315q-41 0 -64.5 29.5t-16.5 69.5t41 69t75 29q40 0 64 -29
t17 -69q-8 -41 -42 -70t-74 -29zM160 335q32 0 59 23.5t33 55.5q5 32 -13.5 55t-50.5 23t-60 -23t-33 -55q-6 -33 13 -56t52 -23z" />
    <glyph glyph-name="equal" unicode="=" horiz-adv-x="572" 
d="M22 147l24 139h492l-24 -139h-492zM45 167h452l18 99h-452zM57 347l25 139h492l-25 -139h-492zM81 367h452l17 99h-452z" />
    <glyph glyph-name="question" unicode="?" horiz-adv-x="538" 
d="M194 232q13 82 34 116t72 76q12 10 35 28t32 26t19 24t14 36q4 28 -14 45.5t-50 17.5q-35 0 -65.5 -23t-49.5 -65l-124 58q43 79 111 125t142 46q100 0 157.5 -55t43.5 -137q-8 -48 -30.5 -86t-43.5 -57t-53 -42q-37 -27 -54 -56t-24 -77h-152zM217 252h112
q9 42 28.5 71.5t57.5 57.5q32 24 49.5 40t38 50.5t28.5 78.5q13 74 -40 123t-145 49q-63 0 -122 -37.5t-100 -103.5l90 -41q46 81 125 81q41 0 64 -23.5t17 -59.5q-4 -24 -17.5 -44.5t-25.5 -31t-35 -28.5q-4 -3 -14.5 -11t-16.5 -13q-46 -38 -63.5 -65.5t-30.5 -92.5z
M228 -20q-41 0 -64.5 29.5t-16.5 69.5t41 69t75 29q40 0 64 -29t17 -69q-8 -41 -42 -70t-74 -29zM232 0q32 0 59 23.5t33 55.5q5 32 -13.5 55t-50.5 23t-60 -23t-33 -55q-6 -33 13 -56t52 -23z" />
    <glyph glyph-name="at" unicode="@" horiz-adv-x="893" 
d="M660 474l-76 1l-11 -72q-32 81 -95 88q-64 8 -129.5 -33t-97.5 -133q-30 -89 8.5 -151t105.5 -71q58 -8 109 16t79 74q-2 -40 20.5 -63t65.5 -25q52 -3 94 20t65 61t38.5 85t13.5 93.5t-10 86.5q-28 106 -113 168t-201 62q-53 0 -108.5 -13t-112.5 -43t-104 -73
t-82.5 -108.5t-49.5 -144.5q-16 -80 -2 -141t42.5 -104t71.5 -71.5t85 -42t84 -15.5q94 -4 197 30l-13 66q-65 -31 -176 -26q-104 4 -169.5 93t-47.5 202q19 121 101 205.5t199 107.5q125 23 211 -25.5t116 -158.5q18 -69 2 -123.5t-41.5 -88t-45.5 -38.5q-32 -7 -51 16
t-12 62q7 34 40 227zM684 494l-44 -247q-5 -29 7.5 -46t34.5 -12q16 4 37 32.5t33.5 77.5t-4.5 112q-29 104 -109.5 149t-196.5 23q-110 -21 -186 -100.5t-95 -192.5q-17 -105 43.5 -188t157.5 -87q19 -3 41.5 -0.5t34.5 2t28.5 3.5t23 5t19 6t15.5 6.5t13 6t12 5.5l22 -106
q-3 0 -26 -7.5t-48.5 -15t-68 -12.5t-84.5 -3q-43 2 -87 16.5t-89 44.5t-75 75.5t-45 109.5t1 148q14 82 52 151t88 114t110.5 77t118.5 46t112 14q121 0 210.5 -65.5t119.5 -176.5q8 -41 9.5 -90.5t-16 -101.5t-43.5 -93.5t-72.5 -66.5t-103.5 -22q-73 5 -95 59
q-72 -75 -179 -61q-73 11 -117 80t-11 166q23 68 69.5 112.5t93.5 59.5t89 10q51 -6 79 -41l4 25zM546 282q-14 -42 -51.5 -76t-92.5 -27q-32 4 -51.5 21t-24 39.5t-4 40t4.5 31.5q3 11 11.5 27t24.5 36t43.5 32t59.5 8q48 -7 71 -44.5t9 -87.5zM526 284q12 42 -6.5 73.5
t-59.5 36.5q-26 3 -48.5 -6t-35.5 -26.5t-19.5 -29.5t-10.5 -23q-3 -13 -3.5 -27.5t3 -33t19.5 -32.5t43 -17q45 -6 75.5 21.5t42.5 63.5z" />
    <glyph glyph-name="A" unicode="A" horiz-adv-x="747" 
d="M527 699l-146 1l-386 -696h129l88 165h296l29 -165h129zM545 719l145 -735h-171l-29 165h-268l-88 -165h-171l408 736zM432 594l63 -325h-242zM421 536l-136 -247h186z" />
    <glyph glyph-name="B" unicode="B" horiz-adv-x="607" 
d="M124 723h276q110 0 169 -53.5t43 -140.5q-12 -68 -44.5 -103.5t-78.5 -56.5q10 -5 17 -9t17.5 -10.5t17.5 -14t15.5 -18.5t13 -24t7.5 -29.5t2.5 -37t-4.5 -44.5q-11 -62 -59.5 -108t-107 -67t-115.5 -21h-300zM141 703l-124 -697h280q87 0 165 46.5t93 129.5
q9 53 -2.5 89.5t-29 50t-43.5 27.5t-33 20q6 3 26 12.5t30 15t27.5 19t27 27t19.5 36t15 50.5q14 79 -39.5 126.5t-155.5 47.5h-256zM246 433q15 0 43 1t49 1.5t35 0.5q55 0 69 75q6 33 -9 52t-47 19h-114zM223 413l32 189h134q40 0 60 -25t13 -66q-8 -44 -32.5 -69.5
t-60.5 -25.5q-23 0 -89 -2q-10 0 -29.5 -0.5t-27.5 -0.5zM194 127q92 2 139 2q28 0 49 23t28 60q14 77 -63 77l-124 -1zM171 107l35 201l144 1q46 0 67 -25.5t13 -71.5q-7 -46 -35.5 -74.5t-65.5 -28.5q-54 0 -158 -2z" />
    <glyph glyph-name="C" unicode="C" horiz-adv-x="818" 
d="M57 347q28 160 160 273.5t290 113.5q116 0 202 -68t109 -180l-160 -55q-18 71 -64 110t-113 39q-95 0 -169 -66t-92 -167q-17 -92 35.5 -155t146.5 -63q77 0 139.5 40t90.5 108l141 -58q-47 -103 -164.5 -176t-235.5 -73q-159 0 -251.5 110t-64.5 267zM77 347
q-26 -149 61 -253t238 -104q106 0 213 63t156 154l-105 44q-34 -66 -99.5 -104t-142.5 -38q-102 0 -159 68.5t-39 169.5q19 109 100 181t185 72q68 0 117 -37.5t70 -106.5l122 42q-27 98 -105.5 157t-184.5 59q-149 0 -274.5 -107.5t-152.5 -259.5z" />
    <glyph glyph-name="D" unicode="D" horiz-adv-x="715" 
d="M-7 -15l138 733h283q157 0 232.5 -99t46.5 -266q-28 -164 -145 -266t-277 -102h-278zM17 5h258q151 0 260.5 96t137.5 252q28 158 -43.5 251.5t-219.5 93.5h-263zM181 137q90 2 133 2q82 0 143.5 61t78.5 160q10 57 -3.5 100t-41 65t-54.5 32t-49 10l-131 -1zM158 117
l82 469l151 1q24 0 53.5 -11.5t60.5 -35.5t46.5 -71t4.5 -109q-21 -120 -94 -180.5t-151 -60.5q-26 0 -61.5 -0.5t-50.5 -0.5q-13 -1 -41 -1z" />
    <glyph glyph-name="E" unicode="E" horiz-adv-x="555" 
d="M-7 -14l130 734h473l-27 -151h-308l-24 -137h276l-26 -149h-277l-26 -149h311l-27 -148h-475zM17 6h435l19 108h-311l33 189h277l20 109h-276l31 177h308l19 111h-433z" />
    <glyph glyph-name="F" unicode="F" horiz-adv-x="553" 
d="M-7 -16l131 744h473l-27 -156h-311l-28 -158h275l-26 -149h-277l-50 -280zM17 4l120 1l49 280h277l19 109h-275l35 198h311l21 116h-433z" />
    <glyph glyph-name="G" unicode="G" horiz-adv-x="805" 
d="M458 401h334l-23 -130q-10 -57 -40.5 -110t-79 -96.5t-119.5 -70t-154 -26.5q-168 0 -258 107t-61 272q29 160 157 276.5t276 116.5q123 0 204.5 -54t103.5 -151l-167 -55q-40 104 -157 104q-25 0 -53 -7t-59.5 -23.5t-57.5 -40t-47 -61t-29 -82.5q-20 -117 24 -184.5
t140 -67.5q79 0 138.5 37.5t73.5 96.5h-173zM474 381l-19 -109h173q-9 -75 -77.5 -124.5t-162.5 -49.5q-104 0 -153 73.5t-27 198.5q9 48 32 89t52 67t63 44t65 26t57 8q120 0 167 -100l129 43q-25 82 -100.5 127.5t-185.5 45.5q-140 0 -261.5 -110.5t-148.5 -262.5
q-28 -157 57.5 -258t245.5 -101q142 0 244 78.5t125 204.5l19 110h-294z" />
    <glyph glyph-name="H" unicode="H" horiz-adv-x="686" 
d="M496 287h-291l-54 -302h-158l130 735h158l-50 -285h291l51 290h157l-131 -741h-158zM519 307l-54 -303h118l123 701h-117l-51 -290h-331l50 285h-118l-122 -695h118l53 302h331z" />
    <glyph glyph-name="I" unicode="I" horiz-adv-x="288" 
d="M291 719l-130 -736h-168l130 736h168zM267 699h-128l-123 -696h128z" />
    <glyph glyph-name="J" unicode="J" horiz-adv-x="571" 
d="M612 725l-83 -485q-20 -117 -102 -194.5t-184 -77.5q-107 0 -166.5 54.5t-68.5 160.5l173 29q18 -88 75 -88q40 0 70 30t38 80l87 490zM588 705l-121 -1l-83 -470q-10 -58 -46.5 -94t-85.5 -36q-67 0 -87 86l-134 -23q24 -179 216 -179q94 0 168.5 71.5t93.5 180.5z" />
    <glyph glyph-name="K" unicode="K" horiz-adv-x="719" 
d="M612 5l-247 370l337 328h-152l-339 -337l59 333h-131l-122 -695h132l64 363l232 -361zM652 -15l-221 1l-208 325l-58 -327h-172l130 735h171l-53 -297l302 301h206l-358 -348z" />
    <glyph glyph-name="L" unicode="L" horiz-adv-x="535" 
d="M495 138l-27 -153h-475l130 738h169l-103 -585h306zM472 118h-306l103 585h-129l-123 -698h435z" />
    <glyph glyph-name="M" unicode="M" horiz-adv-x="814" 
d="M224 408l-75 -422h-156l131 740h152l148 -379l282 381h152l-131 -742h-158l74 418l-194 -265h-122zM217 484l126 -325h98l236 323l-84 -476h118l124 702h-120l-298 -401l-157 399h-120l-123 -700h116z" />
    <glyph glyph-name="N" unicode="N" horiz-adv-x="712" 
d="M238 507l253 -503h118l122 695h-123l-87 -497l-254 497h-128l-122 -694h133zM247 441l-81 -456h-173l130 734h158l231 -453l80 453h163l-130 -735h-148z" />
    <glyph glyph-name="O" unicode="O" 
d="M369 -36q-157 0 -248 114t-63 275t159.5 275t288.5 114q102 0 180 -52t113 -142t16 -195q-29 -161 -159.5 -275t-286.5 -114zM372 -16q148 0 272 108t151 261t-59 261t-234 108q-149 0 -273 -108t-151 -261t59 -261t235 -108zM401 123q89 0 165 67.5t93 161.5
q17 95 -35.5 162.5t-141.5 67.5t-166 -68t-93 -162t36.5 -161.5t141.5 -67.5zM397 103q-97 0 -154.5 73.5t-39.5 175.5q18 103 101 176.5t181 73.5t155 -73.5t39 -176.5q-18 -102 -101 -175.5t-181 -73.5z" />
    <glyph glyph-name="P" unicode="P" horiz-adv-x="581" 
d="M-7 -14l131 741h266q39 0 78 -12.5t75 -38.5t53.5 -75t6.5 -112q-9 -51 -34 -93.5t-56.5 -69t-68 -44.5t-68.5 -25.5t-59 -7.5h-118l-47 -264zM17 6l119 -1l46 264h138q33 0 71 12t78.5 36t72 69t41.5 103t-5.5 103t-48.5 68.5t-69 35t-73 11.5h-246zM226 399q14 0 39 1
t43.5 1.5t30.5 0.5q90 0 107 92q15 84 -74 84h-112zM203 379l40 219h132q52 0 76 -27.5t15 -76.5q-9 -53 -43.5 -82.5t-87.5 -29.5q-18 0 -78 -2q-10 0 -28 -0.5t-26 -0.5z" />
    <glyph glyph-name="Q" unicode="Q" 
d="M58 353q28 161 159.5 275t288.5 114q102 0 180 -52t113 -142t16 -195q-28 -158 -155 -271l43 -88l-138 -86l-44 86q-75 -30 -152 -30q-157 0 -248 114t-63 275zM78 353q-27 -153 59 -261t235 -108q80 0 160 36l44 -84l100 64l-41 84q132 110 160 269q27 153 -59 261
t-234 108q-149 0 -273 -108t-151 -261zM223 352q-16 -94 36.5 -161.5t141.5 -67.5q28 0 53 7l-53 106l142 86l50 -104q54 62 66 134q17 95 -35.5 162.5t-141.5 67.5t-166 -68t-93 -162zM203 352q18 103 101 176.5t181 73.5t155 -73.5t39 -176.5q-17 -96 -94 -168l-53 110
l-105 -64l57 -111q-47 -16 -87 -16q-97 0 -154.5 73.5t-39.5 175.5z" />
    <glyph glyph-name="R" unicode="R" horiz-adv-x="640" 
d="M-7 -14l131 738h261q121 0 182 -64t42 -170q-13 -79 -69 -140t-121 -70l154 -295h-185l-140 270h-49l-48 -271zM17 6l118 -2l47 271h79l141 -270h137l-155 296q64 -13 127.5 46t77.5 143q17 98 -39.5 156t-168.5 58h-241zM358 402q38 0 63.5 23.5t32.5 64.5
q7 37 -18 63.5t-65 26.5h-114l-31 -178h132zM354 382h-152l39 218h134q48 0 77.5 -32.5t21.5 -77.5q-8 -49 -40.5 -78.5t-79.5 -29.5z" />
    <glyph glyph-name="S" unicode="S" horiz-adv-x="621" 
d="M49 178q2 -88 67 -140t166 -47q107 5 181.5 62.5t88.5 145.5q7 47 -3 81.5t-42.5 62t-70.5 47t-103 45.5q-84 33 -84 77q0 73 77 97q58 19 100.5 0.5t55.5 -66.5l109 43q-11 45 -39 76.5t-63.5 44t-78 16t-81.5 -7.5q-70 -15 -122.5 -64t-66.5 -114q-15 -61 16.5 -115
t96.5 -77q107 -37 150 -71.5t28 -88.5q-14 -47 -59.5 -71.5t-101.5 -15.5q-41 7 -68.5 39.5t-34.5 82.5zM29 190l156 56q1 -52 26.5 -86.5t66.5 -41.5q47 -8 84.5 11.5t48.5 57.5q12 41 -24 72t-143 68q-70 24 -105 83.5t-19 128.5q17 71 74 125t135 71q42 12 89.5 7t88 -21
t70.5 -54t38 -92l-150 -58q-5 50 -43 70.5t-93 3.5q-59 -19 -59 -75q-1 -16 18 -32t54 -31q66 -26 106 -46.5t74.5 -50t46 -68t3.5 -89.5q-14 -95 -95.5 -158.5t-195.5 -69.5q-115 -6 -186 56t-66 163z" />
    <glyph glyph-name="T" unicode="T" horiz-adv-x="601" 
d="M272 574h-195l27 155h561l-27 -155h-198l-104 -590h-168zM296 594l-104 -590h128l104 590h198l20 115h-521l-20 -115h195z" />
    <glyph glyph-name="U" unicode="U" horiz-adv-x="667" 
d="M627 248q-7 -37 -20.5 -72t-40 -73.5t-62.5 -66.5t-91 -46.5t-121 -18.5q-57 0 -103 12.5t-73.5 33.5t-47 48t-26 56t-9.5 57.5t4 52.5l86 489h169l-85 -480q-10 -55 19 -84.5t93 -29.5q122 0 140 109l86 484h165zM607 248l79 451h-125l-82 -464q-11 -62 -53 -95.5
t-110 -33.5q-72 0 -106 35t-23 99l81 460h-129l-82 -469q-6 -23 -3.5 -49.5t8 -53t24 -51.5t44 -44t68.5 -30.5t97 -11.5q77 0 136.5 24t94.5 64.5t54 82t27 86.5z" />
    <glyph glyph-name="V" unicode="V" horiz-adv-x="759" 
d="M103 723h179l91 -522l273 521h176l-406 -737h-169zM128 703l137 -698h141l385 697h-134l-294 -561l-98 562h-137z" />
    <glyph glyph-name="W" unicode="W" horiz-adv-x="1013" 
d="M502 630h143l55 -379l195 467h181l-337 -733h-147l-62 409l-194 -408h-155l-78 732h181l31 -465zM512 610l-213 -431l-35 519h-139l76 -692h125l216 456l68 -457h117l319 693h-139l-218 -521l-62 433h-115z" />
    <glyph glyph-name="X" unicode="X" horiz-adv-x="757" 
d="M176 -18l-203 1l322 380l-171 362h195l102 -229l178 226h194l-295 -359l192 -381h-212l-109 243zM167 2l208 261l118 -261h162l-181 361l280 339h-146l-193 -244l-112 247h-147l163 -342l-305 -360z" />
    <glyph glyph-name="Y" unicode="Y" horiz-adv-x="730" 
d="M306 321l-203 399h207l101 -259l184 259h198l-321 -399l-60 -337h-171zM327 327l-62 -323h131l57 323l300 373h-150l-199 -281l-110 281h-157z" />
    <glyph glyph-name="Z" unicode="Z" horiz-adv-x="630" 
d="M-7 -16l26 149l429 437h-343l27 151h538l-25 -144l-432 -440h357l-28 -152zM17 4l509 1l21 112h-379l458 468l21 116h-498l-20 -111h365l-456 -465z" />
    <glyph glyph-name="bracketleft" unicode="[" horiz-adv-x="349" 
d="M240 -142h-269l166 942h268l-22 -127h-120l-122 -687h121zM223 -122l16 88h-121l128 727h120l15 87h-228l-159 -902h229z" />
    <glyph glyph-name="backslash" unicode="\" horiz-adv-x="533" 
d="M123 722h148l175 -739l-150 1zM150 702l164 -698l105 -1l-165 699h-104z" />
    <glyph glyph-name="bracketright" unicode="]" horiz-adv-x="349" 
d="M-29 -142l22 128h121l122 687h-120l22 127h268l-166 -942h-269zM-6 -122h229l159 902h-228l-15 -87h120l-128 -727h-121z" />
    <glyph glyph-name="underscore" unicode="_" horiz-adv-x="613" 
d="M-26 -125l23 129h533l-23 -129h-533zM-3 -105h493l16 89h-493z" />
    <glyph glyph-name="a" unicode="a" horiz-adv-x="551" 
d="M178 -30q-80 0 -122 37t-40 104q14 157 215 183q11 2 29.5 4t30.5 4t25.5 4t22 4t11.5 5q8 5 12 18t-5 28t-35 22q-45 12 -79.5 -8.5t-48.5 -68.5l-131 29q27 96 138 152q48 25 108 28.5t107 -15.5q61 -24 88 -70t17 -107l-57 -338h-150l5 41q-64 -56 -141 -56zM181 -10
q48 0 91.5 25t72.5 70l-9 -80h112l53 318q20 113 -96 159q-43 17 -98 13.5t-99 -26.5q-89 -44 -119 -118l93 -21q20 46 60.5 66t87.5 7q34 -10 44.5 -33t3.5 -43t-18 -28q-16 -10 -98 -21q-22 -2 -33 -4q-181 -23 -192 -161q-2 -59 35 -91t109 -32zM255 95q38 8 63.5 33
t29.5 60q-27 -4 -58 -5.5t-48 -2.5t-34 -4.5t-25 -12t-11 -24.5q-5 -29 17 -41t66 -3zM255 75q-53 -11 -81.5 6.5t-21.5 57.5q4 20 13.5 33t29 18.5t34 7.5t44.5 3q69 5 86 8l10 -9q-2 -46 -33.5 -80.5t-80.5 -44.5z" />
    <glyph glyph-name="b" unicode="b" horiz-adv-x="613" 
d="M231 466q65 54 166 48q86 -6 136 -69t43 -160q-5 -82 -38.5 -146.5t-79.5 -99.5t-92.5 -52t-85.5 -15q-87 5 -131 58l-12 -44l-144 -1l135 750l150 -1zM200 404l55 310l-111 1l-127 -710l106 1l21 81q10 -41 48 -67t92 -28q29 -2 62 7t69 31t65.5 54.5t50.5 84.5t25 114
q6 90 -39.5 148t-125.5 63q-126 8 -191 -90zM191 243q-5 -27 -1 -54t25.5 -51.5t59.5 -25.5q52 -1 93 36t51 93q11 60 -15.5 97.5t-77.5 35.5q-52 -3 -88.5 -38.5t-46.5 -92.5zM171 243q11 65 54.5 106.5t101.5 44.5q61 3 92.5 -40.5t19.5 -112.5q-11 -65 -59.5 -108
t-108.5 -41q-45 1 -70.5 30t-30 60.5t0.5 60.5z" />
    <glyph glyph-name="c" unicode="c" horiz-adv-x="590" 
d="M316 389q82 9 117 -73l113 29q-15 75 -69 116t-138 40q-97 -1 -184.5 -77t-104.5 -176q-20 -112 34 -185.5t158 -77.5q83 -4 156.5 37.5t115.5 115.5l-105 33q-23 -36 -62.5 -57.5t-79.5 -18.5q-57 5 -85.5 46.5t-18.5 105.5q9 53 53 94t100 48zM314 369
q-48 -5 -85.5 -40.5t-45.5 -81.5q-9 -56 15.5 -92t73.5 -40q38 -3 75.5 20t52.5 60l143 -43q-43 -89 -126 -140t-178 -47q-113 5 -172 84t-37 199q19 108 113.5 190t199.5 83q96 1 156 -49t70 -141l-151 -39q-27 85 -104 77z" />
    <glyph glyph-name="d" unicode="d" horiz-adv-x="608" 
d="M652 735l-131 -750l-144 1l3 37q-58 -54 -150 -54q-94 0 -156.5 82t-29.5 217q25 102 96.5 167.5t165.5 76.5q91 11 149 -42l45 264zM628 715l-111 -1l-51 -294q-23 40 -65.5 59.5t-95.5 12.5q-87 -10 -152.5 -70.5t-88.5 -155.5q-16 -68 -7.5 -120t36 -87t64 -52.5
t77.5 -17.5q111 0 171 91l-6 -74l106 -1zM417 243q11 59 -13.5 94.5t-76.5 36.5q-48 1 -87.5 -37.5t-49.5 -94.5t18 -93.5t77 -35.5q51 2 86 37t46 93zM437 243q-12 -67 -54 -107.5t-102 -42.5q-57 -2 -89.5 41.5t-21.5 107.5t57.5 108.5t102.5 43.5q61 -1 90 -42t17 -109z
" />
    <glyph glyph-name="e" unicode="e" horiz-adv-x="610" 
d="M59 244q-19 -108 40.5 -178t170.5 -70q82 0 145 36.5t96 86.5l-98 32q-55 -70 -138 -64q-55 4 -86 42t-18 86l374 4q28 128 -22.5 201.5t-166.5 73.5q-114 0 -195.5 -68.5t-101.5 -181.5zM39 244q22 121 110.5 195.5t210.5 74.5q129 0 183 -85t16 -230l-372 -4
q-2 -34 25 -60t69 -28q78 -6 126 68l133 -44q-29 -57 -102.5 -106t-170.5 -49q-119 0 -183.5 76t-44.5 192zM184 294q7 44 47.5 77.5t88.5 36.5q60 4 96 -30t22 -83zM209 314l212 1q1 33 -29 54.5t-74 18.5q-34 -2 -65 -23.5t-44 -50.5z" />
    <glyph glyph-name="f" unicode="f" horiz-adv-x="386" 
d="M433 590q-22 4 -39 4.5t-28.5 -1.5t-20 -10t-13.5 -13t-9 -19t-5 -20.5t-4 -23.5q-1 -4 -1 -6h110l-23 -135h-112l-67 -380l-157 -1l67 381h-80l23 135h47q20 0 27 6t11 27q14 77 48 115q50 66 129 91t156 -1zM421 613l45 112q-67 17 -134 -6.5t-110 -79.5
q-31 -38 -43 -105q-5 -29 -19 -41t-42 -12h-27l-16 -95h80l-67 -381l117 1l67 380h112l16 95h-110q1 6 5 35t9 41.5t17.5 31t37.5 24t62 0.5z" />
    <glyph glyph-name="g" unicode="g" horiz-adv-x="608" 
d="M479 484l-13 -48q-42 49 -104 59.5t-120.5 -12.5t-107.5 -77.5t-68 -126.5q-20 -77 -0.5 -140t73.5 -97q58 -37 124.5 -31.5t118.5 51.5l16 -7q-15 -83 -58.5 -129t-107.5 -46q-70 0 -99 72l-117 -24q22 -75 79.5 -115t134.5 -35q111 8 185.5 76.5t94.5 178.5
q69 403 77 450zM465 504l146 -1q-16 -88 -57 -325l-24 -145q-21 -118 -102 -192t-200 -83q-89 -7 -154 43.5t-83 140.5l156 32q26 -74 88 -74q51 0 86.5 34t50.5 97q-55 -39 -121 -41t-125 34q-58 37 -79.5 105.5t-0.5 151.5q19 73 68 130t107.5 84t122.5 23.5t113 -43.5z
M273 114q-51 0 -80 41.5t-19 99.5q10 55 47.5 92.5t91.5 44.5q61 8 96 -32t24 -105q-11 -64 -55 -102.5t-105 -38.5zM277 134q53 0 89.5 32.5t46.5 88.5t-19.5 90t-81.5 27q-46 -6 -78 -37.5t-40 -79.5q-9 -50 15.5 -85.5t67.5 -35.5z" />
    <glyph glyph-name="h" unicode="h" horiz-adv-x="572" 
d="M-6 -15l132 750l165 -1l-47 -267q64 45 135 45q95 0 137 -57t24 -162l-55 -308h-164l51 290q9 47 -7 72.5t-55 25.5q-38 0 -66.5 -26.5t-36.5 -71.5l-51 -290h-162zM18 5h122l47 270q10 53 44.5 85.5t81.5 32.5t68 -31t11 -87l-47 -270h124l51 288q17 96 -20 147.5
t-124 51.5q-50 0 -92.5 -26t-71.5 -69l56 317l-126 1z" />
    <glyph glyph-name="i" unicode="i" horiz-adv-x="265" 
d="M188 564q-39 0 -61.5 26.5t-15.5 64.5t38.5 64.5t70.5 26.5q38 0 60.5 -26.5t15.5 -64.5t-38.5 -64.5t-69.5 -26.5zM192 584q30 0 54.5 20.5t29.5 50.5t-12 50.5t-47 20.5q-31 0 -56 -20.5t-30 -50.5t12.5 -50.5t48.5 -20.5zM259 503l-92 -520h-159l92 520h159zM235 483
h-119l-85 -480h119z" />
    <glyph glyph-name="j" unicode="j" horiz-adv-x="261" 
d="M184 564q-39 0 -61.5 26.5t-15.5 64.5t38.5 64.5t70.5 26.5q38 0 60.5 -26.5t15.5 -64.5t-38.5 -64.5t-69.5 -26.5zM188 584q30 0 54.5 20.5t29.5 50.5t-12 50.5t-47 20.5q-31 0 -56 -20.5t-30 -50.5t12.5 -50.5t48.5 -20.5zM25 -13q-14 -79 -60 -90q-22 -5 -51 6
l-42 -89q48 -21 111 -21q47 0 82 26.5t49.5 56.5t19.5 61l10 57l86 489h-118zM5 -13l91 516h158l-90 -509l-10 -57q-4 -24 -15 -49t-31 -52.5t-53 -45t-75 -17.5q-82 0 -134 30l60 128q36 -20 58 -14q29 6 41 70z" />
    <glyph glyph-name="k" unicode="k" horiz-adv-x="595" 
d="M324 -15l-136 207l-37 -207h-158l133 752h159l-73 -413l194 178h187l-248 -241l183 -276h-204zM338 5h152l-171 256l227 221h-135l-228 -210l78 445h-119l-125 -712h118l42 241z" />
    <glyph glyph-name="l" unicode="l" horiz-adv-x="279" 
d="M304 733l-132 -750h-159l132 750h159zM281 713h-119l-126 -710h119z" />
    <glyph glyph-name="m" unicode="m" horiz-adv-x="886" 
d="M84 498h148l-9 -52q66 59 135 67q60 7 103.5 -13.5t60.5 -64.5q58 66 160 78q45 5 80 -4.5t54 -30t32 -47.5t13.5 -55.5t-2.5 -54.5l-60 -335h-155l52 295q17 93 -55 93q-45 0 -76 -31.5t-41 -87.5l-48 -270h-155l47 267q13 69 0.5 95t-58.5 26q-93 0 -118 -141l-44 -247
h-155zM100 478l-83 -473h115l40 227q29 161 141 161q41 0 61 -18.5t20.5 -50t-6.5 -72.5l-43 -247h115l44 250q11 65 48.5 102t91.5 37q93 0 72 -113l-48 -275h115l56 315q8 31 1 64t-22 59.5t-51 40.5t-86 8q-108 -14 -156 -84l-18 1q-11 46 -51 68t-99 15
q-79 -9 -165 -107l16 92h-108z" />
    <glyph glyph-name="n" unicode="n" horiz-adv-x="569" 
d="M84 498h148l-9 -51q56 56 127 65q70 8 120 -17t66 -77q14 -48 -6 -163l-48 -270h-155l49 276q11 64 -4 88t-67 24q-37 0 -69 -37.5t-42 -93.5l-46 -257h-155zM100 478l-83 -473h115l42 237q11 64 49.5 107.5t84.5 43.5q60 0 80.5 -30.5t7.5 -101.5l-45 -256h115l44 250
q20 111 6 155q-13 46 -58 68t-109 14q-34 -4 -67 -24.5t-48.5 -36.5t-41.5 -45l16 92h-108z" />
    <glyph glyph-name="o" unicode="o" horiz-adv-x="625" 
d="M39 245q20 113 113 192t208 79q114 0 179 -79t45 -192q-20 -115 -114 -196t-207 -81t-178.5 81t-45.5 196zM59 245q-19 -107 42 -182t166 -75q104 0 191 75.5t106 181.5q19 105 -41.5 178t-166.5 73t-192 -73t-105 -178zM191 244q-10 -57 18 -95t80 -38t93 37.5t52 95.5
q10 55 -19 93t-79 38q-51 0 -93 -38t-52 -93zM171 244q11 63 60.5 107t108.5 44t92 -44t22 -107q-12 -66 -60 -109.5t-108 -43.5q-61 0 -94 43.5t-21 109.5z" />
    <glyph glyph-name="p" unicode="p" horiz-adv-x="608" 
d="M-39 -208l123 709l144 -1l-2 -37q58 54 149 54q43 0 83 -19.5t70 -57.5t40 -93.5t-7 -128.5q-25 -101 -96 -167t-166 -77q-91 -11 -148 42l-39 -223zM-15 -188l111 1l44 253q22 -40 64.5 -59.5t96.5 -12.5q87 11 152 71.5t89 154.5q16 68 7.5 120t-36 87t-64 52.5
t-77.5 17.5q-113 0 -171 -91l6 74l-106 1zM189 243q-11 -59 13.5 -94.5t76.5 -36.5q47 -1 87 37.5t50 94.5q10 55 -18 93t-77 36q-52 -2 -87 -37t-45 -93zM169 243q11 66 53 107t102 43q58 2 90.5 -41.5t21.5 -107.5t-58 -108.5t-103 -43.5q-61 1 -89.5 42t-16.5 109z" />
    <glyph glyph-name="q" unicode="q" horiz-adv-x="608" 
d="M485 -208l-151 1l41 223q-76 -53 -164 -42q-91 11 -138.5 77t-37.5 167q15 135 106.5 217t185.5 82q91 0 131 -54l10 37l144 1zM469 -188l120 669l-106 -1l-20 -74q-28 91 -139 91q-89 0 -172 -75t-96 -202q-10 -94 33.5 -154.5t127.5 -71.5q107 -14 187 72l-46 -253z
M281 112q52 1 89 36.5t47 94.5q10 58 -13 93t-73 37q-49 2 -90 -35.5t-51 -93.5t16 -94.5t75 -37.5zM277 92q-56 -1 -87 43t-20 109q11 64 59.5 107.5t104.5 41.5q60 -2 87 -42.5t16 -107.5q-12 -68 -55.5 -109t-104.5 -42z" />
    <glyph glyph-name="r" unicode="r" horiz-adv-x="392" 
d="M127 6l25 140q17 100 31 137t47 68q29 27 72 35t79 -7l47 100q-21 11 -55 12.5t-60 -6.5q-37 -13 -62 -37.5t-61 -85.5l20 114h-110l-83 -469zM143 -14l-149 1l89 509h150l-7 -44q31 34 85 51q34 12 77.5 7.5t65.5 -22.5l-66 -138q-33 22 -74.5 17.5t-70.5 -30.5
q-29 -27 -42 -61.5t-29 -129.5z" />
    <glyph glyph-name="s" unicode="s" horiz-adv-x="541" 
d="M374 328q1 24 -22.5 42t-53.5 18q-26 0 -46 -9t-22 -21q-3 -17 16 -25.5t77 -22.5q24 -6 38 -9q143 -37 120 -167q-13 -69 -86 -117t-167 -48q-86 0 -141.5 41t-68.5 114l147 60q2 -28 21 -49.5t45 -27.5q31 -7 62 2.5t36 28.5q6 21 -18.5 33t-73.5 21t-60 13
q-50 17 -77.5 56.5t-20.5 83.5q11 67 74 118t145 61q70 8 139.5 -30t79.5 -111zM391 355l102 39q-16 59 -76 88t-120 22q-75 -9 -131 -54.5t-67 -104.5q-7 -37 18.5 -71.5t69.5 -48.5q9 -3 46 -11q22 -4 35 -7t32.5 -9.5t30 -14t16.5 -20t2 -27.5q-8 -28 -47 -43t-79 -6
q-25 6 -45 25t-28 45l-108 -43q16 -59 66 -92t124 -33q86 0 152 42.5t77 102.5q20 115 -108 147q-101 26 -116 33q-32 15 -27 44q4 22 30.5 36t61.5 14q30 0 55 -15t34 -38z" />
    <glyph glyph-name="t" unicode="t" horiz-adv-x="440" 
d="M357 4q-5 -2 -25.5 -9.5t-30.5 -10.5t-29 -6.5t-39 -2.5t-43 6q-57 12 -85.5 57.5t-17.5 106.5l39 219h-86l24 135h64q17 0 23.5 4.5t8.5 18.5l22 125h147l-26 -148h117l-24 -135h-118l-24 -136q-9 -51 -9.5 -67t7.5 -25q9 -15 36.5 -14t48.5 19zM335 16l-15 94
q-25 -11 -49.5 -7.5t-37.5 19.5q-9 14 -9 33t10 73l28 156h118l16 95h-117l26 148h-107l-18 -105q-7 -43 -56 -43h-44l-16 -95h86l-43 -239q-9 -54 16 -94t74 -50q23 -5 41.5 -5.5t37.5 3.5t28.5 7t30.5 10z" />
    <glyph glyph-name="u" unicode="u" horiz-adv-x="572" 
d="M339 26q-27 -24 -70.5 -39.5t-87.5 -15.5q-41 0 -71.5 12.5t-47 33t-26 43.5t-11 48.5t-1 43t3.5 31.5l56 317h161l-54 -304q-6 -37 12 -60t53 -23q38 0 69 22.5t36 54.5l55 311h160l-91 -516h-150zM366 101l-9 -96h112l84 476h-120l-52 -291q-7 -40 -44.5 -68.5
t-84.5 -28.5q-43 0 -66 29t-15 74l51 284h-121l-53 -297q-3 -18 -4 -37t4.5 -48.5t18.5 -51.5t43 -38.5t74 -16.5q122 0 182 110z" />
    <glyph glyph-name="v" unicode="v" horiz-adv-x="603" 
d="M182 -15l-128 514l172 1l64 -317l178 317l169 -1l-310 -514h-145zM200 5h117l286 474l-124 1l-199 -353l-71 353l-129 -1z" />
    <glyph glyph-name="w" unicode="w" horiz-adv-x="871" 
d="M745 478l-155 -349l-50 354h-118l-171 -348l-43 345h-119l70 -475h127l171 357l47 -358h128l231 474h-118zM733 498h162l-253 -514h-156l-41 310l-149 -309h-155l-77 515h161l38 -297l149 300h146l42 -302z" />
    <glyph glyph-name="x" unicode="x" horiz-adv-x="581" 
d="M155 -15h-182l224 258l-133 256h181l65 -133l109 133l181 -1l-223 -252l137 -261h-181l-68 142zM147 5l125 160l75 -160h133l-127 241l205 232l-133 1l-121 -149l-73 149h-133l123 -236l-206 -238h132z" />
    <glyph glyph-name="y" unicode="y" horiz-adv-x="614" 
d="M24 -236l164 253l-124 483l166 -1l75 -289l167 289h166l-447 -735h-167zM60 -216h121l423 695h-122l-186 -321l-84 321l-121 1l119 -463z" />
    <glyph glyph-name="z" unicode="z" horiz-adv-x="517" 
d="M-7 -16l22 122l282 259h-227l24 135h425l-22 -125l-288 -256h245l-24 -135h-437zM17 4h397l16 95h-271l319 284l18 97h-385l-17 -95h253l-314 -287z" />
    <glyph glyph-name="braceleft" unicode="{" horiz-adv-x="429" 
d="M312 -76q-67 1 -86.5 26t-8.5 92q3 16 11 65.5t15 89.5q7 44 -14 80t-54 36l4 20q31 0 67 37.5t43 77.5l25 146q12 70 37.5 97.5t97.5 28.5l14 80q-54 -1 -95.5 -13t-65 -28t-40 -41t-22.5 -43.5t-10 -43.5t-16 -87.5t-16 -85.5q-7 -39 -38.5 -63t-78.5 -27l-16 -91
q43 -3 66.5 -25t18.5 -53q-1 -5 -10 -67.5t-19 -122.5q-14 -79 30.5 -121t145.5 -44zM335 -56l-21 -120q-120 -2 -175 45.5t-38 139.5q3 17 22 147q2 11 4.5 26t2.5 17q5 27 -20.5 43.5t-68.5 14.5l23 131q46 -2 77 17t37 53q7 43 13 71l19 102q5 27 12 48t26.5 49.5
t47.5 47.5t77.5 32t113.5 12l-22 -120q-74 1 -96.5 -17.5t-34.5 -88.5q-13 -74 -14 -84q-7 -38 -11 -62q-7 -37 -34.5 -72.5t-60.5 -52.5q27 -15 41.5 -50.5t7.5 -75.5q-4 -20 -9 -51t-7 -44q-5 -35 -10 -60q-11 -62 7.5 -80.5t90.5 -17.5z" />
    <glyph glyph-name="bar" unicode="|" horiz-adv-x="204" 
d="M121 710h124l-154 -872h-124zM138 690l-147 -832h84l147 832h-84z" />
    <glyph glyph-name="braceright" unicode="}" horiz-adv-x="429" 
d="M-35 -176l21 120q72 -1 97 17.5t35 80.5q4 22 14 71t16 84q7 40 33.5 75.5t59.5 50.5q-27 17 -42.5 52.5t-8.5 72.5l27 146q12 71 -4 89t-91 17l22 120q64 1 109 -12t66 -32t30.5 -47t9 -50t-5.5 -48q-6 -36 -16.5 -100.5t-11.5 -72.5q-6 -34 18 -53t70 -17l-23 -131
q-42 2 -73 -15t-36 -43q-1 -7 -14 -69t-23 -121q-17 -92 -89 -139.5t-190 -45.5zM-12 -156q207 5 236 165q10 58 28 147q2 6 9 43q5 31 37 53t76 25l16 91q-45 3 -68.5 27t-16.5 63l11 71q3 17 8.5 51.5t8.5 50.5q4 24 5 43.5t-6.5 44t-25.5 40.5t-55 28t-91 13l-14 -80
q72 -1 87.5 -28.5t3.5 -97.5q-4 -22 -9 -48.5t-7 -36.5q-8 -44 -11 -61q-7 -40 16 -77.5t54 -37.5l-4 -20q-33 0 -67 -36t-41 -80q-3 -17 -9.5 -49t-8.5 -46l-12 -60q-11 -66 -39.5 -91.5t-95.5 -26.5z" />
    <glyph glyph-name="exclamdown" unicode="&#xa1;" horiz-adv-x="277" 
d="M-20 -222l100 490h127l-73 -490h-154zM3 -202h114l67 450h-87zM186 516q40 0 64 -29t16 -70q-7 -40 -41 -69t-74 -29q-41 0 -65 29t-17 69q8 41 42.5 70t74.5 29zM182 496q-33 0 -60 -23t-33 -56q-5 -32 14.5 -55t51.5 -23t59 23t32 55q6 32 -13 55.5t-51 23.5z" />
    <glyph glyph-name="cent" unicode="&#xa2;" horiz-adv-x="601" 
d="M77 346q-16 -93 28 -165t126 -88l-14 -83h89l14 84q143 23 213 142l-87 23q-25 -36 -68 -56.5t-94 -19.5q-59 1 -91.5 47.5t-20.5 114.5q10 62 55.5 103.5t108.5 48.5q48 5 83.5 -15t49.5 -59l95 20q-27 123 -156 145l14 82h-89l-15 -83q-87 -17 -156.5 -86.5
t-84.5 -154.5zM57 346q16 88 85.5 161t158.5 96l16 87h129l-16 -86q67 -15 108 -60.5t50 -114.5l-135 -29q-8 40 -40.5 61t-78.5 16q-55 -5 -93.5 -41t-48.5 -91q-10 -59 17.5 -100t78.5 -42t91 20.5t59 59.5l123 -33q-33 -67 -91 -111.5t-132 -60.5l-16 -88h-129l15 87
q-81 22 -124 98t-27 171z" />
    <glyph glyph-name="sterling" unicode="&#xa3;" horiz-adv-x="601" 
d="M424 156q-28 -54 -100 -54q-7 0 -51.5 -0.5t-127.5 -0.5q41 16 72 59.5t38 94.5h108l14 82h-126q-29 58 -28 111.5t32 87.5q30 33 67.5 40t68.5 -14t42 -62l102 41q-25 78 -79 111.5t-112 25.5t-109.5 -36.5t-78.5 -65.5q-82 -114 -6 -238h-72l-15 -82h94
q-15 -112 -124 -160l-16 -90l270 -2q70 0 113.5 15.5t66 40.5t48.5 74zM414 180l129 -32q-18 -36 -31.5 -57.5t-35 -44t-46 -35t-61.5 -20t-86 -7.5l-290 2l22 123q98 38 119 127h-94l21 122h53q-52 119 26 228q23 32 66 59.5t95.5 40.5t103.5 7.5t94 -47t62 -115.5
l-144 -57q-8 64 -57.5 80t-90.5 -30q-52 -59 -4 -167h136l-22 -122h-108q-14 -67 -63 -114q69 0 86 1h33q33 0 54 11t33 47z" />
    <glyph glyph-name="yen" unicode="&#xa5;" horiz-adv-x="723" 
d="M117 686h192l95 -236l168 235h188l-215 -280h90l-22 -125h-165l-6 -36h166l-22 -126h-166l-24 -133h-154l24 133h-165l22 126h165l7 38h-163l21 123h89zM149 666l126 -281h-105l-15 -83h163l-14 -78h-165l-15 -86h165l-23 -133h114l23 133h166l15 86h-166l14 76h165
l15 85h-105l214 280h-141l-183 -257l-104 258h-144z" />
    <glyph glyph-name="section" unicode="&#xa7;" horiz-adv-x="582" 
d="M11 -52q7 -83 66.5 -130.5t150.5 -41.5q99 6 166 59t78 134q10 73 -42 125l4 16q40 24 59.5 54t26.5 76q10 68 -36 120t-157 96q-83 33 -83 77q0 51 62 77q56 23 99.5 4t56.5 -70l100 43q-19 80 -87 115t-165 14q-69 -15 -116 -59t-61 -109q-18 -78 43 -138l-3 -16
q-71 -45 -88 -117q-13 -58 18 -107t97 -75q94 -35 108 -42q62 -33 53 -88q-9 -48 -50.5 -72t-97.5 -13q-84 15 -96 109zM-11 -40l147 57q3 -102 84 -117q47 -9 80.5 9t40.5 56q2 13 0 23.5t-10 19.5t-15.5 15.5t-24.5 14t-28.5 12t-35 13.5t-37.5 14q-72 28 -106 82.5
t-19 119.5q17 75 88 124q-60 65 -40 147q16 71 68.5 120.5t128.5 65.5q109 23 185 -20t91 -139l-140 -60q-5 54 -44 75.5t-91 -0.5q-46 -18 -46 -55q-1 -16 17.5 -32t53.5 -31q117 -45 166 -101.5t38 -132.5q-13 -90 -85 -139q49 -56 37 -132q-12 -88 -85.5 -147t-179.5 -66
q-104 -6 -170 50.5t-68 153.5zM193 261q-2 32 18 60t53 37l6 -1q74 -28 109.5 -57t26.5 -76q-9 -53 -66 -67q-29 16 -60 28q-81 32 -87 76zM214 267q3 -35 75 -64q27 -9 56 -24q35 10 41 45q7 39 -23.5 63t-99.5 50q-23 -7 -37.5 -27t-11.5 -43z" />
    <glyph glyph-name="copyright" unicode="&#xa9;" horiz-adv-x="853" 
d="M377 -35q-160 0 -253.5 113.5t-65.5 273.5q19 105 86.5 194t165.5 140.5t203 51.5q159 0 252.5 -113.5t65.5 -272.5q-29 -160 -161.5 -273.5t-292.5 -113.5zM380 -15q151 0 277.5 107.5t153.5 259.5q27 151 -61 258.5t-240 107.5t-278.5 -107.5t-153.5 -258.5
q-27 -152 61.5 -259.5t240.5 -107.5zM400 139q-87 4 -132 65t-29 153q14 82 87.5 145t154.5 64q74 1 119.5 -38t55.5 -110l-121 -31q-20 65 -77 59q-35 -4 -63 -30t-33 -60q-7 -42 10.5 -69t54.5 -29q30 -2 58 16t37 46l114 -35q-33 -70 -97.5 -109.5t-138.5 -36.5zM404 159
q62 -3 117 27t87 85l-77 24q-16 -27 -47 -43t-62 -14q-44 3 -66 35.5t-14 82.5q6 41 40 73.5t77 36.5q63 6 90 -55l83 21q-12 55 -52 85t-103 29q-73 -1 -139 -58t-79 -131q-15 -84 26 -139.5t119 -58.5zM395 70q116 0 213.5 83t117.5 199t-47.5 198.5t-183.5 82.5
t-214 -82.5t-118 -198.5q-21 -117 47 -199.5t185 -82.5zM392 50q-124 0 -197.5 88.5t-51.5 213.5q22 124 126 212.5t229 88.5q124 0 197 -88.5t51 -212.5q-22 -125 -126 -213.5t-228 -88.5z" />
    <glyph glyph-name="ordfeminine" unicode="&#xaa;" horiz-adv-x="418" 
d="M179 279q-58 0 -87.5 26.5t-27.5 75.5q8 110 147 130q77 11 84 15q11 7 5.5 20t-22.5 17q-29 8 -51 -5t-30 -44l-103 21q27 67 92 104q32 20 79.5 24t82.5 -9q44 -17 64 -49t13 -75l-40 -240h-115l4 24q-46 -35 -95 -35zM183 299q57 0 119 71l-8 -60h75l36 220
q14 75 -66 106q-31 11 -74 7.5t-72 -20.5q-48 -29 -71 -72l64 -13q14 29 42 41.5t60 3.5q25 -7 31 -23.5t-0.5 -30.5t-14.5 -19q-14 -8 -75 -16q-12 -2 -20 -3q-119 -18 -125 -108q-3 -84 99 -84zM236 386q52 11 59 45q-19 -3 -38.5 -3.5t-29.5 -1t-19 -2t-13 -6.5t-6 -15
q-2 -11 11.5 -16t35.5 -1zM236 366q-32 -6 -51.5 4.5t-15.5 32.5q3 20 15.5 30t24.5 11.5t36 2.5q38 2 61 6l10 -9q-2 -62 -80 -78z" />
    <glyph glyph-name="guillemotleft" unicode="&#xab;" horiz-adv-x="622" 
d="M227 22l-184 245l271 247l75 -83l-180 -164l122 -163zM234 50l70 56l-123 161l180 162l-50 57l-240 -219zM452 22l-184 245l271 247l75 -83l-180 -164l122 -163zM459 50l70 56l-123 161l180 162l-50 57l-240 -219z" />
    <glyph glyph-name="registered" unicode="&#xae;" horiz-adv-x="480" 
d="M253 325q-82 0 -130.5 58.5t-34.5 141.5q15 83 84.5 141.5t151.5 58.5t130.5 -59t33.5 -141q-14 -82 -83 -141t-152 -59zM257 345q74 0 136 53t75 127t-30.5 127t-117.5 53t-136 -53t-76 -127q-13 -75 30.5 -127.5t118.5 -52.5zM266 395q52 0 97 38.5t54 91.5
q10 52 -21.5 90.5t-84.5 38.5t-98 -38.5t-55 -90.5q-9 -53 23 -91.5t85 -38.5zM262 375q-61 0 -98 44.5t-26 105.5t63.5 105t113.5 44q60 0 96.5 -44.5t25.5 -104.5q-11 -61 -62.5 -105.5t-112.5 -44.5zM187 422l38 216h88q36 0 54.5 -19.5t13.5 -51.5q-4 -21 -17.5 -38
t-31.5 -24l44 -83h-78l-39 74h9l-13 -74h-68zM211 442h28l13 74h21l39 -74h30l-43 80q27 0 43 13t19 32q4 23 -9.5 37t-41.5 14h-68zM296 550q14 0 17 17q1 5 -4 9t-12 4h-14l-5 -30h18zM292 530h-38l13 70h34q16 0 25 -9.5t7 -23.5q-3 -17 -14 -27t-27 -10z" />
    <glyph glyph-name="degree" unicode="&#xb0;" horiz-adv-x="390" 
d="M222 402q-64 0 -101.5 45.5t-26.5 107.5q11 64 64.5 109t117.5 45t101.5 -45t26.5 -109q-11 -62 -64.5 -107.5t-117.5 -45.5zM225 422q55 0 102 39.5t57 93.5q10 55 -23 94.5t-89 39.5t-102 -39.5t-56 -94.5q-10 -54 23 -93.5t88 -39.5zM243 503q22 0 39.5 15.5
t21.5 38.5q4 21 -9 36.5t-34 15.5t-40 -16t-23 -36q-4 -23 9.5 -38.5t35.5 -15.5zM239 483q-30 0 -48 22t-13 52q5 29 31.5 50.5t55.5 21.5t46.5 -22t12.5 -50q-5 -31 -30 -52.5t-55 -21.5z" />
    <glyph glyph-name="uni00B2" unicode="&#xb2;" horiz-adv-x="367" 
d="M177 414l65 51q116 92 120 163q2 38 -26 62t-74 24q-38 0 -72.5 -22t-57.5 -60l51 -23q27 46 70 46q36 0 44.5 -29.5t-20.5 -58.5q-50 -50 -183 -157l-9 -53h241l10 57h-159zM232 434h127l-17 -97h-281l15 81q139 113 187 161q20 19 15.5 37.5t-28.5 18.5
q-19 0 -36.5 -17t-19.5 -38l-89 40q25 52 68 83t92 31q54 0 87 -29t30 -75q-6 -84 -129 -179z" />
    <glyph glyph-name="uni00B3" unicode="&#xb3;" horiz-adv-x="383" 
d="M206 330q-59 0 -93.5 29.5t-38.5 84.5l109 41q-4 -36 16.5 -50.5t43 -7t26.5 27.5q5 26 -15 35t-74 4l16 89q46 -2 70 7t22 26q-2 24 -29 24q-31 -1 -47 -31l-5 -12l-92 40q20 41 65 69t90 28q62 0 95.5 -27.5t30.5 -76.5q-1 -20 -16 -45.5t-33 -40.5q16 -14 26 -40
t6 -47q-10 -56 -58.5 -91.5t-114.5 -35.5zM210 350q58 0 99.5 30t49.5 77q4 21 -4.5 40.5t-18.5 34t-10 21.5q2 0 12.5 8t23 27t14.5 40q2 41 -26.5 63.5t-82.5 22.5q-33 0 -68 -18.5t-55 -47.5l56 -24q24 36 64.5 35.5t44.5 -37.5q2 -27 -24 -42.5t-73 -16.5l-8 -47
q49 2 70 -12.5t15 -48.5q-4 -25 -33 -38t-58 -3t-35 43l-67 -25q17 -82 114 -82z" />
    <glyph glyph-name="periodcentered" unicode="&#xb7;" horiz-adv-x="277" 
d="M133 217q-41 0 -64.5 29.5t-16.5 69.5t41 69t75 29q40 0 64 -29t17 -69q-8 -41 -42 -70t-74 -29zM137 237q32 0 59 23.5t33 55.5q5 32 -14 55t-51 23t-59.5 -23t-32.5 -55q-6 -33 13 -56t52 -23z" />
    <glyph glyph-name="uni00B9" unicode="&#xb9;" horiz-adv-x="289" 
d="M206 600l-69 -29l-24 91l140 67h80l-68 -391h-105zM231 632l-48 -274h65l62 351h-56l-117 -57l14 -55z" />
    <glyph glyph-name="ordmasculine" unicode="&#xba;" horiz-adv-x="480" 
d="M79 472q14 82 83 138.5t153 56.5q83 0 130.5 -56.5t33.5 -138.5t-82.5 -140.5t-151.5 -58.5q-84 0 -132 58t-34 141zM99 472q-13 -74 30.5 -126.5t119.5 -52.5q75 0 136 52t74 127q13 74 -30 124.5t-118 50.5q-76 0 -137.5 -51t-74.5 -124zM211 471q-6 -34 10 -54.5
t48 -20.5q31 0 53.5 20.5t28.5 54.5q5 31 -10.5 51.5t-45.5 20.5q-31 0 -55 -20.5t-29 -51.5zM191 471q7 40 37.5 66t69.5 26q38 0 59 -26.5t14 -65.5q-7 -42 -37 -68.5t-69 -26.5q-40 0 -60.5 26.5t-13.5 68.5z" />
    <glyph glyph-name="guillemotright" unicode="&#xbb;" horiz-adv-x="622" 
d="M90 22l-76 82l180 163l-122 164l105 83l183 -247zM93 50l239 217l-162 219l-70 -57l122 -162l-179 -161zM315 22l-76 82l180 163l-122 164l105 83l183 -247zM318 50l239 217l-162 219l-70 -57l122 -162l-179 -161z" />
    <glyph glyph-name="questiondown" unicode="&#xbf;" horiz-adv-x="538" 
d="M344 265q-14 -82 -34.5 -116t-71.5 -76q-11 -9 -35 -27.5t-32.5 -26.5t-19 -24t-13.5 -36q-5 -28 13 -45.5t51 -17.5q35 0 65 23t49 65l125 -58q-44 -80 -112 -125.5t-141 -45.5q-100 0 -158 55t-43 137q8 47 30.5 85.5t43 57.5t52.5 42q37 27 54 56t25 77h152zM320 245
h-112q-9 -43 -28.5 -72t-57.5 -57q-32 -24 -49.5 -40t-38 -50.5t-27.5 -78.5q-14 -74 39 -123t145 -49q64 0 122.5 37.5t99.5 103.5l-90 41q-46 -81 -125 -81q-41 0 -64 23.5t-16 59.5q4 24 17 44.5t25 31.5t35 28q3 2 14 10.5t17 13.5q47 38 64.5 65.5t29.5 92.5zM309 517
q40 0 64.5 -29t17.5 -70q-7 -40 -41.5 -69t-75.5 -29q-40 0 -63.5 29t-16.5 69q7 41 41 70t74 29zM306 497q-32 0 -59.5 -23.5t-32.5 -55.5q-6 -32 13 -55t51 -23t59.5 23t33.5 55q5 33 -13.5 56t-51.5 23z" />
    <glyph glyph-name="Agrave" unicode="&#xc0;" horiz-adv-x="747" 
d="M-37 -16l408 736l174 -1l145 -735h-171l-29 165h-268l-88 -165h-171zM-5 4h129l88 165h296l29 -165h129l-139 695l-146 1zM285 289h186l-50 247zM253 269l179 325l63 -325h-242zM412 754l-77 158h183l22 -158h-128zM425 774h90l-15 118h-131z" />
    <glyph glyph-name="Aacute" unicode="&#xc1;" horiz-adv-x="747" 
d="M-37 -16l408 736l174 -1l145 -735h-171l-29 165h-268l-88 -165h-171zM-5 4h129l88 165h296l29 -165h129l-139 695l-146 1zM285 289h186l-50 247zM253 269l179 325l63 -325h-242zM390 754l78 158h183l-133 -158h-128zM421 774h90l98 118h-131z" />
    <glyph glyph-name="Acircumflex" unicode="&#xc2;" horiz-adv-x="747" 
d="M-37 -16l408 736l174 -1l145 -735h-171l-29 165h-268l-88 -165h-171zM-5 4h129l88 165h296l29 -165h129l-139 695l-146 1zM285 289h186l-50 247zM253 269l179 325l63 -325h-242zM418 751l-156 1l165 153h123l108 -154h-156l-30 57h-5zM412 771l49 57h25l30 -57h102
l-81 114h-105l-123 -113z" />
    <glyph glyph-name="Atilde" unicode="&#xc3;" horiz-adv-x="747" 
d="M527 699l-146 1l-386 -696h129l88 165h296l29 -165h129zM545 719l145 -735h-171l-29 165h-268l-88 -165h-171l408 736zM432 594l63 -325h-242zM421 536l-136 -247h186zM276 768q9 65 52 107.5t101 42.5q38 0 73.5 -22t38.5 -22q23 0 23 30h114q-8 -65 -52 -107.5
t-102 -42.5q-34 0 -70.5 22t-45.5 22q-18 0 -19 -30h-113zM300 788h73q10 30 38 30q17 0 45 -18q42 -26 71 -26q46 0 81 30.5t47 79.5h-74q-11 -30 -43 -30q-12 0 -34 15q-45 29 -79 29q-44 0 -79 -30.5t-46 -79.5z" />
    <glyph glyph-name="Adieresis" unicode="&#xc4;" horiz-adv-x="747" 
d="M527 699l-146 1l-386 -696h129l88 165h296l29 -165h129zM545 719l145 -735h-171l-29 165h-268l-88 -165h-171l408 736zM432 594l63 -325h-242zM421 536l-136 -247h186zM365 758q-35 0 -55 24.5t-14 58.5t34.5 58t63.5 24q34 0 53.5 -24t13.5 -58q-6 -35 -34 -59t-62 -24z
M368 778q26 0 47 18.5t26 44.5t-10 44t-41 18t-48 -18t-26 -44q-5 -27 10 -45t42 -18zM558 758q-35 0 -55 24.5t-14 58.5t34.5 58t63.5 24q34 0 53.5 -24t13.5 -58q-6 -35 -34 -59t-62 -24zM561 778q26 0 47 18.5t26 44.5t-10 44t-41 18t-48 -18t-26 -44q-5 -27 10 -45
t42 -18z" />
    <glyph glyph-name="Aring" unicode="&#xc5;" horiz-adv-x="747" 
d="M-37 -16l373 672q-29 39 -19 93q11 59 60.5 101t107.5 42q59 0 93.5 -42.5t24.5 -100.5q-9 -50 -47 -89l134 -676h-171l-29 165h-268l-88 -165h-171zM-5 4h129l88 165h296l29 -165h129l-131 660q41 39 48 85q9 51 -20.5 87t-80.5 36t-93.5 -36t-51.5 -87t22 -89zM285 289
h186l-50 247zM253 269l179 325l63 -325h-242zM456 721q13 0 24 9.5t13 22.5t-5.5 22t-20.5 9t-24 -9t-13 -22q-2 -14 5.5 -23t20.5 -9zM453 701q-21 0 -34 15.5t-9 36.5t22 36t39 15q20 0 32.5 -15.5t9.5 -35.5q-4 -21 -21.5 -36.5t-38.5 -15.5z" />
    <glyph glyph-name="AE" unicode="&#xc6;" horiz-adv-x="1053" 
d="M-7 -16l556 736h82h463l-27 -151h-308l-24 -137h276l-26 -149h-277l-26 -149h311l-27 -148h-475l29 163h-222l-128 -165h-177zM31 4h131l128 165h254l-29 -163h435l19 108h-311l33 189h277l20 109h-276l31 177h308l19 111h-443h-70zM396 289h149l42 241zM356 269l264 331
l-59 -331h-205z" />
    <glyph glyph-name="Ccedilla" unicode="&#xc7;" horiz-adv-x="818" 
d="M57 347q28 160 160 273.5t290 113.5q116 0 202 -68t109 -180l-160 -55q-18 71 -64 110t-113 39q-95 0 -169 -66t-92 -167q-17 -92 35.5 -155t146.5 -63q77 0 139.5 40t90.5 108l141 -58q-43 -95 -150 -166.5t-219 -81.5l-10 -14q44 2 69.5 -28t17.5 -76
q-9 -50 -46.5 -79.5t-92.5 -29.5q-16 0 -29 3.5t-22 10t-16 13t-12 16t-7.5 15t-5.5 13.5t-3 9l91 37q-1 -15 5.5 -24t17.5 -9q23 0 28 24q2 10 -4 17t-16 7q-9 0 -16.5 -6t-6.5 -12l-76 37l48 79q-137 20 -211.5 125.5t-49.5 247.5zM77 347q-25 -141 53 -243.5t220 -112.5
l-52 -86l42 -21q17 12 33 12q18 0 28.5 -13t7.5 -31q-4 -19 -19 -31.5t-33 -12.5q-25 0 -35 26l-49 -20q20 -50 72 -50q47 0 77.5 23.5t38.5 65.5q8 48 -25.5 72t-81.5 2l39 64q102 4 203.5 66.5t148.5 149.5l-105 44q-34 -66 -99.5 -104t-142.5 -38q-102 0 -159 68.5
t-39 169.5q19 109 100 181t185 72q68 0 117 -37.5t70 -106.5l122 42q-27 98 -105.5 157t-184.5 59q-149 0 -274.5 -107.5t-152.5 -259.5z" />
    <glyph glyph-name="Egrave" unicode="&#xc8;" horiz-adv-x="555" 
d="M-7 -14l130 734h473l-27 -151h-308l-24 -137h276l-26 -149h-277l-26 -149h311l-27 -148h-475zM17 6h435l19 108h-311l33 189h277l20 109h-276l31 177h308l19 111h-433zM302 754l-77 158h183l22 -158h-128zM315 774h90l-15 118h-131z" />
    <glyph glyph-name="Eacute" unicode="&#xc9;" horiz-adv-x="555" 
d="M-7 -14l130 734h473l-27 -151h-308l-24 -137h276l-26 -149h-277l-26 -149h311l-27 -148h-475zM17 6h435l19 108h-311l33 189h277l20 109h-276l31 177h308l19 111h-433zM293 754l78 158h183l-133 -158h-128zM324 774h90l98 118h-131z" />
    <glyph glyph-name="Ecircumflex" unicode="&#xca;" horiz-adv-x="555" 
d="M-7 -14l130 734h473l-27 -151h-308l-24 -137h276l-26 -149h-277l-26 -149h311l-27 -148h-475zM17 6h435l19 108h-311l33 189h277l20 109h-276l31 177h308l19 111h-433zM319 751l-156 1l165 153h123l108 -154h-156l-30 57h-5zM313 771l49 57h25l30 -57h102l-81 114h-105
l-123 -113z" />
    <glyph glyph-name="Edieresis" unicode="&#xcb;" horiz-adv-x="555" 
d="M-7 -14l130 734h473l-27 -151h-308l-24 -137h276l-26 -149h-277l-26 -149h311l-27 -148h-475zM17 6h435l19 108h-311l33 189h277l20 109h-276l31 177h308l19 111h-433zM269 758q-35 0 -55 24.5t-14 58.5t34.5 58t63.5 24q34 0 53.5 -24t13.5 -58q-6 -35 -34 -59t-62 -24z
M272 778q26 0 47 18.5t26 44.5t-10 44t-41 18t-48 -18t-26 -44q-5 -27 10 -45t42 -18zM462 758q-35 0 -55 24.5t-14 58.5t34.5 58t63.5 24q34 0 53.5 -24t13.5 -58q-6 -35 -34 -59t-62 -24zM465 778q26 0 47 18.5t26 44.5t-10 44t-41 18t-48 -18t-26 -44q-5 -27 10 -45
t42 -18z" />
    <glyph glyph-name="Igrave" unicode="&#xcc;" horiz-adv-x="353" 
d="M57 -17l130 736h168l-130 -736h-168zM80 3h128l123 696h-128zM234 754l-77 158h183l22 -158h-128zM247 774h90l-15 118h-131z" />
    <glyph glyph-name="Iacute" unicode="&#xcd;" horiz-adv-x="355" 
d="M-7 -17l130 736h168l-130 -736h-168zM16 3h128l123 696h-128zM131 754l78 158h183l-133 -158h-128zM162 774h90l98 118h-131z" />
    <glyph glyph-name="Icircumflex" unicode="&#xce;" horiz-adv-x="517" 
d="M106 -17l130 736h168l-130 -736h-168zM129 3h128l123 696h-128zM285 751l-156 1l165 153h123l108 -154h-156l-30 57h-5zM279 771l49 57h25l30 -57h102l-81 114h-105l-123 -113z" />
    <glyph glyph-name="Idieresis" unicode="&#xcf;" horiz-adv-x="478" 
d="M86 -17l130 736h168l-130 -736h-168zM109 3h128l123 696h-128zM213 758q-35 0 -55 24.5t-14 58.5t34.5 58t63.5 24q34 0 53.5 -24t13.5 -58q-6 -35 -34 -59t-62 -24zM216 778q26 0 47 18.5t26 44.5t-10 44t-41 18t-48 -18t-26 -44q-5 -27 10 -45t42 -18zM406 758
q-35 0 -55 24.5t-14 58.5t34.5 58t63.5 24q34 0 53.5 -24t13.5 -58q-6 -35 -34 -59t-62 -24zM409 778q26 0 47 18.5t26 44.5t-10 44t-41 18t-48 -18t-26 -44q-5 -27 10 -45t42 -18z" />
    <glyph glyph-name="Ntilde" unicode="&#xd1;" horiz-adv-x="712" 
d="M477 -16l-230 457l-81 -456h-173l130 734h158l231 -453l80 453h163l-130 -735h-148zM491 4h118l122 695h-123l-87 -497l-254 497h-128l-122 -694h133l88 502zM264 768q9 65 52 107.5t101 42.5q38 0 73.5 -22t38.5 -22q23 0 23 30h114q-8 -65 -52 -107.5t-102 -42.5
q-34 0 -70.5 22t-45.5 22q-18 0 -19 -30h-113zM288 788h73q10 30 38 30q17 0 45 -18q42 -26 71 -26q46 0 81 30.5t47 79.5h-74q-11 -30 -43 -30q-12 0 -34 15q-45 29 -79 29q-44 0 -79 -30.5t-46 -79.5z" />
    <glyph glyph-name="Ograve" unicode="&#xd2;" 
d="M369 -36q-157 0 -248 114t-63 275t159.5 275t288.5 114q102 0 180 -52t113 -142t16 -195q-29 -161 -159.5 -275t-286.5 -114zM372 -16q148 0 272 108t151 261t-59 261t-234 108q-149 0 -273 -108t-151 -261t59 -261t235 -108zM401 123q89 0 165 67.5t93 161.5
q17 95 -35.5 162.5t-141.5 67.5t-166 -68t-93 -162t36.5 -161.5t141.5 -67.5zM397 103q-97 0 -154.5 73.5t-39.5 175.5q18 103 101 176.5t181 73.5t155 -73.5t39 -176.5q-18 -102 -101 -175.5t-181 -73.5zM451 754l-77 158h183l22 -158h-128zM464 774h90l-15 118h-131z" />
    <glyph glyph-name="Oacute" unicode="&#xd3;" 
d="M369 -36q-157 0 -248 114t-63 275t159.5 275t288.5 114q102 0 180 -52t113 -142t16 -195q-29 -161 -159.5 -275t-286.5 -114zM372 -16q148 0 272 108t151 261t-59 261t-234 108q-149 0 -273 -108t-151 -261t59 -261t235 -108zM401 123q89 0 165 67.5t93 161.5
q17 95 -35.5 162.5t-141.5 67.5t-166 -68t-93 -162t36.5 -161.5t141.5 -67.5zM397 103q-97 0 -154.5 73.5t-39.5 175.5q18 103 101 176.5t181 73.5t155 -73.5t39 -176.5q-18 -102 -101 -175.5t-181 -73.5zM441 754l78 158h183l-133 -158h-128zM472 774h90l98 118h-131z" />
    <glyph glyph-name="Ocircumflex" unicode="&#xd4;" 
d="M369 -36q-157 0 -248 114t-63 275t159.5 275t288.5 114q102 0 180 -52t113 -142t16 -195q-29 -161 -159.5 -275t-286.5 -114zM372 -16q148 0 272 108t151 261t-59 261t-234 108q-149 0 -273 -108t-151 -261t59 -261t235 -108zM401 123q89 0 165 67.5t93 161.5
q17 95 -35.5 162.5t-141.5 67.5t-166 -68t-93 -162t36.5 -161.5t141.5 -67.5zM397 103q-97 0 -154.5 73.5t-39.5 175.5q18 103 101 176.5t181 73.5t155 -73.5t39 -176.5q-18 -102 -101 -175.5t-181 -73.5zM460 751l-156 1l165 153h123l108 -154h-156l-30 57h-5zM454 771
l49 57h25l30 -57h102l-81 114h-105l-123 -113z" />
    <glyph glyph-name="Otilde" unicode="&#xd5;" 
d="M369 -36q-157 0 -248 114t-63 275t159.5 275t288.5 114q102 0 180 -52t113 -142t16 -195q-29 -161 -159.5 -275t-286.5 -114zM372 -16q148 0 272 108t151 261t-59 261t-234 108q-149 0 -273 -108t-151 -261t59 -261t235 -108zM401 123q89 0 165 67.5t93 161.5
q17 95 -35.5 162.5t-141.5 67.5t-166 -68t-93 -162t36.5 -161.5t141.5 -67.5zM397 103q-97 0 -154.5 73.5t-39.5 175.5q18 103 101 176.5t181 73.5t155 -73.5t39 -176.5q-18 -102 -101 -175.5t-181 -73.5zM332 768q9 65 52 107.5t101 42.5q38 0 73.5 -22t38.5 -22
q23 0 23 30h114q-8 -65 -52 -107.5t-102 -42.5q-34 0 -70.5 22t-45.5 22q-18 0 -19 -30h-113zM356 788h73q10 30 38 30q17 0 45 -18q42 -26 71 -26q46 0 81 30.5t47 79.5h-74q-11 -30 -43 -30q-12 0 -34 15q-45 29 -79 29q-44 0 -79 -30.5t-46 -79.5z" />
    <glyph glyph-name="Odieresis" unicode="&#xd6;" 
d="M369 -36q-157 0 -248 114t-63 275t159.5 275t288.5 114q102 0 180 -52t113 -142t16 -195q-29 -161 -159.5 -275t-286.5 -114zM372 -16q148 0 272 108t151 261t-59 261t-234 108q-149 0 -273 -108t-151 -261t59 -261t235 -108zM401 123q89 0 165 67.5t93 161.5
q17 95 -35.5 162.5t-141.5 67.5t-166 -68t-93 -162t36.5 -161.5t141.5 -67.5zM397 103q-97 0 -154.5 73.5t-39.5 175.5q18 103 101 176.5t181 73.5t155 -73.5t39 -176.5q-18 -102 -101 -175.5t-181 -73.5zM410 758q-35 0 -55 24.5t-14 58.5t34.5 58t63.5 24q34 0 53.5 -24
t13.5 -58q-6 -35 -34 -59t-62 -24zM413 778q26 0 47 18.5t26 44.5t-10 44t-41 18t-48 -18t-26 -44q-5 -27 10 -45t42 -18zM603 758q-35 0 -55 24.5t-14 58.5t34.5 58t63.5 24q34 0 53.5 -24t13.5 -58q-6 -35 -34 -59t-62 -24zM606 778q26 0 47 18.5t26 44.5t-10 44t-41 18
t-48 -18t-26 -44q-5 -27 10 -45t42 -18z" />
    <glyph glyph-name="multiply" unicode="&#xd7;" horiz-adv-x="603" 
d="M403 268l135 -158l-113 -96l-138 159l-192 -159l-79 96l191 157l-136 158l111 95l140 -160l194 160l76 -96zM375 268l189 156l-53 68l-194 -160l-140 160l-78 -67l136 -158l-191 -157l56 -68l192 159l138 -159l80 68z" />
    <glyph glyph-name="Oslash" unicode="&#xd8;" 
d="M187 -74l-108 79l50 62q-48 56 -66.5 130.5t-4.5 155.5q28 161 159.5 275t288.5 114q75 0 139 -29l53 67l107 -81l-54 -68q92 -116 64 -278q-29 -161 -159.5 -275t-286.5 -114q-70 0 -131 26zM186 -46l49 61q64 -31 137 -31q148 0 272 108t151 261q14 78 -4.5 150
t-66.5 124l52 66l-76 59l-52 -65q-64 35 -146 35q-149 0 -273 -108t-151 -261q-14 -82 6 -155.5t71 -126.5l-47 -60zM244 212l290 363q-28 7 -52 7q-89 0 -166 -68t-93 -162q-13 -73 21 -140zM240 178q-54 75 -37 174q18 103 101 176.5t181 73.5q47 0 81 -17zM401 123
q89 0 165 67.5t93 161.5q14 76 -21 139l-288 -361q22 -7 51 -7zM397 103q-43 0 -79 16l324 406q54 -73 37 -173q-18 -102 -101 -175.5t-181 -73.5z" />
    <glyph glyph-name="Ugrave" unicode="&#xd9;" horiz-adv-x="667" 
d="M292 -29q-57 0 -103 12.5t-73.5 33.5t-47 48t-26 56t-9.5 57.5t4 52.5l86 489h169l-85 -480q-10 -55 19 -84.5t93 -29.5q122 0 140 109l86 484h165l-83 -471q-7 -37 -20.5 -72t-40 -73.5t-62.5 -66.5t-91 -46.5t-121 -18.5zM295 -9q77 0 136.5 24t94.5 64.5t54 82
t27 86.5l79 451h-125l-82 -464q-11 -62 -53 -95.5t-110 -33.5q-72 0 -106 35t-23 99l81 460h-129l-82 -469q-6 -23 -3.5 -49.5t8 -53t24 -51.5t44 -44t68.5 -30.5t97 -11.5zM369 754l-77 158h183l22 -158h-128zM382 774h90l-15 118h-131z" />
    <glyph glyph-name="Uacute" unicode="&#xda;" horiz-adv-x="667" 
d="M292 -29q-57 0 -103 12.5t-73.5 33.5t-47 48t-26 56t-9.5 57.5t4 52.5l86 489h169l-85 -480q-10 -55 19 -84.5t93 -29.5q122 0 140 109l86 484h165l-83 -471q-7 -37 -20.5 -72t-40 -73.5t-62.5 -66.5t-91 -46.5t-121 -18.5zM295 -9q77 0 136.5 24t94.5 64.5t54 82
t27 86.5l79 451h-125l-82 -464q-11 -62 -53 -95.5t-110 -33.5q-72 0 -106 35t-23 99l81 460h-129l-82 -469q-6 -23 -3.5 -49.5t8 -53t24 -51.5t44 -44t68.5 -30.5t97 -11.5zM359 754l78 158h183l-133 -158h-128zM390 774h90l98 118h-131z" />
    <glyph glyph-name="Ucircumflex" unicode="&#xdb;" horiz-adv-x="667" 
d="M292 -29q-57 0 -103 12.5t-73.5 33.5t-47 48t-26 56t-9.5 57.5t4 52.5l86 489h169l-85 -480q-10 -55 19 -84.5t93 -29.5q122 0 140 109l86 484h165l-83 -471q-7 -37 -20.5 -72t-40 -73.5t-62.5 -66.5t-91 -46.5t-121 -18.5zM295 -9q77 0 136.5 24t94.5 64.5t54 82
t27 86.5l79 451h-125l-82 -464q-11 -62 -53 -95.5t-110 -33.5q-72 0 -106 35t-23 99l81 460h-129l-82 -469q-6 -23 -3.5 -49.5t8 -53t24 -51.5t44 -44t68.5 -30.5t97 -11.5zM380 751l-156 1l165 153h123l108 -154h-156l-30 57h-5zM374 771l49 57h25l30 -57h102l-81 114h-105
l-123 -113z" />
    <glyph glyph-name="Udieresis" unicode="&#xdc;" horiz-adv-x="667" 
d="M292 -29q-57 0 -103 12.5t-73.5 33.5t-47 48t-26 56t-9.5 57.5t4 52.5l86 489h169l-85 -480q-10 -55 19 -84.5t93 -29.5q122 0 140 109l86 484h165l-83 -471q-7 -37 -20.5 -72t-40 -73.5t-62.5 -66.5t-91 -46.5t-121 -18.5zM295 -9q77 0 136.5 24t94.5 64.5t54 82
t27 86.5l79 451h-125l-82 -464q-11 -62 -53 -95.5t-110 -33.5q-72 0 -106 35t-23 99l81 460h-129l-82 -469q-6 -23 -3.5 -49.5t8 -53t24 -51.5t44 -44t68.5 -30.5t97 -11.5zM331 758q-35 0 -55 24.5t-14 58.5t34.5 58t63.5 24q34 0 53.5 -24t13.5 -58q-6 -35 -34 -59
t-62 -24zM334 778q26 0 47 18.5t26 44.5t-10 44t-41 18t-48 -18t-26 -44q-5 -27 10 -45t42 -18zM524 758q-35 0 -55 24.5t-14 58.5t34.5 58t63.5 24q34 0 53.5 -24t13.5 -58q-6 -35 -34 -59t-62 -24zM527 778q26 0 47 18.5t26 44.5t-10 44t-41 18t-48 -18t-26 -44
q-5 -27 10 -45t42 -18z" />
    <glyph glyph-name="Yacute" unicode="&#xdd;" horiz-adv-x="730" 
d="M241 -16l65 337l-203 399h207l101 -259l184 259h198l-321 -399l-60 -337h-171zM265 4h131l57 323l300 373h-150l-199 -281l-110 281h-157l190 -373zM392 754l78 158h183l-133 -158h-128zM423 774h90l98 118h-131z" />
    <glyph glyph-name="germandbls" unicode="&#xdf;" horiz-adv-x="590" 
d="M194 -20l25 140q72 -10 117.5 13.5t53.5 73.5q10 56 -19.5 80t-109.5 22l25 137q116 -3 131 82q5 30 -13.5 51.5t-49.5 21.5q-40 0 -74.5 -29.5t-41.5 -68.5l-92 -519h-153l91 516q19 107 101 173.5t195 66.5q53 0 93 -17.5t60.5 -44.5t30 -56t7.5 -57q-4 -54 -34 -103
t-75 -75q39 -17 65.5 -66t14.5 -114q-11 -61 -40 -107t-66.5 -69.5t-81.5 -38.5t-84.5 -14.5t-75.5 2.5zM218 -2q36 -3 71 0t74 16.5t70 36t55.5 63t33.5 93.5q13 71 -20 118.5t-70 47.5l-1 19q49 20 82 67.5t37 103.5q5 59 -37.5 108t-135.5 49q-105 0 -180.5 -61
t-92.5 -159l-87 -496h113l88 499q8 48 50 83t89 35q40 0 63.5 -27.5t16.5 -65.5q-17 -97 -135 -102l-17 -97q76 -2 106 -31.5t19 -90.5q-10 -56 -57 -85t-118 -24z" />
    <glyph glyph-name="agrave" unicode="&#xe0;" horiz-adv-x="551" 
d="M178 -30q-80 0 -122 37t-40 104q14 157 215 183q11 2 29.5 4t30.5 4t25.5 4t22 4t11.5 5q8 5 12 18t-5 28t-35 22q-45 12 -79.5 -8.5t-48.5 -68.5l-131 29q27 96 138 152q48 25 108 28.5t107 -15.5q61 -24 88 -70t17 -107l-57 -338h-150l5 41q-64 -56 -141 -56zM181 -10
q48 0 91.5 25t72.5 70l-9 -80h112l53 318q20 113 -96 159q-43 17 -98 13.5t-99 -26.5q-89 -44 -119 -118l93 -21q20 46 60.5 66t87.5 7q34 -10 44.5 -33t3.5 -43t-18 -28q-16 -10 -98 -21q-22 -2 -33 -4q-181 -23 -192 -161q-2 -59 35 -91t109 -32zM255 95q38 8 63.5 33
t29.5 60q-27 -4 -58 -5.5t-48 -2.5t-34 -4.5t-25 -12t-11 -24.5q-5 -29 17 -41t66 -3zM255 75q-53 -11 -81.5 6.5t-21.5 57.5q4 20 13.5 33t29 18.5t34 7.5t44.5 3q69 5 86 8l10 -9q-2 -46 -33.5 -80.5t-80.5 -44.5zM274 577l-77 158h183l22 -158h-128zM287 597h90l-15 118
h-131z" />
    <glyph glyph-name="aacute" unicode="&#xe1;" horiz-adv-x="551" 
d="M178 -30q-80 0 -122 37t-40 104q14 157 215 183q11 2 29.5 4t30.5 4t25.5 4t22 4t11.5 5q8 5 12 18t-5 28t-35 22q-45 12 -79.5 -8.5t-48.5 -68.5l-131 29q27 96 138 152q48 25 108 28.5t107 -15.5q61 -24 88 -70t17 -107l-57 -338h-150l5 41q-64 -56 -141 -56zM181 -10
q48 0 91.5 25t72.5 70l-9 -80h112l53 318q20 113 -96 159q-43 17 -98 13.5t-99 -26.5q-89 -44 -119 -118l93 -21q20 46 60.5 66t87.5 7q34 -10 44.5 -33t3.5 -43t-18 -28q-16 -10 -98 -21q-22 -2 -33 -4q-181 -23 -192 -161q-2 -59 35 -91t109 -32zM255 95q38 8 63.5 33
t29.5 60q-27 -4 -58 -5.5t-48 -2.5t-34 -4.5t-25 -12t-11 -24.5q-5 -29 17 -41t66 -3zM255 75q-53 -11 -81.5 6.5t-21.5 57.5q4 20 13.5 33t29 18.5t34 7.5t44.5 3q69 5 86 8l10 -9q-2 -46 -33.5 -80.5t-80.5 -44.5zM264 577l78 158h183l-133 -158h-128zM295 597h90l98 118
h-131z" />
    <glyph glyph-name="acircumflex" unicode="&#xe2;" horiz-adv-x="551" 
d="M178 -30q-80 0 -122 37t-40 104q14 157 215 183q11 2 29.5 4t30.5 4t25.5 4t22 4t11.5 5q8 5 12 18t-5 28t-35 22q-45 12 -79.5 -8.5t-48.5 -68.5l-131 29q27 96 138 152q48 25 108 28.5t107 -15.5q61 -24 88 -70t17 -107l-57 -338h-150l5 41q-64 -56 -141 -56zM181 -10
q48 0 91.5 25t72.5 70l-9 -80h112l53 318q20 113 -96 159q-43 17 -98 13.5t-99 -26.5q-89 -44 -119 -118l93 -21q20 46 60.5 66t87.5 7q34 -10 44.5 -33t3.5 -43t-18 -28q-16 -10 -98 -21q-22 -2 -33 -4q-181 -23 -192 -161q-2 -59 35 -91t109 -32zM255 95q38 8 63.5 33
t29.5 60q-27 -4 -58 -5.5t-48 -2.5t-34 -4.5t-25 -12t-11 -24.5q-5 -29 17 -41t66 -3zM255 75q-53 -11 -81.5 6.5t-21.5 57.5q4 20 13.5 33t29 18.5t34 7.5t44.5 3q69 5 86 8l10 -9q-2 -46 -33.5 -80.5t-80.5 -44.5zM300 577l-157 1l166 153h123l108 -154h-156l-30 57h-5z
M293 597l49 57h25l30 -57h102l-81 114h-105l-123 -113z" />
    <glyph glyph-name="atilde" unicode="&#xe3;" horiz-adv-x="551" 
d="M178 -30q-80 0 -122 37t-40 104q14 157 215 183q11 2 29.5 4t30.5 4t25.5 4t22 4t11.5 5q8 5 12 18t-5 28t-35 22q-45 12 -79.5 -8.5t-48.5 -68.5l-131 29q27 96 138 152q48 25 108 28.5t107 -15.5q61 -24 88 -70t17 -107l-57 -338h-150l5 41q-64 -56 -141 -56zM181 -10
q48 0 91.5 25t72.5 70l-9 -80h112l53 318q20 113 -96 159q-43 17 -98 13.5t-99 -26.5q-89 -44 -119 -118l93 -21q20 46 60.5 66t87.5 7q34 -10 44.5 -33t3.5 -43t-18 -28q-16 -10 -98 -21q-22 -2 -33 -4q-181 -23 -192 -161q-2 -59 35 -91t109 -32zM255 95q38 8 63.5 33
t29.5 60q-27 -4 -58 -5.5t-48 -2.5t-34 -4.5t-25 -12t-11 -24.5q-5 -29 17 -41t66 -3zM255 75q-53 -11 -81.5 6.5t-21.5 57.5q4 20 13.5 33t29 18.5t34 7.5t44.5 3q69 5 86 8l10 -9q-2 -46 -33.5 -80.5t-80.5 -44.5zM146 592q9 65 52 107.5t101 42.5q38 0 73.5 -22t38.5 -22
q23 0 23 30h114q-8 -65 -52 -107.5t-102 -42.5q-34 0 -70.5 22t-45.5 22q-18 0 -19 -30h-113zM170 612h73q10 30 38 30q17 0 45 -18q42 -26 71 -26q46 0 81 30.5t47 79.5h-74q-11 -30 -44 -30q-11 0 -33 15q-45 29 -79 29q-44 0 -79 -30.5t-46 -79.5z" />
    <glyph glyph-name="adieresis" unicode="&#xe4;" horiz-adv-x="551" 
d="M178 -30q-80 0 -122 37t-40 104q14 157 215 183q11 2 29.5 4t30.5 4t25.5 4t22 4t11.5 5q8 5 12 18t-5 28t-35 22q-45 12 -79.5 -8.5t-48.5 -68.5l-131 29q27 96 138 152q48 25 108 28.5t107 -15.5q61 -24 88 -70t17 -107l-57 -338h-150l5 41q-64 -56 -141 -56zM181 -10
q48 0 91.5 25t72.5 70l-9 -80h112l53 318q20 113 -96 159q-43 17 -98 13.5t-99 -26.5q-89 -44 -119 -118l93 -21q20 46 60.5 66t87.5 7q34 -10 44.5 -33t3.5 -43t-18 -28q-16 -10 -98 -21q-22 -2 -33 -4q-181 -23 -192 -161q-2 -59 35 -91t109 -32zM255 95q38 8 63.5 33
t29.5 60q-27 -4 -58 -5.5t-48 -2.5t-34 -4.5t-25 -12t-11 -24.5q-5 -29 17 -41t66 -3zM255 75q-53 -11 -81.5 6.5t-21.5 57.5q4 20 13.5 33t29 18.5t34 7.5t44.5 3q69 5 86 8l10 -9q-2 -46 -33.5 -80.5t-80.5 -44.5zM245 577q-35 0 -55 24.5t-14 58.5t34.5 58t63.5 24
q34 0 53.5 -24t13.5 -58q-6 -35 -34 -59t-62 -24zM248 597q26 0 47 18.5t26 44.5t-10 44t-41 18t-48 -18t-26 -44q-5 -27 10 -45t42 -18zM438 577q-35 0 -55 24.5t-14 58.5t34.5 58t63.5 24q34 0 53.5 -24t13.5 -58q-6 -35 -34 -59t-62 -24zM441 597q26 0 47 18.5t26 44.5
t-10 44t-41 18t-48 -18t-26 -44q-5 -27 10 -45t42 -18z" />
    <glyph glyph-name="aring" unicode="&#xe5;" horiz-adv-x="551" 
d="M178 -30q-80 0 -122 37t-40 104q14 157 215 183q11 2 29.5 4t30.5 4t25.5 4t22 4t11.5 5q8 5 12 18t-5 28t-35 22q-45 12 -79.5 -8.5t-48.5 -68.5l-131 29q27 96 138 152q48 25 108 28.5t107 -15.5q61 -24 88 -70t17 -107l-57 -338h-150l5 41q-64 -56 -141 -56zM181 -10
q48 0 91.5 25t72.5 70l-9 -80h112l53 318q20 113 -96 159q-43 17 -98 13.5t-99 -26.5q-89 -44 -119 -118l93 -21q20 46 60.5 66t87.5 7q34 -10 44.5 -33t3.5 -43t-18 -28q-16 -10 -98 -21q-22 -2 -33 -4q-181 -23 -192 -161q-2 -59 35 -91t109 -32zM255 95q38 8 63.5 33
t29.5 60q-27 -4 -58 -5.5t-48 -2.5t-34 -4.5t-25 -12t-11 -24.5q-5 -29 17 -41t66 -3zM255 75q-53 -11 -81.5 6.5t-21.5 57.5q4 20 13.5 33t29 18.5t34 7.5t44.5 3q69 5 86 8l10 -9q-2 -46 -33.5 -80.5t-80.5 -44.5zM331 553q-49 0 -77.5 35t-20.5 83q9 49 50 83.5t90 34.5
t78 -34.5t20 -83.5q-8 -48 -49.5 -83t-90.5 -35zM335 573q40 0 74.5 29t41.5 69t-16.5 69t-64.5 29t-75.5 -29t-41.5 -69t17.5 -69t64.5 -29zM350 646q10 0 18.5 7.5t10.5 18.5q2 10 -4 17.5t-16 7.5t-19.5 -7.5t-11.5 -17.5q-2 -11 5 -18.5t17 -7.5zM346 626
q-19 0 -30 13.5t-8 32.5q4 18 20 31.5t34 13.5t29.5 -13.5t7.5 -31.5q-3 -19 -18.5 -32.5t-34.5 -13.5z" />
    <glyph glyph-name="ae" unicode="&#xe6;" horiz-adv-x="928" 
d="M178 -30q-80 0 -122 37t-40 104q14 159 215 183q107 13 119 21q8 5 12 18t-5 28t-35 22q-45 12 -79.5 -8.5t-48.5 -68.5l-131 29q27 96 138 152q48 25 108 28.5t107 -15.5q43 -17 69 -46q85 60 193 60q129 0 183 -85t16 -230l-372 -4q-2 -34 25 -60t69 -28q78 -6 126 68
l133 -44q-29 -57 -102.5 -106t-170.5 -49q-120 0 -184 76q-46 -38 -94.5 -57.5t-72 -22t-56.5 -2.5zM181 -10q33 0 56 2.5t69.5 22.5t91.5 58h14q59 -77 176 -77q82 0 145 36.5t96 86.5l-98 32q-55 -70 -138 -64q-55 4 -86 42t-18 86l374 4q28 128 -22.5 201.5t-166.5 73.5
q-112 0 -195 -67q-23 34 -74 55q-43 17 -98 13.5t-99 -26.5q-89 -44 -119 -118l93 -21q20 46 60.5 66t87.5 7q34 -10 44.5 -33t3.5 -43t-18 -28q-16 -11 -131 -25q-181 -21 -192 -161q-2 -59 35 -91t109 -32zM255 95q38 8 63.5 33t29.5 60q-27 -4 -58 -5.5t-48 -2.5
t-34 -4.5t-25 -12t-11 -24.5q-5 -29 17 -41t66 -3zM255 75q-53 -11 -81.5 6.5t-21.5 57.5q4 20 13.5 33t29 18.5t34 7.5t44.5 3q69 5 86 8l10 -9q-2 -46 -33.5 -80.5t-80.5 -44.5zM527 314l212 1q1 33 -29 54.5t-74 18.5q-34 -2 -65 -23.5t-44 -50.5zM502 294
q7 44 47.5 77.5t88.5 36.5q60 4 96 -30t22 -83z" />
    <glyph glyph-name="ccedilla" unicode="&#xe7;" horiz-adv-x="590" 
d="M220 -256q-16 0 -29 3.5t-22 10t-16 13t-12 16t-7.5 15t-5.5 13.5t-3 9l91 37q-1 -15 5.5 -24t17.5 -9q23 0 28 24q2 10 -4 17t-16 7q-9 0 -16.5 -6t-6.5 -12l-76 37l46 75q-93 20 -138 96t-26 182q19 108 113.5 190t199.5 83q96 1 156 -49t70 -141l-151 -39
q-27 85 -104 77q-48 -5 -85.5 -40.5t-45.5 -81.5q-9 -56 15.5 -92t73.5 -40q38 -3 75.5 20t52.5 60l143 -43q-38 -80 -108.5 -130t-155.5 -57l-6 -8q43 2 68.5 -28t17.5 -76q-9 -50 -46.5 -79.5t-92.5 -29.5zM223 -236q47 0 77.5 23.5t38.5 65.5q8 49 -26 73t-81 1l36 58
q77 3 142.5 44t103.5 109l-105 33q-23 -36 -62.5 -57.5t-79.5 -18.5q-57 5 -85.5 46.5t-18.5 105.5q9 53 53 94t100 48q82 9 117 -73l113 29q-15 75 -69 116t-138 40q-97 -1 -184.5 -77t-104.5 -176q-19 -106 29 -178.5t145 -83.5l-48 -81l42 -21q17 12 33 12q18 0 28.5 -13
t7.5 -31q-4 -19 -19 -31.5t-33 -12.5q-25 0 -35 26l-49 -20q20 -50 72 -50z" />
    <glyph glyph-name="egrave" unicode="&#xe8;" horiz-adv-x="610" 
d="M59 244q-19 -108 40.5 -178t170.5 -70q82 0 145 36.5t96 86.5l-98 32q-55 -70 -138 -64q-55 4 -86 42t-18 86l374 4q28 128 -22.5 201.5t-166.5 73.5q-114 0 -195.5 -68.5t-101.5 -181.5zM39 244q22 121 110.5 195.5t210.5 74.5q129 0 183 -85t16 -230l-372 -4
q-2 -34 25 -60t69 -28q78 -6 126 68l133 -44q-29 -57 -102.5 -106t-170.5 -49q-119 0 -183.5 76t-44.5 192zM184 294q7 44 47.5 77.5t88.5 36.5q60 4 96 -30t22 -83zM209 314l212 1q1 33 -29 54.5t-74 18.5q-34 -2 -65 -23.5t-44 -50.5zM441 577h-128l-77 158h183zM416 597
l-15 118h-131l56 -118h90z" />
    <glyph glyph-name="eacute" unicode="&#xe9;" horiz-adv-x="610" 
d="M59 244q-19 -108 40.5 -178t170.5 -70q82 0 145 36.5t96 86.5l-98 32q-55 -70 -138 -64q-55 4 -86 42t-18 86l374 4q28 128 -22.5 201.5t-166.5 73.5q-114 0 -195.5 -68.5t-101.5 -181.5zM39 244q22 121 110.5 195.5t210.5 74.5q129 0 183 -85t16 -230l-372 -4
q-2 -34 25 -60t69 -28q78 -6 126 68l133 -44q-29 -57 -102.5 -106t-170.5 -49q-119 0 -183.5 76t-44.5 192zM184 294q7 44 47.5 77.5t88.5 36.5q60 4 96 -30t22 -83zM209 314l212 1q1 33 -29 54.5t-74 18.5q-34 -2 -65 -23.5t-44 -50.5zM303 577l78 158h183l-133 -158h-128z
M334 597h90l98 118h-131z" />
    <glyph glyph-name="ecircumflex" unicode="&#xea;" horiz-adv-x="610" 
d="M59 244q-19 -108 40.5 -178t170.5 -70q82 0 145 36.5t96 86.5l-98 32q-55 -70 -138 -64q-55 4 -86 42t-18 86l374 4q28 128 -22.5 201.5t-166.5 73.5q-114 0 -195.5 -68.5t-101.5 -181.5zM39 244q22 121 110.5 195.5t210.5 74.5q129 0 183 -85t16 -230l-372 -4
q-2 -34 25 -60t69 -28q78 -6 126 68l133 -44q-29 -57 -102.5 -106t-170.5 -49q-119 0 -183.5 76t-44.5 192zM184 294q7 44 47.5 77.5t88.5 36.5q60 4 96 -30t22 -83zM209 314l212 1q1 33 -29 54.5t-74 18.5q-34 -2 -65 -23.5t-44 -50.5zM322 577l-157 1l166 153h123
l108 -154h-156l-30 57h-5zM315 597l49 57h25l30 -57h102l-81 114h-105l-123 -113z" />
    <glyph glyph-name="edieresis" unicode="&#xeb;" horiz-adv-x="610" 
d="M59 244q-19 -108 40.5 -178t170.5 -70q82 0 145 36.5t96 86.5l-98 32q-55 -70 -138 -64q-55 4 -86 42t-18 86l374 4q28 128 -22.5 201.5t-166.5 73.5q-114 0 -195.5 -68.5t-101.5 -181.5zM39 244q22 121 110.5 195.5t210.5 74.5q129 0 183 -85t16 -230l-372 -4
q-2 -34 25 -60t69 -28q78 -6 126 68l133 -44q-29 -57 -102.5 -106t-170.5 -49q-119 0 -183.5 76t-44.5 192zM184 294q7 44 47.5 77.5t88.5 36.5q60 4 96 -30t22 -83zM209 314l212 1q1 33 -29 54.5t-74 18.5q-34 -2 -65 -23.5t-44 -50.5zM273 577q-35 0 -55 24.5t-14 58.5
t34.5 58t63.5 24q34 0 53.5 -24t13.5 -58q-6 -35 -34 -59t-62 -24zM276 597q26 0 47 18.5t26 44.5t-10 44t-41 18t-48 -18t-26 -44q-5 -27 10 -45t42 -18zM466 577q-35 0 -55 24.5t-14 58.5t34.5 58t63.5 24q34 0 53.5 -24t13.5 -58q-6 -35 -34 -59t-62 -24zM469 597
q26 0 47 18.5t26 44.5t-10 44t-41 18t-48 -18t-26 -44q-5 -27 10 -45t42 -18z" />
    <glyph glyph-name="igrave" unicode="&#xec;" horiz-adv-x="313" 
d="M318 503l-92 -520h-159l92 520h159zM294 483h-119l-85 -480h119zM331 577h-128l-77 158h183zM306 597l-15 118h-131l56 -118h90z" />
    <glyph glyph-name="iacute" unicode="&#xed;" horiz-adv-x="316" 
d="M244 503l-92 -520h-159l92 520h159zM220 483h-119l-85 -480h119zM101 577l78 158h183l-133 -158h-128zM132 597h90l98 118h-131z" />
    <glyph glyph-name="icircumflex" unicode="&#xee;" horiz-adv-x="477" 
d="M362 503l-92 -520h-159l92 520h159zM338 483h-119l-85 -480h119zM255 577l-157 1l166 153h123l108 -154h-156l-30 57h-5zM248 597l49 57h25l30 -57h102l-81 114h-105l-123 -113z" />
    <glyph glyph-name="idieresis" unicode="&#xef;" horiz-adv-x="438" 
d="M344 503l-92 -520h-159l92 520h159zM320 483h-119l-85 -480h119zM181 577q-35 0 -55 24.5t-14 58.5t34.5 58t63.5 24q34 0 53.5 -24t13.5 -58q-6 -35 -34 -59t-62 -24zM184 597q26 0 47 18.5t26 44.5t-10 44t-41 18t-48 -18t-26 -44q-5 -27 10 -45t42 -18zM374 577
q-35 0 -55 24.5t-14 58.5t34.5 58t63.5 24q34 0 53.5 -24t13.5 -58q-6 -35 -34 -59t-62 -24zM377 597q26 0 47 18.5t26 44.5t-10 44t-41 18t-48 -18t-26 -44q-5 -27 10 -45t42 -18z" />
    <glyph glyph-name="ntilde" unicode="&#xf1;" horiz-adv-x="569" 
d="M84 498h148l-9 -51q56 56 127 65q70 8 120 -17t66 -77q14 -48 -6 -163l-48 -270h-155l49 276q11 64 -4 88t-67 24q-37 0 -69 -37.5t-42 -93.5l-46 -257h-155zM100 478l-83 -473h115l42 237q11 64 49.5 107.5t84.5 43.5q60 0 80.5 -30.5t7.5 -101.5l-45 -256h115l44 250
q20 111 6 155q-13 46 -58 68t-109 14q-34 -4 -67 -24.5t-48.5 -36.5t-41.5 -45l16 92h-108zM147 593q9 65 52 107.5t101 42.5q38 0 73.5 -22t38.5 -22q23 0 23 30h114q-10 -66 -53.5 -108t-100.5 -42q-34 0 -70.5 22t-45.5 22q-17 0 -19 -30h-113zM171 613h73q10 30 38 30
q17 0 45 -18q42 -26 72 -26q44 0 78.5 30t47.5 80h-73q-9 -30 -43 -30q-11 0 -34 15q-42 29 -79 29q-44 0 -79 -30.5t-46 -79.5z" />
    <glyph glyph-name="ograve" unicode="&#xf2;" horiz-adv-x="625" 
d="M39 245q20 113 113 192t208 79q114 0 179 -79t45 -192q-20 -115 -114 -196t-207 -81t-178.5 81t-45.5 196zM59 245q-19 -107 42 -182t166 -75q104 0 191 75.5t106 181.5q19 105 -41.5 178t-166.5 73t-192 -73t-105 -178zM191 244q-10 -57 18 -95t80 -38t93 37.5t52 95.5
q10 55 -19 93t-79 38q-51 0 -93 -38t-52 -93zM171 244q11 63 60.5 107t108.5 44t92 -44t22 -107q-12 -66 -60 -109.5t-108 -43.5q-61 0 -94 43.5t-21 109.5zM438 577h-128l-77 158h183zM413 597l-15 118h-131l56 -118h90z" />
    <glyph glyph-name="oacute" unicode="&#xf3;" horiz-adv-x="625" 
d="M39 245q20 113 113 192t208 79q114 0 179 -79t45 -192q-20 -115 -114 -196t-207 -81t-178.5 81t-45.5 196zM59 245q-19 -107 42 -182t166 -75q104 0 191 75.5t106 181.5q19 105 -41.5 178t-166.5 73t-192 -73t-105 -178zM191 244q-10 -57 18 -95t80 -38t93 37.5t52 95.5
q10 55 -19 93t-79 38q-51 0 -93 -38t-52 -93zM171 244q11 63 60.5 107t108.5 44t92 -44t22 -107q-12 -66 -60 -109.5t-108 -43.5q-61 0 -94 43.5t-21 109.5zM300 577l78 158h183l-133 -158h-128zM331 597h90l98 118h-131z" />
    <glyph glyph-name="ocircumflex" unicode="&#xf4;" horiz-adv-x="625" 
d="M39 245q20 113 113 192t208 79q114 0 179 -79t45 -192q-20 -115 -114 -196t-207 -81t-178.5 81t-45.5 196zM59 245q-19 -107 42 -182t166 -75q104 0 191 75.5t106 181.5q19 105 -41.5 178t-166.5 73t-192 -73t-105 -178zM191 244q-10 -57 18 -95t80 -38t93 37.5t52 95.5
q10 55 -19 93t-79 38q-51 0 -93 -38t-52 -93zM171 244q11 63 60.5 107t108.5 44t92 -44t22 -107q-12 -66 -60 -109.5t-108 -43.5q-61 0 -94 43.5t-21 109.5zM326 577l-157 1l166 153h123l108 -154h-156l-30 57h-5zM319 597l49 57h25l30 -57h102l-81 114h-105l-123 -113z" />
    <glyph glyph-name="otilde" unicode="&#xf5;" horiz-adv-x="625" 
d="M39 245q20 113 113 192t208 79q114 0 179 -79t45 -192q-20 -115 -114 -196t-207 -81t-178.5 81t-45.5 196zM59 245q-19 -107 42 -182t166 -75q104 0 191 75.5t106 181.5q19 105 -41.5 178t-166.5 73t-192 -73t-105 -178zM191 244q-10 -57 18 -95t80 -38t93 37.5t52 95.5
q10 55 -19 93t-79 38q-51 0 -93 -38t-52 -93zM171 244q11 63 60.5 107t108.5 44t92 -44t22 -107q-12 -66 -60 -109.5t-108 -43.5q-61 0 -94 43.5t-21 109.5zM187 593q9 65 52 107.5t101 42.5q38 0 73.5 -22t38.5 -22q23 0 23 30h114q-8 -65 -52 -107.5t-102 -42.5
q-34 0 -70.5 22t-45.5 22q-17 0 -19 -30h-113zM211 613h73q10 30 38 30q17 0 45 -18q42 -26 72 -26q45 0 80 30.5t47 79.5h-74q-9 -30 -43 -30q-12 0 -34 15q-42 29 -79 29q-44 0 -79 -30.5t-46 -79.5z" />
    <glyph glyph-name="odieresis" unicode="&#xf6;" horiz-adv-x="625" 
d="M39 245q20 113 113 192t208 79q114 0 179 -79t45 -192q-20 -115 -114 -196t-207 -81t-178.5 81t-45.5 196zM59 245q-19 -107 42 -182t166 -75q104 0 191 75.5t106 181.5q19 105 -41.5 178t-166.5 73t-192 -73t-105 -178zM191 244q-10 -57 18 -95t80 -38t93 37.5t52 95.5
q10 55 -19 93t-79 38q-51 0 -93 -38t-52 -93zM171 244q11 63 60.5 107t108.5 44t92 -44t22 -107q-12 -66 -60 -109.5t-108 -43.5q-61 0 -94 43.5t-21 109.5zM272 577q-35 0 -55 24.5t-14 58.5t34.5 58t63.5 24q34 0 53.5 -24t13.5 -58q-6 -35 -34 -59t-62 -24zM275 597
q26 0 47 18.5t26 44.5t-10 44t-41 18t-48 -18t-26 -44q-5 -27 10 -45t42 -18zM465 577q-35 0 -55 24.5t-14 58.5t34.5 58t63.5 24q34 0 53.5 -24t13.5 -58q-6 -35 -34 -59t-62 -24zM468 597q26 0 47 18.5t26 44.5t-10 44t-41 18t-48 -18t-26 -44q-5 -27 10 -45t42 -18z" />
    <glyph glyph-name="oslash" unicode="&#xf8;" horiz-adv-x="625" 
d="M39 245q20 113 113 192t208 79q42 0 81 -12l36 45l103 -67l-38 -49q62 -79 42 -188q-20 -115 -114 -196t-207 -81q-42 0 -84 14l-37 -46l-102 63l41 54q-62 79 -42 192zM59 245q-20 -113 49 -189l-39 -49l71 -45l35 44q42 -18 92 -18q104 0 191 75.5t106 181.5
q20 110 -48 185l34 44l-72 47l-33 -41q-41 16 -89 16q-106 0 -192 -73t-105 -178zM191 244q-5 -32 -1 -55l148 186h-2q-51 0 -93 -38t-52 -93zM171 244q11 63 60.5 107t108.5 44q11 0 34 -5l-192 -241q-21 40 -11 95zM282 111h7q52 0 93 37.5t52 95.5q5 31 -1 54zM246 95
l195 242q23 -38 13 -93q-12 -66 -60 -109.5t-108 -43.5q-9 0 -24 2t-16 2z" />
    <glyph glyph-name="ugrave" unicode="&#xf9;" horiz-adv-x="572" 
d="M339 26q-27 -24 -70.5 -39.5t-87.5 -15.5q-41 0 -71.5 12.5t-47 33t-26 43.5t-11 48.5t-1 43t3.5 31.5l56 317h161l-54 -304q-6 -37 12 -60t53 -23q38 0 69 22.5t36 54.5l55 311h160l-91 -516h-150zM366 101l-9 -96h112l84 476h-120l-52 -291q-7 -40 -44.5 -68.5
t-84.5 -28.5q-43 0 -66 29t-15 74l51 284h-121l-53 -297q-3 -18 -4 -37t4.5 -48.5t18.5 -51.5t43 -38.5t74 -16.5q122 0 182 110zM410 577h-128l-77 158h183zM385 597l-15 118h-131l56 -118h90z" />
    <glyph glyph-name="uacute" unicode="&#xfa;" horiz-adv-x="572" 
d="M339 26q-27 -24 -70.5 -39.5t-87.5 -15.5q-41 0 -71.5 12.5t-47 33t-26 43.5t-11 48.5t-1 43t3.5 31.5l56 317h161l-54 -304q-6 -37 12 -60t53 -23q38 0 69 22.5t36 54.5l55 311h160l-91 -516h-150zM366 101l-9 -96h112l84 476h-120l-52 -291q-7 -40 -44.5 -68.5
t-84.5 -28.5q-43 0 -66 29t-15 74l51 284h-121l-53 -297q-3 -18 -4 -37t4.5 -48.5t18.5 -51.5t43 -38.5t74 -16.5q122 0 182 110zM272 577l78 158h183l-133 -158h-128zM303 597h90l98 118h-131z" />
    <glyph glyph-name="ucircumflex" unicode="&#xfb;" horiz-adv-x="572" 
d="M181 -29q-41 0 -71.5 12.5t-47 33t-26 43.5t-11 48.5t-1 43t3.5 31.5l56 317h161l-54 -304q-6 -37 12 -60t53 -23q38 0 69 22.5t36 54.5l55 311h160l-91 -516h-150l4 41q-27 -24 -70.5 -39.5t-87.5 -15.5zM184 -9q122 0 182 110l-9 -96h112l84 476h-120l-52 -291
q-7 -40 -44.5 -68.5t-84.5 -28.5q-43 0 -66 29t-15 74l51 284h-121l-53 -297q-3 -18 -4 -37t4.5 -48.5t18.5 -51.5t43 -38.5t74 -16.5zM301 577l-157 1l166 153h123l108 -154h-156l-30 57h-5zM294 597l49 57h25l30 -57h102l-81 114h-105l-123 -113z" />
    <glyph glyph-name="udieresis" unicode="&#xfc;" horiz-adv-x="572" 
d="M339 26q-27 -24 -70.5 -39.5t-87.5 -15.5q-41 0 -71.5 12.5t-47 33t-26 43.5t-11 48.5t-1 43t3.5 31.5l56 317h161l-54 -304q-6 -37 12 -60t53 -23q38 0 69 22.5t36 54.5l55 311h160l-91 -516h-150zM366 101l-9 -96h112l84 476h-120l-52 -291q-7 -40 -44.5 -68.5
t-84.5 -28.5q-43 0 -66 29t-15 74l51 284h-121l-53 -297q-3 -18 -4 -37t4.5 -48.5t18.5 -51.5t43 -38.5t74 -16.5q122 0 182 110zM245 577q-35 0 -55 24.5t-14 58.5t34.5 58t63.5 24q34 0 53.5 -24t13.5 -58q-6 -35 -34 -59t-62 -24zM248 597q26 0 47 18.5t26 44.5t-10 44
t-41 18t-48 -18t-26 -44q-5 -27 10 -45t42 -18zM438 577q-35 0 -55 24.5t-14 58.5t34.5 58t63.5 24q34 0 53.5 -24t13.5 -58q-6 -35 -34 -59t-62 -24zM441 597q26 0 47 18.5t26 44.5t-10 44t-41 18t-48 -18t-26 -44q-5 -27 10 -45t42 -18z" />
    <glyph glyph-name="yacute" unicode="&#xfd;" horiz-adv-x="614" 
d="M24 -236l164 253l-124 483l166 -1l75 -289l167 289h166l-447 -735h-167zM60 -216h121l423 695h-122l-186 -321l-84 321l-121 1l119 -463zM298 577l78 158h183l-133 -158h-128zM329 597h90l98 118h-131z" />
    <glyph glyph-name="ydieresis" unicode="&#xff;" horiz-adv-x="614" 
d="M24 -236l164 253l-124 483l166 -1l75 -289l167 289h166l-447 -735h-167zM60 -216h121l423 695h-122l-186 -321l-84 321l-121 1l119 -463zM269 577q-35 0 -55 24.5t-14 58.5t34.5 58t63.5 24q34 0 53.5 -24t13.5 -58q-6 -35 -34 -59t-62 -24zM272 597q26 0 47 18.5
t26 44.5t-10 44t-41 18t-48 -18t-26 -44q-5 -27 10 -45t42 -18zM462 577q-35 0 -55 24.5t-14 58.5t34.5 58t63.5 24q34 0 53.5 -24t13.5 -58q-6 -35 -34 -59t-62 -24zM465 597q26 0 47 18.5t26 44.5t-10 44t-41 18t-48 -18t-26 -44q-5 -27 10 -45t42 -18z" />
    <glyph glyph-name="dotlessi" unicode="&#x131;" horiz-adv-x="239" 
d="M244 503l-92 -520h-159l92 520h159zM220 483h-119l-85 -480h119z" />
    <glyph glyph-name="OE" unicode="&#x152;" horiz-adv-x="1146" 
d="M58 353q28 161 159.5 275t288.5 114q116 0 200 -67l8 45h473l-27 -151h-308l-24 -137h276l-26 -149h-277l-26 -149h311l-27 -148h-475l8 45q-107 -67 -223 -67q-157 0 -248 114t-63 275zM78 353q-27 -153 59 -261t235 -108q131 0 248 88l-12 -66h435l19 108h-311l33 189
h277l20 109h-276l31 177h308l19 111h-433l-11 -66q-86 88 -217 88q-149 0 -273 -108t-151 -261zM223 352q-16 -94 36.5 -161.5t141.5 -67.5t165 67.5t93 161.5q17 95 -35.5 162.5t-141.5 67.5t-166 -68t-93 -162zM203 352q18 103 101 176.5t181 73.5t155 -73.5t39 -176.5
q-18 -102 -101 -175.5t-181 -73.5q-97 0 -154.5 73.5t-39.5 175.5z" />
    <glyph glyph-name="oe" unicode="&#x153;" horiz-adv-x="1005" 
d="M263 -32q-113 0 -178.5 81t-45.5 196q20 113 113 192t208 79t180 -79q91 77 215 77q129 0 183 -85t16 -230l-372 -4q-2 -34 25 -60t69 -28q78 -6 126 68l133 -44q-29 -57 -102.5 -106t-170.5 -49q-120 0 -187 78q-94 -86 -212 -86zM267 -12q114 0 204 87l15 1
q60 -80 179 -80q82 0 145 36.5t96 86.5l-98 32q-55 -70 -138 -64q-55 4 -86 42t-18 86l374 4q28 128 -22.5 201.5t-166.5 73.5q-124 0 -208 -79h-14q-61 81 -173 81q-106 0 -192 -73t-105 -178q-19 -107 42 -182t166 -75zM289 111q52 0 93 37.5t52 95.5q10 55 -19 93t-79 38
q-51 0 -93 -38t-52 -93q-10 -57 18 -95t80 -38zM286 91q-61 0 -94 43.5t-21 109.5q11 63 60.5 107t108.5 44t92 -44t22 -107q-12 -66 -60 -109.5t-108 -43.5zM604 314l212 1q1 33 -29 54.5t-74 18.5q-34 -2 -65 -23.5t-44 -50.5zM579 294q7 44 47.5 77.5t88.5 36.5
q60 4 96 -30t22 -83z" />
    <glyph glyph-name="Scaron" unicode="&#x160;" horiz-adv-x="621" 
d="M281 -29q-115 -6 -186 56t-66 163l156 56q1 -52 26.5 -86.5t66.5 -41.5q47 -8 84.5 11.5t48.5 57.5q12 41 -24 72t-143 68q-70 24 -105 83.5t-19 128.5q17 71 74 125t135 71q42 12 89.5 7t88 -21t70.5 -54t38 -92l-150 -58q-5 50 -43 70.5t-93 3.5q-59 -19 -59 -75
q-1 -16 18 -32t54 -31q66 -26 106 -46.5t74.5 -50t46 -68t3.5 -89.5q-14 -95 -95.5 -158.5t-195.5 -69.5zM282 -9q107 5 181.5 62.5t88.5 145.5q7 47 -3 81.5t-42.5 62t-70.5 47t-103 45.5q-84 33 -84 77q0 73 77 97q58 19 100.5 0.5t55.5 -66.5l109 43q-11 45 -39 76.5
t-63.5 44t-78 16t-81.5 -7.5q-70 -15 -122.5 -64t-66.5 -114q-15 -61 16.5 -115t96.5 -77q107 -37 150 -71.5t28 -88.5q-14 -47 -59.5 -71.5t-101.5 -15.5q-41 7 -68.5 39.5t-34.5 82.5l-118 -42q2 -88 67 -140t166 -47zM335 751l-112 153l157 1l29 -57h5l50 57h156
l-162 -154h-123zM347 771h105l121 114h-102l-50 -57h-25l-29 57l-103 -1z" />
    <glyph glyph-name="scaron" unicode="&#x161;" horiz-adv-x="541" 
d="M228 -31q-86 0 -141.5 41t-68.5 114l147 60q2 -28 21 -49.5t45 -27.5q31 -7 62 2.5t36 28.5q6 21 -18.5 33t-73.5 21t-60 13q-50 17 -77.5 56.5t-20.5 83.5q11 67 74 118t145 61q70 8 139.5 -30t79.5 -111l-143 -55q1 24 -22.5 42t-53.5 18q-26 0 -46 -9t-22 -21
q-3 -17 16 -25.5t77 -22.5q24 -6 38 -9q143 -37 120 -167q-13 -69 -86 -117t-167 -48zM232 -11q86 0 152 42.5t77 102.5q20 115 -108 147q-101 26 -116 33q-32 15 -27 44q4 22 30.5 36t61.5 14q30 0 55 -15t34 -38l102 39q-16 59 -76 88t-120 22q-75 -9 -131 -54.5
t-67 -104.5q-7 -37 18.5 -71.5t69.5 -48.5q9 -3 46 -11q22 -4 35 -7t32.5 -9.5t30 -14t16.5 -20t2 -27.5q-8 -28 -47 -43t-79 -6q-25 6 -45 25t-28 45l-108 -43q16 -59 66 -92t124 -33zM270 577l-112 153l157 1l29 -57h5l50 57h156l-162 -154h-123zM281 597h105l121 114
h-102l-50 -57h-25l-29 57l-103 -1z" />
    <glyph glyph-name="Ydieresis" unicode="&#x178;" horiz-adv-x="730" 
d="M241 -16l65 337l-203 399h207l101 -259l184 259h198l-321 -399l-60 -337h-171zM265 4h131l57 323l300 373h-150l-199 -281l-110 281h-157l190 -373zM363 758q-35 0 -55 24.5t-14 58.5t34.5 58t63.5 24q34 0 53.5 -24t13.5 -58q-6 -35 -34 -59t-62 -24zM366 778
q26 0 47 18.5t26 44.5t-10 44t-41 18t-48 -18t-26 -44q-5 -27 10 -45t42 -18zM556 758q-35 0 -55 24.5t-14 58.5t34.5 58t63.5 24q34 0 53.5 -24t13.5 -58q-6 -35 -34 -59t-62 -24zM559 778q26 0 47 18.5t26 44.5t-10 44t-41 18t-48 -18t-26 -44q-5 -27 10 -45t42 -18z" />
    <glyph glyph-name="zcaron" unicode="&#x17e;" horiz-adv-x="517" 
d="M-7 -16l22 122l282 259h-227l24 135h425l-22 -125l-288 -256h245l-24 -135h-437zM17 4h397l16 95h-271l319 284l18 97h-385l-17 -95h253l-314 -287zM305 731l29 -57h5l50 57h156l-162 -154h-123l-112 153zM291 711l-103 -1l83 -113h105l121 114h-102l-50 -57h-25z" />
    <glyph glyph-name="endash" unicode="&#x2013;" horiz-adv-x="603" 
d="M38 239l24 138h523l-24 -138h-523zM62 259h483l17 98h-483z" />
    <glyph glyph-name="emdash" unicode="&#x2014;" horiz-adv-x="861" 
d="M38 239l24 134h781l-24 -134h-781zM62 259h741l16 94h-741z" />
    <glyph glyph-name="quoteleft" unicode="&#x2018;" horiz-adv-x="277" 
d="M171 435q-40 0 -64 29t-17 69q6 35 32 61l129 152l64 -49l-64 -78q46 -28 36 -86q-8 -41 -42 -69.5t-74 -28.5zM174 455q32 0 59.5 23t33.5 55q5 27 -8 48.5t-39 27.5l66 82l-33 27l-117 -136q-21 -21 -26 -49q-6 -32 13 -55t51 -23z" />
    <glyph glyph-name="quoteright" unicode="&#x2019;" horiz-adv-x="277" 
d="M145 431l-63 49l63 78q-46 28 -36 86q7 40 41.5 69t75.5 29q40 0 63.5 -29t16.5 -69q-6 -36 -31 -61zM144 459l117 136q21 22 25 49q6 32 -13 55t-51 23t-59.5 -23t-33.5 -55q-5 -27 8 -48.5t39 -27.5l-65 -82z" />
    <glyph glyph-name="quotesinglbase" unicode="&#x201a;" horiz-adv-x="277" 
d="M45 -135l-63 49l64 78q-47 29 -36 86q7 40 41 69t75 29q40 0 64 -29t17 -69q-6 -35 -32 -61zM44 -107l117 136q19 19 26 49q5 32 -14 55t-51 23t-59.5 -23t-32.5 -55q-5 -27 8 -48.5t38 -27.5l-65 -82z" />
    <glyph glyph-name="quotedblleft" unicode="&#x201c;" horiz-adv-x="497" 
d="M391 435q-40 0 -64 29t-17 69q6 35 32 61l129 152l64 -49l-64 -78q46 -28 36 -86q-8 -41 -42 -69.5t-74 -28.5zM394 455q32 0 59.5 23t33.5 55q5 27 -8 48.5t-39 27.5l66 82l-33 27l-117 -136q-21 -21 -26 -49q-6 -32 13 -55t51 -23zM171 435q-40 0 -64 29t-17 69
q6 35 32 61l129 152l64 -49l-64 -78q46 -28 36 -86q-8 -41 -42 -69.5t-74 -28.5zM174 455q32 0 59.5 23t33.5 55q5 27 -8 48.5t-39 27.5l66 82l-33 27l-117 -136q-21 -21 -26 -49q-6 -32 13 -55t51 -23z" />
    <glyph glyph-name="quotedblright" unicode="&#x201d;" horiz-adv-x="498" 
d="M366 431l-63 49l63 78q-46 28 -36 86q7 40 41.5 69t75.5 29q40 0 63.5 -29t16.5 -69q-6 -36 -31 -61zM365 459l117 136q21 22 25 49q6 32 -13 55t-51 23t-59.5 -23t-33.5 -55q-5 -27 8 -48.5t39 -27.5l-65 -82zM145 431l-63 49l63 78q-46 28 -36 86q7 40 41.5 69t75.5 29
q40 0 63.5 -29t16.5 -69q-6 -36 -31 -61zM144 459l117 136q21 22 25 49q6 32 -13 55t-51 23t-59.5 -23t-33.5 -55q-5 -27 8 -48.5t39 -27.5l-65 -82z" />
    <glyph glyph-name="quotedblbase" unicode="&#x201e;" horiz-adv-x="498" 
d="M266 -135l-63 49l64 78q-47 29 -36 86q7 40 41 69t75 29q40 0 64 -29t17 -69q-6 -35 -32 -61zM265 -107l117 136q19 19 26 49q5 32 -14 55t-51 23t-59.5 -23t-32.5 -55q-5 -27 8 -48.5t38 -27.5l-65 -82zM45 -135l-63 49l64 78q-47 29 -36 86q7 40 41 69t75 29
q40 0 64 -29t17 -69q-6 -35 -32 -61zM44 -107l117 136q19 19 26 49q5 32 -14 55t-51 23t-59.5 -23t-32.5 -55q-5 -27 8 -48.5t38 -27.5l-65 -82z" />
    <glyph glyph-name="dagger" unicode="&#x2020;" horiz-adv-x="459" 
d="M277 149h-131l53 301h-124l23 127h123l25 144h131l-25 -144h125l-23 -127h-124zM261 169l53 301h124l15 87h-125l26 144h-91l-26 -144h-123l-15 -87h124l-53 -301h91z" />
    <glyph glyph-name="bullet" unicode="&#x2022;" horiz-adv-x="364" 
d="M170 181q-59 0 -93 42t-24 100t59 99.5t108 41.5t93 -41.5t24 -99.5q-11 -59 -60 -100.5t-107 -41.5zM173 201q51 0 93 35.5t51 86.5q9 50 -21 85.5t-80 35.5t-92 -35.5t-51 -85.5q-9 -51 20 -86.5t80 -35.5z" />
    <glyph glyph-name="ellipsis" unicode="&#x2026;" horiz-adv-x="767" 
d="M91 -20q-41 0 -64.5 29.5t-16.5 69.5t41 69t75 29q40 0 64 -29t17 -69q-8 -41 -42 -70t-74 -29zM95 0q32 0 59 23.5t33 55.5q5 32 -13.5 55t-50.5 23t-60 -23t-33 -55q-6 -33 13 -56t52 -23zM334 -20q-41 0 -64.5 29.5t-16.5 69.5t41 69t75 29q40 0 64 -29t17 -69
q-8 -41 -42 -70t-74 -29zM338 0q32 0 59 23.5t33 55.5q5 32 -13.5 55t-50.5 23t-60 -23t-33 -55q-6 -33 13 -56t52 -23zM581 -20q-41 0 -64.5 29.5t-16.5 69.5t41 69t75 29q40 0 64 -29t17 -69q-8 -41 -42 -70t-74 -29zM585 0q32 0 59 23.5t33 55.5q5 32 -13.5 55t-50.5 23
t-60 -23t-33 -55q-6 -33 13 -56t52 -23z" />
    <glyph glyph-name="guilsinglleft" unicode="&#x2039;" horiz-adv-x="397" 
d="M227 22l-184 245l271 247l75 -83l-180 -164l122 -163zM234 50l70 56l-123 161l180 162l-50 57l-240 -219z" />
    <glyph glyph-name="guilsinglright" unicode="&#x203a;" horiz-adv-x="397" 
d="M90 22l-76 82l180 163l-122 164l105 83l183 -247zM93 50l239 217l-162 219l-70 -57l122 -162l-179 -161z" />
    <glyph glyph-name="Euro" unicode="&#x20ac;" horiz-adv-x="691" 
d="M31 197l21 120h59q2 14 4 21l3 22h-59l22 120h87q60 102 161 164t209 62q98 0 172 -51l-94 -116q-42 27 -96 27q-102 0 -183 -86h189l-46 -120h-211q-2 -7 -4 -21q-3 -11 -3 -22h205l-45 -120h-133q23 -40 63 -62t88 -22q68 0 132 43l40 -129q-99 -58 -204 -58
q-109 0 -188.5 62.5t-102.5 165.5h-86zM54 217h80q19 -103 95.5 -165.5t182.5 -62.5q90 0 175 46l-28 91q-60 -33 -123 -33q-62 0 -110.5 33t-71.5 91h155l30 80h-199q2 29 5 42q0 2 10 41h213l30 80h-202q44 59 104.5 92.5t122.5 33.5q51 0 91 -21l67 83q-64 38 -146 38
q-106 0 -204 -62t-153 -164h-81l-14 -80h61q-6 -17 -9 -42q-6 -28 -5 -41h-62z" />
    </font>
</defs>
</svg>
