<?xml version="1.0" standalone="no"?>
<!DOCTYPE svg PUBLIC "-//W3C//DTD SVG 1.1//EN" "http://www.w3.org/Graphics/SVG/1.1/DTD/svg11.dtd" >
<svg xmlns="http://www.w3.org/2000/svg" xmlns:xlink="http://www.w3.org/1999/xlink" version="1.1">
<metadata>
Created by FontForge 20170731 at Wed Apr 29 08:16:47 2020
 By Aleksey,,,
Copyright (c) 2020 by Brent Anderson.
</metadata>
<defs>
<font id="PulpDisplay-SemiBoldItalic" horiz-adv-x="817" >
  <font-face 
    font-family="Pulp Display Semi Bold Italic"
    font-weight="400"
    font-style="italic"
    font-stretch="normal"
    units-per-em="1000"
    panose-1="0 0 8 0 0 0 0 0 0 0"
    ascent="800"
    descent="-200"
    x-height="489"
    cap-height="709"
    bbox="-154 -246 1164 906"
    underline-thickness="50"
    underline-position="-200"
    unicode-range="U+0020-20AC"
  />
<missing-glyph horiz-adv-x="618" 
d="M-5 -7l126 717h538l-126 -717h-538zM116 169l158 181l-94 180zM242 611l96 -188l162 188h-258zM153 94h252l-94 180zM375 350l97 -186l66 372z" />
    <glyph glyph-name=".notdef" horiz-adv-x="618" 
d="M-5 -7l126 717h538l-126 -717h-538zM116 169l158 181l-94 180zM242 611l96 -188l162 188h-258zM153 94h252l-94 180zM375 350l97 -186l66 372z" />
    <glyph glyph-name=".null" horiz-adv-x="0" 
 />
    <glyph glyph-name="nonmarkingreturn" horiz-adv-x="333" 
 />
    <glyph glyph-name="space" unicode=" " horiz-adv-x="270" 
 />
    <glyph glyph-name="exclam" unicode="!" horiz-adv-x="247" 
d="M74 233l70 475h124l-97 -475h-97zM78 -10q-34 0 -54.5 24.5t-14.5 59.5q6 34 35 58.5t64 24.5q34 0 54 -24.5t14 -58.5t-35 -59t-63 -25z" />
    <glyph glyph-name="numbersign" unicode="#" horiz-adv-x="691" 
d="M30 191l37 99l115 -2l35 113h-119l36 101h117l60 182h105l-60 -183h117l61 182h101l-58 -181l118 -1l-33 -101h-117l-35 -112h118l-34 -97h-118l-65 -195h-100l61 195h-116l-66 -198l-102 2l63 197zM285 287l123 1l36 114h-122z" />
    <glyph glyph-name="dollar" unicode="$" horiz-adv-x="558" 
d="M173 -78l11 64q-66 14 -107.5 64.5t-48.5 133.5l110 29q8 -111 112 -118q49 -5 87.5 16.5t47.5 66.5q8 42 -24.5 69.5t-120.5 65.5q-155 69 -130 205q11 59 58.5 108t126.5 67l15 3l11 64h101l-11 -66q55 -13 95 -49.5t51 -94.5l-106 -41q-11 48 -54 68t-100 6
q-39 -10 -55.5 -36t-14.5 -55q1 -25 26 -46.5t50 -31.5q120 -47 168.5 -100t34.5 -131q-14 -81 -74.5 -133.5t-145.5 -64.5l-11 -63h-102z" />
    <glyph glyph-name="percent" unicode="%" horiz-adv-x="858" 
d="M199 -21l-71 54l564 668l68 -53zM235 358q-74 0 -116 51t-29 123q12 71 71.5 120.5t134.5 49.5q73 0 114.5 -49.5t29.5 -120.5q-13 -72 -72.5 -123t-132.5 -51zM252 449q32 0 59.5 21.5t33.5 58.5q6 34 -14 55.5t-52 21.5t-60.5 -21t-34.5 -56q-6 -37 14 -58.5t54 -21.5z
M596 -22q-74 0 -116 51t-29 123q12 71 71.5 120.5t134.5 49.5q73 0 114.5 -49.5t29.5 -120.5q-13 -72 -72.5 -123t-132.5 -51zM610 70q32 0 59.5 22t33.5 59q6 34 -14 55.5t-51 21.5q-33 0 -61 -21.5t-35 -55.5q-6 -37 14.5 -59t53.5 -22z" />
    <glyph glyph-name="ampersand" unicode="&#x26;" horiz-adv-x="667" 
d="M626 253l-64 74l-101 -91l-188 253q-29 46 5 92.5t88 37.5q26 -5 37.5 -27.5t6.5 -53.5l108 1q22 82 -27.5 136.5t-134.5 48.5q-68 -5 -127.5 -49t-80 -108t18.5 -138q-25 -22 -39 -35.5t-36 -39.5t-35.5 -55.5t-19.5 -63.5q-10 -56 2 -103t38.5 -77t59.5 -47t68 -21
q34 -3 65 1t57 16.5t42 22t37 25.5t26 19l66 -81l96 77l-71 94zM368 151q-74 -76 -154 -48q-46 17 -60 63.5t6 97.5t63 81z" />
    <glyph glyph-name="quotesingle" unicode="'" horiz-adv-x="224" 
d="M112 379l-13 195q-2 32 23.5 59.5t59.5 27.5q35 0 53 -26t5 -60l-83 -196h-45z" />
    <glyph glyph-name="parenleft" unicode="(" horiz-adv-x="347" 
d="M389 714q-44 -50 -71.5 -84.5t-59 -83t-52 -100.5t-30.5 -110q-38 -222 73 -413l-101 -63q-61 83 -89.5 210t-4.5 260q23 127 88.5 233.5t168.5 216.5z" />
    <glyph glyph-name="parenright" unicode=")" horiz-adv-x="347" 
d="M62 -140l-80 63q179 189 219 413q19 110 -3 193t-76 185l100 66q65 -111 93.5 -217t5.5 -233q-24 -133 -96.5 -260t-162.5 -210z" />
    <glyph glyph-name="asterisk" unicode="*" horiz-adv-x="476" 
d="M174 324l-67 58l93 103l-111 42l47 89l111 -41l22 126h98l-20 -125l123 41l14 -93l-124 -39l58 -102l-88 -58l-61 102z" />
    <glyph glyph-name="plus" unicode="+" horiz-adv-x="544" 
d="M287 38h-106l32 179l-179 -1l18 104l179 1l31 179h106l-31 -180h179l-18 -104h-179z" />
    <glyph glyph-name="comma" unicode="," horiz-adv-x="250" 
d="M25 -129l-45 36l71 89q-22 9 -33 30.5t-7 47.5q6 34 35.5 58.5t63.5 24.5t54 -24.5t14 -58.5q-4 -28 -26 -53z" />
    <glyph glyph-name="hyphen" unicode="-" horiz-adv-x="420" 
d="M400 362l-19 -108h-340l19 108h340z" />
    <glyph glyph-name="period" unicode="." horiz-adv-x="247" 
d="M78 -10q-34 0 -54.5 24.5t-14.5 59.5q6 34 35 58.5t64 24.5q34 0 54 -24.5t14 -58.5t-35 -59t-63 -25z" />
    <glyph glyph-name="slash" unicode="/" horiz-adv-x="493" 
d="M-5 -7l423 719h116l-421 -718z" />
    <glyph glyph-name="zero" unicode="0" horiz-adv-x="653" 
d="M278 -24q-120 0 -184.5 106t-37.5 256q26 150 128 256t222 106t184.5 -106t38.5 -256q-27 -150 -129 -256t-222 -106zM300 103q73 0 126 61.5t73 175.5q19 108 -12.5 172.5t-103.5 64.5t-126.5 -64.5t-73.5 -172.5q-19 -111 12.5 -174t104.5 -63z" />
    <glyph glyph-name="one" unicode="1" horiz-adv-x="432" 
d="M276 547l-154 -74l-24 108l227 110h104l-123 -697h-127z" />
    <glyph glyph-name="two" unicode="2" horiz-adv-x="553" 
d="M194 108l114 94q3 2 35.5 29.5t40 34t36 32.5t38.5 38.5t30.5 38t28.5 44.5t16.5 44t10.5 49q7 95 -53.5 144.5t-145.5 49.5q-73 0 -138 -42.5t-114 -115.5l104 -52q19 38 52.5 64t78.5 26q35 0 60.5 -21.5t27.5 -57.5t-37 -84q-28 -33 -69.5 -72t-71.5 -64t-105.5 -86
t-112.5 -92l-20 -115h468l20 114h-294z" />
    <glyph glyph-name="three" unicode="3" horiz-adv-x="566" 
d="M146 200q19 -105 109 -105q46 0 85.5 26t47.5 71q11 63 -30 87t-138 21l19 107q98 0 137 27.5t46 76.5q5 37 -20 57t-66 20q-68 0 -119 -80l-102 47q41 69 106 107t131 39q26 0 53 -5t54 -18t47 -32t32 -50.5t9 -69.5q-2 -35 -15 -64.5t-30 -47t-35 -30.5t-29.5 -18
t-14.5 -5q4 0 15.5 -5t27.5 -18t29.5 -30.5t20 -47t0.5 -64.5q-17 -95 -92.5 -156t-184.5 -61q-53 0 -91.5 14t-62 41.5t-37 53.5t-25.5 65z" />
    <glyph glyph-name="four" unicode="4" horiz-adv-x="610" 
d="M440 -6l24 137h85l20 113h-86l79 447h-140l-384 -455l-19 -104h320l-24 -138h125zM169 245l239 275l-48 -275h-191z" />
    <glyph glyph-name="five" unicode="5" horiz-adv-x="562" 
d="M25 165q6 -90 70.5 -139.5t154.5 -44.5q34 2 72.5 14.5t79 37.5t71.5 71.5t42 106.5t-3 107t-43.5 72t-61.5 37t-63 12q-16 0 -30 -1t-26 -4t-20.5 -5t-18 -6t-13.5 -6t-12.5 -6.5t-9.5 -5.5l48 183h278l19 103h-386l-95 -363l106 -42q18 19 49.5 33.5t63.5 15.5
q43 1 76 -29.5t24 -83.5q-10 -58 -49 -93t-87 -35q-49 0 -78.5 25t-43.5 85z" />
    <glyph glyph-name="six" unicode="6" horiz-adv-x="566" 
d="M306 431q111 16 171.5 -49t42.5 -166q-17 -98 -101.5 -167.5t-185.5 -69.5t-158.5 70t-40.5 166q8 49 31 94q16 35 69 102l251 290l85 -64l-186 -210q1 0 8.5 1.5t13.5 2.5zM262 94q53 0 94 33t50 85q9 50 -20.5 84t-81.5 34q-54 0 -96 -34t-50 -84q-10 -51 20 -84.5
t84 -33.5z" />
    <glyph glyph-name="seven" unicode="7" horiz-adv-x="543" 
d="M424 567h-328l22 124h462l-22 -126l-357 -571h-142z" />
    <glyph glyph-name="eight" unicode="8" horiz-adv-x="570" 
d="M440 361q44 -29 66.5 -73.5t13.5 -94.5q-17 -100 -96 -156t-186 -56q-111 0 -168.5 55.5t-39.5 156.5q9 50 47 94.5t93 73.5q-79 52 -61 152q13 77 86.5 129.5t168.5 52.5q94 0 148.5 -52.5t41.5 -129.5q-18 -99 -114 -152zM345 590q-42 0 -76.5 -26.5t-41.5 -63.5
q-7 -38 18 -64.5t68 -26.5q42 0 76 26.5t41 64.5q7 37 -18 63.5t-67 26.5zM257 94q61 0 97 30t43 72q7 41 -18.5 71t-85.5 30q-59 0 -96.5 -30t-44.5 -71t19.5 -71.5t85.5 -30.5z" />
    <glyph glyph-name="nine" unicode="9" horiz-adv-x="566" 
d="M212 -21l-84 64l186 210q-5 -1 -23 -4q-111 -16 -171 49t-42 166q17 98 101.5 167.5t185.5 69.5t158.5 -69.5t40.5 -165.5q-9 -48 -31 -94q-22 -43 -70 -103q-19 -23 -61.5 -72t-101.5 -117t-88 -101zM294 350q53 0 95 34t51 84q9 52 -21 85t-84 33q-53 0 -94 -33.5
t-50 -84.5q-9 -50 20.5 -84t82.5 -34z" />
    <glyph glyph-name="colon" unicode=":" horiz-adv-x="247" 
d="M139 334q-35 0 -55.5 25t-13.5 59q6 34 35 58.5t63 24.5t54.5 -24.5t14.5 -58.5q-7 -35 -35.5 -59.5t-62.5 -24.5zM79 -8q-35 0 -55.5 25t-14.5 60q6 34 35.5 58.5t63.5 24.5t54 -24.5t14 -58.5q-6 -35 -34.5 -60t-62.5 -25z" />
    <glyph glyph-name="semicolon" unicode=";" horiz-adv-x="250" 
d="M26 -124l-46 36l72 89q-22 9 -33 30.5t-7 47.5q6 34 35.5 58.5t63.5 24.5t54 -24.5t14 -58.5q-4 -29 -27 -53zM141 334q-34 0 -54.5 24.5t-14.5 59.5q6 34 35 58.5t64 24.5q34 0 54 -24.5t14 -58.5q-6 -35 -35 -59.5t-63 -24.5z" />
    <glyph glyph-name="equal" unicode="=" horiz-adv-x="547" 
d="M25 163l19 108h467l-19 -108h-467zM60 361l19 109h467l-19 -109h-467z" />
    <glyph glyph-name="question" unicode="?" horiz-adv-x="509" 
d="M192 237q13 74 32 105t66 70q9 7 35.5 27.5t36 29.5t22 28.5t16.5 42.5q6 36 -17 58t-59 22q-35 0 -69.5 -21t-56.5 -66l-100 45q37 64 98.5 109t134.5 45q96 0 150.5 -51.5t40.5 -130.5q-8 -44 -29.5 -80.5t-41.5 -55t-51 -41.5q-39 -28 -58.5 -58.5t-26.5 -77.5h-123z
M212 -10q-34 0 -54.5 24.5t-14.5 59.5q6 34 35.5 58.5t63.5 24.5t54 -24.5t14 -58.5q-6 -35 -35 -59.5t-63 -24.5z" />
    <glyph glyph-name="at" unicode="@" horiz-adv-x="871" 
d="M662 484l-92 1l-7 -43q-6 15 -30.5 34.5t-61.5 24.5q-42 5 -85.5 -9t-86.5 -57t-66 -108q-32 -93 8.5 -158.5t110.5 -75.5q56 -8 105 12.5t80 58.5q12 -65 89 -69q46 -3 84 13.5t63 46t42.5 67.5t24 79.5t6 81t-9.5 72.5q-28 103 -111.5 168.5t-207.5 66.5
q-54 0 -110.5 -13.5t-115 -44t-106.5 -75t-85 -111.5t-51 -147q-16 -82 -1.5 -144.5t43.5 -107t73 -73.5t87 -43t85 -16q21 0 33.5 -0.5t31 1.5t28.5 3t26 4.5t23.5 5t21 5.5t18 5.5l15 5t11.5 3.5l-18 81q-68 -34 -178 -29q-100 5 -166 90t-47 200q20 118 99.5 201.5
t197.5 105.5q123 23 206.5 -27.5t112.5 -154.5q17 -66 3 -119t-38 -85t-45 -37q-28 -6 -43 14.5t-8 58.5zM531 282q-13 -40 -48.5 -72.5t-87.5 -25.5q-31 4 -50 20t-23 37t-3.5 38t4.5 32q3 12 11.5 27.5t24 34.5t41 29.5t56.5 6.5q52 -7 69.5 -46t5.5 -81z" />
    <glyph glyph-name="A" unicode="A" horiz-adv-x="704" 
d="M507 709l-145 1l-397 -716h137l92 173h287l30 -173h138zM407 575l57 -296h-219z" />
    <glyph glyph-name="B" unicode="B" horiz-adv-x="578" 
d="M123 713h264q93 0 152.5 -47.5t44.5 -136.5q-6 -31 -18 -56.5t-23.5 -40.5t-31 -29.5t-30 -20t-30.5 -14.5q3 -2 16 -8.5t19 -10t18.5 -12t18.5 -17t14 -22.5t10.5 -30t3 -38t-4.5 -48q-10 -59 -56 -103t-101 -63.5t-108 -19.5h-286zM208 418q135 3 146 3q31 0 58.5 23
t35.5 70q9 47 -17 67.5t-63 20.5h-128zM156 108q98 2 157 2q36 0 65.5 28t37.5 72q7 43 -14 68.5t-69 25.5l-143 -1z" />
    <glyph glyph-name="C" unicode="C" horiz-adv-x="796" 
d="M57 347q29 160 159.5 268.5t279.5 108.5q113 0 194 -64.5t106 -167.5l-132 -40q-20 65 -67 107t-122 42q-102 0 -184 -69.5t-102 -184.5q-18 -103 39.5 -171t159.5 -68q82 0 146.5 41.5t98.5 107.5l116 -44q-47 -95 -159 -164t-226 -69q-152 0 -243 105.5t-64 261.5z" />
    <glyph glyph-name="D" unicode="D" horiz-adv-x="688" 
d="M-5 -5l132 713h268q154 0 227 -96.5t44 -258.5q-28 -162 -141 -260t-269 -98h-261zM145 116q108 2 149 2q35 0 71.5 13.5t72.5 41t63.5 76t38.5 111.5q11 62 -3.5 109.5t-45 71.5t-60.5 35.5t-56 11.5l-147 -1z" />
    <glyph glyph-name="E" unicode="E" horiz-adv-x="527" 
d="M-5 -4l126 714h445l-22 -120h-313l-30 -173h281l-21 -120h-282l-32 -182h316l-21 -119h-447z" />
    <glyph glyph-name="F" unicode="F" horiz-adv-x="525" 
d="M-5 -6l128 724h445l-23 -125h-315l-34 -192h280l-21 -118h-281l-51 -288z" />
    <glyph glyph-name="G" unicode="G" horiz-adv-x="785" 
d="M456 389h314l-21 -118q-21 -119 -122 -206t-259 -87q-167 0 -253 105.5t-58 263.5q28 157 151.5 270t270.5 113q132 0 203.5 -54.5t93.5 -134.5l-135 -46q-43 110 -173 110q-52 0 -107.5 -24t-104 -81.5t-62.5 -135.5q-22 -123 31.5 -194t155.5 -71q96 0 160 49.5
t77 120.5h-184z" />
    <glyph glyph-name="H" unicode="H" horiz-adv-x="657" 
d="M500 305h-323l-55 -310h-127l126 715h127l-51 -289h323l52 294h126l-127 -721h-127z" />
    <glyph glyph-name="I" unicode="I" horiz-adv-x="254" 
d="M255 709l-126 -716h-134l126 716h134z" />
    <glyph glyph-name="J" unicode="J" horiz-adv-x="543" 
d="M582 715l-81 -475q-21 -117 -97 -189.5t-174 -72.5q-201 0 -223 197l138 26q17 -98 91 -98q50 0 85.5 34.5t45.5 94.5l86 482z" />
    <glyph glyph-name="K" unicode="K" horiz-adv-x="663" 
d="M598 -5l-259 380l352 338h-164l-326 -321l56 317h-136l-126 -715h137l61 345l228 -343z" />
    <glyph glyph-name="L" unicode="L" horiz-adv-x="503" 
d="M459 117l-21 -122h-443l127 718h135l-105 -596h307z" />
    <glyph glyph-name="M" unicode="M" horiz-adv-x="784" 
d="M204 464l-83 -468h-126l127 720h124l158 -399l299 401h124l-128 -722h-128l82 465l-224 -307h-105z" />
    <glyph glyph-name="N" unicode="N" horiz-adv-x="677" 
d="M222 499l247 -505h123l126 715h-130l-87 -492l-244 492h-136l-126 -714h138z" />
    <glyph glyph-name="O" unicode="O" 
d="M360 -26q-153 0 -241.5 111t-60.5 268t155.5 268t280.5 111q152 0 240.5 -111t60.5 -268t-155.5 -268t-279.5 -111zM386 101q98 0 181.5 74.5t101.5 176.5q18 103 -39 177.5t-156 74.5q-98 0 -181.5 -74.5t-101.5 -177.5q-18 -102 39.5 -176.5t155.5 -74.5z" />
    <glyph glyph-name="P" unicode="P" horiz-adv-x="553" 
d="M-5 -4l127 721h249q38 0 75.5 -11.5t72 -36t51 -70.5t5.5 -107t-43.5 -107t-74.5 -70.5t-81 -36t-73 -11.5h-133l-48 -272zM191 385q126 3 128 3q17 0 33 3.5t37.5 13.5t37.5 33.5t22 58.5q5 28 -1 48.5t-17 30t-27.5 15t-26 6.5t-19.5 1h-127z" />
    <glyph glyph-name="Q" unicode="Q" 
d="M58 353q28 157 155.5 268t280.5 111q152 0 240.5 -111t60.5 -268q-14 -79 -56.5 -150t-105.5 -124l39 -81l-109 -68l-40 80q-80 -36 -163 -36q-153 0 -241.5 111t-60.5 268zM191 352q-18 -102 39.5 -176.5t155.5 -74.5q39 0 84 16l-54 108l112 68l51 -105q73 70 90 164
q18 103 -39 177.5t-156 74.5q-98 0 -181.5 -74.5t-101.5 -177.5z" />
    <glyph glyph-name="R" unicode="R" horiz-adv-x="599" 
d="M-5 -4l127 718h250q113 0 169 -62.5t39 -158.5q-16 -88 -78 -145t-122 -57l154 -296h-149l-140 275h-75l-48 -276zM335 387q44 0 78.5 27.5t43.5 78.5q8 50 -24 78.5t-74 28.5h-130l-37 -213h143z" />
    <glyph glyph-name="S" unicode="S" horiz-adv-x="593" 
d="M28 183q-1 -98 68.5 -152.5t172.5 -49.5q105 6 182.5 63t92.5 153q7 49 -3.5 85t-43.5 64.5t-71.5 48t-104.5 45.5q-30 11 -55.5 30t-26.5 44q-3 68 72 94q54 20 99 1t57 -74l120 49q-21 94 -100 127.5t-171 13.5q-78 -17 -131 -69t-67 -115q-15 -66 18.5 -121.5
t99.5 -78.5q106 -37 149 -70.5t29 -84.5q-13 -48 -57.5 -71.5t-97.5 -16.5q-41 6 -71 40t-34 89z" />
    <glyph glyph-name="T" unicode="T" horiz-adv-x="570" 
d="M277 595h-196l22 123h529l-22 -123h-198l-105 -601h-135z" />
    <glyph glyph-name="U" unicode="U" horiz-adv-x="640" 
d="M600 253q-6 -36 -19 -70.5t-38 -72.5t-59.5 -65.5t-87.5 -45.5t-117 -18q-56 0 -99.5 12.5t-69.5 33.5t-44.5 48t-23.5 55.5t-7.5 57t3.5 51.5l83 471h136l-83 -467q-12 -67 23 -103t103 -36q66 0 110 35t55 99l83 471h132z" />
    <glyph glyph-name="V" unicode="V" horiz-adv-x="716" 
d="M102 713h145l98 -552l290 551h142l-395 -717h-140z" />
    <glyph glyph-name="W" unicode="W" horiz-adv-x="977" 
d="M494 620h119l64 -421l213 509h148l-328 -713h-121l-68 446l-214 -445h-129l-77 712h147l36 -507z" />
    <glyph glyph-name="X" unicode="X" horiz-adv-x="700" 
d="M135 -8l-160 1l311 370l-167 352h156l113 -248l195 245h155l-288 -349l185 -371h-167l-122 265z" />
    <glyph glyph-name="Y" unicode="Y" horiz-adv-x="674" 
d="M293 324l-192 386h164l112 -275l200 275h158l-309 -386l-58 -330h-137z" />
    <glyph glyph-name="Z" unicode="Z" horiz-adv-x="603" 
d="M-5 -6l22 125l449 471h-356l22 121h510l-22 -120l-455 -475h374l-22 -121z" />
    <glyph glyph-name="bracketleft" unicode="[" horiz-adv-x="320" 
d="M212 -132h-239l162 922h239l-18 -99h-120l-127 -723h121z" />
    <glyph glyph-name="backslash" unicode="\" horiz-adv-x="493" 
d="M121 712h116l171 -719l-118 1z" />
    <glyph glyph-name="bracketright" unicode="]" horiz-adv-x="320" 
d="M-27 -132l17 100h121l128 723h-120l17 99h239l-163 -922h-239z" />
    <glyph glyph-name="underscore" unicode="_" horiz-adv-x="593" 
d="M-23 -107l18 102h512l-17 -102h-513z" />
    <glyph glyph-name="a" unicode="a" horiz-adv-x="528" 
d="M178 -19q-78 -4 -121.5 33.5t-39.5 101.5q13 146 196 171q75 12 144 14q10 13 13.5 31t-8 38t-41.5 28q-46 12 -86.5 -5.5t-61.5 -64.5l-102 31q31 74 119 119q45 23 102.5 27.5t107.5 -14.5q59 -24 83 -69t15 -99l-55 -328h-121l7 60q-63 -70 -151 -74zM243 80
q51 11 81.5 46.5t32.5 75.5q-21 -1 -59.5 -1t-58 -1.5t-44 -6.5t-36.5 -18.5t-16 -35.5q-7 -36 22 -53t78 -6z" />
    <glyph glyph-name="b" unicode="b" horiz-adv-x="588" 
d="M197 438q68 73 180 66q76 -5 128 -62t46 -158q-5 -80 -37 -142t-77 -96t-89.5 -50t-82.5 -14q-47 2 -84 22t-55 50l-15 -58l-116 -1l131 730l122 -1zM160 243q-6 -33 0.5 -65.5t32 -58t67.5 -26.5q61 -2 107 42.5t57 105.5q12 66 -18 110.5t-89 41.5q-58 -3 -101.5 -43.5
t-55.5 -106.5z" />
    <glyph glyph-name="c" unicode="c" horiz-adv-x="559" 
d="M299 389q91 9 120 -79l121 34q-11 71 -64.5 119.5t-150.5 46.5q-98 -2 -187 -78t-108 -184q-21 -119 36.5 -193.5t159.5 -78.5q89 -4 164.5 39.5t118.5 123.5l-112 37q-20 -38 -61 -61t-84 -20q-56 4 -82.5 47t-16.5 105q8 50 48.5 92.5t97.5 49.5z" />
    <glyph glyph-name="d" unicode="d" horiz-adv-x="586" 
d="M627 725l-126 -730l-118 1l5 55q-63 -72 -166 -72q-42 0 -80 18.5t-67 55t-38 90t7 124.5q14 57 43 102t64.5 72t71.5 42t72 19q111 13 162 -62l49 284zM422 243q12 65 -15 106.5t-89 42.5q-55 1 -101 -42t-57 -108q-11 -62 20 -106t89 -42q68 3 105.5 47.5t47.5 101.5z
" />
    <glyph glyph-name="e" unicode="e" horiz-adv-x="583" 
d="M39 244q-19 -110 39 -184.5t175 -74.5q89 0 157.5 43t100.5 97l-108 34q-52 -75 -141 -70q-60 3 -85.5 42.5t-18.5 77.5l377 4q17 78 10 133t-37.5 90t-72 51.5t-92.5 16.5q-108 0 -195 -67.5t-109 -192.5zM177 303q12 41 49.5 69t78.5 31q61 5 93 -27.5t25 -71.5z" />
    <glyph glyph-name="f" unicode="f" horiz-adv-x="360" 
d="M413 610q-19 4 -35.5 5t-28.5 -3t-21 -8.5t-15.5 -14t-10.5 -17t-7.5 -20.5t-5 -20t-3.5 -21.5t-3 -19.5h113l-17 -107h-115l-69 -388l-126 -1l68 389h-82l17 107h42q24 0 33.5 8t13.5 33q12 71 44 112q43 57 113.5 82t145.5 1z" />
    <glyph glyph-name="g" unicode="g" horiz-adv-x="585" 
d="M469 493l-12 -46q-43 47 -106.5 56.5t-123.5 -14.5t-111 -79.5t-70 -129.5q-22 -88 1 -156t79 -100q35 -20 77 -27t92.5 7.5t91.5 53.5q-17 -96 -61.5 -137.5t-103.5 -41.5q-73 0 -102 77l-126 -29q16 -63 55.5 -102t82 -50.5t88.5 -8.5q118 9 192 82t94 185l79 459z
M260 109q-50 0 -79 41.5t-19 100.5q11 58 50 96t89 44q55 8 94 -29.5t26 -110.5q-13 -72 -59.5 -107t-101.5 -35z" />
    <glyph glyph-name="h" unicode="h" horiz-adv-x="544" 
d="M-4 -5l128 730l132 -1l-51 -288q14 21 59.5 43.5t94.5 22.5q46 0 79 -14.5t49 -35.5t23 -50.5t6.5 -55t-5.5 -53.5l-52 -298h-132l49 280q12 64 -10.5 91t-63.5 27q-40 0 -78.5 -30t-48.5 -88l-49 -280h-130z" />
    <glyph glyph-name="i" unicode="i" horiz-adv-x="238" 
d="M177 578q-33 0 -52 22t-14 55q6 33 33 55t60 22t52 -22t13 -55t-32.5 -55t-59.5 -22zM227 493l-88 -500h-128l88 500h128z" />
    <glyph glyph-name="j" unicode="j" horiz-adv-x="226" 
d="M165 579q-33 0 -52 22t-13 55q5 33 32 55t60 22t52 -22t13 -55t-32.5 -55t-59.5 -22zM-2 -13q-14 -79 -46 -90q-26 -11 -59 7l-47 -100q52 -25 111 -25q39 0 69.5 16.5t48.5 43t27.5 51t13.5 47.5l10 57l88 499h-127z" />
    <glyph glyph-name="k" unicode="k" horiz-adv-x="552" 
d="M321 -5l-158 229l-40 -229h-128l129 732h129l-76 -434l220 199h153l-248 -231l185 -266h-166z" />
    <glyph glyph-name="l" unicode="l" horiz-adv-x="249" 
d="M272 723l-129 -730h-128l128 730h129z" />
    <glyph glyph-name="m" unicode="m" horiz-adv-x="856" 
d="M82 488h118l-12 -70q10 12 26.5 26.5t52.5 34.5t71 24q72 9 110 -19.5t49 -69.5q52 75 165 89q53 6 90.5 -9t53.5 -43.5t23.5 -63t-0.5 -66.5l-58 -325h-125l50 285q20 112 -62 112q-54 0 -91.5 -36t-48.5 -102l-46 -260h-125l45 257q15 60 2 100t-67 40
q-114 0 -141 -160l-42 -237h-125z" />
    <glyph glyph-name="n" unicode="n" horiz-adv-x="539" 
d="M82 488h118l-12 -70q63 75 141 84q75 9 119.5 -18t57.5 -70q13 -45 -6 -159l-46 -260h-125l47 266q12 70 -5 101t-83 30q-38 -1 -76 -40t-50 -110l-44 -247h-123z" />
    <glyph glyph-name="o" unicode="o" horiz-adv-x="605" 
d="M39 245q20 109 109 185t200 76t173.5 -76.5t42.5 -184.5q-19 -109 -109 -188t-200 -79t-172.5 79t-43.5 188zM163 244q-12 -68 22 -110t91 -42t105.5 41.5t60.5 110.5q12 65 -22 107.5t-91 42.5q-56 0 -105.5 -42.5t-60.5 -107.5z" />
    <glyph glyph-name="p" unicode="p" horiz-adv-x="580" 
d="M-37 -198l119 689l115 -1l-4 -52q59 69 162 69q42 0 80.5 -18.5t67.5 -55t38 -90t-7 -124.5q-19 -75 -63.5 -128.5t-91.5 -77t-97 -29.5q-104 -12 -158 55l-40 -236zM157 243q-12 -65 15 -106.5t89 -42.5q54 -2 100.5 41.5t57.5 108.5q11 62 -20.5 106t-89.5 42
q-47 -2 -81 -27.5t-49.5 -56.5t-21.5 -65z" />
    <glyph glyph-name="q" unicode="q" horiz-adv-x="580" 
d="M459 -198l-120 1l42 236q-78 -67 -177 -55q-35 4 -65.5 19t-57 42t-39 72t-6.5 102q7 67 36.5 123.5t70 91.5t85.5 54t87 19q103 0 139 -69l14 52l114 1zM264 94q62 1 103.5 42.5t53.5 106.5q3 33 0.5 65t-28.5 57t-72 27q-57 2 -104 -42t-58 -106q-11 -65 20 -108.5
t85 -41.5z" />
    <glyph glyph-name="r" unicode="r" horiz-adv-x="357" 
d="M115 -4l26 150q18 101 30.5 137.5t42.5 64.5q32 30 79 36.5t73 -9.5l52 109q-22 15 -60 17.5t-66 -7.5q-70 -24 -104 -81l13 73h-119l-87 -489z" />
    <glyph glyph-name="s" unicode="s" horiz-adv-x="511" 
d="M372 345q-6 29 -33 44t-57 15q-31 0 -56 -13t-29 -33q-5 -28 33 -42q14 -6 107 -29q134 -34 114 -153q-11 -59 -75.5 -107t-165.5 -48q-86 0 -134 41.5t-59 98.5l117 47q5 -26 25 -48t48 -29q34 -8 73.5 3.5t47.5 42.5q4 17 -6.5 30t-31.5 21t-42.5 13.5t-47 10.5
t-36.5 9q-43 15 -69.5 50.5t-19.5 77.5q10 58 65 106t137 58q42 5 84.5 -5t79 -40.5t45.5 -76.5z" />
    <glyph glyph-name="t" unicode="t" horiz-adv-x="407" 
d="M324 8q-26 -10 -41.5 -14.5t-47 -8t-57.5 5.5q-40 9 -63.5 36t-28.5 56.5t1 61.5l42 237h-86l19 107h57q22 0 30 7t11 24l20 117h117l-26 -148h118l-19 -107h-119l-27 -154q-9 -54 -10 -73.5t7 -33.5q13 -18 41 -18.5t45 10.5z" />
    <glyph glyph-name="u" unicode="u" horiz-adv-x="545" 
d="M344 56q-14 -26 -61 -50.5t-108 -24.5q-47 0 -79.5 17t-46.5 41t-20 54.5t-5 51t4 38.5l54 307h130l-52 -294q-7 -41 11.5 -72t69.5 -31q47 0 82.5 31t41.5 66l53 301h129l-87 -496h-121z" />
    <glyph glyph-name="v" unicode="v" horiz-adv-x="558" 
d="M176 -5l-124 494l139 1l70 -344l194 344l135 -1l-298 -494h-116z" />
    <glyph glyph-name="w" unicode="w" horiz-adv-x="828" 
d="M722 488l-151 -335l-49 340h-122l-167 -336l-43 333h-128l74 -495h129l166 343l47 -344h130l242 494h-128z" />
    <glyph glyph-name="x" unicode="x" horiz-adv-x="533" 
d="M122 -5h-147l215 248l-128 246h147l73 -148l121 148l147 -1l-214 -242l132 -251h-147l-75 159z" />
    <glyph glyph-name="y" unicode="y" horiz-adv-x="574" 
d="M28 -226l157 243l-123 473l134 -1l82 -319l184 319h134l-435 -715h-133z" />
    <glyph glyph-name="z" unicode="z" horiz-adv-x="492" 
d="M-5 -6l18 101l308 288h-248l19 107h400l-18 -103l-311 -285h263l-19 -108h-412z" />
    <glyph glyph-name="braceleft" unicode="{" horiz-adv-x="394" 
d="M298 -66q-73 0 -89 23t-5 85q3 16 11 65.5t15 89.5q9 51 -13.5 88.5t-58.5 37.5q31 0 70 37.5t48 87.5q5 29 10.5 64t14.5 82q12 70 34.5 93t96.5 23l16 93q-59 0 -103.5 -12.5t-68.5 -29t-40.5 -44t-21.5 -46t-10 -45.5q-5 -29 -16.5 -87.5t-15.5 -80.5
q-6 -35 -34 -59.5t-76 -24.5l-18 -103q47 0 66 -22.5t14 -49.5q-1 -5 -9.5 -65t-18.5 -120q-15 -82 28.5 -127.5t157.5 -45.5z" />
    <glyph glyph-name="bar" unicode="|" horiz-adv-x="177" 
d="M119 700h97l-150 -852h-97z" />
    <glyph glyph-name="braceright" unicode="}" horiz-adv-x="394" 
d="M-32 -159l16 93q73 0 97 23t35 85q3 16 12.5 65.5t16.5 89.5q10 51 45.5 88.5t70.5 37.5q-31 0 -56.5 37.5t-16.5 87.5q6 33 12.5 68t13.5 78q13 70 -1.5 93t-88.5 23l16 93q59 0 99 -12.5t58.5 -29t25.5 -44t6 -46t-6 -45.5q-5 -30 -14.5 -88.5t-13.5 -79.5
q-6 -35 13.5 -59.5t67.5 -24.5l-19 -103q-47 0 -73.5 -22.5t-31.5 -49.5l-37 -185q-30 -173 -247 -173z" />
    <glyph glyph-name="exclamdown" unicode="&#xa1;" horiz-adv-x="247" 
d="M-18 -212l97 476h97l-70 -476h-124zM169 507q34 0 54.5 -25t13.5 -59q-6 -34 -34.5 -58.5t-62.5 -24.5q-35 0 -55.5 24.5t-14.5 58.5q7 35 36 59.5t63 24.5z" />
    <glyph glyph-name="cent" unicode="&#xa2;" horiz-adv-x="572" 
d="M57 346q-18 -101 29 -173.5t125 -88.5l-15 -84h102l15 85q146 25 217 152l-98 29q-23 -38 -65 -60t-96 -20q-58 1 -87 48t-17 111q10 61 53 102t102 47q50 5 84 -15t47 -63l108 26q-24 130 -158 154l15 84h-102l-15 -84q-84 -18 -155.5 -87.5t-88.5 -162.5z" />
    <glyph glyph-name="sterling" unicode="&#xa3;" horiz-adv-x="573" 
d="M413 161q-23 -56 -99 -56q-10 0 -49 -0.5t-99 -0.5q31 23 53 62.5t29 78.5h108l16 95h-128q-28 58 -29.5 109t29.5 88q29 31 66 36.5t67 -15.5t39 -63l114 46q-20 66 -61 102.5t-88.5 41.5t-96 -7.5t-88 -39t-61.5 -57.5q-78 -112 -11 -240h-67l-16 -95h96
q-18 -107 -122 -151l-18 -99l272 -2q109 0 156 30.5t87 109.5z" />
    <glyph glyph-name="yen" unicode="&#xa5;" horiz-adv-x="667" 
d="M115 676h151l105 -254l184 253h147l-214 -280h105l-17 -97h-168l-11 -64h169l-18 -98h-168l-25 -141h-124l25 141h-168l18 98h167l12 66h-166l17 95h105z" />
    <glyph glyph-name="section" unicode="&#xa7;" horiz-adv-x="555" 
d="M-12 -46q5 -96 69.5 -145t155.5 -43q97 6 168.5 60t83.5 143q10 76 -43 131q78 50 92 143q10 71 -36 123t-161 97q-82 33 -82 72q-2 48 56 73q60 24 102 2t51 -74l112 47q-19 96 -94 129.5t-167 12.5q-76 -17 -123 -66t-60 -110q-17 -80 49 -144q-77 -48 -96 -127
q-15 -64 17.5 -113t98.5 -75q11 -4 32 -12q37 -14 55.5 -22t41 -22t30 -30.5t3.5 -38.5q-9 -50 -52 -72t-91 -13q-85 15 -93 121zM187 263q-3 26 15.5 53.5t53.5 36.5q40 -16 60 -25t41.5 -24.5t28 -33.5t2.5 -43q-9 -50 -59 -64q-34 18 -60 27q-78 32 -82 73z" />
    <glyph glyph-name="copyright" unicode="&#xa9;" horiz-adv-x="833" 
d="M369 -25q-156 0 -247.5 110.5t-63.5 266.5q27 155 157 265.5t286 110.5q155 0 246 -110.5t64 -265.5q-28 -156 -157.5 -266.5t-284.5 -110.5zM390 149q-78 3 -122 60.5t-29 148.5q15 81 83.5 139t142.5 60q75 2 115.5 -35t50.5 -91l-94 -26q-23 67 -91 60
q-43 -5 -74.5 -37.5t-37.5 -70.5q-8 -48 12.5 -80.5t63.5 -36.5q33 -2 64.5 15.5t46.5 46.5l86 -29q-33 -61 -90.5 -94t-126.5 -30zM383 56q122 0 223.5 87t123.5 209q21 122 -50.5 208.5t-192.5 86.5q-122 0 -224 -86.5t-124 -208.5t50 -209t194 -87z" />
    <glyph glyph-name="ordfeminine" unicode="&#xaa;" horiz-adv-x="397" 
d="M178 289q-56 -3 -86.5 23t-27.5 71q8 97 131 119q47 8 102 10q7 9 10 19.5t-4.5 23t-28.5 18.5q-66 17 -98 -44l-74 23q22 47 77 79q30 17 74.5 21t79.5 -9q42 -16 59.5 -47t11.5 -68l-39 -229h-87l6 42q-45 -49 -106 -52zM225 373q70 15 72 65q-26 -1 -48.5 -1t-40 -0.5
t-29 -9t-14.5 -26.5q-3 -17 14.5 -25t45.5 -3z" />
    <glyph glyph-name="guillemotleft" unicode="&#xab;" horiz-adv-x="579" 
d="M214 38l-171 229l252 230l58 -65l-182 -165l124 -165zM432 39l-172 228l252 231l59 -66l-183 -165l124 -164z" />
    <glyph glyph-name="registered" unicode="&#xae;" horiz-adv-x="460" 
d="M245 335q-79 0 -125 55.5t-32 134.5q14 78 79.5 134t144.5 56q78 0 124 -56t32 -134q-13 -79 -79 -134.5t-144 -55.5zM253 381q59 1 108.5 43.5t59.5 100.5t-24.5 100.5t-92.5 42.5q-59 0 -109 -42.5t-60 -100.5q-11 -59 24.5 -101.5t93.5 -42.5zM192 432l34 196h76
q31 0 46.5 -17.5t10.5 -42.5q-4 -24 -21.5 -39.5t-34.5 -15.5l43 -81h-48l-39 75h-12l-13 -75h-42zM284 539q27 0 33 29q2 10 -5 18t-21 8h-29l-9 -55h31z" />
    <glyph glyph-name="degree" unicode="&#xb0;" horiz-adv-x="370" 
d="M214 412q-59 0 -94.5 42.5t-25.5 100.5q10 60 60.5 102t109.5 42q60 0 95 -42t25 -102q-11 -59 -61 -101t-109 -42zM230 488q28 0 51.5 20t27.5 49q5 26 -11 46.5t-44 20.5t-52 -20.5t-29 -46.5q-5 -29 12 -49t45 -20z" />
    <glyph glyph-name="uni00B2" unicode="&#xb2;" horiz-adv-x="341" 
d="M185 419l45 39q26 22 38.5 33t37 36.5t37 50.5t14.5 50q3 47 -30.5 71.5t-78.5 24.5q-41 0 -78.5 -24.5t-62.5 -70.5l64 -29q9 20 27 35t38 15q28 0 38 -22t-16 -54q-56 -58 -184 -160l-12 -67h256l13 72h-146z" />
    <glyph glyph-name="uni00B3" unicode="&#xb3;" horiz-adv-x="351" 
d="M190 341q-54 0 -82.5 26.5t-34.5 69.5l83 29q2 -34 26.5 -46t50.5 -0.5t30 35.5q6 28 -13 41t-73 10l11 64q68 0 87 32q11 17 -4 27q-4 16 -20.5 20t-36 -6t-30.5 -31l-67 32q21 36 60 57.5t73 21.5q46 1 81.5 -20.5t32.5 -73.5q-2 -25 -17.5 -46.5t-29 -30.5t-17.5 -9
q4 0 16.5 -9t23.5 -30t7 -47q-9 -52 -53 -84t-104 -32z" />
    <glyph glyph-name="periodcentered" unicode="&#xb7;" horiz-adv-x="247" 
d="M121 232q-34 0 -54.5 24.5t-14.5 59.5q6 34 34.5 58.5t63.5 24.5t55 -24.5t14 -58.5t-35 -59t-63 -25z" />
    <glyph glyph-name="uni00B9" unicode="&#xb9;" horiz-adv-x="261" 
d="M206 624l-73 -32l-21 66l126 61h66l-66 -370h-80z" />
    <glyph glyph-name="ordmasculine" unicode="&#xba;" horiz-adv-x="459" 
d="M79 472q14 77 78.5 131t144.5 54t125 -54t31 -131q-14 -78 -78.5 -134t-143.5 -55q-80 0 -125.5 55.5t-31.5 133.5zM185 471q-7 -42 13.5 -66t56.5 -24q35 0 63.5 24t35.5 66q7 39 -13.5 63.5t-54.5 24.5q-35 0 -64.5 -24.5t-36.5 -63.5z" />
    <glyph glyph-name="guillemotright" unicode="&#xbb;" horiz-adv-x="579" 
d="M73 39l-59 64l182 164l-124 165l81 66l171 -231zM290 38l-59 64l182 165l-124 165l82 65l170 -230z" />
    <glyph glyph-name="questiondown" unicode="&#xbf;" horiz-adv-x="509" 
d="M316 261q-13 -74 -31.5 -105t-66.5 -70q-9 -8 -35 -27.5t-36 -29t-22 -29t-16 -42.5q-6 -36 17 -58t58 -22t69.5 21t56.5 66l101 -45q-38 -64 -100 -109t-134 -45q-96 0 -150 51.5t-40 130.5q7 44 29 80.5t41.5 55t51.5 41.5q38 28 57.5 58.5t26.5 77.5h123zM296 508
q35 0 55.5 -25t13.5 -59q-6 -34 -35 -58.5t-63 -24.5t-54.5 24.5t-14.5 58.5q7 35 35.5 59.5t62.5 24.5z" />
    <glyph glyph-name="Agrave" unicode="&#xc0;" horiz-adv-x="704" 
d="M-35 -6l397 716l145 -1l142 -715h-138l-30 173h-287l-92 -173h-137zM245 279h219l-57 296zM405 764l-67 138h147l19 -138h-99z" />
    <glyph glyph-name="Aacute" unicode="&#xc1;" horiz-adv-x="707" 
d="M-35 -6l397 716l147 -1l142 -715h-137l-30 173h-287l-92 -173h-140zM248 279h219l-58 296zM389 764l67 138h147l-115 -138h-99z" />
    <glyph glyph-name="Acircumflex" unicode="&#xc2;" horiz-adv-x="704" 
d="M-35 -6l397 716l145 -1l142 -715h-138l-30 173h-287l-92 -173h-137zM245 279h219l-57 296zM394 761l-123 1l145 133h99l94 -134h-121l-30 57h-15z" />
    <glyph glyph-name="Atilde" unicode="&#xc3;" horiz-adv-x="704" 
d="M507 709l-145 1l-397 -716h137l92 173h287l30 -173h138zM407 575l57 -296h-219zM272 778q11 61 48 93t85 32q35 0 70 -20.5t42 -20.5q31 0 38 32h85q-11 -60 -48.5 -92.5t-86.5 -32.5q-30 0 -66.5 21t-50.5 21q-26 0 -32 -33h-84z" />
    <glyph glyph-name="Adieresis" unicode="&#xc4;" horiz-adv-x="704" 
d="M507 709l-145 1l-397 -716h137l92 173h287l30 -173h138zM407 575l57 -296h-219zM349 768q-29 0 -45.5 20t-11.5 49t28.5 49t52.5 20q28 0 44.5 -20t11.5 -49t-28 -49t-52 -20zM534 768q-29 0 -45.5 20t-11.5 49t28.5 49t52.5 20q28 0 45 -20t12 -49t-28.5 -49t-52.5 -20z
" />
    <glyph glyph-name="Aring" unicode="&#xc5;" horiz-adv-x="704" 
d="M-35 -6l367 663q-36 38 -27 92q10 55 56 94t101 39t87 -39t22 -94q-8 -52 -54 -89l132 -666h-138l-30 173h-287l-92 -173h-137zM245 279h219l-57 296zM432 709q18 0 34 13t19 32q3 18 -8 31.5t-29 13.5q-19 0 -34.5 -13.5t-18.5 -31.5q-4 -19 7 -32t30 -13z" />
    <glyph glyph-name="AE" unicode="&#xc6;" horiz-adv-x="1008" 
d="M-5 -6l541 716h66h445l-22 -120h-312l-31 -173h281l-21 -120h-282l-32 -182h316l-21 -119h-447l30 171h-238l-133 -173h-140zM347 279h179l52 294z" />
    <glyph glyph-name="Ccedilla" unicode="&#xc7;" horiz-adv-x="796" 
d="M57 347q29 160 159.5 268.5t279.5 108.5q113 0 194 -64.5t106 -167.5l-132 -40q-20 65 -67 107t-122 42q-102 0 -184 -69.5t-102 -184.5q-18 -103 39.5 -171t159.5 -68q82 0 146.5 41.5t98.5 107.5l116 -44q-44 -89 -148 -157t-212 -75l-23 -36q42 10 73 -16.5t22 -75.5
t-44 -74t-83 -25q-61 0 -84 65l69 28q5 -29 30 -29q13 0 25 9t15 25q3 15 -6 24.5t-22 9.5q-18 0 -30 -14l-57 28l50 82q-137 15 -215 118t-52 247z" />
    <glyph glyph-name="Egrave" unicode="&#xc8;" horiz-adv-x="527" 
d="M-5 -4l126 714h445l-22 -120h-313l-30 -173h281l-21 -120h-282l-32 -182h316l-21 -119h-447zM297 764l-66 138h147l18 -138h-99z" />
    <glyph glyph-name="Eacute" unicode="&#xc9;" horiz-adv-x="527" 
d="M-5 -4l126 714h445l-22 -120h-313l-30 -173h281l-21 -120h-282l-32 -182h316l-21 -119h-447zM293 764l68 138h147l-116 -138h-99z" />
    <glyph glyph-name="Ecircumflex" unicode="&#xca;" horiz-adv-x="527" 
d="M-5 -4l126 714h445l-22 -120h-313l-30 -173h281l-21 -120h-282l-32 -182h316l-21 -119h-447zM298 761l-123 1l145 133h99l94 -134h-121l-30 57h-15z" />
    <glyph glyph-name="Edieresis" unicode="&#xcb;" horiz-adv-x="527" 
d="M-5 -4l126 714h445l-22 -120h-313l-30 -173h281l-21 -120h-282l-32 -182h316l-21 -119h-447zM256 768q-29 0 -45.5 20t-11.5 49t28.5 49t52.5 20q28 0 44.5 -20t11.5 -49t-28 -49t-52 -20zM441 768q-29 0 -45.5 20t-11.5 49t28.5 49t52.5 20q28 0 45 -20t12 -49
t-28.5 -49t-52.5 -20z" />
    <glyph glyph-name="Igrave" unicode="&#xcc;" horiz-adv-x="314" 
d="M54 -7l126 716h134l-126 -716h-134zM222 764l-67 138h147l19 -138h-99z" />
    <glyph glyph-name="Iacute" unicode="&#xcd;" horiz-adv-x="315" 
d="M-5 -7l126 716h134l-126 -716h-134zM135 764l67 138h147l-115 -138h-99z" />
    <glyph glyph-name="Icircumflex" unicode="&#xce;" horiz-adv-x="458" 
d="M96 -7l127 716h134l-126 -716h-135zM253 761l-123 1l145 133h99l94 -134h-121l-30 57h-15z" />
    <glyph glyph-name="Idieresis" unicode="&#xcf;" horiz-adv-x="443" 
d="M87 -7l127 716h134l-126 -716h-135zM201 768q-29 0 -45.5 20t-11.5 49t28.5 49t52.5 20q28 0 44.5 -20t11.5 -49t-28 -49t-52 -20zM386 768q-29 0 -45.5 20t-11.5 49t28.5 49t52.5 20q28 0 45 -20t12 -49t-28.5 -49t-52.5 -20z" />
    <glyph glyph-name="Ntilde" unicode="&#xd1;" horiz-adv-x="677" 
d="M469 -6l-247 505l-89 -504h-138l126 714h136l244 -492l87 492h130l-126 -715h-123zM266 778q11 61 48 93t85 32q35 0 70.5 -20.5t42.5 -20.5q32 0 37 32h86q-11 -60 -48.5 -92.5t-86.5 -32.5q-30 0 -66.5 21t-50.5 21q-26 0 -32 -33h-85z" />
    <glyph glyph-name="Ograve" unicode="&#xd2;" 
d="M360 -26q-153 0 -241.5 111t-60.5 268t155.5 268t280.5 111q152 0 240.5 -111t60.5 -268t-155.5 -268t-279.5 -111zM386 101q98 0 181.5 74.5t101.5 176.5q18 103 -39 177.5t-156 74.5q-98 0 -181.5 -74.5t-101.5 -177.5q-18 -102 39.5 -176.5t155.5 -74.5zM453 764
l-67 138h147l19 -138h-99z" />
    <glyph glyph-name="Oacute" unicode="&#xd3;" 
d="M360 -26q-153 0 -241.5 111t-60.5 268t155.5 268t280.5 111q152 0 240.5 -111t60.5 -268t-155.5 -268t-279.5 -111zM386 101q98 0 181.5 74.5t101.5 176.5q18 103 -39 177.5t-156 74.5q-98 0 -181.5 -74.5t-101.5 -177.5q-18 -102 39.5 -176.5t155.5 -74.5zM451 764
l68 138h147l-116 -138h-99z" />
    <glyph glyph-name="Ocircumflex" unicode="&#xd4;" 
d="M360 -26q-153 0 -241.5 111t-60.5 268t155.5 268t280.5 111q152 0 240.5 -111t60.5 -268t-155.5 -268t-279.5 -111zM386 101q98 0 181.5 74.5t101.5 176.5q18 103 -39 177.5t-156 74.5q-98 0 -181.5 -74.5t-101.5 -177.5q-18 -102 39.5 -176.5t155.5 -74.5zM447 761
l-122 1l144 133h99l95 -134h-122l-30 57h-15z" />
    <glyph glyph-name="Otilde" unicode="&#xd5;" 
d="M360 -26q-153 0 -241.5 111t-60.5 268t155.5 268t280.5 111q152 0 240.5 -111t60.5 -268t-155.5 -268t-279.5 -111zM386 101q98 0 181.5 74.5t101.5 176.5q18 103 -39 177.5t-156 74.5q-98 0 -181.5 -74.5t-101.5 -177.5q-18 -102 39.5 -176.5t155.5 -74.5zM339 778
q11 61 48 93t85 32q34 0 69.5 -20.5t43.5 -20.5q32 0 37 32h85q-10 -60 -47.5 -92.5t-87.5 -32.5q-30 0 -66.5 21t-49.5 21q-27 0 -33 -33h-84z" />
    <glyph glyph-name="Odieresis" unicode="&#xd6;" 
d="M360 -26q-153 0 -241.5 111t-60.5 268t155.5 268t280.5 111q152 0 240.5 -111t60.5 -268t-155.5 -268t-279.5 -111zM386 101q98 0 181.5 74.5t101.5 176.5q18 103 -39 177.5t-156 74.5q-98 0 -181.5 -74.5t-101.5 -177.5q-18 -102 39.5 -176.5t155.5 -74.5zM405 768
q-29 0 -45.5 20t-11.5 49t28.5 49t52.5 20q28 0 45 -20t12 -49t-28.5 -49t-52.5 -20zM591 768q-29 0 -45.5 20t-11.5 49t28.5 49t52.5 20q28 0 44.5 -20t11.5 -49t-28 -49t-52 -20z" />
    <glyph glyph-name="multiply" unicode="&#xd7;" horiz-adv-x="557" 
d="M359 268l134 -158l-88 -74l-137 159l-191 -159l-61 74l190 157l-135 158l86 74l139 -160l192 160l58 -75z" />
    <glyph glyph-name="Oslash" unicode="&#xd8;" 
d="M174 -58l-89 64l49 61q-50 54 -70.5 128t-5.5 158q28 157 155.5 268t280.5 111q79 0 145 -33l52 65l88 -65l-53 -67q46 -54 65 -126t4 -153q-28 -157 -155.5 -268t-279.5 -111q-76 0 -137 30zM226 182l325 407q-33 15 -77 15q-98 0 -181.5 -74.5t-101.5 -177.5
q-18 -96 35 -170zM386 101q98 0 181.5 74.5t101.5 176.5q18 96 -33 168l-324 -405q34 -14 74 -14z" />
    <glyph glyph-name="Ugrave" unicode="&#xd9;" horiz-adv-x="640" 
d="M279 -19q-56 0 -99.5 12.5t-69.5 33.5t-44.5 48t-23.5 55.5t-7.5 57t3.5 51.5l83 471h136l-83 -467q-12 -67 23 -103t103 -36q66 0 110 35t55 99l83 471h132l-80 -456q-6 -36 -19 -70.5t-38 -72.5t-59.5 -65.5t-87.5 -45.5t-117 -18zM367 764l-67 138h147l19 -138h-99z
" />
    <glyph glyph-name="Uacute" unicode="&#xda;" horiz-adv-x="640" 
d="M279 -19q-56 0 -99.5 12.5t-69.5 33.5t-44.5 48t-23.5 55.5t-7.5 57t3.5 51.5l83 471h136l-83 -467q-12 -67 23 -103t103 -36q66 0 110 35t55 99l83 471h132l-80 -456q-6 -36 -19 -70.5t-38 -72.5t-59.5 -65.5t-87.5 -45.5t-117 -18zM365 764l67 138h147l-115 -138h-99z
" />
    <glyph glyph-name="Ucircumflex" unicode="&#xdb;" horiz-adv-x="640" 
d="M279 -19q-56 0 -99.5 12.5t-69.5 33.5t-44.5 48t-23.5 55.5t-7.5 57t3.5 51.5l83 471h136l-83 -467q-12 -67 23 -103t103 -36q66 0 110 35t55 99l83 471h132l-80 -456q-6 -36 -19 -70.5t-38 -72.5t-59.5 -65.5t-87.5 -45.5t-117 -18zM363 761l-122 1l144 133h99l94 -134
h-121l-30 57h-15z" />
    <glyph glyph-name="Udieresis" unicode="&#xdc;" horiz-adv-x="640" 
d="M279 -19q-56 0 -99.5 12.5t-69.5 33.5t-44.5 48t-23.5 55.5t-7.5 57t3.5 51.5l83 471h136l-83 -467q-12 -67 23 -103t103 -36q66 0 110 35t55 99l83 471h132l-80 -456q-6 -36 -19 -70.5t-38 -72.5t-59.5 -65.5t-87.5 -45.5t-117 -18zM322 768q-29 0 -45.5 20t-11.5 49
t28.5 49t52.5 20q28 0 44.5 -20t11.5 -49t-28 -49t-52 -20zM507 768q-29 0 -45.5 20t-11.5 49t29 49t53 20q28 0 44.5 -20t11.5 -49t-28.5 -49t-52.5 -20z" />
    <glyph glyph-name="Yacute" unicode="&#xdd;" horiz-adv-x="674" 
d="M231 -6l62 330l-192 386h164l112 -275l200 275h158l-309 -386l-58 -330h-137zM382 764l68 138h147l-116 -138h-99z" />
    <glyph glyph-name="germandbls" unicode="&#xdf;" horiz-adv-x="563" 
d="M189 -11l20 113q72 -11 123 19t61 86q11 59 -24.5 89t-111.5 27l20 111q69 -2 102.5 27t40.5 67q6 38 -17.5 65t-62.5 27q-47 0 -85.5 -34.5t-46.5 -82.5l-90 -509h-123l89 506q19 104 94.5 167t182.5 63q97 0 142 -52.5t40 -113.5q-5 -65 -43 -113.5t-84 -67.5
q39 0 75.5 -50.5t23.5 -125.5q-10 -57 -36.5 -100t-61 -66t-75.5 -38t-79.5 -15t-73.5 1z" />
    <glyph glyph-name="agrave" unicode="&#xe0;" horiz-adv-x="528" 
d="M178 -19q-78 -4 -121.5 33.5t-39.5 101.5q13 146 196 171q75 12 144 14q10 13 13.5 31t-8 38t-41.5 28q-46 12 -86.5 -5.5t-61.5 -64.5l-102 31q31 74 119 119q45 23 102 27.5t107 -14.5q59 -24 83.5 -69t15.5 -99l-55 -328h-121l7 60q-63 -70 -151 -74zM243 80
q51 11 81.5 46.5t32.5 75.5q-21 -1 -59.5 -1t-58 -1.5t-44 -6.5t-36.5 -18.5t-16 -35.5q-7 -36 22 -53t78 -6zM274 587l-66 138h147l18 -138h-99z" />
    <glyph glyph-name="aacute" unicode="&#xe1;" horiz-adv-x="528" 
d="M178 -19q-78 -4 -121.5 33.5t-39.5 101.5q13 146 196 171q75 12 144 14q10 13 13.5 31t-8 38t-41.5 28q-46 12 -86.5 -5.5t-61.5 -64.5l-102 31q31 74 119 119q45 23 102 27.5t107 -14.5q59 -24 83.5 -69t15.5 -99l-55 -328h-121l7 60q-63 -70 -151 -74zM243 80
q51 11 81.5 46.5t32.5 75.5q-21 -1 -59.5 -1t-58 -1.5t-44 -6.5t-36.5 -18.5t-16 -35.5q-7 -36 22 -53t78 -6zM273 587l67 138h147l-115 -138h-99z" />
    <glyph glyph-name="acircumflex" unicode="&#xe2;" horiz-adv-x="528" 
d="M178 -19q-78 -4 -121.5 33.5t-39.5 101.5q13 146 196 171q75 12 144 14q10 13 13.5 31t-8 38t-41.5 28q-46 12 -86.5 -5.5t-61.5 -64.5l-102 31q31 74 119 119q45 23 102 27.5t107 -14.5q59 -24 83.5 -69t15.5 -99l-55 -328h-121l7 60q-63 -70 -151 -74zM243 80
q51 11 81.5 46.5t32.5 75.5q-21 -1 -59.5 -1t-58 -1.5t-44 -6.5t-36.5 -18.5t-16 -35.5q-7 -36 22 -53t78 -6zM285 587l-122 1l144 133h99l95 -134h-122l-30 57h-15z" />
    <glyph glyph-name="atilde" unicode="&#xe3;" horiz-adv-x="528" 
d="M178 -19q-78 -4 -121.5 33.5t-39.5 101.5q13 146 196 171q75 12 144 14q10 13 13.5 31t-8 38t-41.5 28q-46 12 -86.5 -5.5t-61.5 -64.5l-102 31q31 74 119 119q45 23 102 27.5t107 -14.5q59 -24 83.5 -69t15.5 -99l-55 -328h-121l7 60q-63 -70 -151 -74zM243 80
q51 11 81.5 46.5t32.5 75.5q-21 -1 -59.5 -1t-58 -1.5t-44 -6.5t-36.5 -18.5t-16 -35.5q-7 -36 22 -53t78 -6zM152 603q11 61 48 93t85 32q35 0 70 -21t42 -21q31 0 38 33h85q-11 -60 -48.5 -92.5t-86.5 -32.5q-30 0 -66.5 20.5t-50.5 20.5q-26 0 -32 -32h-84z" />
    <glyph glyph-name="adieresis" unicode="&#xe4;" horiz-adv-x="528" 
d="M178 -19q-78 -4 -121.5 33.5t-39.5 101.5q13 146 196 171q75 12 144 14q10 13 13.5 31t-8 38t-41.5 28q-46 12 -86.5 -5.5t-61.5 -64.5l-102 31q31 74 119 119q45 23 102 27.5t107 -14.5q59 -24 83.5 -69t15.5 -99l-55 -328h-121l7 60q-63 -70 -151 -74zM243 80
q51 11 81.5 46.5t32.5 75.5q-21 -1 -59.5 -1t-58 -1.5t-44 -6.5t-36.5 -18.5t-16 -35.5q-7 -36 22 -53t78 -6zM239 587q-29 0 -45.5 20t-11.5 49t28.5 49t52.5 20q28 0 44.5 -20t11.5 -49q-4 -29 -27.5 -49t-52.5 -20zM424 587q-29 0 -45.5 20t-11.5 49t29 49t53 20
q28 0 44.5 -20t11.5 -49t-28.5 -49t-52.5 -20z" />
    <glyph glyph-name="aring" unicode="&#xe5;" horiz-adv-x="528" 
d="M178 -19q-78 -4 -121.5 33.5t-39.5 101.5q13 146 196 171q75 12 144 14q10 13 13.5 31t-8 38t-41.5 28q-46 12 -86.5 -5.5t-61.5 -64.5l-102 31q31 74 119 119q45 23 102 27.5t107 -14.5q59 -24 83.5 -69t15.5 -99l-55 -328h-121l7 60q-63 -70 -151 -74zM243 80
q51 11 81.5 46.5t32.5 75.5q-21 -1 -59.5 -1t-58 -1.5t-44 -6.5t-36.5 -18.5t-16 -35.5q-7 -36 22 -53t78 -6zM322 563q-44 0 -70.5 32t-19.5 76q8 45 46 76.5t82 31.5q45 0 71.5 -31.5t18.5 -76.5q-7 -44 -45.5 -76t-82.5 -32zM336 633q16 0 29 11.5t16 27.5q3 15 -6 26.5
t-25 11.5t-29.5 -11.5t-16.5 -26.5q-3 -16 7 -27.5t25 -11.5z" />
    <glyph glyph-name="ae" unicode="&#xe6;" horiz-adv-x="906" 
d="M178 -19q-78 -3 -121.5 34t-39.5 101q13 146 196 171q89 12 144 14q10 13 13.5 31t-8 38t-41.5 28q-46 12 -86.5 -5.5t-61.5 -64.5l-102 31q31 74 119 119q45 23 102 27.5t107 -14.5q49 -19 73 -57q82 70 194 70q51 0 92.5 -16.5t72 -51.5t37.5 -90t-10 -133l-377 -4
q-7 -38 18.5 -77.5t85.5 -42.5q89 -5 141 70l108 -34q-32 -54 -100.5 -97t-157.5 -43q-124 0 -180 86q-43 -39 -89 -60t-70.5 -25t-58.5 -5zM243 80q51 11 81.5 46.5t32.5 75.5q-21 -1 -59.5 -1t-58 -1.5t-44 -6.5t-36.5 -18.5t-16 -35.5q-7 -36 22 -53t78 -6zM500 303
l246 1q7 39 -25 71.5t-93 27.5q-41 -3 -78.5 -31t-49.5 -69z" />
    <glyph glyph-name="ccedilla" unicode="&#xe7;" horiz-adv-x="559" 
d="M212 -246q-61 0 -84 65l69 28q5 -29 30 -29q13 0 25 9t15 25q3 15 -6 24.5t-22 9.5q-18 0 -30 -14l-57 28l47 78q-91 15 -140 87t-29 183q19 108 109 184.5t192 77.5q51 0 91 -15t63.5 -40.5t37 -53t18.5 -57.5l-124 -34q-17 47 -48.5 65.5t-67.5 13.5q-60 -8 -100 -50
t-48 -92q-10 -61 17 -104.5t83 -47.5q43 -3 83.5 20.5t60.5 60.5l112 -37q-34 -67 -100.5 -113t-144.5 -51l-20 -30q42 10 73 -16.5t22 -75.5t-44 -74t-83 -25z" />
    <glyph glyph-name="egrave" unicode="&#xe8;" horiz-adv-x="583" 
d="M39 244q-19 -110 39 -184.5t175 -74.5q89 0 157.5 43t100.5 97l-108 34q-52 -75 -141 -70q-60 3 -85.5 42.5t-18.5 77.5l377 4q17 78 10 133t-37.5 90t-72 51.5t-92.5 16.5q-108 0 -195 -67.5t-109 -192.5zM177 303q12 41 49.5 69t78.5 31q61 5 93 -27.5t25 -71.5z
M409 587h-99l-67 138h147z" />
    <glyph glyph-name="eacute" unicode="&#xe9;" horiz-adv-x="583" 
d="M39 244q-19 -110 39 -184.5t175 -74.5q89 0 157.5 43t100.5 97l-108 34q-52 -75 -141 -70q-60 3 -85.5 42.5t-18.5 77.5l377 4q17 78 10 133t-37.5 90t-72 51.5t-92.5 16.5q-108 0 -195 -67.5t-109 -192.5zM177 303q12 41 49.5 69t78.5 31q61 5 93 -27.5t25 -71.5z
M308 587l67 138h147l-115 -138h-99z" />
    <glyph glyph-name="ecircumflex" unicode="&#xea;" horiz-adv-x="583" 
d="M39 244q-19 -110 39 -184.5t175 -74.5q89 0 157.5 43t100.5 97l-108 34q-52 -75 -141 -70q-60 3 -85.5 42.5t-18.5 77.5l377 4q17 78 10 133t-37.5 90t-72 51.5t-92.5 16.5q-108 0 -195 -67.5t-109 -192.5zM177 303q12 41 49.5 69t78.5 31q61 5 93 -27.5t25 -71.5z
M305 587l-122 1l144 133h99l95 -134h-122l-30 57h-15z" />
    <glyph glyph-name="edieresis" unicode="&#xeb;" horiz-adv-x="583" 
d="M39 244q-19 -110 39 -184.5t175 -74.5q89 0 157.5 43t100.5 97l-108 34q-52 -75 -141 -70q-60 3 -85.5 42.5t-18.5 77.5l377 4q17 78 10 133t-37.5 90t-72 51.5t-92.5 16.5q-108 0 -195 -67.5t-109 -192.5zM177 303q12 41 49.5 69t78.5 31q61 5 93 -27.5t25 -71.5z
M263 587q-29 0 -45.5 20t-11.5 49t28.5 49t52.5 20q28 0 44.5 -20t11.5 -49q-4 -29 -27.5 -49t-52.5 -20zM448 587q-29 0 -45.5 20t-11.5 49t29 49t53 20q28 0 44.5 -20t11.5 -49t-28.5 -49t-52.5 -20z" />
    <glyph glyph-name="igrave" unicode="&#xec;" horiz-adv-x="274" 
d="M277 493l-88 -500h-128l88 500h128zM289 587h-99l-66 138h147z" />
    <glyph glyph-name="iacute" unicode="&#xed;" horiz-adv-x="276" 
d="M211 493l-89 -500h-127l88 500h128zM105 587l68 138h147l-116 -138h-99z" />
    <glyph glyph-name="icircumflex" unicode="&#xee;" horiz-adv-x="418" 
d="M315 493l-88 -500h-128l88 500h128zM222 587l-122 1l144 133h99l94 -134h-121l-30 57h-15z" />
    <glyph glyph-name="idieresis" unicode="&#xef;" horiz-adv-x="403" 
d="M309 493l-89 -500h-127l88 500h128zM169 587q-29 0 -45.5 20t-11.5 49t28.5 49t52.5 20q28 0 44.5 -20t11.5 -49t-28 -49t-52 -20zM354 587q-29 0 -45.5 20t-11.5 49t28.5 49t52.5 20q28 0 45 -20t12 -49t-28.5 -49t-52.5 -20z" />
    <glyph glyph-name="ntilde" unicode="&#xf1;" horiz-adv-x="539" 
d="M82 488h118l-12 -70q63 75 141 84q75 9 119.5 -18t57.5 -70q13 -45 -6 -159l-46 -260h-125l47 266q12 69 -5 100.5t-78 30.5q-43 -1 -80.5 -39.5t-50.5 -110.5l-44 -247h-123zM144 603q11 61 48 93t85 32q35 0 70 -20.5t43 -20.5q32 0 37 32h86q-12 -60 -49 -92.5
t-86 -32.5q-30 0 -66.5 21t-50.5 21q-26 0 -32 -33h-85z" />
    <glyph glyph-name="ograve" unicode="&#xf2;" horiz-adv-x="605" 
d="M39 245q20 109 109 185t200 76t173.5 -76.5t42.5 -184.5q-19 -109 -109 -188t-200 -79t-172.5 79t-43.5 188zM163 244q-12 -68 22 -110t91 -42t105.5 41.5t60.5 110.5q12 65 -22 107.5t-91 42.5q-56 0 -105.5 -42.5t-60.5 -107.5zM411 587h-99l-67 138h147z" />
    <glyph glyph-name="oacute" unicode="&#xf3;" horiz-adv-x="605" 
d="M39 245q20 109 109 185t200 76t173.5 -76.5t42.5 -184.5q-19 -109 -109 -188t-200 -79t-172.5 79t-43.5 188zM163 244q-12 -68 22 -110t91 -42t105.5 41.5t60.5 110.5q12 65 -22 107.5t-91 42.5q-56 0 -105.5 -42.5t-60.5 -107.5zM310 587l68 138h147l-116 -138h-99z" />
    <glyph glyph-name="ocircumflex" unicode="&#xf4;" horiz-adv-x="605" 
d="M39 245q20 109 109 185t200 76t173.5 -76.5t42.5 -184.5q-19 -109 -109 -188t-200 -79t-172.5 79t-43.5 188zM163 244q-12 -68 22 -110t91 -42t105.5 41.5t60.5 110.5q12 65 -22 107.5t-91 42.5q-56 0 -105.5 -42.5t-60.5 -107.5zM313 587l-122 1l144 133h99l95 -134
h-122l-30 57h-15z" />
    <glyph glyph-name="otilde" unicode="&#xf5;" horiz-adv-x="605" 
d="M39 245q20 109 109 185t200 76t173.5 -76.5t42.5 -184.5q-19 -109 -109 -188t-200 -79t-172.5 79t-43.5 188zM163 244q-12 -68 22 -110t91 -42t105.5 41.5t60.5 110.5q12 65 -22 107.5t-91 42.5q-56 0 -105.5 -42.5t-60.5 -107.5zM195 603q11 61 48 93t85 32
q34 0 69 -20.5t43 -20.5q32 0 37 32h86q-11 -60 -48.5 -92.5t-86.5 -32.5q-30 0 -66.5 21t-50.5 21q-26 0 -32 -33h-84z" />
    <glyph glyph-name="odieresis" unicode="&#xf6;" horiz-adv-x="605" 
d="M39 245q20 109 109 185t200 76t173.5 -76.5t42.5 -184.5q-19 -109 -109 -188t-200 -79t-172.5 79t-43.5 188zM163 244q-12 -68 22 -110t91 -42t105.5 41.5t60.5 110.5q12 65 -22 107.5t-91 42.5q-56 0 -105.5 -42.5t-60.5 -107.5zM267 587q-29 0 -45.5 20t-11.5 49
t28.5 49t52.5 20q28 0 45 -20t12 -49t-28.5 -49t-52.5 -20zM453 587q-29 0 -45.5 20t-11.5 49t28.5 49t52.5 20q28 0 44.5 -20t11.5 -49t-28 -49t-52 -20z" />
    <glyph glyph-name="oslash" unicode="&#xf8;" horiz-adv-x="605" 
d="M39 245q20 109 109 185t200 76q48 0 87 -15l35 44l83 -54l-36 -46q66 -78 47 -190q-19 -109 -109 -188t-200 -79q-49 0 -91 17l-35 -44l-82 52l39 50q-67 79 -47 192zM163 244q-9 -49 7 -86l185 233q-12 3 -26 3q-56 0 -105.5 -42.5t-60.5 -107.5zM245 96q20 -4 31 -4
q57 0 105.5 41.5t60.5 110.5q9 49 -9 86z" />
    <glyph glyph-name="ugrave" unicode="&#xf9;" horiz-adv-x="545" 
d="M344 56q-14 -26 -61 -50.5t-108 -24.5q-47 0 -79.5 17t-46.5 41t-20 54.5t-5 51t4 38.5l54 307h130l-52 -294q-7 -41 11.5 -72t69.5 -31q47 0 82.5 31t41.5 66l53 301h129l-87 -496h-121zM378 587h-99l-67 138h147z" />
    <glyph glyph-name="uacute" unicode="&#xfa;" horiz-adv-x="545" 
d="M344 56q-14 -26 -61 -50.5t-108 -24.5q-47 0 -79.5 17t-46.5 41t-20 54.5t-5 51t4 38.5l54 307h130l-52 -294q-7 -41 11.5 -72t69.5 -31q47 0 82.5 31t41.5 66l53 301h129l-87 -496h-121zM279 587l68 138h147l-116 -138h-99z" />
    <glyph glyph-name="ucircumflex" unicode="&#xfb;" horiz-adv-x="545" 
d="M175 -19q-47 0 -79.5 17t-46.5 41t-20 54.5t-5 51t4 38.5l54 307h130l-52 -294q-7 -41 11.5 -72t69.5 -31q47 0 82.5 31t41.5 66l53 301h129l-87 -496h-121l5 61q-14 -26 -61 -50.5t-108 -24.5zM282 587l-122 1l144 133h99l94 -134h-121l-30 57h-15z" />
    <glyph glyph-name="udieresis" unicode="&#xfc;" horiz-adv-x="545" 
d="M344 56q-14 -26 -61 -50.5t-108 -24.5q-47 0 -79.5 17t-46.5 41t-20 54.5t-5 51t4 38.5l54 307h130l-52 -294q-7 -41 11.5 -72t69.5 -31q47 0 82.5 31t41.5 66l53 301h129l-87 -496h-121zM233 587q-29 0 -45.5 20t-11.5 49t28.5 49t52.5 20q28 0 44.5 -20t11.5 -49
t-28 -49t-52 -20zM418 587q-29 0 -45.5 20t-11.5 49t28.5 49t52.5 20q28 0 45 -20t12 -49t-28.5 -49t-52.5 -20z" />
    <glyph glyph-name="yacute" unicode="&#xfd;" horiz-adv-x="574" 
d="M28 -226l157 243l-123 473l134 -1l82 -319l184 319h134l-435 -715h-133zM298 587l68 138h147l-116 -138h-99z" />
    <glyph glyph-name="ydieresis" unicode="&#xff;" horiz-adv-x="574" 
d="M28 -226l157 243l-123 473l134 -1l82 -319l184 319h134l-435 -715h-133zM254 587q-29 0 -45.5 20t-11.5 49t28.5 49t52.5 20q28 0 45 -20t12 -49t-28.5 -49t-52.5 -20zM440 587q-29 0 -45.5 20t-11.5 49t28.5 49t52.5 20q28 0 44.5 -20t11.5 -49t-28 -49t-52 -20z" />
    <glyph glyph-name="dotlessi" unicode="&#x131;" horiz-adv-x="208" 
d="M211 493l-89 -500h-127l88 500h128z" />
    <glyph glyph-name="OE" unicode="&#x152;" horiz-adv-x="1125" 
d="M58 353q28 157 155.5 268t280.5 111q129 0 215 -83l10 61h445l-21 -120h-313l-31 -173h281l-21 -120h-282l-32 -182h316l-21 -119h-447l11 61q-117 -83 -244 -83q-153 0 -241.5 111t-60.5 268zM191 352q-18 -102 39.5 -176.5t155.5 -74.5t181.5 74.5t101.5 176.5
q18 103 -39 177.5t-156 74.5q-98 0 -181.5 -74.5t-101.5 -177.5z" />
    <glyph glyph-name="oe" unicode="&#x153;" horiz-adv-x="985" 
d="M255 -22q-110 0 -172.5 79t-43.5 188q20 109 109 185t200 76q116 0 179 -84q88 82 216 82q52 0 93.5 -16t73 -51t38.5 -91.5t-11 -136.5l-381 -4q-6 -36 21 -74t85 -41q90 -5 142 70l107 -35q-32 -54 -100.5 -96.5t-157.5 -42.5q-123 0 -185 83q-94 -91 -213 -91zM276 90
q58 0 107.5 42t61.5 112q12 66 -23 109.5t-92 43.5t-107.5 -43.5t-62.5 -109.5q-12 -70 23 -112t93 -42zM572 297l255 1q7 45 -25.5 79t-97.5 28q-44 -4 -81.5 -32t-50.5 -76z" />
    <glyph glyph-name="Scaron" unicode="&#x160;" horiz-adv-x="593" 
d="M269 -19q-103 -5 -172.5 49.5t-68.5 152.5l126 44q4 -55 34 -89t71 -40q53 -7 97.5 16.5t57.5 71.5q14 51 -29 84.5t-149 70.5q-66 23 -99.5 78.5t-18.5 121.5q14 63 67 115t131 69q92 20 171 -13.5t100 -127.5l-120 -49q-12 55 -57 74t-99 -1q-75 -26 -72 -94
q1 -25 26.5 -44t55.5 -30q66 -26 104.5 -45.5t71.5 -48t43.5 -64.5t3.5 -85q-15 -96 -92.5 -153t-182.5 -63zM335 761l-97 133l122 1l29 -57h15l50 57h122l-142 -134h-99z" />
    <glyph glyph-name="scaron" unicode="&#x161;" horiz-adv-x="511" 
d="M210 -21q-86 0 -134 41.5t-59 98.5l117 47q5 -26 25 -48t48 -29q34 -8 73.5 3.5t47.5 42.5q4 17 -6.5 30t-31.5 21t-42.5 13.5t-47 10.5t-36.5 9q-43 15 -69.5 50.5t-19.5 77.5q10 58 65 106t137 58q42 5 84.5 -5t79 -40.5t45.5 -76.5l-114 -44q-6 29 -33 44t-57 15
q-31 0 -56 -13t-29 -33q-5 -28 33 -42q14 -6 107 -29q134 -34 114 -153q-11 -59 -75.5 -107t-165.5 -48zM263 587l-97 133l123 1l29 -57h15l50 57h121l-142 -134h-99z" />
    <glyph glyph-name="Ydieresis" unicode="&#x178;" horiz-adv-x="674" 
d="M231 -6l62 330l-192 386h164l112 -275l200 275h158l-309 -386l-58 -330h-137zM338 768q-29 0 -45.5 20t-11.5 49t29 49t53 20q28 0 44.5 -20t11.5 -49t-28.5 -49t-52.5 -20zM524 768q-29 0 -45.5 20t-11.5 49t28.5 49t52.5 20q28 0 44.5 -20t11.5 -49t-28 -49t-52 -20z
" />
    <glyph glyph-name="zcaron" unicode="&#x17e;" horiz-adv-x="492" 
d="M-5 -6l18 101l308 288h-248l19 107h400l-18 -103l-311 -285h263l-19 -108h-412zM289 721l29 -57h15l50 57h121l-141 -134h-99l-98 133z" />
    <glyph glyph-name="endash" unicode="&#x2013;" horiz-adv-x="583" 
d="M41 254l19 108h502l-19 -108h-502z" />
    <glyph glyph-name="emdash" unicode="&#x2014;" horiz-adv-x="841" 
d="M41 254l18 105h761l-19 -105h-760z" />
    <glyph glyph-name="quoteleft" unicode="&#x2018;" horiz-adv-x="248" 
d="M158 449q-34 0 -54 24.5t-14 58.5q4 30 27 53l119 141l46 -36l-65 -80q22 -9 33 -30t7 -48q-6 -34 -35.5 -58.5t-63.5 -24.5z" />
    <glyph glyph-name="quoteright" unicode="&#x2019;" horiz-adv-x="248" 
d="M131 450l-46 36l65 80q-22 9 -33 30t-7 48q6 34 35.5 58.5t63.5 24.5t54 -24.5t14 -58.5q-4 -30 -27 -54z" />
    <glyph glyph-name="quotesinglbase" unicode="&#x201a;" horiz-adv-x="248" 
d="M30 -121l-45 36l64 80q-22 9 -32.5 30.5t-6.5 47.5q6 34 34.5 58.5t63.5 24.5t55 -24.5t14 -58.5q-6 -29 -27 -53z" />
    <glyph glyph-name="quotedblleft" unicode="&#x201c;" horiz-adv-x="463" 
d="M373 450q-34 0 -54 24.5t-14 58.5q4 28 26 53l120 141l46 -36l-65 -80q22 -9 33 -30.5t7 -47.5q-6 -34 -35.5 -58.5t-63.5 -24.5zM158 449q-34 0 -54 24.5t-14 58.5q4 30 27 53l119 141l46 -36l-65 -80q22 -9 33 -30t7 -48q-6 -34 -35.5 -58.5t-63.5 -24.5z" />
    <glyph glyph-name="quotedblright" unicode="&#x201d;" horiz-adv-x="464" 
d="M346 450l-45 36l64 80q-22 9 -32.5 30t-6.5 48q6 34 35 58.5t64 24.5q34 0 54 -24.5t14 -58.5q-6 -30 -27 -54zM131 449l-46 36l65 80q-22 9 -33 30t-7 48q6 34 35.5 58.5t63.5 24.5t54 -24.5t14 -58.5q-4 -30 -27 -53z" />
    <glyph glyph-name="quotedblbase" unicode="&#x201e;" horiz-adv-x="464" 
d="M246 -120l-46 36l65 80q-22 9 -33 30.5t-7 47.5q6 34 35.5 58.5t63.5 24.5t54 -24.5t14 -58.5q-4 -28 -26 -53zM30 -121l-45 36l64 80q-22 9 -32.5 30.5t-6.5 47.5q6 34 34.5 58.5t63.5 24.5t55 -24.5t14 -58.5q-6 -29 -27 -53z" />
    <glyph glyph-name="dagger" unicode="&#x2020;" horiz-adv-x="434" 
d="M253 159h-104l53 304h-124l17 101h124l26 145h104l-26 -145h126l-17 -101h-125z" />
    <glyph glyph-name="bullet" unicode="&#x2022;" horiz-adv-x="312" 
d="M148 205q-48 0 -76 34t-19 83q8 47 48 81t88 34t76 -34t20 -81q-8 -49 -48.5 -83t-88.5 -34z" />
    <glyph glyph-name="ellipsis" unicode="&#x2026;" horiz-adv-x="733" 
d="M78 -10q-34 0 -54.5 24.5t-14.5 59.5q6 34 35 58.5t64 24.5q34 0 54 -24.5t14 -58.5t-35 -59t-63 -25zM320 -10q-35 0 -55.5 24.5t-14.5 59.5q6 34 35.5 58.5t63.5 24.5t54 -24.5t14 -58.5t-34.5 -59t-62.5 -25zM564 -10q-34 0 -54.5 24.5t-14.5 59.5q6 34 35.5 58.5
t63.5 24.5t54 -24.5t14 -58.5q-6 -35 -35 -59.5t-63 -24.5z" />
    <glyph glyph-name="guilsinglleft" unicode="&#x2039;" horiz-adv-x="361" 
d="M214 38l-171 229l252 230l58 -65l-182 -165l124 -165z" />
    <glyph glyph-name="guilsinglright" unicode="&#x203a;" horiz-adv-x="361" 
d="M73 39l-59 64l182 164l-124 165l81 66l171 -231z" />
    <glyph glyph-name="Euro" unicode="&#x20ac;" horiz-adv-x="665" 
d="M33 210l17 95h62q1 12 5 33q3 21 7 35h-62l16 95h85q56 101 155.5 164.5t208.5 63.5q85 0 154 -44l-74 -93q-44 27 -106 24q-61 -3 -114.5 -34t-91.5 -81h202l-35 -95h-215q-5 -20 -8 -34q-2 -12 -4 -34h205l-34 -95h-155q21 -53 66.5 -84t109.5 -31q67 0 125 36l34 -103
q-88 -49 -186 -49q-110 0 -186.5 64t-96.5 167h-84z" />
    </font>
</defs>
</svg>
