<?xml version="1.0" standalone="no"?>
<!DOCTYPE svg PUBLIC "-//W3C//DTD SVG 1.1//EN" "http://www.w3.org/Graphics/SVG/1.1/DTD/svg11.dtd" >
<svg xmlns="http://www.w3.org/2000/svg" xmlns:xlink="http://www.w3.org/1999/xlink" version="1.1">
<metadata>
Created by FontForge 20170731 at Wed Apr 29 08:16:27 2020
 By Aleksey,,,
Copyright (c) 2020 by Brent Anderson.
</metadata>
<defs>
<font id="PulpDisplay-RegularItalic" horiz-adv-x="817" >
  <font-face 
    font-family="Pulp Display Italic"
    font-weight="400"
    font-style="italic"
    font-stretch="normal"
    units-per-em="1000"
    panose-1="0 0 8 0 0 0 0 0 0 0"
    ascent="800"
    descent="-200"
    x-height="489"
    cap-height="709"
    bbox="-155 -246 1161 902"
    underline-thickness="50"
    underline-position="-200"
    unicode-range="U+0020-20AC"
  />
<missing-glyph horiz-adv-x="618" 
d="M-5 -7l126 717h538l-126 -717h-538zM98 149l181 201l-111 200zM224 626l112 -213l186 213h-298zM131 79h292l-111 200zM370 350l114 -206l72 412z" />
    <glyph glyph-name=".notdef" horiz-adv-x="618" 
d="M-5 -7l126 717h538l-126 -717h-538zM98 149l181 201l-111 200zM224 626l112 -213l186 213h-298zM131 79h292l-111 200zM370 350l114 -206l72 412z" />
    <glyph glyph-name=".null" horiz-adv-x="0" 
 />
    <glyph glyph-name="nonmarkingreturn" horiz-adv-x="333" 
 />
    <glyph glyph-name="space" unicode=" " horiz-adv-x="310" 
 />
    <glyph glyph-name="exclam" unicode="!" horiz-adv-x="227" 
d="M72 223l72 485h104l-99 -485h-77zM68 -10q-31 0 -48.5 21.5t-12.5 52.5q5 30 30.5 51.5t56.5 21.5q30 0 47.5 -21.5t12.5 -51.5q-5 -31 -30.5 -52.5t-55.5 -21.5z" />
    <glyph glyph-name="numbersign" unicode="#" horiz-adv-x="681" 
d="M30 196l36 89l120 -2l37 123h-125l35 91h122l61 187h90l-61 -188h127l62 187h86l-59 -186l123 -1l-31 -91h-122l-37 -122h123l-33 -87h-122l-66 -200h-85l61 200h-126l-66 -203l-87 2l64 202zM275 282l132 1l38 124h-132z" />
    <glyph glyph-name="dollar" unicode="$" horiz-adv-x="554" 
d="M179 -78l11 62q-65 11 -111.5 57.5t-52.5 129.5l93 31q7 -61 43 -93.5t89 -30.5q59 2 98 22.5t49 77.5q7 42 -30.5 72.5t-134.5 73.5q-70 30 -102.5 76t-19.5 118q10 55 53.5 104.5t120.5 68.5l31 6l11 63h86l-11 -63q58 -10 98 -45t51 -97l-90 -36q-11 55 -59.5 73.5
t-109.5 3.5q-41 -10 -63 -40t-20 -64q3 -30 29.5 -51.5t54.5 -32.5q121 -47 171.5 -100t36.5 -130q-14 -80 -75.5 -130.5t-148.5 -63.5l-11 -62h-87z" />
    <glyph glyph-name="percent" unicode="%" horiz-adv-x="858" 
d="M193 -18l-61 46l564 668l58 -45zM235 358q-74 0 -116 51t-29 123q12 71 71.5 120.5t134.5 49.5q73 0 114.5 -49.5t29.5 -120.5q-13 -72 -72.5 -123t-132.5 -51zM254 434q38 0 70.5 26t40.5 70q7 40 -17 65.5t-61 25.5q-39 0 -72.5 -25.5t-40.5 -65.5q-8 -44 16.5 -70
t63.5 -26zM596 -22q-74 0 -116 51t-29 123q12 71 71.5 120.5t134.5 49.5q73 0 114.5 -49.5t29.5 -120.5q-13 -72 -72.5 -123t-132.5 -51zM607 58q38 0 70.5 26t40.5 70q7 40 -17 65.5t-61 25.5q-39 0 -72.5 -25.5t-40.5 -65.5q-8 -44 16 -70t64 -26z" />
    <glyph glyph-name="ampersand" unicode="&#x26;" horiz-adv-x="646" 
d="M601 244l-54 60l-101 -85l-189 265q-30 47 5 98.5t95 41.5q23 -5 36 -28t8 -53l93 1q17 72 -28.5 124t-121.5 46q-67 -5 -122.5 -45t-74.5 -101t21 -134q-115 -109 -131 -199q-17 -105 35 -167.5t130 -70.5q42 -4 81.5 6t58.5 20.5t50 34t33 24.5l67 -87l81 65l-71 98z
M365 147q-13 -12 -19.5 -17.5t-20.5 -16t-25.5 -15t-26.5 -9.5t-31.5 -4t-34.5 7q-52 17 -69.5 66.5t4 106t72.5 93.5z" />
    <glyph glyph-name="quotesingle" unicode="'" horiz-adv-x="211" 
d="M109 390l-9 192q-2 29 21.5 54t53.5 25q32 0 48.5 -24t3.5 -54q-51 -133 -77 -193h-41z" />
    <glyph glyph-name="parenleft" unicode="(" horiz-adv-x="327" 
d="M369 717q-90 -105 -141.5 -190.5t-71.5 -195.5q-39 -215 72 -415l-84 -51q-61 88 -87.5 208t-3.5 252q23 127 86 231t167 219z" />
    <glyph glyph-name="parenright" unicode=")" horiz-adv-x="327" 
d="M48 -135l-67 51q181 201 218 415q20 110 -1.5 195.5t-75.5 190.5l83 58q64 -114 91 -218.5t4 -231.5q-23 -132 -91.5 -251.5t-160.5 -208.5z" />
    <glyph glyph-name="asterisk" unicode="*" horiz-adv-x="450" 
d="M159 327l-58 53l99 110l-111 40l39 76l111 -40l22 125h83l-20 -124l124 41l11 -79l-124 -39l61 -108l-75 -50l-63 105z" />
    <glyph glyph-name="plus" unicode="+" horiz-adv-x="534" 
d="M273 43h-86l32 184l-183 -1l15 84l183 1l33 184h86l-33 -185h185l-15 -84h-185z" />
    <glyph glyph-name="comma" unicode="," horiz-adv-x="231" 
d="M20 -122l-40 31l68 85q-21 8 -31 27t-6 43q5 30 30.5 51.5t56.5 21.5q29 0 47 -21.5t13 -51.5q-5 -26 -24 -50z" />
    <glyph glyph-name="hyphen" unicode="-" horiz-adv-x="420" 
d="M398 352l-16 -88h-340l16 88h340z" />
    <glyph glyph-name="period" unicode="." horiz-adv-x="227" 
d="M68 -10q-31 0 -48.5 21.5t-12.5 52.5q5 30 30.5 51.5t56.5 21.5q30 0 47.5 -21.5t12.5 -51.5q-5 -31 -30.5 -52.5t-55.5 -21.5z" />
    <glyph glyph-name="slash" unicode="/" horiz-adv-x="473" 
d="M-5 -7l423 719h96l-421 -718z" />
    <glyph glyph-name="zero" unicode="0" horiz-adv-x="643" 
d="M273 -24q-119 0 -181.5 105.5t-35.5 256.5q26 151 126 256.5t219 105.5t181.5 -105.5t36.5 -256.5q-27 -151 -127 -256.5t-219 -105.5zM291 80q79 0 137.5 67.5t80.5 192.5q20 117 -14.5 188.5t-112.5 71.5q-79 0 -138.5 -71t-80.5 -189q-22 -121 13 -190.5t115 -69.5z
" />
    <glyph glyph-name="one" unicode="1" horiz-adv-x="397" 
d="M270 566l-152 -65l-19 82l226 108h69l-123 -697h-102z" />
    <glyph glyph-name="two" unicode="2" horiz-adv-x="534" 
d="M152 91l132 111l36 30t41 35t38 34.5t39.5 39t32 39t29 43.5t18 42.5t9.5 46.5q6 96 -50 142.5t-140 46.5q-143 0 -241 -146l84 -46q18 28 32.5 44.5t44 32t67.5 15.5q43 0 71.5 -24.5t28 -66.5t-38.5 -87q-28 -33 -70 -73t-77.5 -70t-107 -89t-116.5 -97l-17 -100h452
l17 97h-314z" />
    <glyph glyph-name="three" unicode="3" horiz-adv-x="549" 
d="M125 187q20 -111 116 -111q58 0 100.5 33.5t51.5 82.5q11 65 -35.5 95.5t-141.5 21.5l16 91q102 0 146 30.5t49 89.5q3 42 -26 63.5t-72 21.5q-75 0 -132 -88l-82 43q38 64 97 101.5t123 39.5q34 1 67.5 -7t64.5 -27t48.5 -55.5t14.5 -85.5q-2 -35 -15 -64.5t-30 -47
t-35 -30.5t-29.5 -18t-14.5 -5q4 0 15.5 -5t27.5 -18t29.5 -30.5t20 -47t0.5 -64.5q-17 -95 -92.5 -156t-184.5 -61q-51 0 -88 15t-58.5 43t-32.5 53.5t-20 60.5z" />
    <glyph glyph-name="four" unicode="4" horiz-adv-x="599" 
d="M426 -6l25 142h88l16 93h-87l81 462h-112l-403 -475l-14 -79h325l-25 -143h106zM146 230l271 310l-55 -310h-216z" />
    <glyph glyph-name="five" unicode="5" horiz-adv-x="551" 
d="M25 165q6 -91 66 -140t149 -44q34 2 72 14.5t78.5 37.5t71.5 71.5t42 106.5t-2.5 107t-43 72t-61.5 37t-63 12q-18 0 -35.5 -2.5t-29 -5t-25 -8t-19 -8.5t-16.5 -8.5t-12 -6.5l57 203h278l16 88h-366l-103 -358l91 -40q18 19 52.5 35.5t65.5 17.5q53 3 91.5 -28.5
t26.5 -95.5q-13 -71 -59 -108t-99 -37q-108 0 -130 124z" />
    <glyph glyph-name="six" unicode="6" horiz-adv-x="555" 
d="M291 430q74 12 128.5 -15.5t78 -80.5t11.5 -118q-17 -98 -101.5 -167.5t-185.5 -69.5q-98 0 -151.5 70.5t-37.5 162.5q8 44 34 94q15 32 70 100q46 57 252 295l72 -57l-201 -223q10 6 31 9zM253 79q59 0 104 37t55 93t-22 95t-90 39q-59 0 -106.5 -39t-57.5 -95t24 -93
t93 -37z" />
    <glyph glyph-name="seven" unicode="7" horiz-adv-x="528" 
d="M437 587h-338l19 104h447l-18 -106l-401 -591h-117z" />
    <glyph glyph-name="eight" unicode="8" horiz-adv-x="560" 
d="M430 361q43 -28 65.5 -74.5t14.5 -93.5q-17 -97 -94.5 -154.5t-182.5 -57.5q-110 0 -165 57t-38 155q8 47 47 93.5t93 74.5q-75 49 -56 152q14 78 82.5 130t162.5 52q93 0 143.5 -52t36.5 -130q-19 -102 -109 -152zM344 602q-46 0 -84 -29t-46 -70q-7 -41 21 -70t74 -29
t83.5 29t44.5 70q8 41 -19.5 70t-73.5 29zM250 79q68 0 107.5 33.5t47.5 79.5q7 46 -21.5 79t-93.5 33t-106.5 -33.5t-49.5 -78.5t21.5 -79t94.5 -34z" />
    <glyph glyph-name="nine" unicode="9" horiz-adv-x="555" 
d="M198 -21l-72 57l201 223q-8 -4 -31 -9q-74 -12 -128.5 15.5t-78 80.5t-11.5 118q17 98 101.5 167.5t185.5 69.5q98 0 151.5 -70.5t37.5 -161.5q-8 -44 -34 -94q-19 -40 -70 -101q-46 -57 -252 -295zM287 337q59 0 106.5 39t57.5 95t-24 93t-93 37t-104 -37t-55 -93
t22 -95t90 -39z" />
    <glyph glyph-name="colon" unicode=":" horiz-adv-x="227" 
d="M132 352q-31 0 -48.5 21.5t-12.5 52.5q5 30 30.5 51.5t56.5 21.5q30 0 47.5 -21.5t12.5 -51.5q-5 -31 -30.5 -52.5t-55.5 -21.5zM69 -3q-30 0 -48 22t-12 53q5 29 30.5 51t55.5 22t48 -22t13 -51q-6 -31 -31.5 -53t-55.5 -22z" />
    <glyph glyph-name="semicolon" unicode=";" horiz-adv-x="231" 
d="M22 -107l-39 31l68 85q-20 8 -31 27t-7 43q5 30 30.5 51.5t56.5 21.5q30 0 47.5 -21.5t12.5 -51.5q-4 -25 -23 -50zM135 351q-30 0 -48 22t-13 52t31 51.5t56 21.5t47.5 -21.5t12.5 -51.5t-30.5 -52t-55.5 -22z" />
    <glyph glyph-name="equal" unicode="=" horiz-adv-x="537" 
d="M27 175l15 86h457l-15 -86h-457zM61 369l15 88h457l-15 -88h-457z" />
    <glyph glyph-name="question" unicode="?" horiz-adv-x="497" 
d="M191 227q14 75 31.5 105.5t64.5 68.5q5 5 35.5 29t40.5 33.5t24.5 32.5t18.5 47q7 39 -16 66.5t-66 27.5q-41 0 -78.5 -23.5t-60.5 -69.5l-87 37q37 62 98.5 106t127.5 44q98 0 149 -50.5t37 -130.5q-18 -99 -124 -177q-41 -30 -62.5 -62.5t-26.5 -83.5h-106zM203 -10
q-31 0 -48.5 21.5t-12.5 52.5q5 30 30.5 51.5t56.5 21.5q30 0 47.5 -21.5t12.5 -51.5q-5 -31 -30.5 -52.5t-55.5 -21.5z" />
    <glyph glyph-name="at" unicode="@" horiz-adv-x="864" 
d="M661 484l-82 1l-7 -43q-6 13 -35.5 33.5t-66.5 25.5q-66 8 -133 -35t-100 -139q-32 -93 6.5 -158.5t107.5 -75.5q56 -8 107.5 12.5t82.5 58.5q2 -12 5 -20t11.5 -20.5t25.5 -20t42 -8.5q54 -3 97 21t66 63.5t37.5 89t12 98t-10.5 88.5q-28 103 -108 167t-203 65
q-68 1 -139.5 -21.5t-139.5 -66.5t-119 -122t-69 -178q-16 -82 -1.5 -144.5t43.5 -107t72.5 -73.5t86.5 -43t85 -16q93 -5 200 30l-18 73q-71 -34 -171 -28q-103 6 -173 91.5t-49 208.5q21 125 104.5 208.5t203.5 106.5q123 23 210 -31.5t116 -159.5q25 -89 -11 -165
t-79 -85q-34 -7 -45 16.5t-4 66.5zM542 281q-15 -44 -53 -79t-94 -28q-34 5 -55 21t-26 39t-4.5 41.5t5.5 36.5q4 15 13.5 32t26 37.5t44.5 31.5t61 6q58 -8 76.5 -50t5.5 -88z" />
    <glyph glyph-name="A" unicode="A" horiz-adv-x="674" 
d="M477 709l-115 1l-397 -716h112l100 188h297l32 -188h113zM395 595l59 -316h-229z" />
    <glyph glyph-name="B" unicode="B" horiz-adv-x="561" 
d="M123 713h262q85 0 141 -48.5t41 -135.5q-9 -51 -33 -86t-45 -49t-51 -26q49 -22 66 -42q42 -48 25 -144q-11 -59 -56.5 -103t-98 -63.5t-100.5 -19.5h-279zM175 408q138 3 165 3q37 0 74 27.5t47 80.5q5 30 -4 51.5t-28.5 32t-39 15t-40.5 4.5h-137zM121 91q100 2 177 2
q40 0 79 27.5t49 84.5q9 54 -20.5 81.5t-85.5 27.5l-159 -1z" />
    <glyph glyph-name="C" unicode="C" horiz-adv-x="796" 
d="M57 347q29 160 159.5 268.5t279.5 108.5q113 0 194 -64.5t106 -167.5l-114 -25q-23 67 -73 111t-130 44q-119 0 -204.5 -74.5t-107.5 -200.5q-20 -114 43 -187.5t174 -73.5q93 0 158.5 45t102.5 113l104 -31q-47 -95 -159 -164t-226 -69q-152 0 -243 105.5t-64 261.5z
" />
    <glyph glyph-name="D" unicode="D" horiz-adv-x="674" 
d="M-5 -5l128 714h258q156 0 228 -97t43 -259q-29 -164 -140 -261t-270 -97h-247zM117 93q118 2 159 2q83 0 166 67.5t106 197.5q12 68 -3.5 119.5t-48 78t-66.5 39t-66 12.5l-156 -1z" />
    <glyph glyph-name="E" unicode="E" horiz-adv-x="510" 
d="M-5 -4l126 714h428l-18 -99h-323l-36 -204h291l-18 -101h-292l-37 -210h326l-17 -100h-430z" />
    <glyph glyph-name="F" unicode="F" horiz-adv-x="509" 
d="M-5 -6l128 724h429l-19 -103h-323l-39 -221h287l-17 -96h-289l-53 -303z" />
    <glyph glyph-name="G" unicode="G" horiz-adv-x="785" 
d="M455 386h314l-20 -115q-21 -119 -122 -206t-259 -87q-167 0 -253 105.5t-58 263.5q28 159 148.5 271t273.5 112q240 0 297 -189l-110 -41q-19 61 -70 94.5t-124 33.5q-103 0 -194.5 -75.5t-112.5 -199.5q-23 -126 44 -199t174 -73q103 0 173.5 56t86.5 145h-206z" />
    <glyph glyph-name="H" unicode="H" horiz-adv-x="638" 
d="M505 320h-347l-57 -325h-106l126 715h106l-53 -297h347l54 302h104l-127 -721h-105z" />
    <glyph glyph-name="I" unicode="I" horiz-adv-x="227" 
d="M228 709l-127 -716h-106l126 716h107z" />
    <glyph glyph-name="J" unicode="J" horiz-adv-x="533" 
d="M572 715l-81 -475q-22 -126 -94 -194t-172 -68q-45 0 -81 9.5t-58.5 28t-38 37t-23.5 44t-11.5 41.5t-5.5 37l108 26q3 -28 12.5 -52.5t35.5 -46.5t64 -22q127 0 153 147l86 487z" />
    <glyph glyph-name="K" unicode="K" horiz-adv-x="614" 
d="M549 -5l-269 380l362 338h-134l-336 -326l56 322h-107l-126 -715h108l61 345l243 -343z" />
    <glyph glyph-name="L" unicode="L" horiz-adv-x="478" 
d="M431 96l-18 -101h-418l127 718h107l-109 -617h311z" />
    <glyph glyph-name="M" unicode="M" horiz-adv-x="764" 
d="M190 499l-89 -503h-106l127 720h99l169 -419l318 421h99l-128 -722h-108l88 500l-244 -332h-95z" />
    <glyph glyph-name="N" unicode="N" horiz-adv-x="648" 
d="M200 549l260 -555h103l126 715h-106l-93 -527l-246 527h-123l-126 -714h107z" />
    <glyph glyph-name="O" unicode="O" 
d="M360 -26q-153 0 -241.5 111t-60.5 268t155.5 268t280.5 111q152 0 240.5 -111t60.5 -268t-155.5 -268t-279.5 -111zM380 78q108 0 199 81.5t111 192.5q20 112 -42.5 194t-170.5 82t-199.5 -82t-111.5 -194t43 -193t171 -81z" />
    <glyph glyph-name="P" unicode="P" horiz-adv-x="536" 
d="M-5 -4l127 721h235q38 0 75 -11t71.5 -34t51 -68.5t5.5 -106.5t-42.5 -105.5t-73.5 -67t-80 -32.5t-73 -10h-143l-51 -287zM165 376q126 3 138 3q21 0 40.5 4.5t44 16t43 38t25.5 64.5q5 31 -2 53.5t-19.5 34t-31.5 18t-31 8t-25 1.5h-137z" />
    <glyph glyph-name="Q" unicode="Q" 
d="M58 353q28 157 155.5 268t280.5 111q152 0 240.5 -111t60.5 -268q-15 -82 -60 -155t-111 -126l34 -71l-89 -54l-34 68q-87 -41 -175 -41q-153 0 -241.5 111t-60.5 268zM166 352q-20 -112 43 -193t171 -81q56 0 112 25l-53 105l91 54l50 -101q90 81 110 191
q20 112 -42.5 194t-170.5 82t-199.5 -82t-111.5 -194z" />
    <glyph glyph-name="R" unicode="R" horiz-adv-x="576" 
d="M-5 -4l127 718h249q97 0 152 -61.5t39 -154.5q-15 -87 -81 -145t-126 -58l156 -300h-127l-137 285h-97l-51 -286zM313 377q53 0 95 31.5t53 89.5q10 57 -25.5 89t-83.5 32h-142l-42 -242h145z" />
    <glyph glyph-name="S" unicode="S" horiz-adv-x="579" 
d="M28 182q-1 -98 66.5 -152t170.5 -49q104 5 176.5 60t87.5 152q8 49 -2 84.5t-42 63.5t-69.5 47t-104.5 45q-34 11 -60.5 32.5t-29.5 48.5q-4 29 14 59.5t65 49.5q38 13 72.5 13t63 -23.5t39.5 -67.5l101 44q-17 62 -59.5 98.5t-94.5 42t-109 -4.5q-79 -17 -130 -67
t-65 -112q-16 -65 16.5 -118.5t99.5 -77.5q54 -19 87.5 -33.5t61.5 -34.5t37 -43.5t1 -53.5q-13 -54 -60 -83.5t-109 -23.5q-46 5 -81 42t-38 95z" />
    <glyph glyph-name="T" unicode="T" horiz-adv-x="547" 
d="M285 616h-201l18 101h508l-18 -101h-198l-110 -622h-109z" />
    <glyph glyph-name="U" unicode="U" horiz-adv-x="625" 
d="M587 263q-7 -37 -19 -72t-36.5 -74.5t-58 -68.5t-86 -48t-116.5 -19q-56 0 -99 13.5t-68 37t-41 51t-21.5 59.5t-5.5 59t5 53l80 456h109l-82 -462q-13 -73 24.5 -121t112.5 -48q74 0 126.5 47t64.5 117l82 466h107z" />
    <glyph glyph-name="V" unicode="V" horiz-adv-x="686" 
d="M102 713h120l104 -572l304 571h117l-395 -717h-110z" />
    <glyph glyph-name="W" unicode="W" horiz-adv-x="957" 
d="M494 620h99l73 -451l229 539h123l-328 -713h-98l-77 471l-231 -470h-106l-77 712h122l41 -537z" />
    <glyph glyph-name="X" unicode="X" horiz-adv-x="662" 
d="M99 -8l-124 1l308 370l-167 352h126l125 -268l213 265h125l-288 -349l180 -371h-127l-137 290z" />
    <glyph glyph-name="Y" unicode="Y" horiz-adv-x="635" 
d="M284 324l-183 386h127l126 -285l216 285h126l-304 -386l-58 -330h-110z" />
    <glyph glyph-name="Z" unicode="Z" horiz-adv-x="589" 
d="M-5 -6l18 105l463 511h-359l18 101h493l-18 -100l-475 -517h386l-17 -99z" />
    <glyph glyph-name="bracketleft" unicode="[" horiz-adv-x="301" 
d="M193 -132h-220l162 922h220l-15 -84h-120l-133 -753h121z" />
    <glyph glyph-name="backslash" unicode="\" horiz-adv-x="473" 
d="M121 712h96l171 -719l-98 1z" />
    <glyph glyph-name="bracketright" unicode="]" horiz-adv-x="301" 
d="M-27 -132l15 85h121l132 753h-120l15 84h220l-163 -922h-220z" />
    <glyph glyph-name="underscore" unicode="_" horiz-adv-x="592" 
d="M-20 -90l15 86h512l-15 -86h-512z" />
    <glyph glyph-name="a" unicode="a" horiz-adv-x="522" 
d="M196 -17q-78 -11 -131.5 30t-46.5 110q17 142 181 171q99 17 182 -4q7 23 9 45.5t-13 43.5t-46 29q-49 13 -94.5 -1.5t-73.5 -59.5l-81 43q33 53 101 88q44 23 105.5 27.5t110.5 -14.5q53 -21 77 -69t16 -99l-55 -328l-100 1l7 64q-56 -64 -148 -77zM238 69q58 13 95 55
t39 83q-39 8 -76 10.5t-75.5 -1.5t-64.5 -23.5t-32 -53.5q-7 -37 27.5 -60t86.5 -10z" />
    <glyph glyph-name="b" unicode="b" horiz-adv-x="578" 
d="M178 433q74 78 186 71q77 -5 130 -62t47 -158q-4 -64 -26.5 -117.5t-54.5 -87.5t-70 -57t-73 -32.5t-65 -7.5q-48 2 -87 22t-57 50l-15 -58l-98 -1l131 730l104 -1zM139 243q-12 -70 18.5 -118.5t95.5 -50.5q64 -2 115 46.5t64 120.5q14 77 -19.5 125t-95.5 45
t-113.5 -47t-64.5 -121z" />
    <glyph glyph-name="c" unicode="c" horiz-adv-x="542" 
d="M289 408q16 4 36.5 1t39.5 -10t36 -26.5t25 -49.5l100 33q-13 66 -68 111.5t-146 39.5q-96 -6 -179.5 -78t-102.5 -181q-20 -113 33.5 -189.5t153.5 -80.5q90 -4 160.5 34.5t112.5 113.5l-88 37q-21 -42 -67 -67t-97 -21q-57 5 -87 53.5t-19 118.5q9 59 54 106.5
t103 54.5z" />
    <glyph glyph-name="d" unicode="d" horiz-adv-x="581" 
d="M622 725l-126 -730l-103 1l6 60q-29 -33 -77 -55t-100 -22q-42 0 -80 18.5t-67 55t-38 90t7 124.5q14 57 43 102t64.5 72t71.5 42t72 19q49 6 98.5 -10.5t75.5 -66.5l52 299zM432 242q13 72 -17 118.5t-99 47.5q-61 2 -112 -46.5t-64 -120.5q-12 -70 22.5 -119t99.5 -46
q52 2 90.5 30.5t55.5 62.5t24 73z" />
    <glyph glyph-name="e" unicode="e" horiz-adv-x="568" 
d="M39 244q-20 -112 34 -186t170 -74q89 0 157.5 43.5t100.5 97.5l-91 27q-59 -85 -161 -80q-37 1 -63.5 19t-35.5 41t-13.5 47t0.5 39l385 4q34 135 -24 208.5t-165 73.5q-106 0 -189 -68.5t-105 -191.5zM160 302q12 43 50.5 75t86.5 36q70 7 104 -30.5t27 -79.5z" />
    <glyph glyph-name="f" unicode="f" horiz-adv-x="352" 
d="M405 625q-22 7 -41 7t-31.5 -3.5t-23 -15.5t-16.5 -20t-11 -26.5t-7 -26t-5 -27.5t-3 -22h119l-15 -92h-121l-71 -403l-105 -1l71 404h-88l15 92h52q24 0 30.5 5.5t10.5 30.5q15 77 42 117q43 57 107 77t140 -5z" />
    <glyph glyph-name="g" unicode="g" horiz-adv-x="578" 
d="M482 491l-12 -63q-53 74 -145 75.5t-173 -62t-106 -161.5q-24 -94 0.5 -168t86.5 -105q36 -19 80 -22.5t96.5 15.5t95.5 63q-19 -107 -64 -156.5t-123 -49.5q-86 0 -117 86l-105 -31q40 -162 226 -149q116 9 187 83t91 187q3 19 32 188.5t47 268.5zM251 79q-58 0 -91 48
t-20 116q12 68 56.5 113.5t102.5 53.5q63 8 107.5 -37.5t29.5 -129.5q-15 -83 -68.5 -123.5t-116.5 -40.5z" />
    <glyph glyph-name="h" unicode="h" horiz-adv-x="527" 
d="M-4 -5l128 730l105 -1l-52 -298q18 28 66.5 52t98.5 24q46 0 79 -14.5t49 -35.5t23 -50.5t6.5 -55t-5.5 -53.5l-52 -298h-107l49 280q25 138 -80 138q-52 0 -97 -38.5t-56 -99.5l-50 -280h-105z" />
    <glyph glyph-name="i" unicode="i" horiz-adv-x="223" 
d="M171 585q-30 0 -47.5 20t-12.5 50t29.5 50t54.5 20t47 -20t12 -50t-29.5 -50t-53.5 -20zM207 493l-88 -500h-106l89 500h105z" />
    <glyph glyph-name="j" unicode="j" horiz-adv-x="199" 
d="M147 588q-30 0 -47 20t-12 50t29.5 50t54.5 20q29 0 46 -20t12 -50t-29.5 -50t-53.5 -20zM-12 -13q-17 -98 -39 -110q-28 -18 -64 1l-40 -82q48 -24 86 -24q39 0 69 17.5t46.5 46t25.5 52.5t13 49l10 57l88 499h-105z" />
    <glyph glyph-name="k" unicode="k" horiz-adv-x="527" 
d="M321 -5l-176 239l-42 -239h-108l129 732h109l-78 -444l240 209h135l-268 -231l200 -266h-141z" />
    <glyph glyph-name="l" unicode="l" horiz-adv-x="228" 
d="M251 723l-129 -730h-107l128 730h108z" />
    <glyph glyph-name="m" unicode="m" horiz-adv-x="836" 
d="M82 488h98l-12 -70q10 12 26.5 26.5t52.5 34.5t71 24q72 9 110 -19.5t49 -69.5q52 75 165 89q53 6 90.5 -9t53.5 -43.5t23.5 -63t-0.5 -66.5l-58 -325h-105l50 285q23 129 -59 129q-69 0 -110 -42.5t-53 -112.5l-46 -260h-105l45 257q6 41 7.5 76t-15.5 58t-54 23
q-134 0 -164 -177l-42 -237h-105z" />
    <glyph glyph-name="n" unicode="n" horiz-adv-x="519" 
d="M82 488h98l-12 -70q63 75 141 84q75 9 119.5 -18t57.5 -70q13 -45 -6 -159l-46 -260h-105l47 266q6 44 7 78t-26 53.5t-86 16.5q-39 -3 -79 -46.5t-54 -120.5l-43 -247h-100z" />
    <glyph glyph-name="o" unicode="o" horiz-adv-x="605" 
d="M39 245q20 109 109 185t200 76t173.5 -76.5t42.5 -184.5q-19 -109 -109 -188t-200 -79t-172.5 79t-43.5 188zM146 244q-14 -76 24.5 -123t102.5 -47t118 46.5t68 123.5q12 73 -26 120.5t-100 47.5q-63 0 -118.5 -47.5t-68.5 -120.5z" />
    <glyph glyph-name="p" unicode="p" horiz-adv-x="564" 
d="M-37 -198l119 689l94 -1l-4 -52q59 69 167 69q42 0 80.5 -18.5t67.5 -55t38 -90t-7 -124.5q-19 -75 -63.5 -128.5t-91.5 -77t-97 -29.5q-44 -5 -89.5 7.5t-73.5 47.5l-40 -236zM133 243q-13 -72 17 -118.5t99 -47.5q61 -2 112 46.5t64 120.5q12 69 -22.5 118t-99.5 47
q-52 -2 -90.5 -30.5t-55.5 -62.5t-24 -73z" />
    <glyph glyph-name="q" unicode="q" horiz-adv-x="564" 
d="M443 -198l-99 1l42 236q-41 -35 -90 -47.5t-92 -7.5q-35 4 -65.5 19t-57 42t-39 72t-6.5 102q7 67 36.5 123.5t70 91.5t85.5 54t87 19q108 0 144 -69l14 52l93 1zM254 77q69 1 115.5 47t59.5 119q4 36 1 72t-32 64t-81 30q-64 2 -116 -47t-64 -118q-13 -72 21.5 -120.5
t95.5 -46.5z" />
    <glyph glyph-name="r" unicode="r" horiz-adv-x="331" 
d="M94 -4l26 150q23 132 34 160q12 28 34 49q34 32 83.5 43.5t76.5 -3.5l44 89q-22 15 -57.5 17.5t-63.5 -7.5q-70 -24 -104 -81l13 73h-98l-87 -489z" />
    <glyph glyph-name="s" unicode="s" horiz-adv-x="498" 
d="M376 352q-7 30 -34.5 46.5t-68.5 16.5q-39 0 -65 -16t-31 -42q-6 -32 36 -48q15 -6 109 -30q72 -18 98 -57t17 -88q-11 -63 -74.5 -109t-165.5 -46q-78 0 -124 41t-56 99l99 39q4 -28 26.5 -53.5t50.5 -32.5q38 -9 84.5 4.5t54.5 54.5q5 23 -16.5 40.5t-49 25.5
t-64.5 16.5t-48 12.5q-40 15 -64 49t-17 75q10 56 59 100.5t131 54.5q43 5 85 -2t79 -36t45 -78z" />
    <glyph glyph-name="t" unicode="t" horiz-adv-x="385" 
d="M301 3q-68 -27 -133 -12q-40 9 -61 36t-22 57t2 61l45 252h-86l16 92h62q20 0 26 5.5t9 22.5l21 120h97l-26 -148h121l-16 -92h-122l-30 -169q-18 -106 -6 -124q13 -18 40.5 -21.5t44.5 7.5z" />
    <glyph glyph-name="u" unicode="u" horiz-adv-x="530" 
d="M349 56q-14 -26 -61 -50.5t-108 -24.5q-48 0 -81.5 17t-48.5 41t-21 54.5t-5 51t4 38.5l54 307h108l-52 -294q-3 -28 -1.5 -55.5t26.5 -47.5t71 -20q51 0 91.5 40t46.5 77l53 301h107l-87 -496h-101z" />
    <glyph glyph-name="v" unicode="v" horiz-adv-x="528" 
d="M176 -5l-124 494l115 1l76 -361l206 361l111 -1l-298 -494h-86z" />
    <glyph glyph-name="w" unicode="w" horiz-adv-x="798" 
d="M717 488l-165 -360l-55 365h-102l-181 -361l-49 358h-103l74 -495h104l180 363l53 -364h105l242 494h-103z" />
    <glyph glyph-name="x" unicode="x" horiz-adv-x="513" 
d="M102 -5h-127l215 248l-128 246h127l80 -163l134 163l127 -1l-214 -242l132 -251h-127l-82 174z" />
    <glyph glyph-name="y" unicode="y" horiz-adv-x="554" 
d="M30 -226l157 243l-125 473l114 -1l86 -346l200 346h114l-435 -715h-111z" />
    <glyph glyph-name="z" unicode="z" horiz-adv-x="482" 
d="M-5 -6l15 86l329 318h-263l16 92h390l-15 -88l-327 -315h273l-16 -93h-402z" />
    <glyph glyph-name="braceleft" unicode="{" horiz-adv-x="363" 
d="M268 -66q-72 0 -86.5 22.5t-3.5 85.5q3 16 11 65.5t15 89.5q9 52 -9.5 89t-53.5 37q30 0 65 37t44 88q5 29 10.5 64t14.5 82q12 72 32.5 94t93.5 22l14 78q-167 0 -207 -96q-8 -20 -18 -76q-1 -4 -30 -158q-15 -91 -99 -91l-16 -89q46 0 59.5 -24t8.5 -55
q-2 -10 -9.5 -64t-17.5 -111q-15 -85 20 -126.5t148 -41.5z" />
    <glyph glyph-name="bar" unicode="|" horiz-adv-x="162" 
d="M119 700h82l-150 -852h-82z" />
    <glyph glyph-name="braceright" unicode="}" horiz-adv-x="363" 
d="M-29 -144l13 78q38 0 61 5.5t36.5 21t19 32t11.5 49.5q3 16 12.5 65.5t16.5 89.5q9 52 40.5 89t66.5 37q-30 0 -52 37t-13 88q4 22 11 59t16 87q16 65 1.5 90.5t-87.5 25.5l14 78q161 0 172 -88q3 -23 -8 -84q-6 -31 -14 -84t-12 -74q-15 -91 68 -91l-16 -89
q-46 0 -68 -24.5t-27 -54.5q-1 -7 -7 -33t-13 -61.5t-15 -80.5q-15 -85 -65 -126.5t-162 -41.5z" />
    <glyph glyph-name="exclamdown" unicode="&#xa1;" horiz-adv-x="227" 
d="M-18 -211l99 486h77l-72 -486h-104zM159 508q30 0 48 -22t12 -52q-5 -30 -30 -51.5t-56 -21.5q-30 0 -48 21.5t-13 51.5q6 30 31.5 52t55.5 22z" />
    <glyph glyph-name="cent" unicode="&#xa2;" horiz-adv-x="560" 
d="M57 346q-19 -103 29.5 -177t127.5 -87l-15 -82h87l15 83q138 20 214 141l-82 32q-55 -93 -172 -85q-61 3 -89.5 54t-15.5 120q11 65 57 111.5t104 52.5q111 12 140 -86l94 30q-28 124 -160 144l15 83h-87l-14 -83q-85 -16 -158 -86t-90 -165z" />
    <glyph glyph-name="sterling" unicode="&#xa3;" horiz-adv-x="562" 
d="M421 146q-24 -56 -111 -56q-10 0 -53.5 -0.5t-104.5 -0.5q31 22 54 68.5t31 87.5h108l14 80h-124q-77 160 -9 225q30 30 71.5 36.5t75 -14.5t42.5 -62l99 40q-21 60 -62 94.5t-87 39.5t-93 -6t-85.5 -37.5t-59.5 -59.5q-71 -111 4 -255h-77l-14 -80h101q-8 -49 -39 -96
t-86 -70l-15 -84l257 -2q77 -1 121 11.5t68.5 37t50.5 76.5z" />
    <glyph glyph-name="yen" unicode="&#xa5;" horiz-adv-x="627" 
d="M115 676h116l118 -269l201 268h112l-214 -280h120l-14 -82h-173l-14 -79h174l-15 -83h-174l-27 -156h-104l27 156h-172l15 83h172l14 81h-170l14 80h120z" />
    <glyph glyph-name="section" unicode="&#xa7;" horiz-adv-x="545" 
d="M-12 -46q5 -97 67.5 -145.5t152.5 -42.5q97 6 166 60t81 143q10 72 -44 127q80 57 94 152q10 71 -33.5 118t-160.5 93q-18 7 -35 16t-36 26.5t-20 33.5q-5 55 60 86q66 27 111.5 3.5t55.5 -77.5l96 38q-19 96 -90 128t-163 11q-73 -17 -118.5 -67t-56.5 -108
q-13 -73 55 -137q-81 -51 -101 -134q-30 -125 109 -179q104 -40 131 -58q49 -33 42 -76q-10 -58 -60 -86t-99 -19q-48 9 -71.5 43t-27.5 94zM177 260q-2 29 20.5 60t62.5 42q88 -34 108 -48q37 -28 28 -81q-5 -29 -25 -51t-45 -28q-33 17 -64 28q-81 31 -85 78z" />
    <glyph glyph-name="copyright" unicode="&#xa9;" horiz-adv-x="833" 
d="M369 -25q-156 0 -247.5 110.5t-63.5 266.5q27 155 157 265.5t286 110.5q155 0 246 -110.5t64 -265.5q-28 -156 -157.5 -266.5t-284.5 -110.5zM385 150q-77 3 -118.5 62t-25.5 147q14 83 78.5 138.5t138.5 60.5q71 5 114 -30.5t52 -85.5l-77 -26q-23 78 -106 66
q-45 -6 -79 -42t-43 -82q-9 -54 15 -91.5t68 -41.5q39 -4 74.5 15.5t51.5 51.5l68 -28q-66 -120 -211 -114zM382 49q125 0 229 89t126 214q22 124 -51 213t-198 89t-229.5 -88.5t-126.5 -213.5t51.5 -214t198.5 -89z" />
    <glyph glyph-name="ordfeminine" unicode="&#xaa;" horiz-adv-x="394" 
d="M192 288q-56 -8 -94 21t-34 77q6 48 34 76t85 41q61 15 130 -2q23 55 -37 71q-67 18 -110 -38l-57 36q25 37 69 60q31 16 75 19.5t80 -9.5q38 -15 56 -48t12 -68l-38 -227l-72 1l5 44q-40 -44 -104 -54zM224 368q73 17 75 61q-21 3 -30 4.5t-28.5 3.5t-30 0t-24 -5.5
t-20.5 -12t-9 -21.5q-4 -19 16 -28t51 -2z" />
    <glyph glyph-name="guillemotleft" unicode="&#xab;" horiz-adv-x="548" 
d="M210 43l-167 223l246 225l49 -56l-187 -169l127 -170zM412 44l-167 223l246 226l49 -57l-187 -169l127 -169z" />
    <glyph glyph-name="registered" unicode="&#xae;" horiz-adv-x="460" 
d="M245 335q-79 0 -125 55.5t-32 134.5q14 78 79.5 134t144.5 56q78 0 124 -56t32 -134q-13 -79 -79 -134.5t-144 -55.5zM252 374q62 1 114 45t63 107q11 62 -25.5 106t-98.5 44t-114.5 -44t-63.5 -106q-11 -63 25.5 -108t99.5 -44zM196 431l35 198h71q26 0 41.5 -17.5
t11.5 -42.5q-4 -24 -22.5 -39.5t-35.5 -15.5l44 -83h-38l-38 79h-24l-14 -79h-31zM283 536q15 0 26.5 8.5t14.5 24.5q2 14 -7 23t-23 9h-37l-11 -65h37z" />
    <glyph glyph-name="degree" unicode="&#xb0;" horiz-adv-x="370" 
d="M214 412q-59 0 -94.5 42.5t-25.5 100.5q10 60 60.5 102t109.5 42q60 0 95 -42t25 -102q-11 -59 -61 -101t-109 -42zM228 477q32 0 59 23t33 57q5 31 -13.5 54.5t-50.5 23.5q-31 0 -60 -24t-34 -54q-6 -33 14 -56.5t52 -23.5z" />
    <glyph glyph-name="uni00B2" unicode="&#xb2;" horiz-adv-x="332" 
d="M168 408l52 49q7 7 30 27t35.5 33t29.5 32.5t25.5 38.5t9.5 38q3 50 -30 74.5t-80 24.5q-79 0 -132 -89l54 -25q30 48 67 48q33 0 44.5 -23.5t-16.5 -59.5q-60 -68 -181 -161l-12 -69h245l11 62h-152z" />
    <glyph glyph-name="uni00B3" unicode="&#xb3;" horiz-adv-x="330" 
d="M178 343q-88 0 -105 92l72 20q5 -33 29.5 -43.5t50 2.5t31.5 41t-14 40.5t-71 12.5l10 57q61 3 86 38q19 26 -3 40q-8 6 -22 7q-14 8 -36 -2t-36 -34l-52 31q19 33 52.5 54t66.5 23q43 1 76 -20.5t30 -71.5q-2 -28 -18.5 -49t-30.5 -29t-18 -8q5 0 18 -8t25.5 -29.5
t7.5 -48.5q-9 -51 -50 -83t-99 -32z" />
    <glyph glyph-name="periodcentered" unicode="&#xb7;" horiz-adv-x="227" 
d="M113 243q-31 0 -48.5 21.5t-12.5 52.5q5 30 30.5 51.5t56.5 21.5q29 0 47 -21.5t13 -51.5t-30.5 -52t-55.5 -22z" />
    <glyph glyph-name="uni00B9" unicode="&#xb9;" horiz-adv-x="251" 
d="M208 639l-71 -31l-25 52l122 58h60l-65 -368h-72z" />
    <glyph glyph-name="ordmasculine" unicode="&#xba;" horiz-adv-x="456" 
d="M79 472q14 78 78 132t144 54q79 0 123.5 -54.5t30.5 -131.5q-14 -78 -78 -134.5t-143 -55.5q-79 0 -124 56t-31 134zM174 471q-7 -46 15.5 -73.5t60.5 -27.5t70 27.5t41 73.5q8 43 -15 71t-60 28q-38 0 -71.5 -28t-40.5 -71z" />
    <glyph glyph-name="guillemotright" unicode="&#xbb;" horiz-adv-x="548" 
d="M63 44l-49 54l187 169l-128 169l69 57l167 -226zM264 43l-49 53l187 170l-128 169l69 56l167 -225z" />
    <glyph glyph-name="questiondown" unicode="&#xbf;" horiz-adv-x="497" 
d="M305 272q-13 -75 -30.5 -105t-64.5 -68q-9 -7 -30 -23.5t-31 -26t-24.5 -24.5t-22.5 -32t-11 -36q-7 -39 15.5 -66.5t66.5 -27.5q41 0 78.5 23t60.5 69l86 -37q-36 -62 -97.5 -106t-127.5 -44q-98 0 -149 50.5t-37 130.5q18 99 124 177q41 30 62.5 62.5t26.5 83.5h105z
M294 509q31 0 48.5 -21.5t12.5 -52.5q-5 -30 -31 -51.5t-56 -21.5t-47.5 22t-12.5 51q5 31 30.5 52.5t55.5 21.5z" />
    <glyph glyph-name="Agrave" unicode="&#xc0;" horiz-adv-x="674" 
d="M-35 -6l397 716l115 -1l142 -715h-113l-32 188h-297l-100 -188h-112zM225 279h229l-59 316zM405 764l-67 138h127l19 -138h-79z" />
    <glyph glyph-name="Aacute" unicode="&#xc1;" horiz-adv-x="682" 
d="M-35 -6l397 716l122 -1l142 -715h-112l-33 188h-297l-99 -188h-120zM233 279h229l-59 316zM384 764l67 138h127l-115 -138h-79z" />
    <glyph glyph-name="Acircumflex" unicode="&#xc2;" horiz-adv-x="674" 
d="M-35 -6l397 716l115 -1l142 -715h-113l-32 188h-297l-100 -188h-112zM225 279h229l-59 316zM379 761l-108 1l145 133h69l94 -134h-106l-30 57h-15z" />
    <glyph glyph-name="Atilde" unicode="&#xc3;" horiz-adv-x="674" 
d="M477 709l-115 1l-397 -716h112l100 188h297l32 -188h113zM395 595l59 -316h-229zM267 778q20 115 121 115q34 0 68 -18t45 -18q36 0 44 37h70q-21 -115 -123 -115q-30 0 -65.5 18.5t-52.5 18.5q-31 0 -38 -38h-69z" />
    <glyph glyph-name="Adieresis" unicode="&#xc4;" horiz-adv-x="674" 
d="M477 709l-115 1l-397 -716h112l100 188h297l32 -188h113zM395 595l59 -316h-229zM341 768q-26 0 -41 18t-10 44t26 43.5t47 17.5q25 0 40 -17.5t10 -43.5q-4 -26 -25 -44t-47 -18zM512 768q-26 0 -41 18t-10 44t25.5 43.5t46.5 17.5q25 0 40 -17.5t10 -43.5
q-4 -26 -24.5 -44t-46.5 -18z" />
    <glyph glyph-name="Aring" unicode="&#xc5;" horiz-adv-x="674" 
d="M-35 -6l366 660q-23 16 -34.5 42.5t-6.5 52.5q10 55 56 94t101 39t87 -39t22 -94q-4 -26 -22.5 -52.5t-45.5 -41.5l131 -661h-113l-32 188h-297l-100 -188h-112zM225 279h229l-59 316zM416 704q21 0 39.5 15.5t22.5 37.5q4 21 -9 36.5t-34 15.5q-22 0 -40 -15.5
t-22 -36.5q-4 -22 8.5 -37.5t34.5 -15.5z" />
    <glyph glyph-name="AE" unicode="&#xc6;" horiz-adv-x="971" 
d="M-5 -6l541 716h46h428l-18 -99h-321l-36 -204h289l-18 -103h-290l-37 -207h325l-18 -101h-430l33 186h-238l-143 -188h-113zM322 279h184l55 309z" />
    <glyph glyph-name="Ccedilla" unicode="&#xc7;" horiz-adv-x="796" 
d="M57 347q29 160 159.5 268.5t279.5 108.5q113 0 194 -64.5t106 -167.5l-114 -25q-23 67 -73 111t-130 44q-119 0 -204.5 -74.5t-107.5 -200.5q-20 -114 43 -187.5t174 -73.5q93 0 158.5 45t102.5 113l104 -31q-44 -90 -147.5 -157.5t-212.5 -74.5l-23 -36q42 10 73 -16.5
t22 -75.5t-44 -74t-83 -25q-61 0 -84 65l69 28q5 -29 30 -29q13 0 25 9t15 25q3 15 -6 24.5t-22 9.5q-18 0 -30 -14l-57 28l50 82q-137 15 -215 117.5t-52 247.5z" />
    <glyph glyph-name="Egrave" unicode="&#xc8;" horiz-adv-x="510" 
d="M-5 -4l126 714h428l-18 -99h-323l-36 -204h291l-18 -101h-292l-37 -210h326l-17 -100h-430zM295 764l-67 138h127l19 -138h-79z" />
    <glyph glyph-name="Eacute" unicode="&#xc9;" horiz-adv-x="510" 
d="M-5 -4l126 714h428l-18 -99h-323l-36 -204h291l-18 -101h-292l-37 -210h326l-17 -100h-430zM283 764l67 138h127l-115 -138h-79z" />
    <glyph glyph-name="Ecircumflex" unicode="&#xca;" horiz-adv-x="510" 
d="M-5 -4l126 714h428l-18 -99h-323l-36 -204h291l-18 -101h-292l-37 -210h326l-17 -100h-430zM281 761l-108 1l145 133h69l94 -134h-106l-30 57h-15z" />
    <glyph glyph-name="Edieresis" unicode="&#xcb;" horiz-adv-x="510" 
d="M-5 -4l126 714h428l-18 -99h-323l-36 -204h291l-18 -101h-292l-37 -210h326l-17 -100h-430zM246 768q-26 0 -41 18t-10 44t26 43.5t47 17.5q25 0 40 -17.5t10 -43.5q-4 -26 -25 -44t-47 -18zM417 768q-26 0 -41 18t-10 44t25.5 43.5t46.5 17.5q25 0 40 -17.5t10 -43.5
q-4 -26 -24.5 -44t-46.5 -18z" />
    <glyph glyph-name="Igrave" unicode="&#xcc;" horiz-adv-x="295" 
d="M62 -7l127 716h106l-126 -716h-107zM222 764l-67 138h127l19 -138h-79z" />
    <glyph glyph-name="Iacute" unicode="&#xcd;" horiz-adv-x="292" 
d="M-5 -7l127 716h106l-126 -716h-107zM132 764l67 138h127l-115 -138h-79z" />
    <glyph glyph-name="Icircumflex" unicode="&#xce;" horiz-adv-x="428" 
d="M98 -7l126 716h107l-126 -716h-107zM238 761l-108 1l145 133h69l94 -134h-106l-30 57h-15z" />
    <glyph glyph-name="Idieresis" unicode="&#xcf;" horiz-adv-x="413" 
d="M87 -7l126 716h107l-126 -716h-107zM193 768q-26 0 -41 18t-10 44t26 43.5t47 17.5q25 0 40 -17.5t10 -43.5q-4 -26 -25 -44t-47 -18zM364 768q-26 0 -41 18t-10 44t25.5 43.5t46.5 17.5q25 0 40 -17.5t10 -43.5q-4 -26 -24.5 -44t-46.5 -18z" />
    <glyph glyph-name="Ntilde" unicode="&#xd1;" horiz-adv-x="648" 
d="M460 -6l-260 555l-98 -554h-107l126 714h123l246 -527l93 527h106l-126 -715h-103zM267 778q20 115 121 115q34 0 68 -18t46 -18q16 0 28 10t15 27h70q-19 -115 -123 -115q-30 0 -65 18.5t-53 18.5q-31 0 -38 -38h-69z" />
    <glyph glyph-name="Ograve" unicode="&#xd2;" 
d="M360 -26q-153 0 -241.5 111t-60.5 268t155.5 268t280.5 111q152 0 240.5 -111t60.5 -268t-155.5 -268t-279.5 -111zM380 78q108 0 199 81.5t111 192.5q20 112 -42.5 194t-170.5 82t-199.5 -82t-111.5 -194t43 -193t171 -81zM463 764l-66 138h127l18 -138h-79z" />
    <glyph glyph-name="Oacute" unicode="&#xd3;" 
d="M360 -26q-153 0 -241.5 111t-60.5 268t155.5 268t280.5 111q152 0 240.5 -111t60.5 -268t-155.5 -268t-279.5 -111zM380 78q108 0 199 81.5t111 192.5q20 112 -42.5 194t-170.5 82t-199.5 -82t-111.5 -194t43 -193t171 -81zM461 764l67 138h127l-115 -138h-79z" />
    <glyph glyph-name="Ocircumflex" unicode="&#xd4;" 
d="M360 -26q-153 0 -241.5 111t-60.5 268t155.5 268t280.5 111q152 0 240.5 -111t60.5 -268t-155.5 -268t-279.5 -111zM380 78q108 0 199 81.5t111 192.5q20 112 -42.5 194t-170.5 82t-199.5 -82t-111.5 -194t43 -193t171 -81zM448 761l-107 1l144 133h69l94 -134h-106
l-30 57h-15z" />
    <glyph glyph-name="Otilde" unicode="&#xd5;" 
d="M360 -26q-153 0 -241.5 111t-60.5 268t155.5 268t280.5 111q152 0 240.5 -111t60.5 -268t-155.5 -268t-279.5 -111zM380 78q108 0 199 81.5t111 192.5q20 112 -42.5 194t-170.5 82t-199.5 -82t-111.5 -194t43 -193t171 -81zM348 778q20 115 122 115q34 0 67.5 -18
t45.5 -18q37 0 43 37h71q-21 -115 -123 -115q-30 0 -65.5 18.5t-52.5 18.5q-31 0 -38 -38h-70z" />
    <glyph glyph-name="Odieresis" unicode="&#xd6;" 
d="M360 -26q-153 0 -241.5 111t-60.5 268t155.5 268t280.5 111q152 0 240.5 -111t60.5 -268t-155.5 -268t-279.5 -111zM380 78q108 0 199 81.5t111 192.5q20 112 -42.5 194t-170.5 82t-199.5 -82t-111.5 -194t43 -193t171 -81zM413 768q-26 0 -41 18t-10 44t25.5 43.5
t46.5 17.5q25 0 40 -17.5t10 -43.5q-4 -26 -24.5 -44t-46.5 -18zM583 768q-26 0 -41 18t-10 44t26 43.5t47 17.5q25 0 40 -17.5t10 -43.5q-4 -26 -25 -44t-47 -18z" />
    <glyph glyph-name="multiply" unicode="&#xd7;" horiz-adv-x="522" 
d="M326 268l131 -158l-69 -57l-134 157l-192 -157l-46 57l187 157l-132 158l69 59l136 -160l189 160l47 -60z" />
    <glyph glyph-name="Oslash" unicode="&#xd8;" 
d="M170 -53l-80 54l49 61q-111 113 -81 291q28 157 155.5 268t280.5 111q82 0 151 -36l50 63l79 -55l-53 -67q104 -114 74 -284q-28 -157 -155.5 -268t-279.5 -111q-80 0 -143 33zM213 155l360 451q-44 22 -96 22q-108 0 -199.5 -82t-111.5 -194q-20 -116 47 -197zM380 78
q108 0 199 81.5t111 192.5q20 113 -43 193l-357 -449q43 -18 90 -18z" />
    <glyph glyph-name="Ugrave" unicode="&#xd9;" horiz-adv-x="625" 
d="M271 -19q-56 0 -99 13.5t-68 37t-41 51t-21.5 59.5t-5.5 59t5 53l80 456h109l-82 -462q-13 -73 24.5 -121t112.5 -48q74 0 126.5 47t64.5 117l82 466h107l-78 -446q-7 -37 -19 -72t-36.5 -74.5t-58 -68.5t-86 -48t-116.5 -19zM369 764l-66 138h127l18 -138h-79z" />
    <glyph glyph-name="Uacute" unicode="&#xda;" horiz-adv-x="625" 
d="M271 -19q-56 0 -99 13.5t-68 37t-41 51t-21.5 59.5t-5.5 59t5 53l80 456h109l-82 -462q-13 -73 24.5 -121t112.5 -48q74 0 126.5 47t64.5 117l82 466h107l-78 -446q-7 -37 -19 -72t-36.5 -74.5t-58 -68.5t-86 -48t-116.5 -19zM366 764l67 138h127l-115 -138h-79z" />
    <glyph glyph-name="Ucircumflex" unicode="&#xdb;" horiz-adv-x="625" 
d="M271 -19q-56 0 -99 13.5t-68 37t-41 51t-21.5 59.5t-5.5 59t5 53l80 456h109l-82 -462q-13 -73 24.5 -121t112.5 -48q74 0 126.5 47t64.5 117l82 466h107l-78 -446q-7 -37 -19 -72t-36.5 -74.5t-58 -68.5t-86 -48t-116.5 -19zM354 761l-107 1l144 133h69l95 -134h-107
l-30 57h-15z" />
    <glyph glyph-name="Udieresis" unicode="&#xdc;" horiz-adv-x="625" 
d="M271 -19q-56 0 -99 13.5t-68 37t-41 51t-21.5 59.5t-5.5 59t5 53l80 456h109l-82 -462q-13 -73 24.5 -121t112.5 -48q74 0 126.5 47t64.5 117l82 466h107l-78 -446q-7 -37 -19 -72t-36.5 -74.5t-58 -68.5t-86 -48t-116.5 -19zM321 768q-26 0 -41 18t-10 44t25.5 43.5
t46.5 17.5q25 0 40 -17.5t10 -43.5q-4 -26 -24.5 -44t-46.5 -18zM491 768q-26 0 -41 18t-10 44t26 43.5t47 17.5q25 0 40 -17.5t10 -43.5q-4 -26 -25 -44t-47 -18z" />
    <glyph glyph-name="Yacute" unicode="&#xdd;" horiz-adv-x="635" 
d="M224 -6l60 330l-183 386h127l126 -285l216 285h126l-304 -386l-58 -330h-110zM370 764l67 138h127l-115 -138h-79z" />
    <glyph glyph-name="germandbls" unicode="&#xdf;" horiz-adv-x="548" 
d="M176 -11l17 98q75 -18 135 21.5t70 98.5q10 58 -32 95t-121 30l17 97q70 -6 113 27.5t50 71.5q8 50 -22.5 79.5t-74.5 29.5q-59 0 -95 -40t-45 -94l-90 -509h-103l89 506q19 106 87.5 168t174.5 62q97 0 142 -52.5t40 -113.5q-5 -65 -43 -113.5t-84 -67.5
q39 0 75.5 -50.5t23.5 -125.5q-10 -57 -36.5 -100t-60.5 -66t-75 -38t-79 -15t-73 1z" />
    <glyph glyph-name="agrave" unicode="&#xe0;" horiz-adv-x="522" 
d="M196 -17q-78 -11 -131.5 30t-46.5 110q17 142 181 171q99 17 182 -4q7 23 9 45.5t-13 43.5t-46 29q-49 13 -94.5 -1.5t-73.5 -59.5l-81 43q33 53 101 88q44 23 104.5 27.5t109.5 -14.5q54 -21 78.5 -69.5t16.5 -98.5l-55 -328l-100 1l7 64q-56 -64 -148 -77zM238 69
q58 13 95 55t39 83q-39 8 -76 10.5t-75.5 -1.5t-64.5 -23.5t-32 -53.5q-7 -37 27.5 -60t86.5 -10zM282 587l-66 138h127l18 -138h-79z" />
    <glyph glyph-name="aacute" unicode="&#xe1;" horiz-adv-x="522" 
d="M196 -17q-78 -11 -131.5 30t-46.5 110q17 142 181 171q99 17 182 -4q7 23 9 45.5t-13 43.5t-46 29q-49 13 -94.5 -1.5t-73.5 -59.5l-81 43q33 53 101 88q44 23 104.5 27.5t109.5 -14.5q54 -21 78.5 -69.5t16.5 -98.5l-55 -328l-100 1l7 64q-56 -64 -148 -77zM238 69
q58 13 95 55t39 83q-39 8 -76 10.5t-75.5 -1.5t-64.5 -23.5t-32 -53.5q-7 -37 27.5 -60t86.5 -10zM280 587l67 138h127l-115 -138h-79z" />
    <glyph glyph-name="acircumflex" unicode="&#xe2;" horiz-adv-x="522" 
d="M196 -17q-78 -11 -131.5 30t-46.5 110q17 142 181 171q99 17 182 -4q7 23 9 45.5t-13 43.5t-46 29q-49 13 -94.5 -1.5t-73.5 -59.5l-81 43q33 53 101 88q44 23 104.5 27.5t109.5 -14.5q54 -21 78.5 -69.5t16.5 -98.5l-55 -328l-100 1l7 64q-56 -64 -148 -77zM238 69
q58 13 95 55t39 83q-39 8 -76 10.5t-75.5 -1.5t-64.5 -23.5t-32 -53.5q-7 -37 27.5 -60t86.5 -10zM283 588l-108 1l145 133h69l94 -134h-106l-30 57h-15z" />
    <glyph glyph-name="atilde" unicode="&#xe3;" horiz-adv-x="522" 
d="M196 -17q-78 -11 -131.5 30t-46.5 110q17 142 181 171q99 17 182 -4q7 23 9 45.5t-13 43.5t-46 29q-49 13 -94.5 -1.5t-73.5 -59.5l-81 43q33 53 101 88q44 23 104 27.5t110 -14.5q54 -21 78.5 -69.5t16.5 -98.5l-55 -328l-100 1l7 64q-56 -64 -148 -77zM238 69
q58 13 95 55t39 83q-39 8 -76 10.5t-75.5 -1.5t-64.5 -23.5t-32 -53.5q-7 -37 27.5 -60t86.5 -10zM159 604q20 115 121 115q34 0 68 -18.5t46 -18.5q16 0 28 10t15 28h70q-19 -115 -123 -115q-30 0 -65 18t-53 18q-31 0 -38 -37h-69z" />
    <glyph glyph-name="adieresis" unicode="&#xe4;" horiz-adv-x="522" 
d="M196 -17q-78 -11 -131.5 30t-46.5 110q17 142 181 171q99 17 182 -4q7 23 9 45.5t-13 43.5t-46 29q-49 13 -94.5 -1.5t-73.5 -59.5l-81 43q33 53 101 88q44 23 104.5 27.5t109.5 -14.5q54 -21 78.5 -69.5t16.5 -98.5l-55 -328l-100 1l7 64q-56 -64 -148 -77zM238 69
q58 13 95 55t39 83q-39 8 -76 10.5t-75.5 -1.5t-64.5 -23.5t-32 -53.5q-7 -37 27.5 -60t86.5 -10zM244 587q-26 0 -41 18t-10 44t26 43.5t47 17.5q25 0 40 -17.5t10 -43.5t-26 -44t-46 -18zM414 587q-26 0 -40.5 18t-9.5 44t25.5 43.5t46.5 17.5q25 0 40 -17.5t10 -43.5
q-4 -26 -25 -44t-47 -18z" />
    <glyph glyph-name="aring" unicode="&#xe5;" horiz-adv-x="522" 
d="M196 -17q-78 -11 -131.5 30t-46.5 110q17 142 181 171q99 17 182 -4q7 23 9 45.5t-13 43.5t-46 29q-49 13 -94.5 -1.5t-73.5 -59.5l-81 43q33 53 101 88q44 23 104.5 27.5t109.5 -14.5q54 -21 78.5 -69.5t16.5 -98.5l-55 -328l-100 1l7 64q-56 -64 -148 -77zM238 69
q58 13 95 55t39 83q-39 8 -76 10.5t-75.5 -1.5t-64.5 -23.5t-32 -53.5q-7 -37 27.5 -60t86.5 -10zM319 563q-44 0 -70.5 32t-19.5 76q8 45 46 76.5t83 31.5q44 0 70.5 -31.5t18.5 -76.5q-7 -44 -45.5 -76t-82.5 -32zM333 627q18 0 33 13t19 32q3 18 -8 31t-29 13
q-17 0 -33 -13.5t-19 -30.5q-4 -18 7.5 -31.5t29.5 -13.5z" />
    <glyph glyph-name="ae" unicode="&#xe6;" horiz-adv-x="901" 
d="M196 -17q-78 -8 -131.5 32t-46.5 108q17 142 181 171q99 17 182 -4q7 23 9 45.5t-13 43.5t-46 29q-49 13 -94.5 -1.5t-73.5 -59.5l-81 43q33 53 101 88q44 23 104 27.5t110 -14.5q50 -20 74 -70q77 83 195 83q107 0 165 -73.5t24 -208.5l-385 -4q-5 -15 -0.5 -39
t13.5 -47t35.5 -41t63.5 -19q102 -5 161 80l91 -27q-32 -54 -100.5 -97.5t-157.5 -43.5q-129 0 -174 98q-87 -86 -206 -99zM238 69q58 13 95 55t39 83q-39 8 -76 10.5t-75.5 -1.5t-64.5 -23.5t-32 -53.5q-7 -37 27.5 -60t86.5 -10zM493 302l268 1q7 42 -27 79.5t-104 30.5
q-48 -4 -86.5 -36t-50.5 -75z" />
    <glyph glyph-name="ccedilla" unicode="&#xe7;" horiz-adv-x="542" 
d="M212 -246q-61 0 -84 65l69 28q5 -29 30 -29q13 0 25 9t15 25q3 15 -6 24.5t-22 9.5q-18 0 -30 -14l-57 28l47 78q-91 15 -140 87t-29 183q20 110 106 185t195 76q49 0 87 -15.5t60 -40.5t33.5 -48.5t16.5 -47.5l-109 -34q-37 100 -126 85q-67 -10 -109 -56t-52 -105
q-11 -67 19.5 -117.5t87.5 -54.5q49 -3 95.5 23t65.5 63l90 -35q-25 -52 -88.5 -99t-137.5 -52l-20 -30q42 10 73 -16.5t22 -75.5t-44 -74t-83 -25z" />
    <glyph glyph-name="egrave" unicode="&#xe8;" horiz-adv-x="568" 
d="M39 244q-20 -112 34 -186t170 -74q89 0 157.5 43.5t100.5 97.5l-91 27q-59 -85 -161 -80q-37 1 -63.5 19t-35.5 41t-13.5 47t0.5 39l385 4q34 135 -24 208.5t-165 73.5q-106 0 -189 -68.5t-105 -191.5zM160 302q12 43 50.5 75t86.5 36q70 7 104 -30.5t27 -79.5zM389 587
h-79l-66 138h127z" />
    <glyph glyph-name="eacute" unicode="&#xe9;" horiz-adv-x="568" 
d="M39 244q-20 -112 34 -186t170 -74q89 0 157.5 43.5t100.5 97.5l-91 27q-59 -85 -161 -80q-37 1 -63.5 19t-35.5 41t-13.5 47t0.5 39l385 4q34 135 -24 208.5t-165 73.5q-106 0 -189 -68.5t-105 -191.5zM160 302q12 43 50.5 75t86.5 36q70 7 104 -30.5t27 -79.5zM307 587
l67 138h127l-115 -138h-79z" />
    <glyph glyph-name="ecircumflex" unicode="&#xea;" horiz-adv-x="568" 
d="M39 244q-20 -112 34 -186t170 -74q89 0 157.5 43.5t100.5 97.5l-91 27q-59 -85 -161 -80q-37 1 -63.5 19t-35.5 41t-13.5 47t0.5 39l385 4q34 135 -24 208.5t-165 73.5q-106 0 -189 -68.5t-105 -191.5zM160 302q12 43 50.5 75t86.5 36q70 7 104 -30.5t27 -79.5zM299 588
l-108 1l145 133h69l94 -134h-106l-30 57h-15z" />
    <glyph glyph-name="edieresis" unicode="&#xeb;" horiz-adv-x="568" 
d="M39 244q-20 -112 34 -186t170 -74q89 0 157.5 43.5t100.5 97.5l-91 27q-59 -85 -161 -80q-37 1 -63.5 19t-35.5 41t-13.5 47t0.5 39l385 4q34 135 -24 208.5t-165 73.5q-106 0 -189 -68.5t-105 -191.5zM160 302q12 43 50.5 75t86.5 36q70 7 104 -30.5t27 -79.5zM260 587
q-26 0 -41 18t-10 44t26 43.5t47 17.5q25 0 40 -17.5t10 -43.5t-26 -44t-46 -18zM430 587q-26 0 -40.5 18t-9.5 44t25.5 43.5t46.5 17.5q25 0 40 -17.5t10 -43.5q-4 -26 -25 -44t-47 -18z" />
    <glyph glyph-name="igrave" unicode="&#xec;" horiz-adv-x="254" 
d="M257 493l-88 -500h-106l89 500h105zM269 587h-79l-66 138h127z" />
    <glyph glyph-name="iacute" unicode="&#xed;" horiz-adv-x="254" 
d="M188 493l-88 -500h-105l88 500h105zM103 587l68 138h127l-116 -138h-79z" />
    <glyph glyph-name="icircumflex" unicode="&#xee;" horiz-adv-x="388" 
d="M290 493l-89 -500h-105l88 500h106zM207 588l-107 1l144 133h69l95 -134h-107l-30 57h-15z" />
    <glyph glyph-name="idieresis" unicode="&#xef;" horiz-adv-x="373" 
d="M282 493l-88 -500h-105l88 500h105zM161 587q-26 0 -41 18t-10 44t26 43.5t47 17.5q25 0 40 -17.5t10 -43.5q-4 -26 -25 -44t-47 -18zM332 587q-26 0 -41 18t-10 44t25.5 43.5t46.5 17.5q25 0 40 -17.5t10 -43.5q-4 -26 -24.5 -44t-46.5 -18z" />
    <glyph glyph-name="ntilde" unicode="&#xf1;" horiz-adv-x="519" 
d="M82 488h98l-12 -70q63 75 141 84q75 9 119.5 -18t57.5 -70q13 -45 -6 -159l-46 -260h-105l47 266q6 44 5.5 77.5t-24 53t-71.5 17.5q-53 -2 -93.5 -44t-54.5 -123l-43 -247h-100zM134 604q20 115 122 115q34 0 67.5 -18.5t45.5 -18.5q17 0 28.5 10t14.5 28h71
q-21 -115 -123 -115q-30 0 -65.5 18t-52.5 18q-31 0 -38 -37h-70z" />
    <glyph glyph-name="ograve" unicode="&#xf2;" horiz-adv-x="605" 
d="M39 245q20 109 109 185t200 76t173.5 -76.5t42.5 -184.5q-19 -109 -109 -188t-200 -79t-172.5 79t-43.5 188zM146 244q-14 -76 24.5 -123t102.5 -47t118 46.5t68 123.5q12 73 -26 120.5t-100 47.5q-63 0 -118.5 -47.5t-68.5 -120.5zM401 587h-79l-66 138h127z" />
    <glyph glyph-name="oacute" unicode="&#xf3;" horiz-adv-x="605" 
d="M39 245q20 109 109 185t200 76t173.5 -76.5t42.5 -184.5q-19 -109 -109 -188t-200 -79t-172.5 79t-43.5 188zM146 244q-14 -76 24.5 -123t102.5 -47t118 46.5t68 123.5q12 73 -26 120.5t-100 47.5q-63 0 -118.5 -47.5t-68.5 -120.5zM320 587l68 138h127l-116 -138h-79z
" />
    <glyph glyph-name="ocircumflex" unicode="&#xf4;" horiz-adv-x="605" 
d="M39 245q20 109 109 185t200 76t173.5 -76.5t42.5 -184.5q-19 -109 -109 -188t-200 -79t-172.5 79t-43.5 188zM146 244q-14 -76 24.5 -123t102.5 -47t118 46.5t68 123.5q12 73 -26 120.5t-100 47.5q-63 0 -118.5 -47.5t-68.5 -120.5zM315 588l-108 1l145 133h69l94 -134
h-106l-30 57h-15z" />
    <glyph glyph-name="otilde" unicode="&#xf5;" horiz-adv-x="605" 
d="M39 245q20 109 109 185t200 76t173.5 -76.5t42.5 -184.5q-19 -109 -109 -188t-200 -79t-172.5 79t-43.5 188zM146 244q-14 -76 24.5 -123t102.5 -47t118 46.5t68 123.5q12 73 -26 120.5t-100 47.5q-63 0 -118.5 -47.5t-68.5 -120.5zM205 604q20 115 121 115
q34 0 68 -18.5t46 -18.5q16 0 28 10t15 28h71q-21 -115 -124 -115q-30 0 -65 18t-52 18q-31 0 -38 -37h-70z" />
    <glyph glyph-name="odieresis" unicode="&#xf6;" horiz-adv-x="605" 
d="M39 245q20 109 109 185t200 76t173.5 -76.5t42.5 -184.5q-19 -109 -109 -188t-200 -79t-172.5 79t-43.5 188zM146 244q-14 -76 24.5 -123t102.5 -47t118 46.5t68 123.5q12 73 -26 120.5t-100 47.5q-63 0 -118.5 -47.5t-68.5 -120.5zM275 587q-26 0 -41 18t-10 44
t25.5 43.5t46.5 17.5q25 0 40 -17.5t10 -43.5q-4 -26 -24.5 -44t-46.5 -18zM445 587q-26 0 -41 18t-10 44t26 43.5t47 17.5q25 0 40 -17.5t10 -43.5q-4 -26 -25 -44t-47 -18z" />
    <glyph glyph-name="oslash" unicode="&#xf8;" horiz-adv-x="605" 
d="M39 245q20 109 109 185t200 76q48 0 90 -16l37 45l74 -49l-37 -46q73 -78 52 -195q-19 -109 -109 -188t-200 -79q-52 0 -97 20l-33 -42l-73 47l37 47q-70 79 -50 195zM146 244q-10 -61 14 -105l212 267q-20 6 -39 6q-63 0 -118.5 -47.5t-68.5 -120.5zM226 82q22 -8 47 -8
q64 0 118 46.5t68 123.5q11 64 -18 107z" />
    <glyph glyph-name="ugrave" unicode="&#xf9;" horiz-adv-x="530" 
d="M349 56q-14 -26 -61 -50.5t-108 -24.5q-48 0 -81.5 17t-48.5 41t-21 54.5t-5 51t4 38.5l54 307h108l-52 -294q-3 -28 -1.5 -55.5t26.5 -47.5t71 -20q51 0 91.5 40t46.5 77l53 301h107l-87 -496h-101zM358 587h-79l-66 138h127z" />
    <glyph glyph-name="uacute" unicode="&#xfa;" horiz-adv-x="530" 
d="M349 56q-14 -26 -61 -50.5t-108 -24.5q-48 0 -81.5 17t-48.5 41t-21 54.5t-5 51t4 38.5l54 307h108l-52 -294q-3 -28 -1.5 -55.5t26.5 -47.5t71 -20q51 0 91.5 40t46.5 77l53 301h107l-87 -496h-101zM283 587l68 138h127l-116 -138h-79z" />
    <glyph glyph-name="ucircumflex" unicode="&#xfb;" horiz-adv-x="530" 
d="M180 -19q-48 0 -81.5 17t-48.5 41t-21 54.5t-5 51t4 38.5l54 307h108l-52 -294q-3 -28 -1.5 -55.5t26.5 -47.5t71 -20q51 0 91.5 40t46.5 77l53 301h107l-87 -496h-101l5 61q-14 -26 -61 -50.5t-108 -24.5zM271 588l-107 1l144 133h69l95 -134h-107l-30 57h-15z" />
    <glyph glyph-name="udieresis" unicode="&#xfc;" horiz-adv-x="530" 
d="M349 56q-14 -26 -61 -50.5t-108 -24.5q-48 0 -81.5 17t-48.5 41t-21 54.5t-5 51t4 38.5l54 307h108l-52 -294q-3 -28 -1.5 -55.5t26.5 -47.5t71 -20q51 0 91.5 40t46.5 77l53 301h107l-87 -496h-101zM225 587q-26 0 -41 18t-10 44t26 43.5t47 17.5q25 0 40 -17.5
t10 -43.5q-4 -26 -25 -44t-47 -18zM396 587q-26 0 -41 18t-10 44t25.5 43.5t46.5 17.5q25 0 40 -17.5t10 -43.5q-4 -26 -24.5 -44t-46.5 -18z" />
    <glyph glyph-name="yacute" unicode="&#xfd;" horiz-adv-x="554" 
d="M30 -226l157 243l-125 473l114 -1l86 -346l200 346h114l-435 -715h-111zM298 587l67 138h127l-115 -138h-79z" />
    <glyph glyph-name="ydieresis" unicode="&#xff;" horiz-adv-x="554" 
d="M30 -226l157 243l-125 473l114 -1l86 -346l200 346h114l-435 -715h-111zM252 587q-26 0 -41 18t-10 44t25.5 43.5t46.5 17.5q25 0 40 -17.5t10 -43.5q-4 -26 -24.5 -44t-46.5 -18zM422 587q-26 0 -41 18t-10 44t26 43.5t47 17.5q25 0 40 -17.5t10 -43.5q-4 -26 -25 -44
t-47 -18z" />
    <glyph glyph-name="dotlessi" unicode="&#x131;" horiz-adv-x="185" 
d="M188 493l-88 -500h-105l88 500h105z" />
    <glyph glyph-name="OE" unicode="&#x152;" horiz-adv-x="1122" 
d="M58 353q28 157 155.5 268t280.5 111q139 0 227 -96l13 74h427l-17 -99h-323l-36 -204h291l-18 -101h-292l-37 -210h326l-18 -100h-429l13 74q-122 -96 -261 -96q-153 0 -241.5 111t-60.5 268zM166 352q-20 -112 43 -193t171 -81t199 81.5t111 192.5q20 112 -42.5 194
t-170.5 82t-199.5 -82t-111.5 -194z" />
    <glyph glyph-name="oe" unicode="&#x153;" horiz-adv-x="985" 
d="M255 -22q-110 0 -172.5 79t-43.5 188q20 109 109 185t200 76q116 0 179 -84q88 82 216 82q52 0 93.5 -16t73 -51t38.5 -91.5t-11 -136.5l-396 -4q-7 -38 23.5 -82.5t94.5 -47.5q106 -4 164 80l88 -30q-32 -54 -100.5 -96.5t-157.5 -42.5q-123 0 -185 83q-94 -91 -213 -91
zM272 67q66 0 123 48t71 129q14 76 -26.5 126t-105.5 50q-66 0 -124 -50t-71 -126q-14 -81 26 -129t107 -48zM555 282l294 2q10 58 -26 101t-120 33q-115 -13 -148 -136z" />
    <glyph glyph-name="Scaron" unicode="&#x160;" horiz-adv-x="579" 
d="M265 -19q-103 -5 -170.5 49t-66.5 152l105 33q3 -58 38 -95t81 -42q62 -6 109 23.5t60 83.5q8 30 -1 53.5t-37 43.5t-61.5 34.5t-87.5 33.5q-67 24 -99.5 77.5t-16.5 118.5q14 62 65 112t130 67q57 10 109 4.5t94.5 -42t59.5 -98.5l-101 -44q-11 44 -39.5 67.5t-63 23.5
t-72.5 -13q-47 -19 -65 -49.5t-14 -59.5q3 -27 29.5 -48.5t60.5 -32.5q67 -26 104.5 -45t69.5 -47t42 -63.5t2 -84.5q-15 -97 -87.5 -152t-176.5 -60zM345 761l-97 133l107 1l29 -57h15l50 57h107l-142 -134h-69z" />
    <glyph glyph-name="scaron" unicode="&#x161;" horiz-adv-x="498" 
d="M197 -21q-78 0 -124 41t-56 99l99 39q4 -28 26.5 -53.5t50.5 -32.5q38 -9 84.5 4.5t54.5 54.5q5 23 -16.5 40.5t-49 25.5t-64.5 16.5t-48 12.5q-40 15 -64 49t-17 75q10 56 59 100.5t131 54.5q43 5 85 -2t79 -36t45 -78l-96 -37q-7 30 -34.5 46.5t-68.5 16.5
q-39 0 -65 -16t-31 -42q-6 -32 36 -48q15 -6 109 -30q72 -18 98 -57t17 -88q-11 -63 -74.5 -109t-165.5 -46zM266 588l-98 133l108 1l29 -57h15l50 57h106l-141 -134h-69z" />
    <glyph glyph-name="Ydieresis" unicode="&#x178;" horiz-adv-x="635" 
d="M224 -6l60 330l-183 386h127l126 -285l216 285h126l-304 -386l-58 -330h-110zM324 768q-26 0 -41 18t-10 44t26 43.5t47 17.5q25 0 40 -17.5t10 -43.5q-4 -26 -25 -44t-47 -18zM495 768q-26 0 -41 18t-10 44t25.5 43.5t46.5 17.5q25 0 40 -17.5t10 -43.5
q-4 -26 -24.5 -44t-46.5 -18z" />
    <glyph glyph-name="zcaron" unicode="&#x17e;" horiz-adv-x="482" 
d="M-5 -6l15 86l329 318h-263l16 92h390l-15 -88l-327 -315h273l-16 -93h-402zM290 722l29 -57h15l50 57h107l-142 -134h-69l-97 133z" />
    <glyph glyph-name="endash" unicode="&#x2013;" horiz-adv-x="582" 
d="M42 264l16 88h501l-15 -88h-502z" />
    <glyph glyph-name="emdash" unicode="&#x2014;" horiz-adv-x="840" 
d="M42 264l16 87h760l-15 -87h-761z" />
    <glyph glyph-name="quoteleft" unicode="&#x2018;" horiz-adv-x="230" 
d="M149 457q-29 0 -47 21.5t-13 51.5q6 28 24 50l112 133l40 -31l-66 -82q21 -8 31 -27t6 -43q-5 -30 -30.5 -51.5t-56.5 -21.5z" />
    <glyph glyph-name="quoteright" unicode="&#x2019;" horiz-adv-x="230" 
d="M123 459l-39 32l66 82q-21 8 -31.5 27t-6.5 43q5 30 31 51.5t56 21.5t47.5 -22t12.5 -51q-4 -25 -23 -50z" />
    <glyph glyph-name="quotesinglbase" unicode="&#x201a;" horiz-adv-x="230" 
d="M21 -120l-39 32l66 82q-21 8 -31.5 27t-6.5 43q5 30 30.5 51.5t56.5 21.5q30 0 47.5 -21.5t12.5 -51.5q-4 -25 -23 -50z" />
    <glyph glyph-name="quotedblleft" unicode="&#x201c;" horiz-adv-x="434" 
d="M354 459q-30 0 -47.5 22t-12.5 51q5 27 23 50l113 134l40 -32l-66 -82q21 -8 31 -27t6 -43q-5 -30 -31 -51.5t-56 -21.5zM149 457q-29 0 -47 21.5t-13 51.5q6 28 24 50l112 133l40 -31l-66 -82q21 -8 31 -27t6 -43q-5 -30 -30.5 -51.5t-56.5 -21.5z" />
    <glyph glyph-name="quotedblright" unicode="&#x201d;" horiz-adv-x="435" 
d="M328 459l-40 32l66 82q-21 8 -31 27t-6 43q5 30 31 51.5t56 21.5q29 0 47 -22t13 -51q-5 -27 -24 -50zM123 457l-40 31l66 82q-21 8 -31 27t-6 43q5 30 30.5 51.5t56.5 21.5q29 0 47 -21.5t13 -51.5q-5 -26 -23 -49z" />
    <glyph glyph-name="quotedblbase" unicode="&#x201e;" horiz-adv-x="435" 
d="M226 -117l-39 31l65 82q-21 8 -31 27t-6 43q5 30 30.5 51.5t56.5 21.5q30 0 47.5 -21.5t12.5 -51.5q-5 -25 -23 -50zM21 -120l-39 32l66 82q-21 8 -31.5 27t-6.5 43q5 30 30.5 51.5t56.5 21.5q30 0 47.5 -21.5t12.5 -51.5q-4 -25 -23 -50z" />
    <glyph glyph-name="dagger" unicode="&#x2020;" horiz-adv-x="424" 
d="M241 159h-91l55 311h-126l15 89h126l25 145h91l-26 -145h128l-15 -89h-127z" />
    <glyph glyph-name="bullet" unicode="&#x2022;" horiz-adv-x="249" 
d="M122 234q-35 0 -55.5 25t-14.5 60q6 34 35.5 58.5t64.5 24.5q34 0 54.5 -24.5t14.5 -58.5q-6 -35 -35 -60t-64 -25z" />
    <glyph glyph-name="ellipsis" unicode="&#x2026;" horiz-adv-x="706" 
d="M68 -10q-31 0 -48.5 21.5t-12.5 52.5q5 30 30.5 51.5t56.5 21.5q30 0 47.5 -21.5t12.5 -51.5q-5 -31 -30.5 -52.5t-55.5 -21.5zM307 -10q-31 0 -48.5 21.5t-12.5 52.5q5 30 30.5 51.5t56.5 21.5q29 0 47 -21.5t13 -51.5t-30.5 -52t-55.5 -22zM547 -10q-31 0 -48.5 21.5
t-12.5 52.5q5 30 30.5 51.5t56.5 21.5q30 0 47.5 -21.5t12.5 -51.5q-5 -31 -30.5 -52.5t-55.5 -21.5z" />
    <glyph glyph-name="guilsinglleft" unicode="&#x2039;" horiz-adv-x="346" 
d="M210 43l-167 223l246 225l49 -56l-187 -169l127 -170z" />
    <glyph glyph-name="guilsinglright" unicode="&#x203a;" horiz-adv-x="346" 
d="M63 44l-49 54l187 169l-128 169l69 57l167 -226z" />
    <glyph glyph-name="Euro" unicode="&#x20ac;" horiz-adv-x="658" 
d="M34 215l15 85h66q0 2 2 16t4 22q1 9 8 40h-67l15 85h87q54 103 153 168t210 65q76 0 145 -44l-63 -78q-50 35 -128 24q-135 -17 -207 -135h212l-27 -85h-224q-6 -26 -8 -39q-3 -13 -5 -39h212l-27 -85h-176q17 -62 65 -99.5t128 -37.5q63 0 120 32l34 -88
q-77 -43 -178 -43q-111 0 -187 65.5t-94 170.5h-85z" />
    </font>
</defs>
</svg>
