<?xml version="1.0" standalone="no"?>
<!DOCTYPE svg PUBLIC "-//W3C//DTD SVG 1.1//EN" "http://www.w3.org/Graphics/SVG/1.1/DTD/svg11.dtd" >
<svg xmlns="http://www.w3.org/2000/svg" xmlns:xlink="http://www.w3.org/1999/xlink" version="1.1">
<metadata>
Created by FontForge 20170731 at Wed Apr 29 08:16:38 2020
 By Aleksey,,,
Copyright (c) 2020 by Brent Anderson.
</metadata>
<defs>
<font id="PulpDisplay-MediumItalic" horiz-adv-x="817" >
  <font-face 
    font-family="Pulp Display Medium Italic"
    font-weight="400"
    font-style="italic"
    font-stretch="normal"
    units-per-em="1000"
    panose-1="0 0 8 0 0 0 0 0 0 0"
    ascent="800"
    descent="-200"
    x-height="489"
    cap-height="709"
    bbox="-154 -246 1163 902"
    underline-thickness="50"
    underline-position="-200"
    unicode-range="U+0020-20AC"
  />
<missing-glyph horiz-adv-x="618" 
d="M-5 -7l126 717h538l-126 -717h-538zM107 159l170 191l-103 190zM233 618l104 -200l174 200h-278zM142 86h272l-102 190zM373 350l105 -196l69 392z" />
    <glyph glyph-name=".notdef" horiz-adv-x="618" 
d="M-5 -7l126 717h538l-126 -717h-538zM107 159l170 191l-103 190zM233 618l104 -200l174 200h-278zM142 86h272l-102 190zM373 350l105 -196l69 392z" />
    <glyph glyph-name=".null" horiz-adv-x="0" 
 />
    <glyph glyph-name="nonmarkingreturn" horiz-adv-x="333" 
 />
    <glyph glyph-name="space" unicode=" " horiz-adv-x="290" 
 />
    <glyph glyph-name="exclam" unicode="!" horiz-adv-x="237" 
d="M73 228l71 480h114l-98 -480h-87zM73 -10q-32 0 -51.5 23.5t-13.5 55.5t33 55t60 23q32 0 51 -23t13 -55t-33 -55.5t-59 -23.5z" />
    <glyph glyph-name="numbersign" unicode="#" horiz-adv-x="686" 
d="M30 193l37 94l117 -2l36 118h-122l36 96h119l61 185h97l-60 -186h122l61 185h93l-58 -184l121 -1l-32 -96h-120l-36 -117h120l-33 -92h-120l-66 -197h-92l61 197h-121l-66 -200l-95 2l64 199zM280 284l127 1l37 119h-127z" />
    <glyph glyph-name="dollar" unicode="$" horiz-adv-x="556" 
d="M176 -78l11 63q-66 13 -110 61.5t-50 131.5l102 30q5 -60 38 -90t83 -31q53 -3 92.5 18.5t48.5 72.5q8 42 -26.5 70.5t-128.5 70.5q-149 65 -126 199q10 57 56 106t124 68l23 5l11 63h94l-11 -64q56 -11 96 -47.5t51 -96.5l-98 -38q-11 51 -57 71t-105 5
q-39 -10 -58.5 -38.5t-17.5 -59.5q2 -28 27.5 -49t52.5 -32q120 -47 169.5 -100t36.5 -131q-15 -81 -75.5 -132t-147.5 -64l-11 -62h-94z" />
    <glyph glyph-name="percent" unicode="%" horiz-adv-x="858" 
d="M196 -19l-66 49l564 668l63 -49zM235 358q-74 0 -116 51t-29 123q12 71 71.5 120.5t134.5 49.5q73 0 114.5 -49.5t29.5 -120.5q-13 -72 -72.5 -123t-132.5 -51zM253 442q35 0 65 23.5t37 64.5q7 37 -15 60.5t-57 23.5t-66.5 -23.5t-37.5 -60.5q-7 -41 15 -64.5t59 -23.5z
M596 -22q-74 0 -116 51t-29 123q12 71 71.5 120.5t134.5 49.5q73 0 114.5 -49.5t29.5 -120.5q-13 -72 -72.5 -123t-132.5 -51zM608 64q35 0 65.5 23.5t37.5 64.5q6 37 -16 60.5t-56 23.5q-36 0 -67 -23t-37 -61q-7 -41 15 -64.5t58 -23.5z" />
    <glyph glyph-name="ampersand" unicode="&#x26;" horiz-adv-x="657" 
d="M613 249l-59 66l-100 -88l-189 259q-17 33 -9.5 65.5t38 54.5t67.5 15q25 -4 37 -27t7 -54l101 1q19 77 -28.5 130.5t-127.5 47.5q-67 -5 -125 -47.5t-77.5 -104.5t20.5 -136q-34 -30 -55 -52.5t-45 -62.5t-31 -81q-18 -107 35.5 -171t131.5 -72q34 -3 64.5 1.5t56 16.5
t41.5 21.5t36.5 26t25.5 19.5l67 -84l88 71l-70 96zM367 149q-80 -78 -157 -51q-49 17 -64.5 65t5.5 101.5t68 86.5z" />
    <glyph glyph-name="quotesingle" unicode="'" horiz-adv-x="218" 
d="M111 385l-12 193q-2 30 22.5 56.5t56.5 26.5q34 0 51.5 -24.5t4.5 -57.5l-80 -194h-43z" />
    <glyph glyph-name="parenleft" unicode="(" horiz-adv-x="337" 
d="M379 716q-90 -104 -141.5 -188.5t-71.5 -194.5q-38 -218 73 -414l-93 -57q-61 86 -88.5 210t-3.5 256q22 127 86.5 231.5t168.5 217.5z" />
    <glyph glyph-name="parenright" unicode=")" horiz-adv-x="337" 
d="M55 -138l-73 57q181 197 218 414q20 110 -2 194.5t-76 188.5l92 61q64 -111 91.5 -216.5t5.5 -232.5q-24 -133 -94.5 -257t-161.5 -209z" />
    <glyph glyph-name="asterisk" unicode="*" horiz-adv-x="463" 
d="M166 326l-62 55l96 107l-111 41l43 82l111 -41l22 126h91l-20 -125l123 42l13 -86l-124 -40l59 -105l-82 -53l-61 103z" />
    <glyph glyph-name="plus" unicode="+" horiz-adv-x="539" 
d="M280 40h-96l32 182l-181 -1l16 94l182 1l32 181h96l-33 -182h182l-16 -94h-182z" />
    <glyph glyph-name="comma" unicode="," horiz-adv-x="240" 
d="M22 -126l-42 34l70 87q-22 8 -32.5 28.5t-6.5 45.5q6 32 33 55t60 23q32 0 51 -23t13 -55q-6 -29 -25 -51z" />
    <glyph glyph-name="hyphen" unicode="-" horiz-adv-x="420" 
d="M399 357l-17 -98h-340l17 98h340z" />
    <glyph glyph-name="period" unicode="." horiz-adv-x="237" 
d="M73 -10q-32 0 -51.5 23.5t-13.5 55.5t33 55t60 23q32 0 51 -23t13 -55t-33 -55.5t-59 -23.5z" />
    <glyph glyph-name="slash" unicode="/" horiz-adv-x="483" 
d="M-5 -7l423 719h106l-421 -718z" />
    <glyph glyph-name="zero" unicode="0" horiz-adv-x="648" 
d="M276 -24q-79 0 -135.5 48.5t-79.5 131.5t-5 182q26 151 127 256.5t220 105.5t183 -105.5t38 -256.5q-27 -151 -128 -256.5t-220 -105.5zM295 92q76 0 132 64.5t77 183.5q20 113 -13 181t-108 68q-76 0 -133.5 -68t-76.5 -181q-21 -116 12.5 -182t109.5 -66z" />
    <glyph glyph-name="one" unicode="1" horiz-adv-x="414" 
d="M273 556l-153 -69l-21 95l226 109h87l-123 -697h-115z" />
    <glyph glyph-name="two" unicode="2" horiz-adv-x="544" 
d="M173 100l123 102q6 5 32 26.5t35.5 30t33.5 29.5t35 33.5t30 33.5t29 37.5t21.5 37t17 41t6.5 41.5q6 95 -52 143t-143 48q-146 0 -246 -151l94 -49q50 91 137 91q29 0 52 -14t34.5 -36t5 -54.5t-35.5 -66.5q-28 -33 -70 -72.5t-74 -66.5t-106 -88t-115 -95l-19 -107h460
l19 106h-304z" />
    <glyph glyph-name="three" unicode="3" horiz-adv-x="557" 
d="M135 193q19 -107 113 -107q51 0 92.5 30t49.5 76q12 64 -32 91t-140 21l18 100q100 0 141.5 29t46.5 83q4 38 -23 59t-69 21q-72 0 -125 -83l-92 45q39 66 101.5 103.5t127.5 39.5q26 1 53 -4t54 -18t47 -32t32 -50.5t9 -70.5q-3 -35 -16 -64.5t-29.5 -47t-34.5 -30.5
t-29.5 -18t-14.5 -5q4 0 15.5 -5t27 -18t29 -30.5t20 -47t0.5 -64.5q-16 -94 -92 -155.5t-185 -61.5q-51 0 -89 14.5t-60.5 42t-35 53.5t-22.5 63z" />
    <glyph glyph-name="four" unicode="4" horiz-adv-x="605" 
d="M433 -6l24 139h87l18 104h-87l80 454h-125l-394 -465l-16 -92h322l-25 -140h116zM158 237l254 293l-51 -293h-203z" />
    <glyph glyph-name="five" unicode="5" horiz-adv-x="557" 
d="M25 165q6 -90 68 -139.5t152 -44.5q34 2 72 14.5t78.5 37.5t72 71.5t42.5 106.5t-3 107t-43.5 72t-61.5 37t-63 12q-16 0 -30 -1.5t-26.5 -4t-21.5 -5t-19 -7t-14.5 -6.5t-13 -6.5t-9.5 -5.5l53 192h278l17 96h-376l-98 -361l98 -40q18 19 51 34.5t64 16.5
q49 1 84.5 -29.5t25.5 -89.5q-11 -65 -54.5 -101t-93.5 -36q-102 0 -126 118z" />
    <glyph glyph-name="six" unicode="6" horiz-adv-x="561" 
d="M299 431q111 17 172 -48.5t44 -166.5q-18 -98 -102 -167.5t-185 -69.5q-100 0 -155.5 70.5t-39.5 163.5q9 47 33 94q16 35 69 102l252 292l78 -60l-193 -217q8 3 27 7zM258 87q56 0 98.5 35t52.5 89q10 53 -21 89.5t-86 36.5q-56 0 -101 -36.5t-54 -89.5q-10 -54 22 -89
t89 -35z" />
    <glyph glyph-name="seven" unicode="7" horiz-adv-x="535" 
d="M431 577h-333l20 114h455l-21 -116l-378 -581h-130z" />
    <glyph glyph-name="eight" unicode="8" horiz-adv-x="565" 
d="M435 361q43 -28 65.5 -74t14.5 -94q-18 -99 -95.5 -155.5t-183.5 -56.5q-111 0 -167.5 56t-38.5 156q8 48 47 94t93 74q-76 50 -59 152q14 78 85 130t165 52t146.5 -52.5t38.5 -129.5q-17 -100 -111 -152zM345 596q-45 0 -81 -27.5t-43 -66.5q-7 -40 19.5 -68t70.5 -28
t80 28t43 68q7 38 -19.5 66t-69.5 28zM254 87q64 0 101.5 31.5t45.5 75.5q8 43 -19.5 75t-90.5 32q-62 0 -101.5 -32t-46.5 -75q-7 -44 20.5 -75.5t90.5 -31.5z" />
    <glyph glyph-name="nine" unicode="9" horiz-adv-x="561" 
d="M205 -21l-78 61l193 216q-13 -4 -27 -6q-111 -17 -172 48t-43 166q17 98 101.5 167.5t185.5 69.5q100 0 155 -70t39 -164q-8 -44 -32 -94q-19 -38 -70 -101zM290 344q56 0 101 36.5t55 89.5q9 54 -22.5 89t-88.5 35q-56 0 -99 -35t-53 -89q-9 -54 21.5 -90t85.5 -36z" />
    <glyph glyph-name="colon" unicode=":" horiz-adv-x="237" 
d="M135 343q-32 0 -51 23.5t-14 55.5q6 32 33.5 55t59.5 23t51 -23t13 -55q-5 -32 -32.5 -55.5t-59.5 -23.5zM74 -5q-32 0 -51.5 23.5t-13.5 55.5q5 32 32.5 55t60.5 23q32 0 50.5 -23t13.5 -55q-6 -32 -33 -55.5t-59 -23.5z" />
    <glyph glyph-name="semicolon" unicode=";" horiz-adv-x="240" 
d="M24 -116l-43 34l70 87q-21 8 -31.5 28.5t-6.5 45.5q5 32 32.5 55t60.5 23q32 0 50.5 -23t13.5 -55q-6 -29 -25 -51zM138 343q-32 0 -51 23t-14 56q6 32 33 55t60 23q32 0 51 -23.5t13 -54.5q-5 -33 -32.5 -56t-59.5 -23z" />
    <glyph glyph-name="equal" unicode="=" horiz-adv-x="542" 
d="M26 169l17 97h462l-17 -97h-462zM60 365l18 98h462l-18 -98h-462z" />
    <glyph glyph-name="question" unicode="?" horiz-adv-x="503" 
d="M192 232q13 74 31 104.5t66 69.5q7 6 35.5 28t38 31.5t23 31t17.5 44.5q7 38 -16 62.5t-63 24.5q-87 0 -133 -89l-93 41q37 63 98.5 107.5t130.5 44.5q97 0 150 -51t39 -131q-11 -61 -43 -101.5t-80 -75.5q-40 -29 -60.5 -60.5t-26.5 -80.5h-114zM208 -10q-33 0 -52 23.5
t-13 55.5q5 32 32.5 55t59.5 23t51 -23t14 -55q-6 -32 -33 -55.5t-59 -23.5z" />
    <glyph glyph-name="at" unicode="@" horiz-adv-x="867" 
d="M661 484l-87 1l-6 -43q-6 14 -33.5 34t-64.5 25q-41 5 -84 -9t-85.5 -57t-65.5 -108q-32 -93 7 -158.5t109 -75.5q56 -8 106.5 12.5t81.5 58.5q12 -65 87 -69q46 -3 83.5 13.5t62 46t41 67.5t23 79.5t5.5 81t-10 72.5q-28 103 -109.5 168t-205.5 66q-68 0 -139.5 -22.5
t-139.5 -67t-119 -122.5t-69 -178q-16 -82 -1.5 -144.5t43.5 -107t73 -73.5t87 -43t85 -16q96 -5 203 31l-17 78q-71 -34 -175 -29q-102 6 -170 91t-47 204q20 121 101.5 204.5t200.5 106.5q123 23 208 -29t115 -157q17 -66 3 -120t-39.5 -87.5t-48.5 -38.5
q-31 -7 -44.5 15.5t-6.5 62.5zM537 282q-15 -43 -51.5 -76.5t-90.5 -26.5q-33 4 -52.5 20t-24 38t-4 40t4.5 34q3 13 12 29.5t25 36.5t43 31t59 6q55 -8 73 -48.5t6 -83.5z" />
    <glyph glyph-name="A" unicode="A" horiz-adv-x="689" 
d="M492 709l-130 1l-397 -716h125l96 180h292l31 -180h125zM401 585l58 -306h-224z" />
    <glyph glyph-name="B" unicode="B" horiz-adv-x="570" 
d="M123 713h263q89 0 146.5 -48t42.5 -136q-7 -39 -21 -68t-35 -47t-36.5 -27t-38.5 -19l12 -6q13 -6 16 -7.5t14.5 -8.5t15.5 -11t13 -13.5t12.5 -18t8.5 -22t6 -27.5t0.5 -32.5t-4.5 -39.5q-16 -87 -97 -136.5t-163 -49.5h-283zM192 413q135 3 155 3q34 0 66.5 25t40.5 75
q9 52 -22 74t-74 22h-132zM138 100q100 2 167 2q38 0 72.5 28t43.5 78q8 48 -17.5 74.5t-77.5 26.5l-151 -1z" />
    <glyph glyph-name="C" unicode="C" horiz-adv-x="796" 
d="M57 347q29 160 159.5 268.5t279.5 108.5q113 0 194 -64.5t106 -167.5l-123 -33q-21 66 -69.5 109t-126.5 43q-111 0 -194.5 -71.5t-104.5 -192.5q-19 -108 41.5 -179t166.5 -71q88 0 153 43t100 111l110 -38q-47 -95 -159 -164t-226 -69q-152 0 -243 105.5t-64 261.5z
" />
    <glyph glyph-name="D" unicode="D" horiz-adv-x="681" 
d="M-5 -5l130 714h263q155 0 227.5 -97.5t43.5 -258.5q-28 -163 -140 -260.5t-270 -97.5h-254zM131 104q112 2 154 2q36 0 74.5 14.5t76.5 43t67.5 79.5t40.5 117q11 55 1 95.5t-28.5 68t-46.5 44.5t-53 24t-48 7l-151 -1z" />
    <glyph glyph-name="E" unicode="E" horiz-adv-x="518" 
d="M-5 -4l126 714h436l-19 -109h-318l-33 -189h286l-20 -110h-287l-34 -196h321l-20 -110h-438z" />
    <glyph glyph-name="F" unicode="F" horiz-adv-x="517" 
d="M-5 -6l128 724h437l-21 -114h-319l-36 -206h283l-19 -108h-285l-52 -295z" />
    <glyph glyph-name="G" unicode="G" horiz-adv-x="785" 
d="M455 388h314l-20 -117q-21 -119 -122 -206t-259 -87q-167 0 -253 105.5t-58 263.5t150 270.5t272 112.5q132 0 202.5 -53.5t94.5 -135.5l-122 -44q-20 58 -67.5 89t-116.5 31q-94 0 -182 -69.5t-109 -188.5q-22 -125 38.5 -197t164.5 -72q100 0 167 52.5t81 133.5h-195z
" />
    <glyph glyph-name="H" unicode="H" horiz-adv-x="647" 
d="M502 312h-335l-55 -317h-117l126 715h117l-52 -293h335l52 298h116l-127 -721h-117z" />
    <glyph glyph-name="I" unicode="I" horiz-adv-x="241" 
d="M241 709l-126 -716h-120l126 716h120z" />
    <glyph glyph-name="J" unicode="J" horiz-adv-x="538" 
d="M577 715l-81 -475q-21 -122 -95 -192t-174 -70q-54 0 -95 15t-63 35.5t-36.5 51t-18.5 50.5t-7 45l123 26q6 -43 29.5 -76.5t72.5 -33.5q58 0 94 37t48 101l85 485z" />
    <glyph glyph-name="K" unicode="K" horiz-adv-x="638" 
d="M573 -5l-264 380l358 338h-149l-331 -324l56 320h-122l-126 -715h123l61 345l235 -343z" />
    <glyph glyph-name="L" unicode="L" horiz-adv-x="491" 
d="M445 107l-19 -112h-431l127 718h121l-107 -606h309z" />
    <glyph glyph-name="M" unicode="M" horiz-adv-x="774" 
d="M197 481l-86 -485h-116l127 720h111l164 -409l309 411h111l-128 -722h-118l85 482l-234 -319h-100z" />
    <glyph glyph-name="N" unicode="N" horiz-adv-x="663" 
d="M211 524l253 -530h113l126 715h-118l-89 -510l-246 510h-129l-126 -714h123z" />
    <glyph glyph-name="O" unicode="O" 
d="M360 -26q-153 0 -241.5 111t-60.5 268t155.5 268t280.5 111q152 0 240.5 -111t60.5 -268t-155.5 -268t-279.5 -111zM383 90q103 0 190.5 78t105.5 184q20 108 -39.5 186t-163.5 78t-191 -78t-107 -186q-18 -107 42 -184.5t163 -77.5z" />
    <glyph glyph-name="P" unicode="P" horiz-adv-x="545" 
d="M-5 -4l127 721h242q38 0 75.5 -11t72 -35t51 -69.5t5.5 -106.5t-43.5 -106.5t-74 -69t-80.5 -34.5t-73 -11h-138l-49 -279zM178 380q126 3 133 3q14 0 28 2t33 9t34 19t28 34t18 52q5 29 -1 51t-18 32.5t-29.5 17t-28.5 7.5t-22 1h-132z" />
    <glyph glyph-name="Q" unicode="Q" 
d="M58 353q28 157 155.5 268t280.5 111q152 0 240.5 -111t60.5 -268q-14 -81 -58 -152.5t-109 -124.5l37 -77l-99 -60l-37 74q-83 -39 -169 -39q-153 0 -241.5 111t-60.5 268zM178 352q-18 -107 42 -184.5t163 -77.5q49 0 98 20l-53 106l101 62l51 -104q81 76 99 178
q20 108 -39.5 186t-163.5 78t-191 -78t-107 -186z" />
    <glyph glyph-name="R" unicode="R" horiz-adv-x="588" 
d="M-5 -4l127 718h249q106 0 161.5 -62.5t38.5 -156.5q-15 -87 -79 -144.5t-124 -57.5l155 -298h-138l-139 280h-86l-50 -281zM324 382q48 0 86.5 29t48.5 84q9 53 -24.5 83.5t-78.5 30.5h-136l-40 -227h144z" />
    <glyph glyph-name="S" unicode="S" horiz-adv-x="586" 
d="M28 183q-1 -98 67.5 -152.5t171.5 -49.5q104 5 179.5 61.5t89.5 152.5q1 26 3 46t-6.5 39.5t-15.5 34t-24.5 29t-33 25.5t-40.5 23.5t-48 22t-55 22.5q-32 11 -58 31t-28 46q-3 27 13.5 55.5t62.5 45.5q54 23 102.5 4.5t62.5 -79.5l110 47q-15 63 -59 100t-97 42.5
t-111 -4.5q-78 -17 -130 -68t-66 -114q-15 -65 17.5 -120t99.5 -78q109 -38 153 -72t30 -88q-13 -51 -59 -77.5t-103 -19.5q-44 6 -76.5 41t-36.5 92z" />
    <glyph glyph-name="T" unicode="T" horiz-adv-x="559" 
d="M281 605h-198l19 113h519l-20 -113h-198l-108 -611h-122z" />
    <glyph glyph-name="U" unicode="U" horiz-adv-x="632" 
d="M593 258q-8 -47 -27 -90.5t-54 -88t-96.5 -71.5t-140.5 -27q-56 0 -99.5 13t-68.5 35t-43 50t-22.5 57t-6.5 58t4 52l82 464h122l-82 -465q-12 -70 24.5 -111.5t107.5 -41.5q70 0 118 40.5t59 107.5l83 469h120z" />
    <glyph glyph-name="V" unicode="V" horiz-adv-x="701" 
d="M102 713h133l101 -562l296 561h130l-395 -717h-125z" />
    <glyph glyph-name="W" unicode="W" horiz-adv-x="967" 
d="M494 620h109l68 -436l222 524h135l-328 -713h-109l-73 458l-222 -457h-118l-77 712h135l38 -522z" />
    <glyph glyph-name="X" unicode="X" horiz-adv-x="681" 
d="M117 -8l-142 1l310 370l-167 352h141l118 -258l204 255h140l-287 -349l182 -371h-147l-130 277z" />
    <glyph glyph-name="Y" unicode="Y" horiz-adv-x="654" 
d="M288 324l-187 386h146l118 -280l209 280h141l-306 -386l-58 -330h-124z" />
    <glyph glyph-name="Z" unicode="Z" horiz-adv-x="596" 
d="M-5 -6l20 115l456 491h-357l19 111h502l-20 -110l-465 -496h380l-19 -110z" />
    <glyph glyph-name="bracketleft" unicode="[" horiz-adv-x="310" 
d="M203 -132h-230l162 922h229l-16 -92h-120l-130 -737h121z" />
    <glyph glyph-name="backslash" unicode="\" horiz-adv-x="483" 
d="M121 712h106l171 -719l-108 1z" />
    <glyph glyph-name="bracketright" unicode="]" horiz-adv-x="310" 
d="M-27 -132l16 93h121l130 737h-120l16 92h229l-162 -922h-230z" />
    <glyph glyph-name="underscore" unicode="_" horiz-adv-x="592" 
d="M-21 -98l16 93h512l-16 -93h-512z" />
    <glyph glyph-name="a" unicode="a" horiz-adv-x="525" 
d="M187 -18q-78 -8 -126 31.5t-44 106.5q16 142 189 171q99 16 163 5q9 19 11 38.5t-10.5 40t-43.5 28.5q-47 13 -90 -3t-68 -62l-92 36q33 65 111 104q43 23 103.5 27.5t108.5 -14.5q56 -22 80.5 -68.5t15.5 -99.5l-55 -328h-110l7 63q-62 -68 -150 -76zM240 74
q55 13 89 51.5t35 78.5q-116 8 -155 1q-66 -13 -76 -66q-6 -37 25.5 -56.5t81.5 -8.5z" />
    <glyph glyph-name="b" unicode="b" horiz-adv-x="583" 
d="M188 435q70 76 183 69q76 -5 128.5 -62t46.5 -158q-5 -80 -37.5 -142t-77 -96t-89.5 -50t-83 -14q-48 2 -86 22t-56 50l-15 -58l-107 -1l131 730l113 -1zM150 243q-11 -61 16.5 -109.5t90.5 -50.5t111 44.5t60 113.5q13 72 -18.5 118t-92.5 43q-60 -3 -107.5 -45.5
t-59.5 -113.5z" />
    <glyph glyph-name="c" unicode="c" horiz-adv-x="550" 
d="M294 399q100 12 129 -82l110 33q-12 68 -66 115.5t-149 43.5q-97 -5 -183 -79t-105 -182q-21 -116 34.5 -191.5t156.5 -79.5q89 -4 162.5 37t115.5 119l-99 37q-21 -40 -64.5 -64.5t-90.5 -20.5q-56 4 -85 50.5t-18 111.5q9 55 51.5 100t100.5 52z" />
    <glyph glyph-name="d" unicode="d" horiz-adv-x="583" 
d="M625 725l-127 -730l-110 1l5 57q-28 -33 -73 -53.5t-98 -20.5q-42 0 -80 18.5t-67 55t-38 90t7 124.5q14 57 43 102t64.5 72t71.5 42t72 19q47 6 94 -9.5t74 -60.5l51 292zM427 242q12 69 -16 113t-94 45q-57 2 -106 -44t-61 -115q-12 -65 21 -111.5t95 -44.5
q49 2 85.5 29t53 59.5t22.5 68.5z" />
    <glyph glyph-name="e" unicode="e" horiz-adv-x="575" 
d="M39 244q-19 -111 36.5 -185t172.5 -74q89 0 157.5 43t100.5 97l-99 31q-57 -80 -152 -76q-45 2 -72 28.5t-33 54.5t-2 51l380 4q35 140 -23 213t-167 73q-107 0 -192 -68t-107 -192zM169 303q12 42 49.5 71.5t82.5 33.5q66 6 99 -28.5t25 -75.5z" />
    <glyph glyph-name="f" unicode="f" horiz-adv-x="356" 
d="M409 617q-22 6 -40.5 6t-30.5 -3.5t-22 -14t-15.5 -18.5t-10.5 -24t-7 -24t-4.5 -25.5t-3.5 -22.5h116l-16 -100h-118l-70 -395l-116 -1l70 396h-85l16 100h47q24 0 32 6.5t12 31.5q12 73 43 115q43 57 109 79t144 -1z" />
    <glyph glyph-name="g" unicode="g" horiz-adv-x="582" 
d="M475 492l-11 -54q-41 51 -105.5 62.5t-126.5 -12t-114.5 -79t-71.5 -129.5q-23 -91 1 -161.5t83 -102.5q35 -20 78 -25t94.5 11.5t93.5 57.5q-34 -192 -176 -192q-80 0 -109 81l-116 -30q12 -48 37 -81.5t58 -49t65 -21t66 -3.5q117 9 189.5 82.5t92.5 186.5
q4 21 32.5 190t46.5 268zM255 94q-54 0 -84.5 44.5t-19.5 108.5q11 63 53 104.5t96 49.5q59 7 100.5 -34.5t27.5 -119.5q-13 -77 -63.5 -115t-109.5 -38z" />
    <glyph glyph-name="h" unicode="h" horiz-adv-x="535" 
d="M-4 -5l128 730l119 -1l-52 -293q16 25 63 48t96 23q46 0 79 -14.5t49 -35.5t23.5 -50.5t7 -55t-5.5 -53.5l-53 -298h-119l49 280q23 128 -77 128q-46 0 -87.5 -34t-52.5 -94l-49 -280h-118z" />
    <glyph glyph-name="i" unicode="i" horiz-adv-x="230" 
d="M174 582q-32 0 -50 21t-13 52q6 31 31.5 52.5t57.5 21.5q31 0 49 -21.5t12 -52.5q-5 -31 -30.5 -52t-56.5 -21zM217 493l-88 -500h-117l88 500h117z" />
    <glyph glyph-name="j" unicode="j" horiz-adv-x="212" 
d="M156 584q-32 0 -50 21t-12 52q5 31 30.5 52.5t57.5 21.5q31 0 49 -21.5t13 -52.5q-6 -31 -31.5 -52t-56.5 -21zM-7 -13q-16 -88 -43 -100q-26 -15 -61 4l-43 -91q48 -24 98 -24q39 0 69 17t47.5 44.5t26.5 51.5t14 48l10 57l88 499h-117z" />
    <glyph glyph-name="k" unicode="k" horiz-adv-x="539" 
d="M321 -5l-167 234l-41 -234h-118l129 732h119l-77 -439l230 204h144l-258 -231l192 -266h-153z" />
    <glyph glyph-name="l" unicode="l" horiz-adv-x="238" 
d="M261 723l-128 -730h-118l128 730h118z" />
    <glyph glyph-name="m" unicode="m" horiz-adv-x="846" 
d="M82 488h108l-12 -70q10 12 26.5 26.5t52.5 34.5t71 24q72 9 110 -19.5t49 -69.5q52 75 165 89q53 6 90.5 -9t53.5 -43.5t23.5 -63t-0.5 -66.5l-58 -325h-115l50 285q21 121 -60 121q-62 0 -101 -39.5t-51 -107.5l-46 -260h-115l45 257q6 41 7 74t-16 54t-54 21
q-124 0 -153 -169l-42 -237h-115z" />
    <glyph glyph-name="n" unicode="n" horiz-adv-x="529" 
d="M82 488h108l-12 -70q63 75 141 84q75 9 119.5 -18t57.5 -70q13 -45 -6 -159l-46 -260h-115l47 266q13 74 -4.5 108t-92.5 31q-38 -1 -77 -42.5t-52 -115.5l-43 -247h-112z" />
    <glyph glyph-name="o" unicode="o" horiz-adv-x="605" 
d="M39 245q20 109 109 185t200 76t173.5 -76.5t42.5 -184.5q-19 -109 -109 -188t-200 -79t-172.5 79t-43.5 188zM154 244q-12 -73 24 -117t97 -44q60 0 111.5 44t63.5 117q12 69 -24 114t-95 45q-60 0 -112.5 -45t-64.5 -114z" />
    <glyph glyph-name="p" unicode="p" horiz-adv-x="572" 
d="M-37 -198l119 689l104 -1l-4 -52q61 69 165 69q42 0 80.5 -18.5t67.5 -55t38 -90t-7 -124.5q-19 -75 -63.5 -128.5t-91.5 -77t-97 -29.5q-106 -12 -160 55l-41 -236zM145 243q-12 -68 16.5 -112.5t93.5 -45.5q58 -1 106.5 45t60.5 114q12 66 -21 112.5t-95 43.5
q-72 -3 -111.5 -50.5t-49.5 -106.5z" />
    <glyph glyph-name="q" unicode="q" horiz-adv-x="572" 
d="M451 -198l-110 1l43 236q-78 -67 -180 -55q-35 4 -65.5 19t-57 42t-39 72t-6.5 102q7 67 36.5 123.5t70 91.5t85.5 54t87 19q107 0 141 -69l14 52l104 1zM259 85q65 1 109.5 45.5t56.5 112.5q6 24 3 51t-12.5 50t-34.5 39t-62 17q-60 3 -110 -43.5t-61 -112.5
q-12 -68 20.5 -114t90.5 -45z" />
    <glyph glyph-name="r" unicode="r" horiz-adv-x="344" 
d="M104 -4l27 150q19 108 30 143.5t40 62.5q32 31 81 40t75 -7l48 99q-22 15 -59 17.5t-65 -7.5q-69 -24 -103 -81l13 73h-109l-87 -489z" />
    <glyph glyph-name="s" unicode="s" horiz-adv-x="505" 
d="M374 349q-6 29 -33.5 45t-62.5 16q-36 0 -61.5 -14.5t-29.5 -37.5q-5 -27 18.5 -39t89.5 -28q22 -5 34 -8q136 -34 115 -149q-11 -61 -74.5 -108t-165.5 -47q-82 0 -129 41t-58 99l108 43q5 -27 26 -50.5t49 -30.5q36 -8 79.5 4t50.5 48q5 22 -15 38.5t-46 23.5t-62 15.5
t-48 12.5q-42 15 -67 49.5t-18 75.5q10 58 62 104t134 56q43 5 85 -3.5t79 -38.5t45 -77z" />
    <glyph glyph-name="t" unicode="t" horiz-adv-x="396" 
d="M313 5q-78 -28 -140 -14q-58 13 -76.5 57.5t-9.5 96.5l44 244h-86l17 100h59q21 0 28 6t10 24l21 118h107l-26 -148h120l-18 -100h-120l-29 -161q-10 -57 -11 -78t7 -38q13 -18 40.5 -20t44.5 9z" />
    <glyph glyph-name="u" unicode="u" horiz-adv-x="537" 
d="M347 56q-14 -26 -61 -50.5t-108 -24.5q-48 0 -81 17t-47.5 41t-20.5 54.5t-5 51t4 38.5l54 307h119l-52 -294q-8 -46 10.5 -79.5t78.5 -33.5q48 0 86 35.5t44 71.5l53 301h118l-87 -496h-111z" />
    <glyph glyph-name="v" unicode="v" horiz-adv-x="543" 
d="M176 -5l-124 494l127 1l73 -352l200 352l123 -1l-298 -494h-101z" />
    <glyph glyph-name="w" unicode="w" horiz-adv-x="813" 
d="M720 488l-158 -348l-52 353h-112l-175 -349l-46 346h-115l74 -495h116l173 353l51 -354h117l242 494h-115z" />
    <glyph glyph-name="x" unicode="x" horiz-adv-x="523" 
d="M112 -5h-137l215 248l-128 246h137l77 -156l127 156l137 -1l-214 -242l132 -251h-137l-79 166z" />
    <glyph glyph-name="y" unicode="y" horiz-adv-x="564" 
d="M29 -226l157 243l-124 473l124 -1l84 -332l192 332h124l-435 -715h-122z" />
    <glyph glyph-name="z" unicode="z" horiz-adv-x="487" 
d="M-5 -6l16 93l319 303h-255l17 100h395l-17 -96l-319 -300h268l-17 -100h-407z" />
    <glyph glyph-name="braceleft" unicode="{" horiz-adv-x="379" 
d="M283 -66q-72 0 -87.5 23t-4.5 85q3 16 11 65.5t15 89.5q9 52 -11.5 89t-55.5 37q31 0 67.5 37.5t45.5 87.5q5 29 10.5 64t14.5 82q12 71 33.5 93.5t95.5 22.5l15 85q-43 0 -77.5 -6.5t-57.5 -15.5t-40.5 -25.5t-27 -28.5t-17 -34t-9.5 -32.5l-6 -31.5q-1 -5 -31 -163
q-6 -36 -31.5 -61.5t-73.5 -25.5l-17 -96q46 0 63 -23.5t12 -52.5q-2 -11 -10 -67t-18 -113q-15 -83 24 -126.5t153 -43.5z" />
    <glyph glyph-name="bar" unicode="|" horiz-adv-x="169" 
d="M119 700h89l-150 -852h-89z" />
    <glyph glyph-name="braceright" unicode="}" horiz-adv-x="379" 
d="M-31 -151l15 85q50 0 77 12.5t36.5 33t16.5 62.5q3 16 12.5 65.5t16.5 89.5q9 52 42.5 89t68.5 37q-31 0 -54.5 37.5t-14.5 87.5q4 22 11 59t16 87q16 65 0.5 90.5t-88.5 25.5l15 85q43 0 75.5 -6.5t52 -15.5t31.5 -25.5t17 -28.5t4.5 -33.5t-2 -32.5t-5.5 -32l-26 -163
q-7 -36 9.5 -61.5t64.5 -25.5l-17 -96q-46 0 -71 -23.5t-30 -52.5q-2 -9 -14 -65.5t-22 -114.5q-14 -83 -69 -126.5t-168 -43.5z" />
    <glyph glyph-name="exclamdown" unicode="&#xa1;" horiz-adv-x="237" 
d="M-18 -211l98 480h87l-71 -480h-114zM164 507q32 0 51 -23t13 -56q-5 -32 -32 -55t-59 -23q-33 0 -52 23t-14 55q6 33 33.5 56t59.5 23z" />
    <glyph glyph-name="cent" unicode="&#xa2;" horiz-adv-x="566" 
d="M57 346q-18 -102 29.5 -175t126.5 -88l-15 -83h94l15 84q140 21 216 147l-91 30q-23 -39 -65.5 -62.5t-100.5 -20.5q-60 3 -88.5 51.5t-16.5 115.5q11 63 55.5 107t103.5 50q108 12 135 -82l101 27q-25 127 -159 150l15 83h-94l-15 -84q-84 -17 -156.5 -86.5
t-89.5 -163.5z" />
    <glyph glyph-name="sterling" unicode="&#xa3;" horiz-adv-x="567" 
d="M417 153q-24 -56 -105 -56q-10 0 -51 -0.5t-102 -0.5q30 23 53 66t30 83h108l15 87h-126q-19 39 -28 76.5t-4 74.5t28 61q30 30 69 36t71 -15.5t40 -62.5l107 44q-21 63 -62 98.5t-87.5 40.5t-94.5 -7t-87 -38.5t-60 -58.5q-74 -111 -3 -248h-72l-16 -87h99
q-8 -48 -38 -92t-86 -67l-16 -91l265 -2q110 -1 156 27t85 105z" />
    <glyph glyph-name="yen" unicode="&#xa5;" horiz-adv-x="647" 
d="M115 676h133l112 -262l193 261h129l-214 -280h113l-16 -90h-170l-13 -71h171l-16 -91h-171l-26 -148h-114l26 148h-170l16 91h170l13 73h-168l16 88h112z" />
    <glyph glyph-name="section" unicode="&#xa7;" horiz-adv-x="550" 
d="M-12 -46q5 -97 68.5 -145.5t154.5 -42.5q96 6 166.5 60t82.5 143q10 73 -44 129q79 52 93 147q11 71 -34 120.5t-161 95.5q-86 34 -87 74q-3 51 59 79q62 26 106 3.5t53 -75.5l104 42q-18 96 -91 129t-165 12q-75 -17 -121.5 -66.5t-57.5 -109.5q-16 -75 51 -140
q-79 -50 -98 -131q-15 -64 15.5 -110.5t97.5 -72.5q9 -3 26 -10q32 -12 47.5 -18.5t39 -18.5t33.5 -22.5t17 -26.5t4 -34q-10 -54 -56 -79t-95 -16q-89 17 -96 129zM182 261q-3 28 17.5 57.5t58.5 38.5q36 -14 51.5 -20t38 -18.5t30.5 -23t13 -27.5t1 -38q-11 -57 -65 -71
q-28 15 -62 27q-78 30 -83 75z" />
    <glyph glyph-name="copyright" unicode="&#xa9;" horiz-adv-x="833" 
d="M369 -25q-156 0 -247.5 110.5t-63.5 266.5q27 155 157 265.5t286 110.5q155 0 246 -110.5t64 -265.5q-28 -156 -157.5 -266.5t-284.5 -110.5zM387 150q-77 3 -119.5 61t-27.5 147q14 82 81 139t141 61q73 3 114.5 -33t50.5 -89l-85 -25q-23 73 -99 63q-44 -6 -76.5 -40.5
t-39.5 -76.5q-8 -51 13.5 -86t65.5 -38q36 -3 69.5 15t48.5 49l77 -28q-32 -60 -88 -91t-126 -28zM382 53q123 0 226 87.5t125 211.5q22 123 -50 211t-195 88q-124 0 -227.5 -88t-125.5 -211q-22 -124 50.5 -211.5t196.5 -87.5z" />
    <glyph glyph-name="ordfeminine" unicode="&#xaa;" horiz-adv-x="396" 
d="M185 289q-56 -6 -90.5 21.5t-30.5 74.5q5 49 35.5 77.5t89.5 40.5q62 12 116 4q27 50 -30 65q-31 9 -58.5 -2.5t-45.5 -38.5l-66 30q24 43 74 69q30 17 75 20.5t79 -8.5q40 -16 57.5 -48.5t11.5 -67.5l-38 -228l-79 1l5 43q-41 -48 -105 -53zM225 371q71 15 73 63
q-11 0 -36.5 2t-37 2t-28 -3t-24.5 -11.5t-11 -23.5q-3 -19 16 -27.5t48 -1.5z" />
    <glyph glyph-name="guillemotleft" unicode="&#xab;" horiz-adv-x="563" 
d="M212 41l-169 225l249 228l54 -61l-185 -167l125 -167zM422 42l-170 225l250 228l53 -61l-185 -167l126 -167z" />
    <glyph glyph-name="registered" unicode="&#xae;" horiz-adv-x="460" 
d="M245 335q-79 0 -125 55.5t-32 134.5q14 78 79.5 134t144.5 56q78 0 124 -56t32 -134q-13 -79 -79 -134.5t-144 -55.5zM252 378q61 0 111.5 43.5t61.5 104.5q10 60 -25.5 103t-95.5 43q-61 0 -111.5 -43t-61.5 -103q-11 -61 25 -105t96 -43zM194 432l35 197h73
q29 0 44.5 -17.5t10.5 -42.5q-4 -24 -22 -40t-35 -16l44 -81h-43l-39 77h-18l-14 -78zM284 538q30 0 36 31q2 12 -6 20.5t-22 8.5h-32l-11 -60h35z" />
    <glyph glyph-name="degree" unicode="&#xb0;" horiz-adv-x="370" 
d="M214 412q-59 0 -94.5 42.5t-25.5 100.5q10 60 60.5 102t109.5 42q60 0 95 -42t25 -102q-11 -59 -61 -101t-109 -42zM229 483q30 0 55 21.5t31 52.5q5 29 -12.5 51t-47.5 22t-56 -22t-31 -51q-6 -31 12.5 -52.5t48.5 -21.5z" />
    <glyph glyph-name="uni00B2" unicode="&#xb2;" horiz-adv-x="337" 
d="M176 414l49 44q2 2 20 17.5t24.5 22t22.5 21.5t23.5 25.5t17.5 25.5t14.5 29t5.5 28q3 49 -30 73.5t-79 24.5q-84 0 -137 -92l60 -27q26 49 66 49q30 0 41 -23t-17 -57q-56 -61 -182 -160l-12 -68h251l11 67h-149z" />
    <glyph glyph-name="uni00B3" unicode="&#xb3;" horiz-adv-x="341" 
d="M184 342q-52 0 -78.5 27t-32.5 67l78 24q2 -25 18 -37.5t35 -11.5t35.5 13t20.5 31q5 28 -14.5 40.5t-71.5 11.5l11 61q62 1 85 34q17 23 -4 35q-4 2 -9 3q-9 17 -37 9t-43 -36l-60 31q20 35 56.5 56.5t70.5 22.5q43 1 77.5 -20.5t31.5 -72.5q-2 -27 -18 -48.5
t-29.5 -29.5t-17.5 -8q5 0 17.5 -8.5t24 -30t7.5 -47.5q-9 -52 -51.5 -84t-101.5 -32z" />
    <glyph glyph-name="periodcentered" unicode="&#xb7;" horiz-adv-x="237" 
d="M117 238q-33 0 -52 23t-13 56q5 32 32.5 55t59.5 23t51 -23t14 -55q-6 -33 -33 -56t-59 -23z" />
    <glyph glyph-name="uni00B9" unicode="&#xb9;" horiz-adv-x="256" 
d="M207 632l-72 -32l-23 59l124 60h63l-66 -370h-76z" />
    <glyph glyph-name="ordmasculine" unicode="&#xba;" horiz-adv-x="458" 
d="M79 472q14 78 78 132t144 54q79 0 124.5 -54t31.5 -132t-78.5 -134t-143.5 -56q-80 1 -125 56.5t-31 133.5zM180 471q-7 -43 14.5 -69.5t58.5 -26.5q36 1 66 27t38 69q8 41 -13.5 67t-57.5 27q-37 0 -68 -26.5t-38 -67.5z" />
    <glyph glyph-name="guillemotright" unicode="&#xbb;" horiz-adv-x="563" 
d="M68 42l-54 58l184 167l-126 167l76 61l168 -228zM277 41l-54 58l185 167l-126 167l75 61l169 -228z" />
    <glyph glyph-name="questiondown" unicode="&#xbf;" horiz-adv-x="503" 
d="M311 267q-9 -52 -21.5 -82t-27.5 -47.5t-48 -44.5q-9 -8 -29 -23t-30 -24t-23.5 -23.5t-21 -30.5t-10.5 -35q-7 -38 16 -62.5t63 -24.5q38 0 73.5 22.5t58.5 67.5l94 -41q-37 -63 -99 -107.5t-131 -44.5q-97 0 -149.5 50.5t-38.5 130.5q11 62 43 102.5t80 75.5
q39 29 59.5 60.5t26.5 80.5h115zM295 509q33 0 52 -23.5t13 -55.5q-5 -32 -32.5 -55t-60.5 -23q-32 0 -50.5 23t-13.5 55q6 32 33 55.5t59 23.5z" />
    <glyph glyph-name="Agrave" unicode="&#xc0;" horiz-adv-x="689" 
d="M-35 -6l397 716l130 -1l142 -715h-125l-31 180h-292l-96 -180h-125zM235 279h224l-58 306zM405 764l-67 138h137l19 -138h-89z" />
    <glyph glyph-name="Aacute" unicode="&#xc1;" horiz-adv-x="694" 
d="M-35 -6l397 716l135 -1l142 -715h-125l-31 180h-292l-96 -180h-130zM240 279h224l-58 306zM387 764l67 138h137l-115 -138h-89z" />
    <glyph glyph-name="Acircumflex" unicode="&#xc2;" horiz-adv-x="689" 
d="M-35 -6l397 716l130 -1l142 -715h-125l-31 180h-292l-96 -180h-125zM235 279h224l-58 306zM386 761l-115 1l145 133h84l94 -134h-114l-30 57h-15z" />
    <glyph glyph-name="Atilde" unicode="&#xc3;" horiz-adv-x="689" 
d="M492 709l-130 1l-397 -716h125l96 180h292l31 -180h125zM401 585l58 -306h-224zM269 778q11 61 45 90.5t82 29.5q34 0 69 -19.5t44 -19.5q34 0 41 35h78q-11 -60 -45.5 -90t-84.5 -30q-30 0 -65.5 19.5t-51.5 19.5q-13 0 -22.5 -9.5t-12.5 -25.5h-77z" />
    <glyph glyph-name="Adieresis" unicode="&#xc4;" horiz-adv-x="689" 
d="M492 709l-130 1l-397 -716h125l96 180h292l31 -180h125zM401 585l58 -306h-224zM345 768q-28 0 -43.5 19t-10.5 47q4 27 26.5 45.5t50.5 18.5q27 0 42.5 -18.5t10.5 -45.5q-5 -28 -27 -47t-49 -19zM523 768q-28 0 -43.5 19t-10.5 47q4 27 26.5 45.5t50.5 18.5
q27 0 42.5 -18.5t10.5 -45.5q-5 -28 -27 -47t-49 -19z" />
    <glyph glyph-name="Aring" unicode="&#xc5;" horiz-adv-x="689" 
d="M-35 -6l366 661q-43 36 -33 94q10 55 55.5 94t100.5 39t87.5 -39t22.5 -94q-11 -58 -61 -92l131 -663h-125l-31 180h-292l-96 -180h-125zM235 279h224l-58 306zM424 706q20 0 37 15t21 35q3 20 -9 34t-31 14q-20 0 -37.5 -14.5t-20.5 -33.5q-4 -20 8 -35t32 -15z" />
    <glyph glyph-name="AE" unicode="&#xc6;" horiz-adv-x="989" 
d="M-5 -6l541 716h56h436l-19 -109h-317l-33 -189h285l-20 -111h-286l-34 -195h320l-20 -110h-438l32 178h-238l-138 -180h-127zM334 279h182l53 301z" />
    <glyph glyph-name="Ccedilla" unicode="&#xc7;" horiz-adv-x="796" 
d="M57 347q29 160 159.5 268.5t279.5 108.5q113 0 194 -64.5t106 -167.5l-123 -33q-21 66 -69.5 109t-126.5 43q-111 0 -194.5 -71.5t-104.5 -192.5q-19 -108 41.5 -179t166.5 -71q88 0 153 43t100 111l110 -38q-44 -89 -148 -157t-212 -75l-23 -36q42 10 73 -16.5t22 -75.5
t-44 -74t-83 -25q-61 0 -84 65l69 28q5 -29 30 -29q13 0 25 9t15 25q3 15 -6 24.5t-22 9.5q-18 0 -30 -14l-57 28l50 82q-137 15 -215 118t-52 247z" />
    <glyph glyph-name="Egrave" unicode="&#xc8;" horiz-adv-x="518" 
d="M-5 -4l126 714h436l-19 -109h-318l-33 -189h286l-20 -110h-287l-34 -196h321l-20 -110h-438zM296 764l-67 138h137l19 -138h-89z" />
    <glyph glyph-name="Eacute" unicode="&#xc9;" horiz-adv-x="518" 
d="M-5 -4l126 714h436l-19 -109h-318l-33 -189h286l-20 -110h-287l-34 -196h321l-20 -110h-438zM288 764l67 138h137l-115 -138h-89z" />
    <glyph glyph-name="Ecircumflex" unicode="&#xca;" horiz-adv-x="518" 
d="M-5 -4l126 714h436l-19 -109h-318l-33 -189h286l-20 -110h-287l-34 -196h321l-20 -110h-438zM289 761l-115 1l145 133h84l94 -134h-114l-30 57h-15z" />
    <glyph glyph-name="Edieresis" unicode="&#xcb;" horiz-adv-x="518" 
d="M-5 -4l126 714h436l-19 -109h-318l-33 -189h286l-20 -110h-287l-34 -196h321l-20 -110h-438zM251 768q-28 0 -43.5 19t-10.5 47q4 27 26.5 45.5t50.5 18.5q27 0 42.5 -18.5t10.5 -45.5q-5 -28 -27 -47t-49 -19zM429 768q-28 0 -43.5 19t-10.5 47q4 27 26.5 45.5
t50.5 18.5q27 0 42.5 -18.5t10.5 -45.5q-5 -28 -27 -47t-49 -19z" />
    <glyph glyph-name="Igrave" unicode="&#xcc;" horiz-adv-x="304" 
d="M58 -7l126 716h121l-126 -716h-121zM222 764l-67 138h137l19 -138h-89z" />
    <glyph glyph-name="Iacute" unicode="&#xcd;" horiz-adv-x="303" 
d="M-5 -7l126 716h121l-126 -716h-121zM134 764l67 138h137l-115 -138h-89z" />
    <glyph glyph-name="Icircumflex" unicode="&#xce;" horiz-adv-x="443" 
d="M97 -7l126 716h121l-126 -716h-121zM245 761l-115 1l145 133h84l94 -134h-114l-30 57h-15z" />
    <glyph glyph-name="Idieresis" unicode="&#xcf;" horiz-adv-x="428" 
d="M87 -7l126 716h121l-126 -716h-121zM197 768q-28 0 -43.5 19t-10.5 47q4 27 26.5 45.5t50.5 18.5q27 0 42.5 -18.5t10.5 -45.5q-5 -28 -27 -47t-49 -19zM375 768q-28 0 -43.5 19t-10.5 47q4 27 26.5 45.5t50.5 18.5q27 0 42.5 -18.5t10.5 -45.5q-5 -28 -27 -47t-49 -19z
" />
    <glyph glyph-name="Ntilde" unicode="&#xd1;" horiz-adv-x="663" 
d="M464 -6l-253 530l-93 -529h-123l126 714h129l246 -510l89 510h118l-126 -715h-113zM267 778q11 61 45 90.5t82 29.5q34 0 68.5 -19.5t44.5 -19.5q34 0 40 35h78q-11 -60 -45.5 -90t-83.5 -30q-30 0 -66 19.5t-51 19.5q-30 0 -35 -35h-77z" />
    <glyph glyph-name="Ograve" unicode="&#xd2;" 
d="M360 -26q-153 0 -241.5 111t-60.5 268t155.5 268t280.5 111q152 0 240.5 -111t60.5 -268t-155.5 -268t-279.5 -111zM383 90q103 0 190.5 78t105.5 184q20 108 -39.5 186t-163.5 78t-191 -78t-107 -186q-18 -107 42 -184.5t163 -77.5zM458 764l-67 138h137l19 -138h-89z
" />
    <glyph glyph-name="Oacute" unicode="&#xd3;" 
d="M360 -26q-153 0 -241.5 111t-60.5 268t155.5 268t280.5 111q152 0 240.5 -111t60.5 -268t-155.5 -268t-279.5 -111zM383 90q103 0 190.5 78t105.5 184q20 108 -39.5 186t-163.5 78t-191 -78t-107 -186q-18 -107 42 -184.5t163 -77.5zM456 764l67 138h137l-115 -138h-89z
" />
    <glyph glyph-name="Ocircumflex" unicode="&#xd4;" 
d="M360 -26q-153 0 -241.5 111t-60.5 268t155.5 268t280.5 111q152 0 240.5 -111t60.5 -268t-155.5 -268t-279.5 -111zM383 90q103 0 190.5 78t105.5 184q20 108 -39.5 186t-163.5 78t-191 -78t-107 -186q-18 -107 42 -184.5t163 -77.5zM448 761l-115 1l144 133h84l95 -134
h-114l-30 57h-15z" />
    <glyph glyph-name="Otilde" unicode="&#xd5;" 
d="M360 -26q-153 0 -241.5 111t-60.5 268t155.5 268t280.5 111q152 0 240.5 -111t60.5 -268t-155.5 -268t-279.5 -111zM383 90q103 0 190.5 78t105.5 184q20 108 -39.5 186t-163.5 78t-191 -78t-107 -186q-18 -107 42 -184.5t163 -77.5zM344 778q11 61 45 90.5t82 29.5
q34 0 68.5 -19.5t44.5 -19.5q34 0 40 35h78q-11 -60 -45.5 -90t-83.5 -30q-30 0 -66 19.5t-51 19.5q-30 0 -35 -35h-77z" />
    <glyph glyph-name="Odieresis" unicode="&#xd6;" 
d="M360 -26q-153 0 -241.5 111t-60.5 268t155.5 268t280.5 111q152 0 240.5 -111t60.5 -268t-155.5 -268t-279.5 -111zM383 90q103 0 190.5 78t105.5 184q20 108 -39.5 186t-163.5 78t-191 -78t-107 -186q-18 -107 42 -184.5t163 -77.5zM409 768q-28 0 -43.5 19t-10.5 47
q4 27 26.5 45.5t50.5 18.5q27 0 42.5 -18.5t10.5 -45.5q-5 -28 -27 -47t-49 -19zM587 768q-28 0 -43.5 19t-10.5 47q4 27 26.5 45.5t50.5 18.5q27 0 42.5 -18.5t10.5 -45.5q-5 -28 -27 -47t-49 -19z" />
    <glyph glyph-name="multiply" unicode="&#xd7;" horiz-adv-x="540" 
d="M343 268l132 -158l-78 -65l-136 157l-192 -157l-53 65l188 157l-133 158l77 66l138 -160l190 160l53 -67z" />
    <glyph glyph-name="Oslash" unicode="&#xd8;" 
d="M172 -55l-85 58l50 62q-51 54 -72.5 128.5t-6.5 159.5q28 157 155.5 268t280.5 111q83 0 148 -35l51 64l84 -60l-54 -67q48 -53 67.5 -126t4.5 -155q-28 -157 -155.5 -268t-279.5 -111q-76 0 -140 31zM219 169l343 429q-38 18 -86 18q-104 0 -191 -78t-107 -186
q-18 -106 41 -183zM383 90q103 0 190.5 78t105.5 184q19 102 -37 181l-341 -427q38 -16 82 -16z" />
    <glyph glyph-name="Ugrave" unicode="&#xd9;" horiz-adv-x="632" 
d="M275 -19q-56 0 -99.5 13t-68.5 35t-43 50t-22.5 57t-6.5 58t4 52l82 464h122l-82 -465q-12 -70 24.5 -111.5t107.5 -41.5q70 0 118 40.5t59 107.5l83 469h120l-80 -451q-8 -47 -27 -90.5t-54 -88t-96.5 -71.5t-140.5 -27zM368 764l-67 138h137l19 -138h-89z" />
    <glyph glyph-name="Uacute" unicode="&#xda;" horiz-adv-x="632" 
d="M275 -19q-56 0 -99.5 13t-68.5 35t-43 50t-22.5 57t-6.5 58t4 52l82 464h122l-82 -465q-12 -70 24.5 -111.5t107.5 -41.5q70 0 118 40.5t59 107.5l83 469h120l-80 -451q-8 -47 -27 -90.5t-54 -88t-96.5 -71.5t-140.5 -27zM366 764l67 138h137l-115 -138h-89z" />
    <glyph glyph-name="Ucircumflex" unicode="&#xdb;" horiz-adv-x="632" 
d="M275 -19q-56 0 -99.5 13t-68.5 35t-43 50t-22.5 57t-6.5 58t4 52l82 464h122l-82 -465q-12 -70 24.5 -111.5t107.5 -41.5q70 0 118 40.5t59 107.5l83 469h120l-80 -451q-8 -47 -27 -90.5t-54 -88t-96.5 -71.5t-140.5 -27zM359 761l-115 1l144 133h84l95 -134h-114l-30 57
h-15z" />
    <glyph glyph-name="Udieresis" unicode="&#xdc;" horiz-adv-x="632" 
d="M275 -19q-56 0 -99.5 13t-68.5 35t-43 50t-22.5 57t-6.5 58t4 52l82 464h122l-82 -465q-12 -70 24.5 -111.5t107.5 -41.5q70 0 118 40.5t59 107.5l83 469h120l-80 -451q-8 -47 -27 -90.5t-54 -88t-96.5 -71.5t-140.5 -27zM321 768q-28 0 -43.5 19t-10.5 47q5 27 27 45.5
t50 18.5q27 0 42.5 -18.5t10.5 -45.5q-4 -28 -26.5 -47t-49.5 -19zM499 768q-28 0 -43.5 19t-10.5 47q5 27 27 45.5t50 18.5q27 0 42.5 -18.5t10.5 -45.5q-4 -28 -26.5 -47t-49.5 -19z" />
    <glyph glyph-name="Yacute" unicode="&#xdd;" horiz-adv-x="654" 
d="M227 -6l61 330l-187 386h146l118 -280l209 280h141l-306 -386l-58 -330h-124zM376 764l67 138h137l-115 -138h-89z" />
    <glyph glyph-name="germandbls" unicode="&#xdf;" horiz-adv-x="555" 
d="M182 -11l19 105q73 -14 128.5 20.5t65.5 92.5q11 59 -28 92.5t-116 28.5l18 103q70 -3 108 28t45 69q8 44 -19 72t-69 28q-53 0 -90 -37t-46 -88l-90 -509h-113l89 506q19 105 91.5 167.5t178.5 62.5q97 0 141.5 -52.5t39.5 -113.5q-4 -65 -42 -113.5t-85 -67.5
q39 0 76 -50.5t23 -125.5q-10 -57 -36.5 -100t-61 -66t-75 -38t-79 -15t-73.5 1z" />
    <glyph glyph-name="agrave" unicode="&#xe0;" horiz-adv-x="525" 
d="M187 -18q-78 -8 -126 31.5t-44 106.5q16 142 189 171q99 16 163 5q9 19 11 38.5t-10.5 40t-43.5 28.5q-47 13 -90 -3t-68 -62l-92 36q33 65 111 104q43 23 102.5 27.5t108.5 -14.5q56 -22 81 -69t16 -99l-55 -328h-110l7 63q-62 -68 -150 -76zM240 74q55 13 89 51.5
t35 78.5q-116 8 -155 1q-66 -13 -76 -66q-6 -37 25.5 -56.5t81.5 -8.5zM278 587l-66 138h137l18 -138h-89z" />
    <glyph glyph-name="aacute" unicode="&#xe1;" horiz-adv-x="525" 
d="M187 -18q-78 -8 -126 31.5t-44 106.5q16 142 189 171q99 16 163 5q9 19 11 38.5t-10.5 40t-43.5 28.5q-47 13 -90 -3t-68 -62l-92 36q33 65 111 104q43 23 102.5 27.5t108.5 -14.5q56 -22 81 -69t16 -99l-55 -328h-110l7 63q-62 -68 -150 -76zM240 74q55 13 89 51.5
t35 78.5q-116 8 -155 1q-66 -13 -76 -66q-6 -37 25.5 -56.5t81.5 -8.5zM276 587l68 138h137l-116 -138h-89z" />
    <glyph glyph-name="acircumflex" unicode="&#xe2;" horiz-adv-x="525" 
d="M187 -18q-78 -8 -126 31.5t-44 106.5q16 142 189 171q99 16 163 5q9 19 11 38.5t-10.5 40t-43.5 28.5q-47 13 -90 -3t-68 -62l-92 36q33 65 111 104q43 23 102.5 27.5t108.5 -14.5q56 -22 81 -69t16 -99l-55 -328h-110l7 63q-62 -68 -150 -76zM240 74q55 13 89 51.5
t35 78.5q-116 8 -155 1q-66 -13 -76 -66q-6 -37 25.5 -56.5t81.5 -8.5zM284 588l-115 1l145 133h84l94 -134h-114l-30 57h-15z" />
    <glyph glyph-name="atilde" unicode="&#xe3;" horiz-adv-x="525" 
d="M187 -18q-78 -8 -126 31.5t-44 106.5q16 142 189 171q99 16 163 5q9 19 11 38.5t-10.5 40t-43.5 28.5q-47 13 -90 -3t-68 -62l-92 36q33 65 111 104q43 23 102.5 27.5t108.5 -14.5q56 -22 81 -69t16 -99l-55 -328h-110l7 63q-62 -68 -150 -76zM240 74q55 13 89 51.5
t35 78.5q-116 8 -155 1q-66 -13 -76 -66q-6 -37 25.5 -56.5t81.5 -8.5zM155 603q11 61 45 90.5t82 29.5q34 0 69 -19.5t45 -19.5q33 0 40 35h78q-11 -60 -45.5 -90t-83.5 -30q-30 0 -66 19.5t-52 19.5q-13 0 -22.5 -9.5t-12.5 -25.5h-77z" />
    <glyph glyph-name="adieresis" unicode="&#xe4;" horiz-adv-x="525" 
d="M187 -18q-78 -8 -126 31.5t-44 106.5q16 142 189 171q99 16 163 5q9 19 11 38.5t-10.5 40t-43.5 28.5q-47 13 -90 -3t-68 -62l-92 36q33 65 111 104q43 23 102.5 27.5t108.5 -14.5q56 -22 81 -69t16 -99l-55 -328h-110l7 63q-62 -68 -150 -76zM240 74q55 13 89 51.5
t35 78.5q-116 8 -155 1q-66 -13 -76 -66q-6 -37 25.5 -56.5t81.5 -8.5zM241 587q-28 0 -43.5 19t-10.5 47q5 27 27 45.5t50 18.5q27 0 42.5 -18.5t10.5 -45.5q-4 -28 -26.5 -47t-49.5 -19zM419 587q-28 0 -43.5 19t-10.5 47q5 27 27 45.5t50 18.5q27 0 42.5 -18.5
t10.5 -45.5q-4 -28 -26.5 -47t-49.5 -19z" />
    <glyph glyph-name="aring" unicode="&#xe5;" horiz-adv-x="525" 
d="M187 -18q-78 -8 -126 31.5t-44 106.5q16 142 189 171q99 16 163 5q9 19 11 38.5t-10.5 40t-43.5 28.5q-47 13 -90 -3t-68 -62l-92 36q33 65 111 104q43 23 102.5 27.5t108.5 -14.5q56 -22 81 -69t16 -99l-55 -328h-110l7 63q-62 -68 -150 -76zM240 74q55 13 89 51.5
t35 78.5q-116 8 -155 1q-66 -13 -76 -66q-6 -37 25.5 -56.5t81.5 -8.5zM321 563q-44 0 -71 32t-19 76q7 45 45 76.5t83 31.5q44 0 70.5 -31.5t19.5 -76.5q-8 -44 -46 -76t-82 -32zM335 630q17 0 31 12.5t17 29.5q3 16 -7 28.5t-27 12.5q-16 0 -31 -12.5t-18 -28.5
q-3 -17 7.5 -29.5t27.5 -12.5z" />
    <glyph glyph-name="ae" unicode="&#xe6;" horiz-adv-x="903" 
d="M187 -18q-78 -5 -126 33t-44 105q8 72 57 115t132 56q99 16 163 5q9 19 11 38.5t-10.5 40t-43.5 28.5q-47 13 -90 -3t-68 -62l-92 36q33 65 111 104q43 23 102.5 27.5t108.5 -14.5q50 -20 73 -63q79 76 195 76q109 0 167 -73t23 -213l-380 -4q-4 -23 2 -51t33 -54.5
t72 -28.5q95 -4 152 76l99 -31q-32 -54 -100.5 -97t-157.5 -43q-126 0 -177 92q-40 -38 -83.5 -60t-69 -27t-59.5 -8zM240 74q55 13 89 51.5t35 78.5q-116 8 -155 1q-66 -13 -76 -66q-6 -37 25.5 -56.5t81.5 -8.5zM497 303l256 1q8 41 -25 75.5t-99 28.5q-45 -4 -82.5 -33.5
t-49.5 -71.5z" />
    <glyph glyph-name="ccedilla" unicode="&#xe7;" horiz-adv-x="550" 
d="M212 -246q-61 0 -84 65l69 28q5 -29 30 -29q13 0 25 9t15 25q3 15 -6 24.5t-22 9.5q-18 0 -30 -14l-57 28l47 78q-91 15 -140 87t-29 183q19 109 107.5 185t193.5 77q50 0 89 -15t61.5 -40.5t35 -51t17.5 -52.5l-116 -34q-35 94 -121 82q-63 -9 -104.5 -53.5t-50.5 -98.5
q-10 -64 19 -111t85 -51q46 -3 89.5 21.5t63.5 61.5l100 -35q-29 -60 -94 -106.5t-141 -51.5l-20 -30q42 10 73 -16.5t22 -75.5t-44 -74t-83 -25z" />
    <glyph glyph-name="egrave" unicode="&#xe8;" horiz-adv-x="575" 
d="M39 244q-19 -111 36.5 -185t172.5 -74q89 0 157.5 43t100.5 97l-99 31q-57 -80 -152 -76q-45 2 -72 28.5t-33 54.5t-2 51l380 4q35 140 -23 213t-167 73q-107 0 -192 -68t-107 -192zM169 303q12 42 49.5 71.5t82.5 33.5q66 6 99 -28.5t25 -75.5zM399 587h-89l-67 138h137
z" />
    <glyph glyph-name="eacute" unicode="&#xe9;" horiz-adv-x="575" 
d="M39 244q-19 -111 36.5 -185t172.5 -74q89 0 157.5 43t100.5 97l-99 31q-57 -80 -152 -76q-45 2 -72 28.5t-33 54.5t-2 51l380 4q35 140 -23 213t-167 73q-107 0 -192 -68t-107 -192zM169 303q12 42 49.5 71.5t82.5 33.5q66 6 99 -28.5t25 -75.5zM307 587l68 138h137
l-116 -138h-89z" />
    <glyph glyph-name="ecircumflex" unicode="&#xea;" horiz-adv-x="575" 
d="M39 244q-19 -111 36.5 -185t172.5 -74q89 0 157.5 43t100.5 97l-99 31q-57 -80 -152 -76q-45 2 -72 28.5t-33 54.5t-2 51l380 4q35 140 -23 213t-167 73q-107 0 -192 -68t-107 -192zM169 303q12 42 49.5 71.5t82.5 33.5q66 6 99 -28.5t25 -75.5zM302 588l-115 1l145 133
h84l94 -134h-114l-30 57h-15z" />
    <glyph glyph-name="edieresis" unicode="&#xeb;" horiz-adv-x="575" 
d="M39 244q-19 -111 36.5 -185t172.5 -74q89 0 157.5 43t100.5 97l-99 31q-57 -80 -152 -76q-45 2 -72 28.5t-33 54.5t-2 51l380 4q35 140 -23 213t-167 73q-107 0 -192 -68t-107 -192zM169 303q12 42 49.5 71.5t82.5 33.5q66 6 99 -28.5t25 -75.5zM261 587q-28 0 -43.5 19
t-10.5 47q5 27 27 45.5t50 18.5q27 0 42.5 -18.5t10.5 -45.5q-4 -28 -26.5 -47t-49.5 -19zM439 587q-28 0 -43.5 19t-10.5 47q5 27 27 45.5t50 18.5q27 0 42.5 -18.5t10.5 -45.5q-4 -28 -26.5 -47t-49.5 -19z" />
    <glyph glyph-name="igrave" unicode="&#xec;" horiz-adv-x="264" 
d="M267 493l-88 -500h-117l88 500h117zM279 587h-89l-66 138h137z" />
    <glyph glyph-name="iacute" unicode="&#xed;" horiz-adv-x="265" 
d="M199 493l-88 -500h-116l88 500h116zM104 587l68 138h137l-116 -138h-89z" />
    <glyph glyph-name="icircumflex" unicode="&#xee;" horiz-adv-x="403" 
d="M302 493l-88 -500h-116l88 500h116zM215 588l-115 1l144 133h84l95 -134h-114l-30 57h-15z" />
    <glyph glyph-name="idieresis" unicode="&#xef;" horiz-adv-x="388" 
d="M295 493l-88 -500h-116l88 500h116zM165 587q-28 0 -43.5 19t-10.5 47q4 27 26.5 45.5t50.5 18.5q27 0 42.5 -18.5t10.5 -45.5q-5 -28 -27 -47t-49 -19zM343 587q-28 0 -43.5 19t-10.5 47q4 27 26.5 45.5t50.5 18.5q27 0 42.5 -18.5t10.5 -45.5q-5 -28 -27 -47t-49 -19z
" />
    <glyph glyph-name="ntilde" unicode="&#xf1;" horiz-adv-x="529" 
d="M82 488h108l-12 -70q63 75 141 84q75 9 119.5 -18t57.5 -70q13 -45 -6 -159l-46 -260h-115l47 266q13 72 -4 106.5t-83 32.5q-48 -2 -87 -42t-52 -116l-43 -247h-112zM139 604q11 61 45 90.5t82 29.5q34 0 69 -19.5t45 -19.5q34 0 40 35h78q-12 -60 -46 -90t-83 -30
q-30 0 -66 19.5t-51 19.5q-30 0 -36 -35h-77z" />
    <glyph glyph-name="ograve" unicode="&#xf2;" horiz-adv-x="605" 
d="M39 245q20 109 109 185t200 76t173.5 -76.5t42.5 -184.5q-19 -109 -109 -188t-200 -79t-172.5 79t-43.5 188zM154 244q-12 -73 24 -117t97 -44q60 0 111.5 44t63.5 117q12 69 -24 114t-95 45q-60 0 -112.5 -45t-64.5 -114zM406 587h-89l-67 138h137z" />
    <glyph glyph-name="oacute" unicode="&#xf3;" horiz-adv-x="605" 
d="M39 245q20 109 109 185t200 76t173.5 -76.5t42.5 -184.5q-19 -109 -109 -188t-200 -79t-172.5 79t-43.5 188zM154 244q-12 -73 24 -117t97 -44q60 0 111.5 44t63.5 117q12 69 -24 114t-95 45q-60 0 -112.5 -45t-64.5 -114zM315 587l68 138h137l-116 -138h-89z" />
    <glyph glyph-name="ocircumflex" unicode="&#xf4;" horiz-adv-x="605" 
d="M39 245q20 109 109 185t200 76t173.5 -76.5t42.5 -184.5q-19 -109 -109 -188t-200 -79t-172.5 79t-43.5 188zM154 244q-12 -73 24 -117t97 -44q60 0 111.5 44t63.5 117q12 69 -24 114t-95 45q-60 0 -112.5 -45t-64.5 -114zM314 588l-115 1l145 133h84l94 -134h-114
l-30 57h-15z" />
    <glyph glyph-name="otilde" unicode="&#xf5;" horiz-adv-x="605" 
d="M39 245q20 109 109 185t200 76t173.5 -76.5t42.5 -184.5q-19 -109 -109 -188t-200 -79t-172.5 79t-43.5 188zM154 244q-12 -73 24 -117t97 -44q60 0 111.5 44t63.5 117q12 69 -24 114t-95 45q-60 0 -112.5 -45t-64.5 -114zM200 604q11 61 45 90.5t82 29.5q34 0 69 -19.5
t44 -19.5q34 0 40 35h78q-10 -60 -44.5 -90t-84.5 -30q-30 0 -65.5 19.5t-51.5 19.5q-13 0 -22.5 -9.5t-12.5 -25.5h-77z" />
    <glyph glyph-name="odieresis" unicode="&#xf6;" horiz-adv-x="605" 
d="M39 245q20 109 109 185t200 76t173.5 -76.5t42.5 -184.5q-19 -109 -109 -188t-200 -79t-172.5 79t-43.5 188zM154 244q-12 -73 24 -117t97 -44q60 0 111.5 44t63.5 117q12 69 -24 114t-95 45q-60 0 -112.5 -45t-64.5 -114zM271 587q-28 0 -43.5 19t-10.5 47
q4 27 26.5 45.5t50.5 18.5q27 0 42.5 -18.5t10.5 -45.5q-5 -28 -27 -47t-49 -19zM449 587q-28 0 -43.5 19t-10.5 47q4 27 26.5 45.5t50.5 18.5q27 0 42.5 -18.5t10.5 -45.5q-5 -28 -27 -47t-49 -19z" />
    <glyph glyph-name="oslash" unicode="&#xf8;" horiz-adv-x="605" 
d="M39 245q20 109 109 185t200 76q49 0 88 -15l36 44l79 -52l-37 -46q71 -76 50 -192q-19 -109 -109 -188t-200 -79q-48 0 -94 18l-34 -42l-78 49l38 48q-68 79 -48 194zM154 244q-9 -54 11 -95l199 249q-18 5 -33 5q-60 0 -112.5 -45t-64.5 -114zM235 89q24 -6 40 -6
q60 0 111.5 44t63.5 117q10 54 -13 97z" />
    <glyph glyph-name="ugrave" unicode="&#xf9;" horiz-adv-x="537" 
d="M347 56q-14 -26 -61 -50.5t-108 -24.5q-48 0 -81 17t-47.5 41t-20.5 54.5t-5 51t4 38.5l54 307h119l-52 -294q-8 -46 10.5 -79.5t78.5 -33.5q48 0 86 35.5t44 71.5l53 301h118l-87 -496h-111zM368 587h-89l-67 138h137z" />
    <glyph glyph-name="uacute" unicode="&#xfa;" horiz-adv-x="537" 
d="M347 56q-14 -26 -61 -50.5t-108 -24.5q-48 0 -81 17t-47.5 41t-20.5 54.5t-5 51t4 38.5l54 307h119l-52 -294q-8 -46 10.5 -79.5t78.5 -33.5q48 0 86 35.5t44 71.5l53 301h118l-87 -496h-111zM281 587l68 138h137l-116 -138h-89z" />
    <glyph glyph-name="ucircumflex" unicode="&#xfb;" horiz-adv-x="537" 
d="M178 -19q-48 0 -81 17t-47.5 41t-20.5 54.5t-5 51t4 38.5l54 307h119l-52 -294q-8 -46 10.5 -79.5t78.5 -33.5q48 0 86 35.5t44 71.5l53 301h118l-87 -496h-111l6 61q-14 -26 -61 -50.5t-108 -24.5zM277 588l-115 1l144 133h84l95 -134h-114l-30 57h-15z" />
    <glyph glyph-name="udieresis" unicode="&#xfc;" horiz-adv-x="537" 
d="M347 56q-14 -26 -61 -50.5t-108 -24.5q-48 0 -81 17t-47.5 41t-20.5 54.5t-5 51t4 38.5l54 307h119l-52 -294q-8 -46 10.5 -79.5t78.5 -33.5q48 0 86 35.5t44 71.5l53 301h118l-87 -496h-111zM229 587q-28 0 -43.5 19t-10.5 47q4 27 26.5 45.5t50.5 18.5q27 0 42.5 -18.5
t10.5 -45.5q-5 -28 -27 -47t-49 -19zM407 587q-28 0 -43.5 19t-10.5 47q4 27 26.5 45.5t50.5 18.5q27 0 42.5 -18.5t10.5 -45.5q-5 -28 -27 -47t-49 -19z" />
    <glyph glyph-name="yacute" unicode="&#xfd;" horiz-adv-x="564" 
d="M29 -226l157 243l-124 473l124 -1l84 -332l192 332h124l-435 -715h-122zM298 587l67 138h137l-115 -138h-89z" />
    <glyph glyph-name="ydieresis" unicode="&#xff;" horiz-adv-x="564" 
d="M29 -226l157 243l-124 473l124 -1l84 -332l192 332h124l-435 -715h-122zM253 587q-28 0 -43.5 19t-10.5 47q4 27 26.5 45.5t50.5 18.5q27 0 42.5 -18.5t10.5 -45.5q-5 -28 -27 -47t-49 -19zM431 587q-28 0 -43.5 19t-10.5 47q4 27 26.5 45.5t50.5 18.5q27 0 42.5 -18.5
t10.5 -45.5q-5 -28 -27 -47t-49 -19z" />
    <glyph glyph-name="dotlessi" unicode="&#x131;" horiz-adv-x="197" 
d="M199 493l-88 -500h-116l88 500h116z" />
    <glyph glyph-name="OE" unicode="&#x152;" horiz-adv-x="1124" 
d="M58 353q28 157 155.5 268t280.5 111q132 0 221 -89l12 67h436l-20 -109h-318l-33 -189h286l-19 -110h-287l-35 -196h321l-19 -110h-438l12 68q-119 -90 -253 -90q-153 0 -241.5 111t-60.5 268zM178 352q-18 -107 42 -184.5t163 -77.5t190.5 78t105.5 184
q20 108 -39.5 186t-163.5 78t-191 -78t-107 -186z" />
    <glyph glyph-name="oe" unicode="&#x153;" horiz-adv-x="985" 
d="M255 -22q-110 0 -172.5 79t-43.5 188q20 109 109 185t200 76q116 0 179 -84q88 82 216 82q52 0 93.5 -16t73 -51t38.5 -91.5t-11 -136.5l-389 -4q-7 -37 22 -78t90 -44q97 -5 154 75l97 -33q-32 -54 -100.5 -96.5t-157.5 -42.5q-123 0 -185 83q-94 -91 -213 -91zM274 78
q62 0 115 45.5t66 120.5q13 71 -24.5 117.5t-98.5 46.5t-115.5 -46.5t-67.5 -117.5q-13 -75 25 -120.5t100 -45.5zM563 290l275 1q9 52 -25.5 90t-109.5 30q-47 -4 -85.5 -33.5t-54.5 -87.5z" />
    <glyph glyph-name="Scaron" unicode="&#x160;" horiz-adv-x="586" 
d="M267 -19q-103 -5 -171.5 49.5t-67.5 152.5l115 38q4 -57 36.5 -92t76.5 -41q57 -7 103 19.5t59 77.5q14 54 -30 88t-153 72q-67 23 -99.5 78t-17.5 120q14 63 66 114t130 68q58 10 111 4.5t97 -42.5t59 -100l-110 -47q-14 61 -62.5 79.5t-102.5 -4.5q-46 -17 -62.5 -45.5
t-13.5 -55.5q2 -26 28 -46t58 -31q32 -13 55 -22.5t48 -22t40.5 -23.5t33 -25.5t24.5 -29t15.5 -34t6.5 -39.5t-3 -46q-14 -96 -89.5 -152.5t-179.5 -61.5zM340 761l-97 133l115 1l29 -57h15l50 57h114l-142 -134h-84z" />
    <glyph glyph-name="scaron" unicode="&#x161;" horiz-adv-x="505" 
d="M204 -21q-82 0 -129 41t-58 99l108 43q5 -27 26 -50.5t49 -30.5q36 -8 79.5 4t50.5 48q5 22 -15 38.5t-46 23.5t-62 15.5t-48 12.5q-42 15 -67 49.5t-18 75.5q10 58 62 104t134 56q43 5 85 -3.5t79 -38.5t45 -77l-105 -40q-6 29 -33.5 45t-62.5 16q-36 0 -61.5 -14.5
t-29.5 -37.5q-5 -27 18.5 -39t89.5 -28q22 -5 34 -8q136 -34 115 -149q-11 -61 -74.5 -108t-165.5 -47zM265 588l-98 133l115 1l29 -57h15l50 57h114l-141 -134h-84z" />
    <glyph glyph-name="Ydieresis" unicode="&#x178;" horiz-adv-x="654" 
d="M227 -6l61 330l-187 386h146l118 -280l209 280h141l-306 -386l-58 -330h-124zM331 768q-28 0 -43.5 19t-10.5 47q5 27 27 45.5t50 18.5q27 0 42.5 -18.5t10.5 -45.5q-4 -28 -26.5 -47t-49.5 -19zM509 768q-28 0 -43.5 19t-10.5 47q5 27 27 45.5t50 18.5q27 0 42.5 -18.5
t10.5 -45.5q-4 -28 -26.5 -47t-49.5 -19z" />
    <glyph glyph-name="zcaron" unicode="&#x17e;" horiz-adv-x="487" 
d="M-5 -6l16 93l319 303h-255l17 100h395l-17 -96l-319 -300h268l-17 -100h-407zM290 722l29 -57h15l50 57h114l-142 -134h-84l-98 133z" />
    <glyph glyph-name="endash" unicode="&#x2013;" horiz-adv-x="582" 
d="M42 259l17 98h502l-17 -98h-502z" />
    <glyph glyph-name="emdash" unicode="&#x2014;" horiz-adv-x="841" 
d="M42 259l17 96h760l-17 -96h-760z" />
    <glyph glyph-name="quoteleft" unicode="&#x2018;" horiz-adv-x="239" 
d="M154 453q-32 0 -51 23t-13 55q4 26 25 52l116 137l42 -34l-65 -81q21 -8 32 -28.5t7 -45.5q-6 -32 -33.5 -55t-59.5 -23z" />
    <glyph glyph-name="quoteright" unicode="&#x2019;" horiz-adv-x="239" 
d="M127 455l-43 33l66 81q-21 8 -32 28.5t-7 45.5q6 32 33.5 55t59.5 23t51 -23t13 -55q-4 -27 -25 -51z" />
    <glyph glyph-name="quotesinglbase" unicode="&#x201a;" horiz-adv-x="239" 
d="M26 -120l-43 33l65 81q-21 9 -31.5 29.5t-6.5 45.5q5 32 32.5 55t60.5 23q31 0 50 -23t14 -55q-5 -28 -25 -52z" />
    <glyph glyph-name="quotedblleft" unicode="&#x201c;" horiz-adv-x="449" 
d="M364 455q-32 0 -51 23t-14 55q6 29 25 51l117 137l42 -33l-65 -81q21 -8 31.5 -28.5t6.5 -45.5q-5 -32 -32.5 -55t-59.5 -23zM154 453q-32 0 -51 23t-13 55q4 26 25 52l116 137l42 -34l-65 -81q21 -8 32 -28.5t7 -45.5q-6 -32 -33.5 -55t-59.5 -23z" />
    <glyph glyph-name="quotedblright" unicode="&#x201d;" horiz-adv-x="449" 
d="M337 455l-43 33l66 81q-21 8 -32 28.5t-7 45.5q6 32 33.5 55t59.5 23t51 -23t13 -55q-4 -27 -25 -51zM127 453l-43 34l65 81q-21 8 -31.5 28.5t-6.5 45.5q6 32 33 55t60 23q32 0 51 -23.5t13 -54.5q-5 -28 -25 -52z" />
    <glyph glyph-name="quotedblbase" unicode="&#x201e;" horiz-adv-x="449" 
d="M236 -119l-43 34l66 81q-21 8 -32 28.5t-7 45.5q6 32 33.5 55t59.5 23t51 -23t13 -55q-4 -27 -25 -51zM26 -120l-43 33l65 81q-21 9 -31.5 29.5t-6.5 45.5q5 32 32.5 55t60.5 23q31 0 50 -23t14 -55q-5 -28 -25 -52z" />
    <glyph glyph-name="dagger" unicode="&#x2020;" horiz-adv-x="429" 
d="M247 159h-98l55 308h-126l17 95h124l26 144h97l-25 -144h127l-17 -95h-126z" />
    <glyph glyph-name="bullet" unicode="&#x2022;" horiz-adv-x="281" 
d="M135 220q-41 0 -65.5 29.5t-17.5 70.5q8 41 42.5 70.5t75.5 29.5t65.5 -29.5t17.5 -70.5q-8 -41 -42.5 -70.5t-75.5 -29.5z" />
    <glyph glyph-name="ellipsis" unicode="&#x2026;" horiz-adv-x="720" 
d="M73 -10q-32 0 -51.5 23.5t-13.5 55.5t33 55t60 23q32 0 51 -23t13 -55t-33 -55.5t-59 -23.5zM313 -10q-32 0 -51.5 23.5t-13.5 55.5t33 55t60 23q32 0 51 -23t13 -55t-33 -55.5t-59 -23.5zM556 -10q-33 0 -52 23.5t-13 55.5q5 32 32.5 55t59.5 23t51 -23t14 -55
q-6 -32 -33 -55.5t-59 -23.5z" />
    <glyph glyph-name="guilsinglleft" unicode="&#x2039;" horiz-adv-x="354" 
d="M212 41l-169 225l249 228l54 -61l-185 -167l125 -167z" />
    <glyph glyph-name="guilsinglright" unicode="&#x203a;" horiz-adv-x="354" 
d="M68 42l-54 58l184 167l-126 167l76 61l168 -228z" />
    <glyph glyph-name="Euro" unicode="&#x20ac;" horiz-adv-x="662" 
d="M33 212l16 90h65q2 24 5 36q4 24 8 37h-65l16 90h85q56 103 155 167t209 64q80 0 149 -44l-68 -85q-48 31 -117 24q-128 -12 -207 -126h207l-30 -90h-220q-5 -19 -8 -36q-3 -11 -5 -37h209l-31 -90h-165q19 -57 65.5 -91t118.5 -34q65 0 123 33l34 -95q-82 -46 -182 -46
q-111 0 -187 64.5t-95 168.5h-85z" />
    </font>
</defs>
</svg>
