<?xml version="1.0" standalone="no"?>
<!DOCTYPE svg PUBLIC "-//W3C//DTD SVG 1.1//EN" "http://www.w3.org/Graphics/SVG/1.1/DTD/svg11.dtd" >
<svg xmlns="http://www.w3.org/2000/svg" xmlns:xlink="http://www.w3.org/1999/xlink" version="1.1">
<metadata>
Created by FontForge 20170731 at Wed Apr 29 08:16:52 2020
 By Aleksey,,,
Copyright (c) 2020 by Brent Anderson.
</metadata>
<defs>
<font id="PulpDisplay-Bold" horiz-adv-x="719" >
  <font-face 
    font-family="Pulp Display Bold"
    font-weight="400"
    font-stretch="normal"
    units-per-em="1000"
    panose-1="0 0 8 0 0 0 0 0 0 0"
    ascent="800"
    descent="-200"
    x-height="489"
    cap-height="709"
    bbox="-75 -246 1086 913"
    underline-thickness="50"
    underline-position="-200"
    unicode-range="U+0020-20AC"
  />
<missing-glyph horiz-adv-x="618" 
d="M40 -7v717h538v-717h-538zM138 179l116 171l-116 170v-341zM188 603l119 -175l119 175h-238zM191 101h232l-116 170zM360 350l120 -176v352z" />
    <glyph glyph-name=".notdef" horiz-adv-x="618" 
d="M40 -7v717h538v-717h-538zM138 179l116 171l-116 170v-341zM188 603l119 -175l119 175h-238zM191 101h232l-116 170zM360 350l120 -176v352z" />
    <glyph glyph-name=".null" horiz-adv-x="0" 
 />
    <glyph glyph-name="nonmarkingreturn" horiz-adv-x="333" 
 />
    <glyph glyph-name="space" unicode=" " horiz-adv-x="250" 
 />
    <glyph glyph-name="exclam" unicode="!" horiz-adv-x="257" 
d="M77 238l-14 470h134l-13 -470h-107zM129 -10q-37 0 -63 26t-26 63q0 36 26 62t63 26q36 0 62 -26t26 -62q0 -37 -26 -63t-62 -26z" />
    <glyph glyph-name="numbersign" unicode="#" horiz-adv-x="696" 
d="M40 188l20 104l113 -2l15 108h-117l19 106h114l28 180h112l-27 -181h112l29 180h108l-26 -179l116 -1l-15 -106h-115l-15 -107h115l-17 -102h-115l-31 -192h-107l26 192h-111l-31 -195l-110 2l29 194zM284 289l117 1l16 109h-117z" />
    <glyph glyph-name="dollar" unicode="$" horiz-adv-x="560" 
d="M228 -78v65q-70 16 -118.5 68t-69.5 135l112 29q25 -101 123 -116q47 -8 81 13.5t35 61.5q1 42 -33.5 67.5t-124.5 62.5q-171 71 -171 210q0 61 41.5 110t117.5 66l7 1v65h109v-68q57 -14 102.5 -51.5t67.5 -93.5l-105 -43q-19 44 -63 65t-97 7q-36 -9 -45.5 -33.5
t-3.5 -50.5q5 -23 32.5 -44t53.5 -31q127 -47 184 -100.5t57 -131.5q0 -81 -50.5 -134t-132.5 -66v-63h-109z" />
    <glyph glyph-name="percent" unicode="%" horiz-adv-x="858" 
d="M250 -22l-86 57l446 668l83 -57zM216 358q-74 0 -125 51t-51 123q0 71 50.5 120.5t125.5 49.5q73 0 123.5 -49.5t50.5 -120.5q0 -72 -50.5 -123t-123.5 -51zM214 456q29 0 50.5 20t21.5 53q0 31 -22 50.5t-50 19.5q-30 0 -52 -19.5t-22 -50.5q0 -34 22 -53.5t52 -19.5z
M644 -22q-74 0 -125 51t-51 123q0 71 50.5 120.5t125.5 49.5q73 0 123.5 -49.5t50.5 -120.5q0 -72 -50.5 -123t-123.5 -51zM642 76q29 0 50.5 20t21.5 53q0 31 -22 50.5t-50 19.5q-30 0 -52 -19.5t-22 -50.5q0 -34 22 -53.5t52 -19.5z" />
    <glyph glyph-name="ampersand" unicode="&#x26;" horiz-adv-x="677" 
d="M637 258l-83 80l-84 -94l-232 247q-36 46 -10.5 90t78.5 35q28 -5 43 -27t15 -54l116 1q9 87 -52.5 143t-150.5 50q-68 -5 -121 -51t-62.5 -112t42.5 -140q-22 -21 -32.5 -32.5t-28.5 -36.5t-26.5 -55.5t-8.5 -66.5q0 -110 67 -177.5t147 -75.5q35 -3 65 1t54.5 16.5
t38.5 21t34 25.5t22 19l80 -77l88 82l-88 93zM387 153q-21 -29 -59.5 -45t-85.5 1q-46 16 -66 61.5t-9.5 93.5t45.5 74z" />
    <glyph glyph-name="quotesingle" unicode="'" horiz-adv-x="231" 
d="M92 373l-50 197q-8 33 13.5 62t57.5 29q37 0 60.5 -27.5t15.5 -62.5t-50 -198h-47z" />
    <glyph glyph-name="parenleft" unicode="(" horiz-adv-x="357" 
d="M317 712q-72 -100 -109 -182.5t-37 -191.5q0 -225 146 -412l-98 -69q-75 81 -127 211.5t-52 263.5q0 127 48 235t132 215z" />
    <glyph glyph-name="parenright" unicode=")" horiz-adv-x="357" 
d="M138 -143l-98 69q146 187 146 412q0 109 -37 191.5t-109 182.5l97 70q84 -107 132 -215t48 -235q0 -133 -52 -263.5t-127 -211.5z" />
    <glyph glyph-name="asterisk" unicode="*" horiz-adv-x="489" 
d="M169 322l-82 61l72 100l-119 42l34 96l119 -42v127h105l2 -126l116 41l33 -99l-117 -40l74 -99l-84 -61l-78 100z" />
    <glyph glyph-name="plus" unicode="+" horiz-adv-x="549" 
d="M332 35h-116v177l-176 -1v114l176 1v176h116v-177h177v-114h-177v-176z" />
    <glyph glyph-name="comma" unicode="," horiz-adv-x="259" 
d="M95 -132l-55 38l57 91q-24 10 -39.5 32.5t-15.5 49.5q0 36 26 62t63 26q36 0 62 -26t26 -62q0 -31 -19 -55z" />
    <glyph glyph-name="hyphen" unicode="-" horiz-adv-x="420" 
d="M380 367v-118h-340v118h340z" />
    <glyph glyph-name="period" unicode="." horiz-adv-x="257" 
d="M129 -10q-37 0 -63 26t-26 63q0 36 26 62t63 26q36 0 62 -26t26 -62q0 -37 -26 -63t-62 -26z" />
    <glyph glyph-name="slash" unicode="/" horiz-adv-x="503" 
d="M40 -7l297 719h126l-295 -718z" />
    <glyph glyph-name="zero" unicode="0" horiz-adv-x="658" 
d="M329 -24q-120 0 -204.5 106t-84.5 256t84.5 256t204.5 106t204.5 -106t84.5 -256t-84.5 -256t-204.5 -106zM328 114q69 0 109.5 59t40.5 167q0 102 -41 164t-109 62q-69 0 -110 -61.5t-41 -164.5q0 -106 40.5 -166t110.5 -60z" />
    <glyph glyph-name="one" unicode="1" horiz-adv-x="449" 
d="M229 537l-142 -78l-47 121l207 111h122v-697h-140v543z" />
    <glyph glyph-name="two" unicode="2" horiz-adv-x="562" 
d="M238 116l90 86q81 78 104 105q84 102 74 205q-10 95 -81.5 145.5t-156.5 50.5q-72 0 -132 -44.5t-96 -118.5l124 -55q8 35 38 61.5t70 26.5q30 0 57.5 -19.5t37 -53.5t-21.5 -82q-23 -34 -57.5 -72.5t-56 -60t-89.5 -85t-95 -89.5v-122h475v122h-284z" />
    <glyph glyph-name="three" unicode="3" horiz-adv-x="574" 
d="M164 206q36 -101 124 -101q40 0 74 22t34 65q0 62 -41.5 82.5t-140.5 20.5v115q51 0 85 8t49 23.5t20.5 30t5.5 35.5q0 34 -26.5 53t-66.5 19q-64 0 -99 -76l-121 50q31 72 92 110t128 38q34 0 69 -9t69 -28.5t58.5 -55t29.5 -82.5q4 -35 -4 -64.5t-21.5 -47t-29 -30.5
t-26.5 -18t-14 -5q4 0 16 -5t30.5 -18t35 -30.5t28.5 -47t12 -64.5q0 -94 -65 -155.5t-174 -61.5q-54 0 -95.5 13.5t-71 40.5t-48.5 54t-40 67z" />
    <glyph glyph-name="four" unicode="4" horiz-adv-x="616" 
d="M492 -6v134h84v123h-86v440h-153l-297 -445v-117h317v-135h135zM180 252l178 258v-258h-178z" />
    <glyph glyph-name="five" unicode="5" horiz-adv-x="567" 
d="M40 165q22 -90 97.5 -139.5t165.5 -44.5q34 2 70 14.5t72 37.5t59 71.5t23 106.5t-22 107t-55.5 72t-68 37t-65.5 12q-35 0 -63 -6.5t-34.5 -10t-24.5 -14.5l14 172h278v111h-396l-25 -366l120 -43q14 19 42.5 33t59.5 14q38 0 74 -30t36 -77q0 -52 -28.5 -86t-74.5 -34
q-48 0 -80 23t-57 81z" />
    <glyph glyph-name="six" unicode="6" horiz-adv-x="571" 
d="M282 432q108 15 178.5 -50t70.5 -166q0 -98 -72 -167.5t-173 -69.5q-102 0 -174 69.5t-72 167.5q0 53 13 94q14 44 51 104q19 30 97 140t103 147l103 -68l-143 -203q6 0 18 2zM293 101q50 0 83.5 31.5t33.5 80.5q0 48 -33.5 79.5t-83.5 31.5q-51 0 -84.5 -31.5
t-33.5 -79.5q0 -49 33.5 -80.5t84.5 -31.5z" />
    <glyph glyph-name="seven" unicode="7" horiz-adv-x="550" 
d="M363 557h-323v134h470v-136l-236 -561h-155z" />
    <glyph glyph-name="eight" unicode="8" horiz-adv-x="575" 
d="M425 361q50 -29 80 -73t30 -95q0 -101 -69.5 -156.5t-177.5 -55.5q-112 0 -180 55t-68 157q0 51 30 95t80 73q-90 54 -90 152q0 77 66.5 129.5t161.5 52.5q94 0 160.5 -52.5t66.5 -129.5q0 -98 -90 -152zM287 584q-40 0 -68.5 -25.5t-28.5 -60.5q0 -36 28.5 -61.5
t68.5 -25.5t68 25.5t28 61.5q0 35 -28 60.5t-68 25.5zM287 101q58 0 87 28.5t29 68.5q0 39 -29.5 67.5t-86.5 28.5q-56 0 -86.5 -28.5t-30.5 -67.5t30.5 -68t86.5 -29z" />
    <glyph glyph-name="nine" unicode="9" horiz-adv-x="571" 
d="M267 -21l-103 68l143 203q-6 0 -18 -2q-108 -15 -178.5 50t-70.5 166q0 98 72 167.5t173 69.5q102 0 174 -69.5t72 -167.5q0 -53 -13 -94q-14 -44 -51 -104q-19 -30 -97 -140t-103 -147zM278 356q51 0 84.5 31.5t33.5 79.5q0 49 -33.5 80.5t-84.5 31.5q-50 0 -83.5 -31.5
t-33.5 -80.5q0 -48 33.5 -79.5t83.5 -31.5z" />
    <glyph glyph-name="colon" unicode=":" horiz-adv-x="257" 
d="M129 325q-37 0 -63 26t-26 63q0 36 26 62t63 26q36 0 62 -26t26 -62q0 -37 -26 -63t-62 -26zM129 -10q-37 0 -63 26t-26 63q0 36 26 62t63 26q36 0 62 -26t26 -62q0 -37 -26 -63t-62 -26z" />
    <glyph glyph-name="semicolon" unicode=";" horiz-adv-x="259" 
d="M95 -132l-55 38l57 91q-24 10 -39.5 32.5t-15.5 49.5q0 36 26 62t63 26q36 0 62 -26t26 -62q0 -31 -19 -55zM131 325q-37 0 -63 26t-26 63q0 36 26 62t63 26q36 0 62 -26t26 -62q0 -37 -26 -63t-62 -26z" />
    <glyph glyph-name="equal" unicode="=" horiz-adv-x="552" 
d="M40 157v119h472v-119h-472zM40 357v119h472v-119h-472z" />
    <glyph glyph-name="question" unicode="?" horiz-adv-x="515" 
d="M194 242q0 74 13.5 104.5t55.5 70.5q9 8 30 27t29 27.5t16 26.5t8 40q0 35 -26.5 54t-58.5 19t-61.5 -20t-43.5 -64l-116 49q27 65 80.5 110.5t129.5 45.5q95 0 160 -51.5t65 -130.5q0 -46 -15 -82.5t-31 -54t-44 -40.5q-32 -27 -45.5 -56.5t-13.5 -74.5h-132zM263 -10
q-37 0 -63 26t-26 63q0 36 26 62t63 26q36 0 62 -26t26 -62q0 -37 -26 -63t-62 -26z" />
    <glyph glyph-name="at" unicode="@" horiz-adv-x="874" 
d="M621 484l-97 1l1 -43q-9 16 -34.5 35t-63.5 24q-42 5 -83.5 -9t-78 -57t-47.5 -108q-15 -93 37.5 -158.5t124.5 -75.5q57 -8 101.5 12.5t68.5 58.5q23 -65 104 -69q68 -4 112 33t57.5 94.5t8 120t-27.5 112.5q-46 103 -143 169.5t-221 66.5q-54 0 -108 -13.5t-107 -44.5
t-94 -75t-66 -111.5t-25 -147.5q0 -78 24.5 -144t62.5 -108t86.5 -72t94 -44t88.5 -16q94 -5 206 34l-33 86q-63 -34 -176 -30q-99 4 -178.5 89t-80.5 196q-2 114 61.5 197.5t175.5 105.5q119 23 210 -25.5t138 -152.5q29 -66 24 -118t-22.5 -83t-35.5 -35q-24 -6 -44 12.5
t-20 55.5v237zM520 283q-6 -39 -34.5 -70t-79.5 -24q-40 5 -62 31t-26 48.5t-2 41.5q1 10 6.5 24.5t16.5 33t34 29.5t53 7q51 -7 74.5 -44t19.5 -77z" />
    <glyph glyph-name="A" unicode="A" 
d="M441 709l-160 1l-271 -716h150l59 165h282l58 -165h150zM357 565l107 -286h-214z" />
    <glyph glyph-name="B" unicode="B" horiz-adv-x="587" 
d="M41 713h266q97 0 166.5 -47.5t69.5 -136.5q0 -39 -9 -67t-29.5 -47t-32 -26.5t-36.5 -20.5q1 -1 23.5 -11.5t30.5 -15.5t26.5 -21t27 -32t16 -44t7.5 -62q0 -59 -38 -103t-90.5 -63.5t-108.5 -19.5h-290zM194 423q135 3 136 3q28 0 47 20.5t19 64.5q0 43 -24 62t-55 19
h-124zM196 117q98 2 148 2q35 0 54 27.5t19 65.5t-21 62.5t-66 24.5l-134 -1v-181z" />
    <glyph glyph-name="C" unicode="C" horiz-adv-x="796" 
d="M40 347q0 160 111.5 268.5t260.5 108.5q113 0 205.5 -64.5t135.5 -167.5l-132 -48q-30 64 -82.5 105t-125.5 41q-95 0 -162.5 -66.5t-67.5 -176.5q0 -97 66 -162.5t164 -65.5q77 0 134 39t77 106l132 -51q-30 -95 -130 -164t-214 -69q-152 0 -262 105.5t-110 261.5z" />
    <glyph glyph-name="D" unicode="D" horiz-adv-x="695" 
d="M40 -5l8 713h273q154 0 244 -97t90 -258t-96 -259.5t-251 -98.5h-268zM181 127q102 2 143 2q75 0 134 57.5t59 173.5q0 59 -22.5 104.5t-56 68t-63.5 33.5t-53 11l-141 -1v-449z" />
    <glyph glyph-name="E" unicode="E" horiz-adv-x="535" 
d="M40 -4v714h453v-131h-308v-157h276v-129h-277v-169h311v-128h-455z" />
    <glyph glyph-name="F" unicode="F" horiz-adv-x="533" 
d="M40 -6v724h453v-136h-311v-178h275v-129h-277v-280z" />
    <glyph glyph-name="G" unicode="G" horiz-adv-x="785" 
d="M431 391h314v-120q0 -119 -85.5 -206t-243.5 -87q-166 0 -271 105.5t-105 263.5q0 156 105 269.5t249 113.5q131 0 213.5 -55.5t117.5 -133.5l-140 -49q-61 102 -180 102q-33 0 -68.5 -12.5t-70 -37.5t-57 -70.5t-22.5 -103.5q0 -121 59 -191.5t159 -70.5q93 0 146 46
t53 108h-173v129z" />
    <glyph glyph-name="H" unicode="H" horiz-adv-x="666" 
d="M489 297h-311v-302h-138v715h138v-285h311v290h137v-721h-138z" />
    <glyph glyph-name="I" unicode="I" horiz-adv-x="268" 
d="M188 709v-716h-148v716h148z" />
    <glyph glyph-name="J" unicode="J" horiz-adv-x="548" 
d="M505 715l3 -475q0 -113 -65 -187.5t-163 -74.5q-204 0 -260 197l149 26q33 -87 96 -87q42 0 70.5 32t28.5 88v480z" />
    <glyph glyph-name="K" unicode="K" horiz-adv-x="687" 
d="M667 -5l-321 380l288 338h-179l-264 -319v315h-151v-715h152v345l281 -343z" />
    <glyph glyph-name="L" unicode="L" horiz-adv-x="515" 
d="M495 128v-133h-455v718h149v-585h306z" />
    <glyph glyph-name="M" unicode="M" horiz-adv-x="794" 
d="M176 446v-450h-136v720h136l221 -389l221 391h136v-722h-138v447l-163 -294h-110z" />
    <glyph glyph-name="N" unicode="N" horiz-adv-x="692" 
d="M193 474l326 -480h133v715h-143v-475l-326 475h-143v-714h153v479z" />
    <glyph glyph-name="O" unicode="O" horiz-adv-x="817" 
d="M409 -26q-153 0 -261 111t-108 268t108 268t261 111q152 0 260 -111t108 -268t-108 -268t-260 -111zM413 113q94 0 161 71t67 168q0 98 -67 169t-161 71t-161 -71t-67 -169q0 -97 67 -168t161 -71z" />
    <glyph glyph-name="P" unicode="P" horiz-adv-x="561" 
d="M40 -4v721h256q38 0 77.5 -12t78.5 -37t64 -71.5t25 -107.5t-24.5 -108t-62.5 -72t-75.5 -37.5t-71.5 -12.5h-128v-264zM180 389q14 0 41.5 1t47.5 1.5t33 0.5q11 0 22 1.5t26 7.5t26 16.5t19 30t8 46.5q0 33 -12.5 54t-32.5 28.5t-31 9.5t-23 2h-122z" />
    <glyph glyph-name="Q" unicode="Q" horiz-adv-x="817" 
d="M40 353q0 157 108 268t261 111q152 0 260 -111t108 -268q0 -158 -110 -270l57 -86l-106 -75l-58 85q-72 -33 -151 -33q-153 0 -261 111t-108 268zM185 352q0 -97 67 -168t161 -71q33 0 68 11l-74 109l110 75l71 -107q53 66 53 151q0 98 -67 169t-161 71t-161 -71
t-67 -169z" />
    <glyph glyph-name="R" unicode="R" horiz-adv-x="611" 
d="M40 -4v718h251q121 0 188.5 -63.5t67.5 -160.5q0 -88 -50.5 -144.5t-110.5 -56.5l205 -294h-161l-188 270h-64v-271zM321 392q40 0 65.5 25t25.5 73q0 46 -35.5 73t-73.5 27h-124v-198h142z" />
    <glyph glyph-name="S" unicode="S" horiz-adv-x="600" 
d="M40 184q15 -98 95 -153t183 -50q104 6 174 64t68 154q-1 49 -18.5 85.5t-56 65t-80.5 48.5t-113 46q-83 31 -90 70q-11 65 53 86q52 17 96 -1.5t62 -68.5l121 51q-18 50 -53.5 84.5t-76 48.5t-86 18t-84.5 -7q-75 -17 -119 -70.5t-47 -116.5q-4 -66 39.5 -122.5
t114.5 -79.5q111 -37 158 -69t41 -81q-5 -45 -44.5 -65.5t-88.5 -12.5q-40 6 -73 38.5t-47 86.5z" />
    <glyph glyph-name="T" unicode="T" horiz-adv-x="581" 
d="M215 584h-195v135h541v-135h-198v-590h-148v590z" />
    <glyph glyph-name="U" unicode="U" horiz-adv-x="647" 
d="M607 248q0 -46 -12.5 -89t-41 -85t-85.5 -67.5t-137 -25.5q-66 0 -119 17.5t-84 43.5t-52 61t-28.5 66t-7.5 62v479h149v-470q0 -63 39 -93.5t103 -30.5q131 0 131 119v474h145v-461z" />
    <glyph glyph-name="V" unicode="V" horiz-adv-x="731" 
d="M20 713h158l190 -542l188 541h155l-269 -717h-155z" />
    <glyph glyph-name="W" unicode="W" horiz-adv-x="987" 
d="M429 620h129l130 -406l119 494h160l-202 -713h-132l-141 433l-129 -432h-140l-203 712h160l120 -492z" />
    <glyph glyph-name="X" unicode="X" 
d="M198 -8l-178 1l248 370l-229 352h171l149 -238l144 235h170l-226 -349l252 -371h-187l-158 252z" />
    <glyph glyph-name="Y" unicode="Y" horiz-adv-x="693" 
d="M284 324l-264 386h182l153 -270l144 270h174l-243 -386v-330h-151z" />
    <glyph glyph-name="Z" unicode="Z" horiz-adv-x="610" 
d="M40 -6v135l363 451h-354v131h518v-130l-365 -454h368l-1 -132z" />
    <glyph glyph-name="bracketleft" unicode="[" horiz-adv-x="329" 
d="M289 -132h-249v922h248v-107h-120v-707h121v-108z" />
    <glyph glyph-name="backslash" unicode="\" horiz-adv-x="503" 
d="M40 712h126l297 -719l-128 1z" />
    <glyph glyph-name="bracketright" unicode="]" horiz-adv-x="329" 
d="M40 -132v108h121v707h-120v107h248v-922h-249z" />
    <glyph glyph-name="underscore" unicode="_" horiz-adv-x="593" 
d="M40 -115v109h513v-109h-513z" />
    <glyph glyph-name="a" unicode="a" horiz-adv-x="531" 
d="M217 -20q-78 0 -123 35t-53 97q-8 78 39 119.5t134 52.5q10 1 29.5 3.5t31 4.5t25.5 4t22.5 5t12.5 6q6 5 8.5 16t0.5 24.5t-15.5 26.5t-37.5 19q-48 12 -82 -8t-43 -67l-117 25q14 84 105 135q40 23 95.5 27.5t108.5 -14.5q130 -49 130 -168l3 -328h-131l-4 57
q-51 -72 -139 -72zM274 85q46 9 68 41.5t16 72.5q-26 -4 -59.5 -6t-53 -3t-38 -5.5t-27 -15.5t-8.5 -30q0 -35 28.5 -49t73.5 -5z" />
    <glyph glyph-name="b" unicode="b" horiz-adv-x="593" 
d="M173 440q54 71 166 64q77 -5 138.5 -62t72.5 -158q7 -64 -5.5 -117.5t-37.5 -87.5t-58.5 -57t-66.5 -32.5t-63 -7.5q-48 2 -87 22t-62 50l-5 -58l-125 -1l2 730l131 -1v-284zM172 243q0 -28 9.5 -57.5t38 -56t69.5 -27.5q61 -2 96.5 41t35.5 98q0 61 -35 103.5t-93 39.5
q-56 -3 -88.5 -42t-32.5 -99z" />
    <glyph glyph-name="c" unicode="c" horiz-adv-x="567" 
d="M282 379q78 9 124 -75l126 34q-24 73 -85.5 123.5t-161.5 49.5q-98 -1 -176.5 -78.5t-78.5 -184.5q0 -121 72.5 -195t176.5 -78q90 -4 159.5 42t98.5 128l-130 38q-13 -36 -47.5 -58.5t-74.5 -19.5q-56 4 -88 44t-33 98q-1 46 31 86t87 46z" />
    <glyph glyph-name="d" unicode="d" horiz-adv-x="588" 
d="M546 725l2 -730l-125 1l-5 52q-48 -69 -148 -69q-42 0 -83.5 19t-76.5 54t-54.5 91.5t-14.5 123.5q4 57 25 102t51.5 72t64 42t69.5 19q99 12 165 -55l-1 277zM418 243q0 61 -32.5 100.5t-90.5 40.5q-51 1 -87.5 -40t-36.5 -102q0 -58 37 -99.5t91 -39.5q64 3 91.5 45
t27.5 95z" />
    <glyph glyph-name="e" unicode="e" horiz-adv-x="590" 
d="M40 244q0 -110 73.5 -184t191.5 -74q89 0 150 42.5t83 96.5l-123 38q-37 -72 -120 -66q-56 3 -87.5 38t-31.5 70l373 4q10 149 -62.5 222t-183.5 73q-109 0 -186 -67t-77 -193zM176 304q4 40 36.5 66t70.5 28q55 4 91.5 -25.5t36.5 -67.5z" />
    <glyph glyph-name="f" unicode="f" horiz-adv-x="364" 
d="M355 602q-20 3 -35.5 3.5t-26.5 -3t-19 -7t-13 -12.5t-8 -15t-3.5 -18.5t-1 -19t0 -20t0.5 -19.5h110l1 -115h-112v-380l-137 -1v381h-80l-1 115h37q24 0 33 9t9 34q0 72 26 110q33 58 101 84.5t148 3.5z" />
    <glyph glyph-name="g" unicode="g" horiz-adv-x="588" 
d="M419 494l-4 -38q-53 43 -117 50.5t-118 -17t-93.5 -80t-45.5 -129.5q-7 -85 27 -149.5t93 -97.5q38 -21 80.5 -29.5t89.5 3.5t81 48q0 -91 -37.5 -128t-87.5 -37q-67 0 -106 73l-132 -28q20 -48 51.5 -83.5t67 -53.5t69.5 -25t67 -5q117 9 180.5 81.5t63.5 183.5
q0 27 -1.5 194.5t-0.5 265.5zM287 124q-46 0 -80 38t-34 93q0 54 30 87.5t76 39.5q50 7 91.5 -26.5t41.5 -100.5q0 -66 -37 -98.5t-88 -32.5z" />
    <glyph glyph-name="h" unicode="h" horiz-adv-x="552" 
d="M41 -5l-1 730l146 -1v-283q9 18 49 39.5t88 21.5q57 0 97 -20.5t58.5 -54.5t26 -66t7.5 -68v-298h-144v280q0 61 -27 84.5t-63 23.5q-35 0 -65 -25.5t-30 -82.5v-280h-142z" />
    <glyph glyph-name="i" unicode="i" horiz-adv-x="245" 
d="M123 574q-35 0 -59 23.5t-24 57.5t24 57.5t59 23.5q34 0 58 -23.5t24 -57.5t-24 -57.5t-58 -23.5zM194 493v-500h-139v500h139z" />
    <glyph glyph-name="j" unicode="j" horiz-adv-x="239" 
d="M117 574q-35 0 -59 23.5t-24 57.5t24 57.5t59 23.5q34 0 58 -23.5t24 -57.5t-24 -57.5t-58 -23.5zM49 -13q0 -71 -36 -80q-25 -6 -57 10l-31 -109q55 -25 127 -25q39 0 67 16t42 41.5t20 49.5t6 47v57v499h-138v-506z" />
    <glyph glyph-name="k" unicode="k" horiz-adv-x="564" 
d="M366 -5l-188 224v-224h-138v732h139v-429l177 194h161l-197 -231l224 -266h-178z" />
    <glyph glyph-name="l" unicode="l" horiz-adv-x="259" 
d="M199 723v-730h-139v730h139z" />
    <glyph glyph-name="m" unicode="m" horiz-adv-x="866" 
d="M40 488h128v-70q8 12 22 26.5t46.5 34.5t66.5 24q71 9 114.5 -19.5t60.5 -69.5q18 33 56 57.5t93 31.5q52 6 92 -9t62.5 -44t33.5 -62t11 -67v-325h-135v285q0 103 -82 103q-47 0 -76.5 -33t-29.5 -96v-260h-135v257q0 67 -18 99t-72 32q-103 0 -103 -151v-237h-135v493z
" />
    <glyph glyph-name="n" unicode="n" horiz-adv-x="549" 
d="M40 488h128v-70q52 75 127 84q73 9 122 -18t70 -70q22 -47 22 -159v-260h-135v266q0 66 -22 94t-79 28q-37 0 -67.5 -37t-30.5 -104v-247h-135v493z" />
    <glyph glyph-name="o" unicode="o" horiz-adv-x="605" 
d="M40 245q0 109 76 185t187 76q110 0 186 -76t76 -185t-76 -188t-186 -79q-111 0 -187 79t-76 188zM172 244q0 -65 39 -104t93 -39t92.5 39t38.5 104q0 61 -39 101t-92 40t-92.5 -40t-39.5 -101z" />
    <glyph glyph-name="p" unicode="p" horiz-adv-x="588" 
d="M42 -198l-2 689l125 -1l5 -52q48 69 148 69q42 0 83.5 -19t76.5 -54t54.5 -91.5t14.5 -123.5q-4 -57 -25 -102t-52 -72t-64 -42t-69 -19q-99 -12 -165 55l1 -236zM170 243q0 -61 32.5 -100.5t90.5 -40.5q51 -1 87.5 40t36.5 102q0 58 -37 99.5t-91 39.5q-64 -3 -91.5 -45
t-27.5 -95z" />
    <glyph glyph-name="q" unicode="q" horiz-adv-x="588" 
d="M546 -198l-131 1l1 236q-66 -67 -165 -55q-36 4 -69 19t-64 42t-52 72t-25 102q-5 67 14.5 123.5t54.5 91.5t76.5 54t83.5 19q100 0 148 -69l5 52l125 1zM295 102q58 1 90.5 40.5t32.5 100.5q0 53 -27.5 95t-91.5 45q-54 2 -91 -39.5t-37 -99.5q0 -61 36.5 -102t87.5 -40
z" />
    <glyph glyph-name="r" unicode="r" horiz-adv-x="370" 
d="M170 -4v150q0 97 7 133t33 65q26 30 71 34t73 -13l36 119q-25 15 -65 17.5t-66 -7.5q-66 -24 -89 -81v73h-130v-489z" />
    <glyph glyph-name="s" unicode="s" horiz-adv-x="518" 
d="M354 342q-11 28 -39.5 42t-53.5 14q-28 0 -50.5 -11t-22.5 -29q0 -25 38 -39q14 -5 111 -28q141 -34 141 -157q0 -58 -56.5 -106.5t-156.5 -48.5q-91 0 -146.5 41.5t-78.5 98.5l118 51q9 -25 31.5 -46t51.5 -27q33 -7 67.5 3.5t37.5 36.5q2 20 -18 34.5t-45 20.5
t-60 12.5t-48 10.5q-48 15 -82 51.5t-34 78.5q0 59 48.5 109t130.5 60q64 8 134.5 -25.5t95.5 -99.5z" />
    <glyph glyph-name="t" unicode="t" horiz-adv-x="418" 
d="M378 10q-3 -1 -14.5 -5.5t-15 -6t-14.5 -5t-17.5 -4.5t-18 -2.5t-21 -1t-22 1.5t-26.5 4q-62 12 -92.5 58t-30.5 96v229h-86v115h54q22 0 30 7.5t8 25.5v115h127v-148h117v-115h-118v-146q0 -52 3 -69.5t13 -29.5q20 -18 44 -17.5t43 12.5z" />
    <glyph glyph-name="u" unicode="u" horiz-adv-x="552" 
d="M376 56q-10 -26 -52.5 -50.5t-103.5 -24.5q-46 0 -81 17t-53.5 41t-29.5 54.5t-13.5 51t-2.5 38.5v307h141v-294q0 -37 22.5 -65t66.5 -28q45 0 73.5 26.5t28.5 60.5v301h140v-496h-131z" />
    <glyph glyph-name="v" unicode="v" horiz-adv-x="573" 
d="M221 -5l-211 494l150 1l127 -335l129 335l147 -1l-211 -494h-131z" />
    <glyph glyph-name="w" unicode="w" horiz-adv-x="843" 
d="M683 488l-87 -323l-104 328h-132l-103 -324l-97 321h-140l161 -495h141l101 333l103 -334h142l155 494h-140z" />
    <glyph glyph-name="x" unicode="x" horiz-adv-x="543" 
d="M177 -5h-157l171 248l-171 246h157l94 -141l90 141l157 -1l-171 -242l176 -251h-157l-98 151z" />
    <glyph glyph-name="y" unicode="y" horiz-adv-x="584" 
d="M111 -226l114 243l-205 473l144 -1l133 -305l123 305h144l-309 -715h-144z" />
    <glyph glyph-name="z" unicode="z" horiz-adv-x="497" 
d="M40 -6v108l250 273h-240v115h405v-111l-256 -270h258v-115h-417z" />
    <glyph glyph-name="braceleft" unicode="{" horiz-adv-x="409" 
d="M369 -66q-73 0 -94 23.5t-21 84.5q0 19 -1 68t-1 87q0 51 -31 88.5t-67 37.5q32 0 66 37.5t34 87.5q0 30 -0.5 65t-0.5 81q0 70 19.5 93t93.5 23v100q-59 0 -102.5 -12.5t-66 -30t-35.5 -44t-16 -47t-3 -45.5q0 -33 -1 -93.5t-1 -79.5q0 -34 -26 -57t-75 -23v-111
q48 0 73.5 -21t25.5 -47q0 -6 2 -68.5t2 -121.5q0 -82 55.5 -128.5t170.5 -46.5v100z" />
    <glyph glyph-name="bar" unicode="|" horiz-adv-x="184" 
d="M40 700h104v-852h-104v852z" />
    <glyph glyph-name="braceright" unicode="}" horiz-adv-x="409" 
d="M40 -166v100q73 0 94 23.5t21 84.5q0 19 1 68t1 87q0 51 31 88.5t67 37.5q-32 0 -66 37.5t-34 87.5q0 30 0.5 65t0.5 81q0 70 -19.5 93t-93.5 23v100q59 0 102.5 -12.5t66 -30t35.5 -44t16 -47t3 -45.5q0 -33 1 -93.5t1 -79.5q0 -34 26 -57t75 -23v-111q-48 0 -73.5 -21
t-25.5 -47q0 -6 -2 -68.5t-2 -121.5q0 -82 -55.5 -128.5t-170.5 -46.5z" />
    <glyph glyph-name="exclamdown" unicode="&#xa1;" horiz-adv-x="257" 
d="M63 -212l14 470h107l13 -470h-134zM129 506q36 0 62 -26t26 -63q0 -36 -26 -62t-62 -26q-37 0 -63 26t-26 62q0 37 26 63t63 26z" />
    <glyph glyph-name="cent" unicode="&#xa2;" horiz-adv-x="578" 
d="M40 346q0 -99 59 -171t140 -90v-85h109v86q144 28 190 157l-110 28q-15 -37 -53 -58t-89 -20q-57 1 -94 45.5t-37 106.5q0 58 35 97t93 45q44 5 82.5 -14t57.5 -61l110 24q-45 133 -185 160v84h-109v-85q-80 -19 -139.5 -88.5t-59.5 -160.5z" />
    <glyph glyph-name="sterling" unicode="&#xa3;" horiz-adv-x="578" 
d="M424 168q-14 -56 -84 -56q-10 0 -46 -0.5t-97 -0.5q57 48 57 134h108v102h-131q-36 55 -43.5 103.5t15.5 79.5q35 48 90.5 34.5t80.5 -77.5l114 49q-39 85 -102.5 122t-123.5 29t-110.5 -37.5t-71.5 -68.5q-61 -112 24 -233h-62v-102h94q0 -100 -96 -144v-106l280 -2
q57 0 94.5 8.5t61 29.5t36 44.5t26.5 64.5z" />
    <glyph glyph-name="yen" unicode="&#xa5;" horiz-adv-x="687" 
d="M40 676h168l143 -247l132 246h164l-165 -280h98v-105h-165v-56h166v-106h-166v-133h-134v133h-165v106h165v58h-163v103h97z" />
    <glyph glyph-name="section" unicode="&#xa7;" horiz-adv-x="560" 
d="M40 -46q22 -96 96.5 -145t164.5 -43q96 6 159 60t60 143q-3 78 -67 133q70 47 67 138q-2 71 -58.5 125.5t-179.5 99.5q-83 31 -90 70q-8 44 43 66q52 22 96 1.5t62 -71.5l111 51q-36 96 -118.5 130t-171.5 14q-75 -17 -114 -65.5t-42 -111.5q-4 -84 72 -147
q-68 -48 -72 -124q-4 -64 39.5 -115t114.5 -77q13 -5 40 -14t38.5 -13.5t31.5 -13t28.5 -15.5t19.5 -17t15 -22t4 -26q0 -45 -36 -64.5t-85 -10.5q-86 15 -110 113zM189 264q-7 25 4.5 50.5t42.5 33.5q77 -28 115 -54.5t38 -69.5q0 -44 -44 -56q-32 15 -63 26q-82 30 -93 70
z" />
    <glyph glyph-name="copyright" unicode="&#xa9;" horiz-adv-x="833" 
d="M417 -25q-156 0 -266.5 110.5t-110.5 266.5q0 155 110.5 265.5t266.5 110.5q155 0 265.5 -110.5t110.5 -265.5q0 -156 -110.5 -266.5t-265.5 -110.5zM410 149q-79 3 -134.5 59.5t-55.5 148.5q0 81 60 139.5t135 59.5q76 1 122.5 -37t65.5 -94l-97 -26q-35 64 -94 57
q-41 -4 -65.5 -34.5t-23.5 -65.5q1 -45 25 -75t67 -33q30 -2 56.5 14.5t35.5 44.5l100 -29q-22 -62 -75 -97t-122 -32zM417 60q120 0 205.5 85.5t85.5 206.5q0 120 -85.5 205.5t-205.5 85.5q-121 0 -206.5 -85.5t-85.5 -205.5q0 -121 85.5 -206.5t206.5 -85.5z" />
    <glyph glyph-name="ordfeminine" unicode="&#xaa;" horiz-adv-x="398" 
d="M164 289q-55 0 -86.5 24.5t-36.5 68.5q-11 101 115 119q78 11 86 17q6 4 8.5 14t-5.5 22.5t-29 18.5q-32 9 -55 -4.5t-29 -42.5l-86 17q16 55 66 88q27 18 71 22t81 -8q92 -33 92 -115l2 -230h-95l-1 40q-37 -51 -98 -51zM204 376q66 14 58 67q-19 -3 -40.5 -4.5t-34 -2
t-24 -3t-16.5 -9.5t-5 -21q0 -17 18 -24.5t44 -2.5z" />
    <glyph glyph-name="guillemotleft" unicode="&#xab;" horiz-adv-x="594" 
d="M254 36l-214 231l214 233l75 -70l-151 -163l151 -162zM479 36l-214 231l214 233l75 -70l-151 -163l151 -162z" />
    <glyph glyph-name="registered" unicode="&#xae;" horiz-adv-x="460" 
d="M230 335q-79 0 -134.5 55.5t-55.5 134.5q0 78 55.5 134t134.5 56q78 0 134 -56t56 -134q0 -79 -56 -134.5t-134 -55.5zM230 385q56 0 97.5 41.5t41.5 98.5q0 56 -41.5 97.5t-97.5 41.5q-57 0 -98.5 -41.5t-41.5 -97.5q0 -57 41.5 -98.5t98.5 -41.5zM157 432v196h78
q33 0 51.5 -17.5t18.5 -43.5q0 -24 -14 -39.5t-31 -15.5l57 -80h-54l-52 74h-6v-74h-48zM233 540q24 0 24 27q0 8 -7 15.5t-21 7.5h-24v-50h28z" />
    <glyph glyph-name="degree" unicode="&#xb0;" horiz-adv-x="370" 
d="M185 412q-59 0 -102 42.5t-43 100.5q0 60 42.5 102t102.5 42t102.5 -42t42.5 -102q0 -58 -43 -100.5t-102 -42.5zM188 493q26 0 44 18.5t18 45.5q0 24 -18.5 43t-43.5 19t-44.5 -19t-19.5 -43q0 -27 19 -45.5t45 -18.5z" />
    <glyph glyph-name="uni00B2" unicode="&#xb2;" horiz-adv-x="345" 
d="M162 424l37 34q102 93 94 171q-5 46 -42.5 70.5t-82.5 24.5q-41 0 -76.5 -25t-51.5 -73l75 -31q3 19 18.5 34.5t36.5 15.5q25 0 38.5 -21t-7.5 -51q-39 -47 -157 -159v-67h261v77h-143z" />
    <glyph glyph-name="uni00B3" unicode="&#xb3;" horiz-adv-x="361" 
d="M180 340q-111 0 -140 98l82 33q8 -44 49 -52q35 -6 53 17q7 8 7 19q0 28 -21 41t-75 9v68q36 -1 57.5 6.5t26.5 17.5t2 22q-8 32 -45 30t-49 -38l-79 32q15 37 52.5 59t72.5 22q29 0 55 -6.5t50.5 -29t28.5 -59.5q3 -24 -8 -45.5t-22.5 -31t-15.5 -9.5q4 0 17.5 -9.5
t28 -31t14.5 -45.5q0 -53 -40.5 -85t-100.5 -32z" />
    <glyph glyph-name="periodcentered" unicode="&#xb7;" horiz-adv-x="257" 
d="M129 227q-37 0 -63 26t-26 63q0 36 26 62t63 26q36 0 62 -26t26 -62q0 -37 -26 -63t-62 -26z" />
    <glyph glyph-name="uni00B9" unicode="&#xb9;" horiz-adv-x="266" 
d="M141 616l-69 -32l-32 73l118 62h68v-371h-85v268z" />
    <glyph glyph-name="ordmasculine" unicode="&#xba;" horiz-adv-x="460" 
d="M40 472q0 77 55 131t136 54q80 0 134.5 -54t54.5 -131q0 -78 -54.5 -133.5t-134.5 -55.5t-135.5 55.5t-55.5 133.5zM152 471q0 -40 23 -62.5t58 -22.5q33 0 56 22.5t23 62.5q0 36 -23 59t-56 23q-34 0 -57.5 -22.5t-23.5 -59.5z" />
    <glyph glyph-name="guillemotright" unicode="&#xbb;" horiz-adv-x="594" 
d="M115 36l-75 69l151 162l-151 163l75 70l214 -233zM340 36l-75 69l151 162l-151 163l75 70l214 -233z" />
    <glyph glyph-name="questiondown" unicode="&#xbf;" horiz-adv-x="515" 
d="M321 255q0 -74 -13.5 -104.5t-55.5 -70.5q-9 -8 -30 -27t-29 -27.5t-16 -26.5t-8 -40q0 -35 26.5 -54t58.5 -19t61.5 20t43.5 64l116 -49q-27 -65 -80.5 -110.5t-129.5 -45.5q-95 0 -160 51.5t-65 130.5q0 46 15 82.5t31 54t44 40.5q32 27 45.5 56.5t13.5 74.5h132z
M252 507q37 0 63 -26t26 -63q0 -36 -26 -62t-63 -26q-36 0 -62 26t-26 62q0 37 26 63t62 26z" />
    <glyph glyph-name="Agrave" unicode="&#xc0;" 
d="M10 -6l271 716l160 -1l268 -715h-150l-58 165h-282l-59 -165h-150zM250 279h214l-107 286zM314 764l-91 138h157l43 -138h-109z" />
    <glyph glyph-name="Aacute" unicode="&#xc1;" 
d="M10 -6l271 716l160 -1l268 -715h-150l-58 165h-282l-59 -165h-150zM250 279h214l-107 286zM301 764l43 138h157l-91 -138h-109z" />
    <glyph glyph-name="Acircumflex" unicode="&#xc2;" 
d="M10 -6l271 716l160 -1l268 -715h-150l-58 165h-282l-59 -165h-150zM250 279h214l-107 286zM311 761l-130 1l121 133h114l118 -134h-129l-40 57h-15z" />
    <glyph glyph-name="Atilde" unicode="&#xc3;" 
d="M441 709l-160 1l-271 -716h150l59 165h282l58 -165h150zM357 565l107 -286h-214zM181 778q0 61 34 95.5t82 34.5q35 0 74.5 -22t45.5 -22q29 0 29 30h93q0 -60 -34 -95t-84 -35q-31 0 -71.5 22t-52.5 22q-24 0 -24 -30h-92z" />
    <glyph glyph-name="Adieresis" unicode="&#xc4;" 
d="M441 709l-160 1l-271 -716h150l59 165h282l58 -165h150zM357 565l107 -286h-214zM261 768q-31 0 -52 21t-21 52q0 30 21 51t52 21q30 0 51 -21t21 -51q0 -31 -21 -52t-51 -21zM454 768q-31 0 -52 21t-21 52q0 30 21 51t52 21q30 0 51 -21t21 -51q0 -31 -21 -52t-51 -21z
" />
    <glyph glyph-name="Aring" unicode="&#xc5;" 
d="M10 -6l251 664q-36 39 -36 91q0 55 39 94t94 39t94 -39t39 -94q0 -49 -32 -87l250 -668h-150l-58 165h-282l-59 -165h-150zM250 279h214l-107 286zM359 711q17 0 29 12.5t12 29.5t-12 29t-29 12t-29.5 -12t-12.5 -29t12.5 -29.5t29.5 -12.5z" />
    <glyph glyph-name="AE" unicode="&#xc6;" horiz-adv-x="1026" 
d="M40 -6l415 716h76h453v-131h-308v-157h276v-129h-277v-169h311v-128h-455v163h-238l-99 -165h-154zM354 279h177v286z" />
    <glyph glyph-name="Ccedilla" unicode="&#xc7;" horiz-adv-x="796" 
d="M40 347q0 160 111.5 268.5t260.5 108.5q113 0 205.5 -64.5t135.5 -167.5l-132 -48q-30 64 -82.5 105t-125.5 41q-95 0 -162.5 -66.5t-67.5 -176.5q0 -97 66 -162.5t164 -65.5q77 0 134 39t77 106l132 -51q-29 -90 -120.5 -157.5t-199.5 -74.5l-16 -36q41 10 76 -16.5
t35 -75.5t-31 -74t-79 -25q-61 0 -95 65l64 28q10 -29 35 -29q13 0 23.5 9t10.5 25q0 15 -10.5 24.5t-23.5 9.5q-18 0 -27 -14l-62 28l35 82q-139 15 -235 118t-96 247z" />
    <glyph glyph-name="Egrave" unicode="&#xc8;" horiz-adv-x="535" 
d="M40 -4v714h453v-131h-308v-157h276v-129h-277v-169h311v-128h-455zM208 764l-91 138h157l43 -138h-109z" />
    <glyph glyph-name="Eacute" unicode="&#xc9;" horiz-adv-x="535" 
d="M40 -4v714h453v-131h-308v-157h276v-129h-277v-169h311v-128h-455zM208 764l43 138h157l-91 -138h-109z" />
    <glyph glyph-name="Ecircumflex" unicode="&#xca;" horiz-adv-x="535" 
d="M40 -4v714h453v-131h-308v-157h276v-129h-277v-169h311v-128h-455zM216 761l-130 1l121 133h114l118 -134h-129l-40 57h-15z" />
    <glyph glyph-name="Edieresis" unicode="&#xcb;" horiz-adv-x="535" 
d="M40 -4v714h453v-131h-308v-157h276v-129h-277v-169h311v-128h-455zM169 768q-31 0 -52 21t-21 52q0 30 21 51t52 21q30 0 51 -21t21 -51q0 -31 -21 -52t-51 -21zM362 768q-31 0 -52 21t-21 52q0 30 21 51t52 21q30 0 51 -21t21 -51q0 -31 -21 -52t-51 -21z" />
    <glyph glyph-name="Igrave" unicode="&#xcc;" horiz-adv-x="323" 
d="M95 -7v716h148v-716h-148zM131 764l-91 138h157l43 -138h-109z" />
    <glyph glyph-name="Iacute" unicode="&#xcd;" horiz-adv-x="326" 
d="M40 -7v716h148v-716h-148zM46 764l43 138h157l-91 -138h-109z" />
    <glyph glyph-name="Icircumflex" unicode="&#xce;" horiz-adv-x="473" 
d="M141 -7v716h148v-716h-148zM170 761l-130 1l121 133h114l118 -134h-129l-40 57h-15z" />
    <glyph glyph-name="Idieresis" unicode="&#xcf;" horiz-adv-x="458" 
d="M133 -7v716h148v-716h-148zM113 768q-31 0 -52 21t-21 52q0 30 21 51t52 21q30 0 51 -21t21 -51q0 -31 -21 -52t-51 -21zM306 768q-31 0 -52 21t-21 52q0 30 21 51t52 21q30 0 51 -21t21 -51q0 -31 -21 -52t-51 -21z" />
    <glyph glyph-name="Ntilde" unicode="&#xd1;" horiz-adv-x="692" 
d="M519 -6l-326 480v-479h-153v714h143l326 -475v475h143v-715h-133zM173 778q0 61 34 95.5t82 34.5q35 0 74.5 -22t45.5 -22q29 0 29 30h93q0 -60 -34 -95t-84 -35q-31 0 -71.5 22t-52.5 22q-24 0 -24 -30h-92z" />
    <glyph glyph-name="Ograve" unicode="&#xd2;" horiz-adv-x="817" 
d="M409 -26q-153 0 -261 111t-108 268t108 268t261 111q152 0 260 -111t108 -268t-108 -268t-260 -111zM413 113q94 0 161 71t67 168q0 98 -67 169t-161 71t-161 -71t-67 -169q0 -97 67 -168t161 -71zM357 764l-91 138h157l43 -138h-109z" />
    <glyph glyph-name="Oacute" unicode="&#xd3;" horiz-adv-x="817" 
d="M409 -26q-153 0 -261 111t-108 268t108 268t261 111q152 0 260 -111t108 -268t-108 -268t-260 -111zM413 113q94 0 161 71t67 168q0 98 -67 169t-161 71t-161 -71t-67 -169q0 -97 67 -168t161 -71zM356 764l43 138h157l-91 -138h-109z" />
    <glyph glyph-name="Ocircumflex" unicode="&#xd4;" horiz-adv-x="817" 
d="M409 -26q-153 0 -261 111t-108 268t108 268t261 111q152 0 260 -111t108 -268t-108 -268t-260 -111zM413 113q94 0 161 71t67 168q0 98 -67 169t-161 71t-161 -71t-67 -169q0 -97 67 -168t161 -71zM357 761l-130 1l121 133h114l118 -134h-129l-40 57h-15z" />
    <glyph glyph-name="Otilde" unicode="&#xd5;" horiz-adv-x="817" 
d="M409 -26q-153 0 -261 111t-108 268t108 268t261 111q152 0 260 -111t108 -268t-108 -268t-260 -111zM413 113q94 0 161 71t67 168q0 98 -67 169t-161 71t-161 -71t-67 -169q0 -97 67 -168t161 -71zM241 778q0 61 34 95.5t82 34.5q35 0 74.5 -22t45.5 -22q29 0 29 30h93
q0 -60 -34 -95t-84 -35q-31 0 -71.5 22t-52.5 22q-24 0 -24 -30h-92z" />
    <glyph glyph-name="Odieresis" unicode="&#xd6;" horiz-adv-x="817" 
d="M409 -26q-153 0 -261 111t-108 268t108 268t261 111q152 0 260 -111t108 -268t-108 -268t-260 -111zM413 113q94 0 161 71t67 168q0 98 -67 169t-161 71t-161 -71t-67 -169q0 -97 67 -168t161 -71zM310 768q-31 0 -52 21t-21 52q0 30 21 51t52 21q30 0 51 -21t21 -51
q0 -31 -21 -52t-51 -21zM503 768q-31 0 -52 21t-21 52q0 30 21 51t52 21q30 0 51 -21t21 -51q0 -31 -21 -52t-51 -21z" />
    <glyph glyph-name="multiply" unicode="&#xd7;" horiz-adv-x="575" 
d="M372 268l163 -158l-82 -82l-166 159l-164 -159l-82 82l163 157l-164 158l80 81l169 -160l165 160l79 -82z" />
    <glyph glyph-name="Oslash" unicode="&#xd8;" horiz-adv-x="817" 
d="M231 -60l-105 68l38 61q-58 54 -91 127.5t-33 156.5q0 157 108 268t261 111q79 0 148 -32l41 66l104 -70l-41 -67q116 -113 116 -276q0 -157 -108 -268t-260 -111q-72 0 -139 28zM242 195l240 385q-32 12 -69 12q-94 0 -161 -71t-67 -169q0 -89 57 -157zM413 113
q94 0 161 71t67 168q0 89 -56 156l-239 -384q33 -11 67 -11z" />
    <glyph glyph-name="Ugrave" unicode="&#xd9;" horiz-adv-x="647" 
d="M331 -19q-66 0 -119 17.5t-84 43.5t-52 61t-28.5 66t-7.5 62v479h149v-470q0 -63 39 -93.5t103 -30.5q131 0 131 119v474h145v-461q0 -46 -12.5 -89t-41 -85t-85.5 -67.5t-137 -25.5zM275 764l-91 138h157l43 -138h-109z" />
    <glyph glyph-name="Uacute" unicode="&#xda;" horiz-adv-x="647" 
d="M331 -19q-66 0 -119 17.5t-84 43.5t-52 61t-28.5 66t-7.5 62v479h149v-470q0 -63 39 -93.5t103 -30.5q131 0 131 119v474h145v-461q0 -46 -12.5 -89t-41 -85t-85.5 -67.5t-137 -25.5zM274 764l43 138h157l-91 -138h-109z" />
    <glyph glyph-name="Ucircumflex" unicode="&#xdb;" horiz-adv-x="647" 
d="M331 -19q-66 0 -119 17.5t-84 43.5t-52 61t-28.5 66t-7.5 62v479h149v-470q0 -63 39 -93.5t103 -30.5q131 0 131 119v474h145v-461q0 -46 -12.5 -89t-41 -85t-85.5 -67.5t-137 -25.5zM277 761l-130 1l121 133h114l118 -134h-129l-40 57h-15z" />
    <glyph glyph-name="Udieresis" unicode="&#xdc;" horiz-adv-x="647" 
d="M331 -19q-66 0 -119 17.5t-84 43.5t-52 61t-28.5 66t-7.5 62v479h149v-470q0 -63 39 -93.5t103 -30.5q131 0 131 119v474h145v-461q0 -46 -12.5 -89t-41 -85t-85.5 -67.5t-137 -25.5zM231 768q-31 0 -52 21t-21 52q0 30 21 51t52 21q30 0 51 -21t21 -51q0 -31 -21 -52
t-51 -21zM424 768q-31 0 -52 21t-21 52q0 30 21 51t52 21q30 0 51 -21t21 -51q0 -31 -21 -52t-51 -21z" />
    <glyph glyph-name="Yacute" unicode="&#xdd;" horiz-adv-x="693" 
d="M279 -6l5 330l-264 386h182l153 -270l144 270h174l-243 -386v-330h-151zM298 764l43 138h157l-91 -138h-109z" />
    <glyph glyph-name="germandbls" unicode="&#xdf;" horiz-adv-x="570" 
d="M242 -11v120q72 -8 114 17.5t42 80.5q0 60 -35.5 86t-111.5 26v117q117 0 117 92q0 31 -24 57t-62 26q-42 0 -75.5 -31t-33.5 -77v-509h-133v506q0 104 68 167t176 63q97 0 151 -52.5t60 -113.5q7 -65 -22.5 -113.5t-72.5 -67.5q39 0 84.5 -50.5t45.5 -125.5
q0 -57 -19 -100t-49.5 -66t-69 -38t-77 -15t-73.5 1z" />
    <glyph glyph-name="agrave" unicode="&#xe0;" horiz-adv-x="531" 
d="M217 -20q-78 0 -123 35t-53 97q-8 78 39 119.5t134 52.5q10 1 29.5 3.5t31 4.5t25.5 4t22.5 5t12.5 6q6 5 8.5 16t0.5 24.5t-15.5 26.5t-37.5 19q-48 12 -82 -8t-43 -67l-117 25q14 84 105 135q40 23 95.5 27.5t108.5 -14.5q130 -49 130 -168l3 -328h-131l-4 57
q-51 -72 -139 -72zM274 85q46 9 68 41.5t16 72.5q-26 -4 -59.5 -6t-53 -3t-38 -5.5t-27 -15.5t-8.5 -30q0 -35 28.5 -49t73.5 -5zM211 587l-91 138h157l43 -138h-109z" />
    <glyph glyph-name="aacute" unicode="&#xe1;" horiz-adv-x="531" 
d="M217 -20q-78 0 -123 35t-53 97q-8 78 39 119.5t134 52.5q10 1 29.5 3.5t31 4.5t25.5 4t22.5 5t12.5 6q6 5 8.5 16t0.5 24.5t-15.5 26.5t-37.5 19q-48 12 -82 -8t-43 -67l-117 25q14 84 105 135q40 23 95.5 27.5t108.5 -14.5q130 -49 130 -168l3 -328h-131l-4 57
q-51 -72 -139 -72zM274 85q46 9 68 41.5t16 72.5q-26 -4 -59.5 -6t-53 -3t-38 -5.5t-27 -15.5t-8.5 -30q0 -35 28.5 -49t73.5 -5zM210 587l43 138h157l-91 -138h-109z" />
    <glyph glyph-name="acircumflex" unicode="&#xe2;" horiz-adv-x="531" 
d="M217 -20q-78 0 -123 35t-53 97q-8 78 39 119.5t134 52.5q10 1 29.5 3.5t31 4.5t25.5 4t22.5 5t12.5 6q6 5 8.5 16t0.5 24.5t-15.5 26.5t-37.5 19q-48 12 -82 -8t-43 -67l-117 25q14 84 105 135q40 23 95.5 27.5t108.5 -14.5q130 -49 130 -168l3 -328h-131l-4 57
q-51 -72 -139 -72zM274 85q46 9 68 41.5t16 72.5q-26 -4 -59.5 -6t-53 -3t-38 -5.5t-27 -15.5t-8.5 -30q0 -35 28.5 -49t73.5 -5zM227 587l-130 1l121 133h114l118 -134h-129l-40 57h-15z" />
    <glyph glyph-name="atilde" unicode="&#xe3;" horiz-adv-x="531" 
d="M217 -20q-78 0 -123 35t-53 97q-8 78 39 119.5t134 52.5q10 1 29.5 3.5t31 4.5t25.5 4t22.5 5t12.5 6q6 5 8.5 16t0.5 24.5t-15.5 26.5t-37.5 19q-48 12 -82 -8t-43 -67l-117 25q14 84 105 135q40 23 95.5 27.5t108.5 -14.5q130 -49 130 -168l3 -328h-131l-4 57
q-51 -72 -139 -72zM274 85q46 9 68 41.5t16 72.5q-26 -4 -59.5 -6t-53 -3t-38 -5.5t-27 -15.5t-8.5 -30q0 -35 28.5 -49t73.5 -5zM86 602q0 61 34 95.5t82 34.5q35 0 74.5 -22t45.5 -22q29 0 29 30h93q0 -60 -34 -95t-84 -35q-31 0 -71.5 22t-52.5 22q-24 0 -24 -30h-92z
" />
    <glyph glyph-name="adieresis" unicode="&#xe4;" horiz-adv-x="531" 
d="M217 -20q-78 0 -123 35t-53 97q-8 78 39 119.5t134 52.5q10 1 29.5 3.5t31 4.5t25.5 4t22.5 5t12.5 6q6 5 8.5 16t0.5 24.5t-15.5 26.5t-37.5 19q-48 12 -82 -8t-43 -67l-117 25q14 84 105 135q40 23 95.5 27.5t108.5 -14.5q130 -49 130 -168l3 -328h-131l-4 57
q-51 -72 -139 -72zM274 85q46 9 68 41.5t16 72.5q-26 -4 -59.5 -6t-53 -3t-38 -5.5t-27 -15.5t-8.5 -30q0 -35 28.5 -49t73.5 -5zM177 587q-31 0 -52 21t-21 52q0 30 21 51t52 21q30 0 51 -21t21 -51q0 -31 -21 -52t-51 -21zM370 587q-31 0 -52 21t-21 52q0 30 21 51t52 21
q30 0 51 -21t21 -51q0 -31 -21 -52t-51 -21z" />
    <glyph glyph-name="aring" unicode="&#xe5;" horiz-adv-x="531" 
d="M217 -20q-78 0 -123 35t-53 97q-8 78 39 119.5t134 52.5q10 1 29.5 3.5t31 4.5t25.5 4t22.5 5t12.5 6q6 5 8.5 16t0.5 24.5t-15.5 26.5t-37.5 19q-48 12 -82 -8t-43 -67l-117 25q14 84 105 135q40 23 95.5 27.5t108.5 -14.5q130 -49 130 -168l3 -328h-131l-4 57
q-51 -72 -139 -72zM274 85q46 9 68 41.5t16 72.5q-26 -4 -59.5 -6t-53 -3t-38 -5.5t-27 -15.5t-8.5 -30q0 -35 28.5 -49t73.5 -5zM268 563q-44 0 -76.5 32t-32.5 76q0 45 32 76.5t77 31.5t77 -31.5t32 -76.5q0 -44 -32.5 -76t-76.5 -32zM270 636q14 0 24.5 10.5t10.5 25.5
q0 14 -10.5 24.5t-24.5 10.5t-25 -10.5t-11 -24.5q0 -15 11 -25.5t25 -10.5z" />
    <glyph glyph-name="ae" unicode="&#xe6;" horiz-adv-x="908" 
d="M217 -20q-78 0 -123 35t-53 97q-8 78 39 120t134 52q109 13 121 23q6 5 8.5 16t0.5 24.5t-15.5 26.5t-37.5 19q-48 12 -82 -8t-43 -67l-117 25q14 84 105 135q40 23 95.5 27.5t108.5 -14.5q50 -19 81 -50q72 63 182 63q111 0 183.5 -73t62.5 -222l-373 -4q0 -35 31.5 -70
t87.5 -38q83 -6 120 66l123 -38q-22 -54 -83 -96.5t-150 -42.5q-122 0 -197 80q-39 -39 -84 -60t-68 -23.5t-57 -2.5zM274 85q46 9 68 41.5t16 72.5q-26 -4 -59.5 -6t-53 -3t-38 -5.5t-27 -15.5t-8.5 -30q0 -35 28.5 -49t73.5 -5zM494 304l235 1q0 38 -36.5 67.5t-91.5 25.5
q-38 -2 -70.5 -28t-36.5 -66z" />
    <glyph glyph-name="ccedilla" unicode="&#xe7;" horiz-adv-x="567" 
d="M299 -246q-61 0 -95 65l64 28q10 -29 35 -29q13 0 23.5 9t10.5 25q0 15 -10.5 24.5t-23.5 9.5q-18 0 -27 -14l-62 28l33 78q-94 15 -155.5 87t-61.5 183q0 107 78.5 184.5t176.5 78.5q100 1 161.5 -49.5t85.5 -123.5l-126 -34q-46 84 -124 75q-55 -6 -87 -46t-31 -86
q1 -58 33 -98t88 -44q40 -3 74.5 19.5t47.5 58.5l130 -38q-25 -75 -85.5 -120t-139.5 -50l-14 -30q41 10 76 -16.5t35 -75.5t-31 -74t-79 -25z" />
    <glyph glyph-name="egrave" unicode="&#xe8;" horiz-adv-x="590" 
d="M40 244q0 -110 73.5 -184t191.5 -74q89 0 150 42.5t83 96.5l-123 38q-37 -72 -120 -66q-56 3 -87.5 38t-31.5 70l373 4q10 149 -62.5 222t-183.5 73q-109 0 -186 -67t-77 -193zM176 304q4 40 36.5 66t70.5 28q55 4 91.5 -25.5t36.5 -67.5zM359 587h-109l-91 138h157z" />
    <glyph glyph-name="eacute" unicode="&#xe9;" horiz-adv-x="590" 
d="M40 244q0 -110 73.5 -184t191.5 -74q89 0 150 42.5t83 96.5l-123 38q-37 -72 -120 -66q-56 3 -87.5 38t-31.5 70l373 4q10 149 -62.5 222t-183.5 73q-109 0 -186 -67t-77 -193zM176 304q4 40 36.5 66t70.5 28q55 4 91.5 -25.5t36.5 -67.5zM249 587l43 138h157l-91 -138
h-109z" />
    <glyph glyph-name="ecircumflex" unicode="&#xea;" horiz-adv-x="590" 
d="M40 244q0 -110 73.5 -184t191.5 -74q89 0 150 42.5t83 96.5l-123 38q-37 -72 -120 -66q-56 3 -87.5 38t-31.5 70l373 4q10 149 -62.5 222t-183.5 73q-109 0 -186 -67t-77 -193zM176 304q4 40 36.5 66t70.5 28q55 4 91.5 -25.5t36.5 -67.5zM249 587l-130 1l121 133h114
l118 -134h-129l-40 57h-15z" />
    <glyph glyph-name="edieresis" unicode="&#xeb;" horiz-adv-x="590" 
d="M40 244q0 -110 73.5 -184t191.5 -74q89 0 150 42.5t83 96.5l-123 38q-37 -72 -120 -66q-56 3 -87.5 38t-31.5 70l373 4q10 149 -62.5 222t-183.5 73q-109 0 -186 -67t-77 -193zM176 304q4 40 36.5 66t70.5 28q55 4 91.5 -25.5t36.5 -67.5zM205 587q-31 0 -52 21t-21 52
q0 30 21 51t52 21q30 0 51 -21t21 -51q0 -31 -21 -52t-51 -21zM398 587q-31 0 -52 21t-21 52q0 30 21 51t52 21q30 0 51 -21t21 -51q0 -31 -21 -52t-51 -21z" />
    <glyph glyph-name="igrave" unicode="&#xec;" horiz-adv-x="284" 
d="M244 493v-500h-139v500h139zM240 587h-109l-91 138h157z" />
    <glyph glyph-name="iacute" unicode="&#xed;" horiz-adv-x="287" 
d="M179 493v-500h-139v500h139zM47 587l43 138h157l-91 -138h-109z" />
    <glyph glyph-name="icircumflex" unicode="&#xee;" horiz-adv-x="433" 
d="M285 493v-500h-139v500h139zM170 587l-130 1l121 133h114l118 -134h-129l-40 57h-15z" />
    <glyph glyph-name="idieresis" unicode="&#xef;" horiz-adv-x="418" 
d="M279 493v-500h-139v500h139zM113 587q-31 0 -52 21t-21 52q0 30 21 51t52 21q30 0 51 -21t21 -51q0 -31 -21 -52t-51 -21zM306 587q-31 0 -52 21t-21 52q0 30 21 51t52 21q30 0 51 -21t21 -51q0 -31 -21 -52t-51 -21z" />
    <glyph glyph-name="ntilde" unicode="&#xf1;" horiz-adv-x="549" 
d="M40 488h128v-70q52 75 127 84q73 9 122 -18t70 -70q22 -47 22 -159v-260h-135v266q0 66 -22 94t-79 28q-37 0 -67.5 -37t-30.5 -104v-247h-135v493zM87 603q0 61 34 95.5t82 34.5q35 0 74.5 -22t45.5 -22q29 0 29 30h93q-1 -60 -35 -95t-83 -35q-31 0 -71.5 22t-52.5 22
q-24 0 -24 -30h-92z" />
    <glyph glyph-name="ograve" unicode="&#xf2;" horiz-adv-x="605" 
d="M40 245q0 109 76 185t187 76q110 0 186 -76t76 -185t-76 -188t-186 -79q-111 0 -187 79t-76 188zM172 244q0 -65 39 -104t93 -39t92.5 39t38.5 104q0 61 -39 101t-92 40t-92.5 -40t-39.5 -101zM356 587h-109l-91 138h157z" />
    <glyph glyph-name="oacute" unicode="&#xf3;" horiz-adv-x="605" 
d="M40 245q0 109 76 185t187 76q110 0 186 -76t76 -185t-76 -188t-186 -79q-111 0 -187 79t-76 188zM172 244q0 -65 39 -104t93 -39t92.5 39t38.5 104q0 61 -39 101t-92 40t-92.5 -40t-39.5 -101zM246 587l43 138h157l-91 -138h-109z" />
    <glyph glyph-name="ocircumflex" unicode="&#xf4;" horiz-adv-x="605" 
d="M40 245q0 109 76 185t187 76q110 0 186 -76t76 -185t-76 -188t-186 -79q-111 0 -187 79t-76 188zM172 244q0 -65 39 -104t93 -39t92.5 39t38.5 104q0 61 -39 101t-92 40t-92.5 -40t-39.5 -101zM253 587l-130 1l121 133h114l118 -134h-129l-40 57h-15z" />
    <glyph glyph-name="otilde" unicode="&#xf5;" horiz-adv-x="605" 
d="M40 245q0 109 76 185t187 76q110 0 186 -76t76 -185t-76 -188t-186 -79q-111 0 -187 79t-76 188zM172 244q0 -65 39 -104t93 -39t92.5 39t38.5 104q0 61 -39 101t-92 40t-92.5 -40t-39.5 -101zM127 603q0 61 34 95.5t82 34.5q35 0 74.5 -22t45.5 -22q29 0 29 30h93
q0 -60 -34 -95t-84 -35q-31 0 -71.5 22t-52.5 22q-24 0 -24 -30h-92z" />
    <glyph glyph-name="odieresis" unicode="&#xf6;" horiz-adv-x="605" 
d="M40 245q0 109 76 185t187 76q110 0 186 -76t76 -185t-76 -188t-186 -79q-111 0 -187 79t-76 188zM172 244q0 -65 39 -104t93 -39t92.5 39t38.5 104q0 61 -39 101t-92 40t-92.5 -40t-39.5 -101zM204 587q-31 0 -52 21t-21 52q0 30 21 51t52 21q30 0 51 -21t21 -51
q0 -31 -21 -52t-51 -21zM397 587q-31 0 -52 21t-21 52q0 30 21 51t52 21q30 0 51 -21t21 -51q0 -31 -21 -52t-51 -21z" />
    <glyph glyph-name="oslash" unicode="&#xf8;" horiz-adv-x="605" 
d="M40 245q0 109 76 185t187 76q45 0 87 -14l27 43l98 -57l-28 -46q78 -76 78 -187q0 -109 -76 -188t-186 -79q-46 0 -91 16l-28 -45l-96 54l31 51q-79 79 -79 191zM172 244q0 -42 18 -76l133 215q-12 2 -19 2q-53 0 -92.5 -40t-39.5 -101zM280 103q16 -2 24 -2
q54 0 92.5 39t38.5 104q0 42 -19 75z" />
    <glyph glyph-name="ugrave" unicode="&#xf9;" horiz-adv-x="552" 
d="M376 56q-10 -26 -52.5 -50.5t-103.5 -24.5q-46 0 -81 17t-53.5 41t-29.5 54.5t-13.5 51t-2.5 38.5v307h141v-294q0 -37 22.5 -65t66.5 -28q45 0 73.5 26.5t28.5 60.5v301h140v-496h-131zM328 587h-109l-91 138h157z" />
    <glyph glyph-name="uacute" unicode="&#xfa;" horiz-adv-x="552" 
d="M376 56q-10 -26 -52.5 -50.5t-103.5 -24.5q-46 0 -81 17t-53.5 41t-29.5 54.5t-13.5 51t-2.5 38.5v307h141v-294q0 -37 22.5 -65t66.5 -28q45 0 73.5 26.5t28.5 60.5v301h140v-496h-131zM218 587l43 138h157l-91 -138h-109z" />
    <glyph glyph-name="ucircumflex" unicode="&#xfb;" horiz-adv-x="552" 
d="M220 -19q-46 0 -81 17t-53.5 41t-29.5 54.5t-13.5 51t-2.5 38.5v307h141v-294q0 -37 22.5 -65t66.5 -28q45 0 73.5 26.5t28.5 60.5v301h140v-496h-131l-5 61q-10 -26 -52.5 -50.5t-103.5 -24.5zM228 587l-130 1l121 133h114l118 -134h-129l-40 57h-15z" />
    <glyph glyph-name="udieresis" unicode="&#xfc;" horiz-adv-x="552" 
d="M376 56q-10 -26 -52.5 -50.5t-103.5 -24.5q-46 0 -81 17t-53.5 41t-29.5 54.5t-13.5 51t-2.5 38.5v307h141v-294q0 -37 22.5 -65t66.5 -28q45 0 73.5 26.5t28.5 60.5v301h140v-496h-131zM177 587q-31 0 -52 21t-21 52q0 30 21 51t52 21q30 0 51 -21t21 -51q0 -31 -21 -52
t-51 -21zM370 587q-31 0 -52 21t-21 52q0 30 21 51t52 21q30 0 51 -21t21 -51q0 -31 -21 -52t-51 -21z" />
    <glyph glyph-name="yacute" unicode="&#xfd;" horiz-adv-x="584" 
d="M111 -226l114 243l-205 473l144 -1l133 -305l123 305h144l-309 -715h-144zM239 587l43 138h157l-91 -138h-109z" />
    <glyph glyph-name="ydieresis" unicode="&#xff;" horiz-adv-x="584" 
d="M111 -226l114 243l-205 473l144 -1l133 -305l123 305h144l-309 -715h-144zM196 587q-31 0 -52 21t-21 52q0 30 21 51t52 21q30 0 51 -21t21 -51q0 -31 -21 -52t-51 -21zM389 587q-31 0 -52 21t-21 52q0 30 21 51t52 21q30 0 51 -21t21 -51q0 -31 -21 -52t-51 -21z" />
    <glyph glyph-name="dotlessi" unicode="&#x131;" horiz-adv-x="219" 
d="M179 493v-500h-139v500h139z" />
    <glyph glyph-name="OE" unicode="&#x152;" horiz-adv-x="1126" 
d="M40 353q0 157 108 268t261 111q123 0 222 -77v55h453v-131h-308v-157h276v-129h-277v-169h311v-128h-455v55q-99 -77 -222 -77q-153 0 -261 111t-108 268zM185 352q0 -97 67 -168t161 -71t161 71t67 168q0 98 -67 169t-161 71t-161 -71t-67 -169z" />
    <glyph glyph-name="oe" unicode="&#x153;" horiz-adv-x="985" 
d="M303 -22q-111 0 -187 79t-76 188t76 185t187 76q116 0 194 -84q73 82 201 82q111 0 183.5 -73t62.5 -222l-373 -4q0 -35 31.5 -70t87.5 -38q83 -6 120 66l123 -38q-22 -54 -83 -96.5t-150 -42.5q-124 0 -200 83q-78 -91 -197 -91zM304 101q54 0 92.5 39t38.5 104
q0 61 -39 101t-92 40t-92.5 -40t-39.5 -101q0 -65 39 -104t93 -39zM571 304l235 1q0 38 -36.5 67.5t-91.5 25.5q-38 -2 -70.5 -28t-36.5 -66z" />
    <glyph glyph-name="Scaron" unicode="&#x160;" horiz-adv-x="600" 
d="M318 -19q-103 -5 -183 50t-95 153l128 49q14 -54 47 -86.5t73 -38.5q49 -8 88.5 12.5t44.5 65.5q6 49 -41 81t-158 69q-71 23 -114.5 79.5t-39.5 122.5q3 63 47 116.5t119 70.5q39 11 84.5 7t86 -18t76 -48.5t53.5 -84.5l-121 -51q-18 50 -62 68.5t-96 1.5
q-64 -21 -53 -86q7 -39 90 -70q71 -26 113 -46t80.5 -48.5t56 -65t18.5 -85.5q2 -96 -68 -154t-174 -64zM240 761l-121 133l130 1l39 -57h15l40 57h129l-118 -134h-114z" />
    <glyph glyph-name="scaron" unicode="&#x161;" horiz-adv-x="518" 
d="M265 -21q-91 0 -146.5 41.5t-78.5 98.5l118 51q9 -25 31.5 -46t51.5 -27q33 -7 67.5 3.5t37.5 36.5q2 20 -18 34.5t-45 20.5t-60 12.5t-48 10.5q-48 15 -82 51.5t-34 78.5q0 59 48.5 109t130.5 60q64 8 134.5 -25.5t95.5 -99.5l-114 -47q-11 28 -39.5 42t-53.5 14
q-28 0 -50.5 -11t-22.5 -29q0 -25 38 -39q14 -5 111 -28q141 -34 141 -157q0 -58 -56.5 -106.5t-156.5 -48.5zM203 587l-121 133l130 1l39 -57h15l40 57h129l-118 -134h-114z" />
    <glyph glyph-name="Ydieresis" unicode="&#x178;" horiz-adv-x="693" 
d="M279 -6l5 330l-264 386h182l153 -270l144 270h174l-243 -386v-330h-151zM254 768q-31 0 -52 21t-21 52q0 30 21 51t52 21q30 0 51 -21t21 -51q0 -31 -21 -52t-51 -21zM447 768q-31 0 -52 21t-21 52q0 30 21 51t52 21q30 0 51 -21t21 -51q0 -31 -21 -52t-51 -21z" />
    <glyph glyph-name="zcaron" unicode="&#x17e;" horiz-adv-x="497" 
d="M40 -6v108l250 273h-240v115h405v-111l-256 -270h258v-115h-417zM205 721l39 -57h15l40 57h129l-118 -134h-114l-121 133z" />
    <glyph glyph-name="endash" unicode="&#x2013;" horiz-adv-x="583" 
d="M40 249v118h503v-118h-503z" />
    <glyph glyph-name="emdash" unicode="&#x2014;" horiz-adv-x="841" 
d="M40 249v114h761v-114h-761z" />
    <glyph glyph-name="quoteleft" unicode="&#x2018;" horiz-adv-x="257" 
d="M128 445q-36 0 -62 26t-26 62q0 31 19 55l98 144l55 -38l-50 -79q24 -10 39.5 -32.5t15.5 -49.5q0 -36 -26 -62t-63 -26z" />
    <glyph glyph-name="quoteright" unicode="&#x2019;" horiz-adv-x="257" 
d="M100 445l-55 38l50 79q-24 10 -39.5 32.5t-15.5 49.5q0 36 26 62t63 26q36 0 62 -26t26 -62q0 -31 -19 -55z" />
    <glyph glyph-name="quotesinglbase" unicode="&#x201a;" horiz-adv-x="257" 
d="M100 -121l-55 38l50 79q-24 10 -39.5 32.5t-15.5 49.5q0 36 26 62t63 26q36 0 62 -26t26 -62q0 -31 -19 -55z" />
    <glyph glyph-name="quotedblleft" unicode="&#x201c;" horiz-adv-x="477" 
d="M348 445q-36 0 -62 26t-26 62q0 31 19 55l98 144l55 -38l-50 -79q24 -10 39.5 -32.5t15.5 -49.5q0 -36 -26 -62t-63 -26zM128 445q-36 0 -62 26t-26 62q0 31 19 55l98 144l55 -38l-50 -79q24 -10 39.5 -32.5t15.5 -49.5q0 -36 -26 -62t-63 -26z" />
    <glyph glyph-name="quotedblright" unicode="&#x201d;" horiz-adv-x="478" 
d="M321 445l-55 38l50 79q-24 10 -39.5 32.5t-15.5 49.5q0 36 26 62t63 26q36 0 62 -26t26 -62q0 -31 -19 -55zM100 445l-55 38l50 79q-24 10 -39.5 32.5t-15.5 49.5q0 36 26 62t63 26q36 0 62 -26t26 -62q0 -31 -19 -55z" />
    <glyph glyph-name="quotedblbase" unicode="&#x201e;" horiz-adv-x="478" 
d="M321 -121l-55 38l50 79q-24 10 -39.5 32.5t-15.5 49.5q0 36 26 62t63 26q36 0 62 -26t26 -62q0 -31 -19 -55zM100 -121l-55 38l50 79q-24 10 -39.5 32.5t-15.5 49.5q0 36 26 62t63 26q36 0 62 -26t26 -62q0 -31 -19 -55z" />
    <glyph glyph-name="dagger" unicode="&#x2020;" horiz-adv-x="439" 
d="M275 159h-111v301h-124v107h123v144h111v-144h125v-107h-124v-301z" />
    <glyph glyph-name="bullet" unicode="&#x2022;" horiz-adv-x="344" 
d="M172 191q-55 0 -93.5 38.5t-38.5 93.5q0 54 38.5 92.5t93.5 38.5t93.5 -38.5t38.5 -92.5q0 -55 -38.5 -93.5t-93.5 -38.5z" />
    <glyph glyph-name="ellipsis" unicode="&#x2026;" horiz-adv-x="747" 
d="M129 -10q-37 0 -63 26t-26 63q0 36 26 62t63 26q36 0 62 -26t26 -62q0 -37 -26 -63t-62 -26zM372 -10q-37 0 -63 26t-26 63q0 36 26 62t63 26q36 0 62 -26t26 -62q0 -37 -26 -63t-62 -26zM619 -10q-37 0 -63 26t-26 63q0 36 26 62t63 26q36 0 62 -26t26 -62
q0 -37 -26 -63t-62 -26z" />
    <glyph glyph-name="guilsinglleft" unicode="&#x2039;" horiz-adv-x="369" 
d="M254 36l-214 231l214 233l75 -70l-151 -163l151 -162z" />
    <glyph glyph-name="guilsinglright" unicode="&#x203a;" horiz-adv-x="369" 
d="M115 36l-75 69l151 162l-151 163l75 70l214 -233z" />
    <glyph glyph-name="Euro" unicode="&#x20ac;" horiz-adv-x="668" 
d="M40 207v100h60q-1 10 -1 31t1 32h-60v100h84q39 101 127 163.5t197 62.5q90 0 167 -44l-63 -100q-46 24 -98 24q-57 0 -106 -28.5t-81 -77.5h196l-20 -100h-212q-2 -20 -2 -31q0 -12 2 -32h202l-20 -100h-145q32 -48 81 -76t105 -28q66 0 121 38l53 -110
q-84 -52 -180 -52q-109 0 -197.5 63.5t-127.5 164.5h-83z" />
    </font>
</defs>
</svg>
